<?xml version="1.0" encoding="UTF-8"?>
<!DOCTYPE svg PUBLIC "-//W3C//DTD SVG 1.1//EN" "http://www.w3.org/Graphics/SVG/1.1/DTD/svg11.dtd">
<!-- Creator: CorelDRAW -->
<svg xmlns="http://www.w3.org/2000/svg" xml:space="preserve" width="31.3062mm" height="2.702mm" version="1.1" style="shape-rendering:geometricPrecision; text-rendering:geometricPrecision; image-rendering:optimizeQuality; fill-rule:evenodd; clip-rule:evenodd"
viewBox="0 0 1020.07 88.04"
 xmlns:xlink="http://www.w3.org/1999/xlink"
 xmlns:xodm="http://www.corel.com/coreldraw/odm/2003">
 <defs>
  <style type="text/css">
   <![CDATA[
    .fil0 {fill:#121F38;fill-rule:nonzero}
   ]]>
  </style>
 </defs>
 <g id="Layer_x0020_1">
  <metadata id="CorelCorpID_0Corel-Layer"/>
  <g id="_1675003188544">
   <g>
    <path class="fil0" d="M504.81 64.49c0,0 -11.15,-8.91 -9.86,-24.52 1.24,-15.01 -6.72,-22.6 -16.34,-21.63 -9.62,0.96 -9.46,8.73 -9.46,8.73 0,0 -0.8,7.85 8.5,7.85 0,0 -4.97,-1.28 -4.33,-6.24 0.64,-4.97 7.94,-6.08 11.38,-2.4 8.97,9.6 -2.4,27.22 20.11,38.2z"/>
    <path class="fil0" d="M508.42 59.89c0,0 14.79,-16.63 0,-35.57 -14.8,18.94 0,35.57 0,35.57z"/>
    <path class="fil0" d="M496.16 74.34c3.56,0.92 6.31,-0.45 8.29,-2.35 -3.52,9.05 3.96,16.05 3.96,16.05 0,0 7.48,-7.01 3.97,-16.05 1.98,1.9 4.72,3.27 8.29,2.35 8.41,-2.17 6.72,-17.55 6.72,-17.55 -6.24,19.24 -18.99,9.14 -18.99,9.14 0,0 -12.74,10.1 -18.99,-9.14 0.01,0 -1.67,15.38 6.75,17.55z"/>
    <path class="fil0" d="M512.02 64.49c0,0 11.14,-8.91 9.85,-24.52 -1.23,-15.01 6.74,-22.6 16.34,-21.63 9.62,0.96 9.45,8.73 9.45,8.73 0,0 0.81,7.85 -8.49,7.85 0,0 4.97,-1.28 4.33,-6.24 -0.65,-4.97 -7.95,-6.08 -11.38,-2.4 -8.97,9.6 2.41,27.22 -20.1,38.2z"/>
    <path class="fil0" d="M499.93 29.48c0.96,-5.29 6.56,-8.65 8.49,-12.82 1.93,4.17 7.53,7.53 8.49,12.82 0,0 2.72,-6.41 -1.92,-14.1 -4.34,-7.19 -6.57,-15.38 -6.57,-15.38 0,0 -2.23,8.18 -6.57,15.38 -4.65,7.69 -1.92,14.1 -1.92,14.1z"/>
   </g>
   <path class="fil0" d="M485.75 37.41l-485.75 7.82 489.04 7.81c-2.2,-4.12 -4.43,-8.67 -3.29,-15.63z"/>
   <path class="fil0" d="M1020.07 45.23l-487.44 -7.82c0.53,2.21 -2.61,13.18 -4.56,15.63l491.99 -7.81z"/>
  </g>
 </g>
</svg>
