<?xml version="1.0" encoding="UTF-8"?>
<!DOCTYPE svg PUBLIC "-//W3C//DTD SVG 1.1//EN" "http://www.w3.org/Graphics/SVG/1.1/DTD/svg11.dtd">
<!-- Creator: CorelDRAW -->
<svg xmlns="http://www.w3.org/2000/svg" xml:space="preserve" width="77.3011mm" height="12.58mm" version="1.1" style="shape-rendering:geometricPrecision; text-rendering:geometricPrecision; image-rendering:optimizeQuality; fill-rule:evenodd; clip-rule:evenodd"
viewBox="0 0 6263.2 1019.28"
 xmlns:xlink="http://www.w3.org/1999/xlink"
 xmlns:xodm="http://www.corel.com/coreldraw/odm/2003">
 <defs>
  <style type="text/css">
   <![CDATA[
    .fil0 {fill:#121F38;fill-rule:nonzero}
   ]]>
  </style>
 </defs>
 <g id="Layer_x0020_1">
  <metadata id="CorelCorpID_0Corel-Layer"/>
  <g id="_1717364738608">
   <path class="fil0" d="M3168.75 354.12c0,0 114.95,91.84 101.68,252.86 -12.75,154.75 69.41,232.98 168.55,223.08 99.19,-9.9 97.52,-90.08 97.52,-90.08 0,0 8.26,-80.95 -87.62,-80.95 0,0 51.21,13.21 44.64,64.46 -6.63,51.19 -81.91,62.73 -117.31,24.79 -92.57,-99.17 24.74,-280.97 -207.45,-394.15z"/>
   <path class="fil0" d="M4682.51 464.85c0,0 4.55,8.32 9.76,24.01 5.08,15.69 11.21,38.97 11.92,67.85 1.05,28.64 -3.71,63.29 -19.59,96.47 -7.87,16.55 -18.03,32.86 -30.72,47.29 -12.56,14.68 -27.27,27.89 -43.78,38.71 -16.57,10.72 -34.86,18.85 -53.68,23.86 -18.78,5.06 -38.31,6.51 -56.87,4.68 -18.59,-1.85 -36.36,-7.54 -51.09,-16.79 -14.84,-9.09 -26.18,-22.04 -32.73,-35.59 -6.75,-13.55 -8.77,-27.44 -8.66,-39.23 0.02,-11.89 2.15,-21.97 4.35,-29.97 2.16,-8.08 4.8,-14.04 6.43,-18.13 1.82,-4.03 2.81,-6.17 2.81,-6.17 0,0 -0.6,2.23 -1.76,6.51 -1.05,4.25 -2.53,10.55 -3.66,18.55 -1.09,8.02 -1.63,17.88 -0.6,28.81 1.09,10.93 4.35,23.03 11.11,34.22 6.71,11.19 17.1,21.16 30.21,28.24 13.08,7.14 28.77,11.04 45.11,12.18 16.46,1.16 33.63,-1.16 50.36,-5.74 16.8,-4.74 33.1,-12.22 47.93,-22 14.94,-9.6 28.51,-21.48 40.16,-34.69 11.64,-13.27 21.78,-27.51 29.48,-42.46 7.67,-14.94 13.53,-30.25 17.32,-45.34 3.71,-15.14 5.74,-29.87 6.56,-43.56 1.55,-27.46 -1.48,-50.68 -4.38,-66.67 -3.07,-16.08 -5.99,-25.02 -5.99,-25.02z"/>
   <path class="fil0" d="M4673.44 581.32c0,0 -0.15,1.24 -0.45,3.62 -0.47,2.29 -0.53,5.81 -1.63,10.1 -1.03,4.35 -2.23,9.65 -4.29,15.54 -1.93,5.91 -4.55,12.44 -8.08,19.25 -1.76,3.43 -3.61,6.94 -5.81,10.46 -2.08,3.58 -4.38,7.23 -7.01,10.78 -4.93,7.29 -10.85,14.51 -17.43,21.54 -6.71,6.9 -13.87,13.87 -21.93,20.02 -7.87,6.37 -16.5,12.02 -25.38,17.3 -8.96,5.06 -18.33,9.3 -27.91,12.95 -9.59,3.43 -19.45,5.81 -29.15,7.16 -9.69,1.22 -19.34,0.99 -28.25,-0.64 -8.99,-1.72 -17.04,-5.3 -23.63,-9.69 -6.63,-4.48 -11.25,-10.27 -14.62,-15.67 -3.18,-5.44 -5.21,-10.52 -6.38,-14.84 -1.55,-4.22 -1.69,-7.8 -2.15,-10.1 -0.41,-2.33 -0.6,-3.56 -0.6,-3.56 0,0 0.39,1.18 1.12,3.45 0.77,2.21 1.55,5.6 3.39,9.52 1.6,4.03 4.16,8.7 7.7,13.42 3.69,4.68 8.44,9.41 14.62,13.05 6.2,3.54 13.48,6.24 21.71,7.23 8.19,0.92 16.92,0.47 25.9,-0.83 17.9,-3.11 36.38,-10.29 53.42,-20.11 34.22,-19.45 62.47,-48.62 77.54,-74.18 2.03,-3.13 3.65,-6.26 5.21,-9.26 1.67,-2.98 3.18,-5.83 4.35,-8.64 2.66,-5.51 4.35,-10.46 5.81,-14.58 1.5,-4.12 2.21,-7.54 2.98,-9.82 0.65,-2.25 0.96,-3.49 0.96,-3.49z"/>
   <path class="fil0" d="M3361.32 523.53c0,0 5.91,2.55 17.19,6.77 11.25,4.31 28.04,9.82 49.56,16.25 42.88,12.56 105.99,27.14 182.2,27.98 9.43,-0.17 19.15,-0.34 29.02,-0.53 9.84,-0.58 19.83,-1.63 29.99,-2.36 10.14,-1.48 20.47,-2.98 30.98,-4.48 10.01,-2.46 20.22,-4.25 30.44,-7.27 10.16,-3.3 20.69,-6.11 30.63,-10.55 10.27,-3.73 19.96,-8.94 29.8,-14 19.21,-10.99 37.67,-24.12 53.55,-40.34 31.81,-32.2 52.78,-77.09 48.64,-123.8 -2.23,-46.18 -28.58,-90.88 -70.85,-111.26 -20.54,-10.98 -44.09,-16.5 -67.74,-17.43 -2.72,-0.02 -6.5,-0.47 -8.34,-0.21l-9.56 0.41c-6.77,0.06 -12.05,1.12 -17.56,1.95 -11.12,1.6 -22.48,5.19 -32.97,9.41 -20.88,9.09 -38.71,23.8 -51.32,41.91 -6.07,9.2 -10.93,19.15 -14.2,29.54 -2.75,10.42 -4.8,21.14 -4.22,31.69 -0.21,2.68 0.45,5.25 0.66,7.83l0.45 3.91 0.02 0.47c-0.02,-0.13 0.19,0.92 -0.02,-0.13l0.21 1.09 0.47 2.16 2.02 8.77c0.77,2.62 1.69,4.8 2.46,7.23 3.45,9.52 8.27,19.28 14.58,27.27 12.22,16.63 30.04,28.17 49.05,34.62 19.34,6.07 39.23,7.61 58.68,3.69 16.4,-3.88 33.55,-14.11 40.03,-29.14 2.1,-3.56 2.93,-7.54 4.03,-11.42 0.13,-0.32 0.39,-1.37 0.34,-1.05l0.17 -1.76 0.41 -3.52c0.21,-2.23 0,-3.71 0.09,-5.66 -0.26,-7.83 -2.93,-15.26 -6.97,-21.58 -8.13,-12.88 -22.83,-20.43 -36.77,-21.03l-2.62 -0.13c-0.21,-0.09 -1.69,0.09 -2.53,0.13 -1.86,0.15 -4.01,0.19 -5.4,0.58 -3.06,0.52 -6.3,1.48 -9.24,2.79 -5.91,2.62 -10.81,6.84 -14.2,11.85 -6.77,10.03 -8.19,23.04 -3.3,31.9 5.02,8.27 14.75,13.12 22.77,14.43 8.26,1.6 15.67,0.09 20.75,-2.79 5.27,-2.72 7.89,-6.69 9.59,-9.17 1.48,-2.79 2.21,-4.22 2.21,-4.22 0,0 -0.64,1.5 -1.76,4.38 -1.55,2.68 -3.91,7.03 -9.22,10.42 -5.08,3.48 -12.99,5.85 -22.06,4.89 -8.99,-0.83 -19.92,-4.5 -27.38,-15.22 -6.64,-10.65 -6.04,-26.15 1.42,-39.01 3.78,-6.45 9.59,-12.24 16.89,-16.08 3.65,-1.93 7.5,-3.36 11.89,-4.35 2.23,-0.64 3.92,-0.73 5.91,-1.05 1.12,-0.09 1.55,-0.28 3.24,-0.39l3.24 -0.02c17.23,-0.32 36.29,7.59 48.34,23.88 6,8.02 10.01,18.07 10.93,28.68 0.13,2.72 0.34,5.87 0.19,8.27l-0.21 3.49 -0.13 1.76c-0.17,1.5 -0.3,1.56 -0.41,2.4 -1.12,5.34 -2.21,10.78 -4.68,15.76 -1.82,5.32 -5.47,9.71 -8.53,14.51 -3.84,4.03 -7.41,8.7 -12.22,11.84 -8.83,7.4 -19.66,11.71 -31.47,15.28 -21.22,5.21 -45.6,4.42 -68.64,-2.12 -22.98,-6.9 -45.55,-20.34 -61.74,-40.73 -8.39,-9.97 -14.58,-21.35 -19.32,-34 -1.12,-3.19 -2.4,-6.56 -3.32,-9.63l-2.21 -8.66 -0.52 -2.16 -0.28 -1.05c-0.34,-1.43 -0.15,-0.79 -0.26,-1.24l-0.11 -0.64 -0.7 -5.06c-0.32,-3.32 -1.09,-6.75 -1.03,-10.1 -0.96,-13.61 1.18,-27.18 4.55,-40.39 3.73,-13.14 9.56,-25.64 16.96,-37.32 15.05,-23.04 37.37,-41.78 62.9,-52.95 12.97,-5.36 25.94,-9.59 40.09,-11.77 7.1,-1.12 14.38,-2.29 20.47,-2.29l9.59 -0.52c4.55,-0.32 7.16,0.09 10.85,0.13 27.51,0.96 55.41,7.1 80.39,20.28 12.67,6.24 24.07,14.86 34.79,24.14 10.03,9.95 19.79,20.52 26.82,32.84 15.14,24.01 22.6,51.9 24.23,79.32l0.39 9.46 0.13 2.36 0.04 1.18 0.02 1.3 -0.02 0.64 -0.32 5.21 -0.6 10.42 -1.76 10.2c-2.27,13.55 -6.77,26.43 -11.98,38.76 -10.72,24.59 -26.43,46.13 -44.68,63.97 -18.29,17.95 -39.01,32.29 -60.56,43.54 -10.99,5.21 -21.8,10.42 -33.03,14.11 -10.91,4.48 -22.21,7.16 -33.23,10.23 -11.11,2.92 -22.51,4.55 -33.45,6.75 -10.87,1.12 -20.77,2.42 -31.94,3.32 -10.65,0.34 -21.07,0.92 -31.28,1.03 -10.2,-0.28 -20.22,-0.53 -30.01,-0.79 -39.21,-1.97 -74.61,-8.4 -105.28,-15.82 -30.76,-7.41 -56.92,-15.95 -78.2,-23.69 -21.27,-7.67 -37.41,-15.09 -48.34,-20.24 -10.95,-5.14 -16.61,-8.21 -16.61,-8.21z"/>
   <path class="fil0" d="M3361.32 533.69c0,0 7.4,7.54 22.79,19.79 15.41,12.31 38.95,29.09 70.96,46.84 31.96,17.62 72.85,35.39 121.76,48.02 48.86,12.54 105.73,18.09 167.4,12.91 61.08,-5.12 125.93,-23.73 187.6,-56.87 30.91,-16.57 61.08,-36.61 90.71,-59.15 29.67,-22.6 58.99,-47.36 89.12,-72.8 30.12,-25.45 61.01,-51.79 94.51,-76.62 33.5,-24.74 69.76,-48.26 110.06,-65.62 40.16,-17.58 84.04,-28.94 128.56,-32.33 12.11,-0.66 20.79,-1.37 33.1,-1.22 11.64,-0.15 22.68,0.58 33.96,1.43 22.44,1.95 44.95,6.07 66.88,12.8 43.91,13.18 85.02,37.88 117.05,71.21 32.22,33.25 55.11,75.01 65.7,119.62 5.4,22.25 7.54,45.38 6.2,68.45 -0.41,5.74 -0.9,11.51 -1.82,17.3 -0.66,4.82 -1.76,10.46 -2.85,16.14 -2.21,10.87 -4.93,21.48 -8.21,31.99 -13.12,41.78 -35.26,81.02 -66.41,111.69 -31.02,30.66 -70.77,51.64 -111.17,60.05 -20.15,4.42 -40.34,6.3 -60.18,6.37 -19.46,0.21 -40.22,-1.86 -59.32,-7.01 -38.57,-9.9 -74.48,-33.62 -94.21,-67.21 -20.22,-33.23 -24.01,-72.52 -16.63,-105.96 1.78,-8.7 4.12,-16.12 7.36,-24.87 2.46,-6.45 7.07,-15.95 11.53,-22.47 8.99,-14 20.17,-25.64 32.22,-35.33 24.01,-19.34 52.05,-31.36 79.87,-33.62 26.66,-1.56 54.77,3.39 73.85,19.85 9.43,8.08 16.37,18.33 20.02,29.02 3.61,10.72 5.02,21.35 3.45,31.56 -3.69,21.2 -18.26,34.66 -31.87,41.03 -14.04,6.43 -28.04,5.42 -37.41,1.37 -9.59,-4.05 -14.9,-10.03 -18.13,-13.98 -1.6,-2.02 -2.62,-3.62 -3.32,-4.74 -0.73,-1.05 -1.09,-1.63 -1.09,-1.63 0,0 0.41,0.52 1.29,1.5 0.77,1.03 1.97,2.53 3.79,4.29 3.52,3.54 9.41,8.7 18.55,11.45 8.99,2.75 21.41,2.15 32.93,-4.8 11.32,-6.51 22.36,-19.72 23.47,-35.72 0.99,-16.4 -5.4,-35.84 -21.2,-47.7 -7.67,-6.04 -17.45,-10.03 -28.19,-12.24 -5.51,-1.09 -10.72,-1.6 -16.53,-1.93 -3,0 -6,-0.02 -9.05,-0.06 -2.88,0.28 -5.72,0.53 -8.7,0.79 -23.3,3.24 -47.06,15.07 -66.8,32.99 -19.83,17.88 -35.26,42.03 -38.89,70.31 -4.74,28.24 0.21,58.89 16.92,83.41 16.44,24.61 43.86,42.08 75.59,49.05 15.99,3.61 32.13,4.8 49.72,3.96 17.32,-0.64 34.69,-3 51.51,-7.33 33.57,-8.64 64.93,-25.77 89.63,-51.26 24.72,-25.43 42.62,-58.48 53.01,-94.33 2.59,-9.03 4.74,-18.16 6.43,-27.38 0.77,-4.35 1.48,-8.79 2.16,-14.11 0.52,-4.42 0.9,-8.9 1.22,-13.35 0.92,-17.9 -0.86,-36.38 -5.38,-54.33 -8.79,-36.04 -27.76,-70.08 -54.13,-96.92 -26.32,-26.99 -59.92,-46.65 -96.56,-57.96 -18.35,-5.74 -37.47,-9.43 -56.87,-11.25 -9.69,-0.83 -19.66,-1.55 -29.07,-1.43 -8.66,-0.32 -20.97,0.41 -29.8,0.83 -39.21,2.75 -77.43,12.35 -113.32,27.76 -72.26,30.7 -134.8,81.96 -195.96,131.58 -60.95,50.1 -123.61,97.91 -190.88,130.89 -66.99,33.62 -137.61,49.43 -202.56,51.86 -64.55,2.85 -124.12,-7.07 -173.81,-22.77 -49.97,-15.63 -90.34,-37.32 -121.59,-57.3 -31.3,-20.11 -53.34,-39.4 -67.85,-52.88 -14.36,-13.53 -21.11,-21.66 -21.11,-21.66z"/>
   <path class="fil0" d="M5356.33 426.01c0,0 5.19,0.83 14.84,2.36 9.65,1.63 23.82,4.44 41.44,9.59 17.75,4.99 38.84,12.82 62.06,24.07 23.17,11.28 48.09,26.73 73.76,45.08 25.57,18.52 52.03,39.87 80.46,60.44 28.42,20.69 59.89,39.34 94.93,52.15 17.58,6.33 35.86,11.53 54.58,14.38 18.39,2.72 37.51,2.92 55.74,-0.47 18.33,-3.32 36.04,-10.03 51.47,-20.47 15.37,-10.4 28.62,-24.31 38.05,-40.39 9.46,-16.06 15.35,-34.36 15.99,-52.28 0.86,-19.28 -1.76,-38.31 -7.74,-56 -6.07,-17.65 -15.76,-33.62 -28.68,-46.11 -12.88,-12.56 -28.81,-21.52 -45.92,-27.25 -8.57,-2.85 -17.23,-4.89 -26.35,-6.2 -8.19,-1.18 -17.17,-1.35 -25.38,-0.41 -16.57,1.89 -31.83,8.83 -42.68,19.96 -10.98,10.99 -17.17,25.94 -18.59,41.03 -0.64,7.54 -0.32,15.24 1.16,22.51 1.3,6.56 4.25,13.53 7.83,19.64 7.23,12.44 17.52,22.57 28.77,29.27 5.66,3.32 11.64,5.87 17.62,7.2 6.33,1.35 12.31,1.89 18.01,1.48 11.59,-0.7 21.46,-6.13 26.88,-14.32 5.47,-8.14 7.36,-17.75 4.68,-25.49 -2.53,-7.89 -8.27,-13.68 -14.04,-16.79 -5.91,-3.11 -12.05,-3.26 -16.59,-2.1 -9.22,2.66 -12.54,7.54 -12.67,7.23 0.19,0.32 2.81,-4.89 12.22,-8.79 4.63,-1.76 11.42,-2.36 18.48,0.39 7.01,2.72 14.2,8.7 18.22,17.96 1.99,4.48 2.98,10.23 2.33,15.67 -0.77,5.66 -2.62,11.06 -5.85,16.31 -6.2,10.59 -18.89,18.35 -32.67,19.58 -6.9,0.77 -14.13,0.34 -21.03,-0.83 -7.23,-1.12 -14.38,-3.71 -21.16,-7.16 -13.59,-7.07 -26,-17.9 -35.35,-31.92 -4.69,-7.14 -8.51,-14.84 -10.93,-24.1 -2.08,-8.53 -2.92,-17.52 -2.55,-26.79 0.77,-18.39 7.48,-37.92 21.1,-53.1 13.42,-15.37 33.42,-24.93 53.98,-28.04 10.4,-1.5 20.52,-1.69 31.4,-0.53 9.88,1.05 20.22,3 30.25,5.98 20.11,5.85 40.13,16.06 56.32,31.34 16.4,15.09 28.75,34.56 36.36,55.5 7.67,20.94 11.15,43.48 10.68,65.65 -0.66,23.67 -7.96,46.11 -19.4,66.03 -11.47,19.85 -27.52,36.95 -46.43,49.89 -18.85,12.95 -40.47,21.41 -62.47,25.38 -22.06,3.91 -44.18,3.49 -65.45,0.17 -20.97,-3.32 -40.99,-9.29 -60.01,-16.37 -38.27,-14.32 -71.37,-36.36 -100.07,-58.5 -28.75,-22.38 -53.55,-45.28 -77.67,-64.59 -23.76,-19.76 -46.65,-36.17 -68.11,-48.99 -21.28,-13.08 -41.16,-22.34 -57.83,-29.35 -16.7,-6.9 -30.18,-11.45 -39.53,-14.45 -9.44,-2.9 -14.44,-4.42 -14.44,-4.42z"/>
   <path class="fil0" d="M5356.33 426.01c0,0 5.19,0.83 14.84,2.36 9.65,1.63 23.82,4.44 41.44,9.59 17.75,4.99 38.84,12.82 62.06,24.07 23.17,11.28 48.09,26.73 73.76,45.08 25.57,18.52 52.03,39.87 80.46,60.44 28.42,20.69 59.89,39.34 94.93,52.15 17.58,6.33 35.86,11.53 54.58,14.38 18.39,2.72 37.51,2.92 55.74,-0.47 18.33,-3.32 36.04,-10.03 51.47,-20.47 15.37,-10.4 28.62,-24.31 38.05,-40.39 9.46,-16.06 15.35,-34.36 15.99,-52.28 0.86,-19.28 -1.76,-38.31 -7.74,-56 -6.07,-17.65 -15.76,-33.62 -28.68,-46.11 -12.88,-12.56 -28.81,-21.52 -45.92,-27.25 -8.57,-2.85 -17.23,-4.89 -26.35,-6.2 -8.19,-1.18 -17.17,-1.35 -25.38,-0.41 -16.57,1.89 -31.83,8.83 -42.68,19.96 -10.98,10.99 -17.17,25.94 -18.59,41.03 -0.64,7.54 -0.32,15.24 1.16,22.51 1.3,6.56 4.25,13.53 7.83,19.64 7.23,12.44 17.52,22.57 28.77,29.27 5.66,3.32 11.64,5.87 17.62,7.2 6.33,1.35 12.31,1.89 18.01,1.48 11.59,-0.7 21.46,-6.13 26.88,-14.32 5.47,-8.14 7.36,-17.75 4.68,-25.49 -2.53,-7.89 -8.27,-13.68 -14.04,-16.79 -5.91,-3.11 -12.05,-3.26 -16.59,-2.1 -9.22,2.66 -12.54,7.54 -12.67,7.23 0.19,0.32 2.81,-4.89 12.22,-8.79 4.63,-1.76 11.42,-2.36 18.48,0.39 7.01,2.72 14.2,8.7 18.22,17.96 1.99,4.48 2.98,10.23 2.33,15.67 -0.77,5.66 -2.62,11.06 -5.85,16.31 -6.2,10.59 -18.89,18.35 -32.67,19.58 -6.9,0.77 -14.13,0.34 -21.03,-0.83 -7.23,-1.12 -14.38,-3.71 -21.16,-7.16 -13.59,-7.07 -26,-17.9 -35.35,-31.92 -4.69,-7.14 -8.51,-14.84 -10.93,-24.1 -2.08,-8.53 -2.92,-17.52 -2.55,-26.79 0.77,-18.39 7.48,-37.92 21.1,-53.1 13.42,-15.37 33.42,-24.93 53.98,-28.04 10.4,-1.5 20.52,-1.69 31.4,-0.53 9.88,1.05 20.22,3 30.25,5.98 20.11,5.85 40.13,16.06 56.32,31.34 16.4,15.09 28.75,34.56 36.36,55.5 7.67,20.94 11.15,43.48 10.68,65.65 -0.66,23.67 -7.96,46.11 -19.4,66.03 -11.47,19.85 -27.52,36.95 -46.43,49.89 -18.85,12.95 -40.47,21.41 -62.47,25.38 -22.06,3.91 -44.18,3.49 -65.45,0.17 -20.97,-3.32 -40.99,-9.29 -60.01,-16.37 -38.27,-14.32 -71.37,-36.36 -100.07,-58.5 -28.75,-22.38 -53.55,-45.28 -77.67,-64.59 -23.76,-19.76 -46.65,-36.17 -68.11,-48.99 -21.28,-13.08 -41.16,-22.34 -57.83,-29.35 -16.7,-6.9 -30.18,-11.45 -39.53,-14.45 -9.44,-2.9 -14.44,-4.42 -14.44,-4.42z"/>
   <path class="fil0" d="M3424.77 0c0,0 -34.88,93.43 51.73,111.56 42.11,-77.86 -51.73,-111.56 -51.73,-111.56z"/>
   <path class="fil0" d="M3503.69 93.12c7.5,16.25 0.45,35.5 -15.76,43.05 -16.25,7.5 -35.5,0.47 -43.06,-15.76 -7.5,-16.25 -0.45,-35.5 15.8,-43.02 16.25,-7.58 35.43,-0.51 43.02,15.73z"/>
   <path class="fil0" d="M3487.91 136.15c0,0 32.93,-0.83 33.98,-34.02 0.77,-22.1 -10.16,-43.39 20.69,-62.79 0,0 -53.08,5.94 -60.84,54.24 -1.64,10.61 -1.05,26.49 6.17,42.58z"/>
   <path class="fil0" d="M3487.91 136.13c0,0 -21.91,24.66 -47.93,3.99 -17.32,-13.68 -26.56,-35.76 -61.29,-24.74 0,0 38.83,-36.7 80.67,-11.41 9.22,5.51 20.94,16.25 28.55,32.16z"/>
   <path class="fil0" d="M4906.21 498.1c-49.05,50.62 -97.69,111.63 -128.62,177.46 0,0 58.5,-74.24 143.65,-151.43 -0.28,-14.92 -7.96,-22.38 -15.03,-26.02z"/>
   <path class="fil0" d="M6207 440.86c0,0 13.27,-54.51 -42.96,-54.51 -80.99,0 -82.62,89.25 -157.96,122.19 -7.87,3.45 -17.39,7.61 -28.55,11.72 0,0.34 0.06,0.73 0.06,1.09 -0.45,16.08 -3.73,32 -9.69,47.5 137.39,-36.95 184.9,-130.58 295.3,-88.34 0,0.02 -18.18,-34.66 -56.21,-39.66z"/>
   <path class="fil0" d="M5948.65 529.67c-1.95,15.82 -7.29,32.13 -15.86,46.93 3.61,-0.64 7.23,-1.24 10.68,-1.95 7.83,-15.5 12.41,-31.4 13.68,-47.49 -2.77,0.88 -5.57,1.72 -8.49,2.51z"/>
   <path class="fil0" d="M5360.11 376.72c188.11,65.26 307.14,210.73 506.46,206.29 13.94,-0.34 27.12,-1.24 39.73,-2.59 3.18,-4.05 6.24,-8.27 8.86,-12.69 6.13,-10.48 10.42,-21.87 12.74,-33.12 -25.32,5.14 -55.1,7.96 -89.5,5.27 -5.79,2.79 -12.22,4.63 -18.82,5.21 -6.94,0.77 -15.16,0.45 -23.54,-0.92 -7.67,-1.22 -15.8,-3.95 -24.06,-8.14 -6.81,-3.52 -13.21,-7.96 -19.06,-12.97 -55.67,-17.19 -119.62,-48.53 -192.03,-102 0,0 89.2,3.3 132.18,-84.27 0,0 -42.23,27.59 -104.66,17.43 -0.92,1.05 -1.89,2.08 -3,3.19 -6.43,6.63 -16.19,14.04 -26.99,19.15 -2.62,1.43 -5.51,2.33 -8.14,3.45 -2.75,1.12 -5.57,1.73 -8.19,2.55 -2.62,0.79 -5.32,1.12 -7.76,1.67 -2.4,0.58 -4.82,0.64 -6.94,0.86 -4.38,0.6 -7.96,0.45 -10.48,0.45 -2.49,0 -3.92,0 -3.92,0 0,0 1.37,-0.21 3.91,-0.64 2.46,-0.39 6,-0.86 10.1,-2.03 2.03,-0.6 4.29,-1.03 6.56,-1.97 2.23,-0.9 4.69,-1.59 7.03,-2.75 2.33,-1.22 4.82,-2.16 7.2,-3.62 2.33,-1.43 4.8,-2.68 6.97,-4.38 8.19,-5.66 14.97,-12.69 19.64,-18.86 -12.69,-3.11 -26,-7.66 -39.94,-14.5 -9.05,-4.44 -18.07,-9.09 -27.12,-13.68 -0.64,0.32 -1.24,0.64 -1.89,1.03 -3.61,2.08 -8.13,3.99 -12.75,6.2 -2.33,1.16 -4.99,1.95 -7.44,2.93 -2.59,0.92 -5.08,1.97 -7.74,2.85 -2.66,0.73 -5.32,1.48 -7.93,2.21 -2.62,0.64 -5.12,1.55 -7.7,1.8 -2.53,0.39 -4.99,0.73 -7.36,1.09 -2.29,0.26 -4.44,0.86 -6.51,0.73 -8.08,-0.13 -13.53,-0.21 -13.53,-0.21 0,0 5.32,-0.79 13.21,-2.1 1.97,-0.17 3.99,-1.16 6.13,-1.76 2.15,-0.7 4.42,-1.5 6.77,-2.27 2.36,-0.6 4.68,-1.95 6.97,-3 2.36,-1.09 4.74,-2.16 7.05,-3.3 2.29,-1.22 4.55,-2.66 6.77,-3.96 2.16,-1.37 4.38,-2.46 6.38,-3.95 2.42,-1.69 4.69,-3.26 6.81,-4.76 -20.75,-10.59 -41.78,-20.73 -63.59,-28.58 0,0.02 -0.04,0.02 -0.04,0.06 -1.55,1.35 -3.39,2.55 -5.21,3.96 -1.85,1.37 -3.71,2.92 -5.98,4.09 -2.16,1.22 -4.38,2.46 -6.69,3.78 -2.16,1.42 -4.76,2.12 -7.16,3.18 -2.42,0.96 -4.82,1.95 -7.2,2.92 -2.49,0.6 -4.95,1.22 -7.33,1.76 -2.33,0.58 -4.61,1.12 -6.75,1.63 -2.15,0.58 -4.25,0.52 -6.13,0.77 -7.61,0.58 -12.62,1.03 -12.62,1.03 0,0 4.82,-1.3 12.11,-3.32 1.8,-0.6 3.84,-0.83 5.72,-1.76 1.99,-0.9 4.03,-1.82 6.11,-2.75 2.15,-0.96 4.29,-1.93 6.45,-2.92 2.08,-1.29 4.09,-2.62 6.17,-3.95 1.97,-1.42 4.22,-2.36 5.94,-4.05 1.78,-1.5 3.54,-3 5.27,-4.48 1.69,-1.24 3,-2.85 4.31,-4.29 -41.29,-12.74 -85.93,-15.89 -137.93,3.18l7.83 2.49c1.95,0.64 48.26,15.73 65.77,57.96 3.93,9.21 6.01,19.05 6.48,29.34z"/>
   <path class="fil0" d="M3131.6 401.5c0,0 -152.54,171.48 0,366.9 152.55,-195.42 0,-366.9 0,-366.9z"/>
   <path class="fil0" d="M3258.01 252.51c-36.81,-9.47 -65.1,4.69 -85.56,24.2 36.25,-93.3 -40.86,-165.51 -40.86,-165.51 0,0 -77.15,72.22 -40.9,165.51 -20.41,-19.51 -48.73,-33.68 -85.54,-24.2 -86.77,22.3 -69.4,180.93 -69.4,180.93 64.46,-198.34 195.83,-94.2 195.83,-94.2 0,0 131.39,-104.14 195.83,94.2 0.02,0 17.36,-158.66 -69.4,-180.93z"/>
   <path class="fil0" d="M3581.08 452.44c-52.87,-62.79 -61.14,-121.7 -21.46,-202.95 0,0 -109.1,19.51 -92.57,191.37 0,0 -97.52,-94.16 -71.04,-264.39 0,0 -79.51,216.48 56.19,318.95 107.28,80.95 295.82,8.26 295.82,8.26 0,0 -114.01,11.53 -166.94,-51.24zm62.56 59.45c-3.49,-0.26 -7.76,-0.58 -12.69,-0.96 -4.87,-0.39 -10.46,-0.73 -16.33,-2.36 -5.91,-1.29 -12.37,-2.72 -19.21,-4.42 -6.71,-1.85 -13.55,-4.95 -20.69,-7.8 -7.31,-2.46 -14.07,-7.14 -21.07,-11.29l-5.32 -3.26 -4.76 -3.99 -9.65 -8.13c-3.19,-2.72 -5.53,-6.3 -8.34,-9.43 -2.55,-3.32 -5.7,-6.2 -7.61,-9.97 -2.21,-3.49 -4.25,-7.1 -6.26,-10.61 -2.02,-3.54 -3.18,-7.46 -4.74,-11.02 -3.36,-7.16 -4.31,-14.88 -6.04,-21.71 -0.79,-7.14 -1.73,-13.78 -1.42,-19.98 -0.21,-6.17 0.6,-11.79 1.16,-16.7 0.79,-4.89 1.6,-9.13 2.55,-12.54 0.83,-3.45 1.8,-6.07 2.46,-7.87 0.6,-1.76 1.03,-2.68 1.03,-2.68 0,0 -0.52,3.99 -0.53,10.98 -0.13,6.9 0,16.76 1.82,28.24 0.58,5.74 2.42,11.77 3.73,18.13 2.33,6.17 3.92,12.87 7.29,19.08 1.63,3.06 2.81,6.51 4.82,9.5 2.03,3 4.05,6 5.98,9.16 1.73,3.26 4.57,5.72 6.9,8.6 2.55,2.72 4.61,5.87 7.59,8.21l8.44 7.41 4.22 3.71 4.74 3c6.38,3.73 11.96,8.77 18.73,11.45 6.56,2.92 12.5,6.63 18.69,9.05 6.33,2.23 12.24,4.55 17.69,6.69 5.47,2.33 10.74,3.69 15.31,4.99 4.63,1.42 8.66,2.62 12.02,3.65 6.69,2.21 10.46,3.45 10.46,3.45 0,0 -4,-0.16 -10.99,-0.57z"/>
   <path class="fil0" d="M3934.75 34.35c-95.83,39.64 -51.21,156.98 -51.21,156.98 0,0 -72.72,-71.09 -208.25,-28.11 -119.64,37.94 -193.35,-37.98 -193.35,-37.98 0,0 67.76,107.4 208.25,64.42 140.46,-42.98 230.93,46.39 252.1,114.82 23.41,75.55 -20.77,146.31 -40.65,182.67 0,0 76.06,-76.04 69.46,-157.03 -6.58,-80.95 -57.83,-143.76 -14.88,-218.97 42.98,-75.18 122.3,-37.2 122.3,-37.2 0,0 -47.93,-79.29 -143.78,-39.6zm24.61 17.96c-2.02,1.37 -4.42,3.06 -7.23,4.99 -2.72,1.9 -5.3,4.82 -8.39,7.4 -1.5,1.35 -3.13,2.66 -4.69,4.16 -1.37,1.67 -2.75,3.39 -4.22,5.12 -1.48,1.76 -2.93,3.49 -4.5,5.27 -1.24,2.02 -2.49,4.05 -3.78,6.17 -1.24,2.08 -2.81,3.99 -3.79,6.33 -0.92,2.29 -1.93,4.63 -3.06,6.9 -2.49,4.48 -3.19,9.82 -4.95,14.68 -1.03,5.14 -2.46,10.27 -2.92,15.48 -0.52,5.19 -1.35,10.29 -1.35,15.37 -0.53,10.08 0,19.66 0.32,27.98 1.24,16.5 2.92,27.91 2.92,27.91 0,0 -6.38,-9.76 -11.21,-26.45 -1.09,-4.16 -2.4,-8.7 -3.18,-13.65 -0.83,-4.93 -1.82,-10.14 -1.89,-15.67 -0.45,-5.51 -0.39,-11.21 0.09,-17.06 0.41,-5.79 1.73,-11.66 2.81,-17.56l2.85 -8.6c0.79,-2.92 1.9,-5.66 3.45,-8.27 2.46,-5.47 5.44,-10.52 9.16,-14.9 1.76,-2.21 3.36,-4.5 5.19,-6.5 2.03,-1.86 4.05,-3.56 6,-5.27 1.95,-1.69 3.82,-3.3 5.7,-4.87 2.02,-1.29 4.09,-2.36 6,-3.49 3.91,-2.1 7.33,-4.29 10.61,-5.44 3.45,-1.16 6.38,-1.97 8.83,-2.72 4.87,-1.37 7.59,-1.97 7.59,-1.97 0,0 -2.37,1.8 -6.38,4.68z"/>
   <path class="fil0" d="M4793.47 373.27c-1.56,-0.39 -3.13,-0.86 -4.57,-1.43 -3.36,-1.43 -6.81,-2.85 -10.27,-4.29 -3.39,-1.43 -6.75,-2.75 -9.76,-4.74 -3.11,-1.76 -6.11,-3.54 -8.99,-5.25 -2.85,-1.76 -5.72,-3.24 -8.19,-4.99 -2.42,-1.82 -4.68,-3.62 -6.77,-5.21 -8.19,-6.37 -13.68,-10.61 -13.68,-10.61 0,0 6.58,2.02 16.46,5.06 2.4,0.73 5.02,1.55 7.76,2.4 2.79,0.7 5.87,1.09 8.92,1.67 3.06,0.52 6.24,1.05 9.39,1.63 3.18,0.66 6.5,0.7 9.69,0.83 1.29,0.02 2.53,0.09 3.82,0.09 -15.93,-53.94 -51,-110.4 -122.15,-155.47 -2.85,-1.78 -5.72,-3.39 -8.6,-5.08 -8.4,10.91 -19.66,22.81 -32.67,32.47 -3.78,3 -7.83,5.66 -11.84,8.14 -3.86,2.66 -8.08,4.63 -12.02,6.71 -3.79,2.19 -7.89,3.65 -11.59,5.19 -3.65,1.63 -7.27,2.79 -10.59,3.71 -6.58,2.16 -12.22,3.24 -16.08,3.91 -3.88,0.73 -6.04,1.16 -6.04,1.16 0,0 1.93,-1.16 5.32,-3.18 3.39,-1.93 8.14,-4.74 13.31,-8.79 2.68,-1.93 5.47,-4.03 8.14,-6.63 2.72,-2.55 5.72,-4.95 8.32,-8.02 2.68,-2.98 5.55,-5.85 7.96,-9.24 2.55,-3.24 5.06,-6.51 7.2,-10.1 7.4,-11.19 12.56,-23.21 15.93,-33.46 -86.65,-39.21 -184.49,-42.23 -273.31,-22.91 0.45,5.3 0.86,10.99 0.79,17.17 0.06,8.19 -0.66,16.93 -2.03,25.49 -0.9,4.29 -1.42,8.53 -2.75,12.62 -1.12,4.09 -2.15,8.08 -3.79,11.84 -1.42,3.78 -2.88,7.29 -4.69,10.48 -1.67,3.19 -3.11,6.24 -5.02,8.83 -1.78,2.53 -3.39,4.89 -4.82,6.94 -1.69,1.89 -3.18,3.49 -4.31,4.82 -2.36,2.66 -3.73,4.16 -3.73,4.16 0,0 0.83,-1.82 2.29,-5.06 0.66,-1.6 1.55,-3.49 2.55,-5.72 0.66,-2.29 1.5,-4.89 2.36,-7.74 0.99,-2.72 1.37,-5.91 1.97,-9.17 0.77,-3.24 0.99,-6.71 1.16,-10.29 0.41,-3.52 0.19,-7.23 0.06,-10.93 0.04,-3.66 -0.73,-7.48 -1.05,-11.17 -1.18,-7.41 -2.88,-14.68 -5.02,-21.28 -1.5,-4.87 -3.24,-9.24 -4.89,-13.27 -71.15,20.02 -134.47,53.87 -178.64,93.9 1.09,2.98 1.73,6.33 2.68,9.76 0.77,3.65 2.03,7.33 2.49,11.36 0.53,3.96 1.16,8.02 1.73,12.18 0.73,4.08 0.66,8.34 0.77,12.54 0.13,4.16 0.15,8.32 0.21,12.41 0,4.03 -0.77,8.06 -1.12,11.85 -0.41,3.82 -0.86,7.48 -1.29,10.93 -0.15,3.45 -1.42,6.64 -2.08,9.56 -3.11,11.53 -5.21,19.21 -5.21,19.21 0,0 -0.39,-7.83 -0.99,-19.59 -0.21,-2.92 -0.04,-6.04 -0.92,-9.3 -0.6,-3.26 -1.35,-6.64 -2.02,-10.2 -0.83,-3.45 -1.24,-7.1 -2.36,-10.61 -1.24,-3.49 -2.46,-7.03 -3.71,-10.59 -1.22,-3.52 -2.27,-7.03 -4.08,-10.27 -1.56,-3.19 -3.18,-6.38 -4.68,-9.5 -0.86,-2.02 -2.06,-3.84 -3.24,-5.6 -102.32,113.02 -132.53,250.99 -243.25,308.74 0,0 124.83,-48.4 239.6,-161.96 147.08,-145.39 296.39,-178.96 449.24,-134.84 163.89,47.24 221.9,174.42 221.9,248.78 -0.05,0.02 27.59,-73.73 10.74,-160.06zm-568.56 -111.71c-0.6,3.82 -1.67,7.74 -3.18,11.51 -1.42,3.84 -3.19,7.53 -5.38,10.68 -1.95,3.22 -3.99,6.11 -6.26,8.26 -4.18,4.44 -7.66,6.77 -7.66,6.77 0,0 0.7,-4.29 2.79,-9.71 1.12,-2.66 2.08,-5.87 3.3,-9.22 1.3,-3.32 2.85,-6.71 3.96,-10.29 1.56,-3.39 2.66,-6.94 3.96,-10.23 1.37,-3.24 2.27,-6.37 3.52,-9.05 1.95,-5.38 3.54,-9.3 3.54,-9.3 0,0 0.45,0.96 0.9,2.72 0.53,1.78 0.9,4.31 1.12,7.46 0.03,2.97 0.16,6.64 -0.61,10.4zm32.3 -17.48c-0.26,2.92 -1.29,5.7 -1.9,8.6 -0.86,2.81 -1.55,5.72 -2.62,8.39 -1.22,2.62 -2.66,5.08 -3.99,7.5 -1.24,2.4 -2.62,4.68 -3.91,6.81 -1.42,2.03 -3.18,3.69 -4.63,5.27 -5.91,6.38 -10.42,9.88 -10.42,9.88 0,0 1.95,-5.66 5.66,-12.97 0.86,-1.86 2.02,-3.78 2.93,-5.85 0.77,-2.23 1.55,-4.55 2.53,-6.88 0.92,-2.33 1.76,-4.76 2.85,-7.14 0.86,-2.42 1.3,-5.06 1.97,-7.61 0.7,-2.49 1.76,-4.99 2.08,-7.54 0.26,-2.55 0.77,-5.06 1.18,-7.5 0.52,-2.46 0.64,-4.87 0.77,-7.1 0,-2.29 0.45,-4.55 0.41,-6.51 -0.13,-4.05 0.04,-7.54 -0.28,-9.95 -0.02,-2.49 -0.26,-3.99 -0.26,-3.99 0,0 0.96,1.09 2.12,3.36 0.58,1.09 1.56,2.49 2.08,4.16 0.58,1.63 1.3,3.54 1.95,5.66 0.66,2.12 0.96,4.44 1.3,6.97 0.34,2.49 0.92,5.19 0.58,7.89 -0.15,2.75 -0.15,5.65 -0.42,8.54zm170.02 -10.5c-2.68,1.73 -5.66,2.72 -8.34,3.73 -2.68,1.18 -5.34,1.86 -7.8,2.29 -4.89,1.29 -9.09,1.42 -11.98,1.42 -2.92,0.02 -4.55,-0.06 -4.55,-0.06 0,0 1.48,-0.66 4.12,-1.89 1.29,-0.52 2.88,-1.18 4.68,-1.93 1.82,-0.73 3.69,-1.9 5.81,-2.92 2.08,-0.99 4.31,-2.16 6.51,-3.58 2.29,-1.42 4.69,-2.75 6.94,-4.55 2.36,-1.63 4.68,-3.35 6.97,-5.36 2.33,-1.8 4.55,-3.88 6.63,-6.11 4.48,-4.12 8.26,-8.99 11.84,-13.48 3.43,-4.68 6.56,-9.17 9.03,-13.21 5.06,-8.02 8.14,-13.87 8.14,-13.87 0,0 0.13,6.75 -2.93,16.25 -1.48,4.8 -3.84,10.16 -6.94,15.63 -1.73,2.66 -3.36,5.53 -5.44,8.08 -2.15,2.59 -4.16,5.32 -6.69,7.63 -4.75,4.82 -10.34,8.96 -15.98,11.92zm82.79 -55.23c0,1.42 -0.17,3.13 -0.6,4.99 -0.47,1.85 -0.64,4.16 -1.56,6.33 -0.9,2.21 -1.85,4.63 -2.98,7.16 -1.09,2.55 -2.88,4.82 -4.5,7.36 -1.82,2.36 -3.19,5.34 -5.57,7.36 -2.23,2.21 -4.44,4.48 -6.69,6.71 -2.27,2.23 -4.69,4.25 -7.29,5.91 -2.49,1.82 -5.12,3.36 -7.57,4.99 -2.53,1.52 -4.82,3.19 -7.36,4.18 -2.46,1.09 -4.82,2.03 -7.01,2.88 -8.73,3.39 -14.77,4.74 -14.77,4.74 0,0 4.63,-4.42 11.96,-9.71 1.82,-1.35 3.78,-2.75 5.91,-4.16 2.21,-1.42 4.05,-3.41 6.24,-5.08 2.16,-1.76 4.31,-3.65 6.64,-5.34 2.4,-1.63 4.55,-3.58 6.56,-5.72 2.15,-1.97 4.29,-3.96 6.37,-5.9 2.23,-1.89 3.78,-4.16 5.66,-6.13 1.63,-2.15 3.79,-3.88 5.12,-5.98 1.37,-2.03 2.81,-3.92 4.16,-5.7 1.35,-1.78 2.15,-3.62 3.13,-5.14 0.96,-1.56 1.73,-2.93 2.23,-4.16 1.22,-2.33 1.73,-3.88 1.73,-3.88 0,0 0.35,1.5 0.19,4.3zm183.53 103.85c-6.69,2.68 -16.06,5.06 -25.64,6.04 -4.82,0.13 -9.6,0.83 -14.13,0.21 -4.55,-0.41 -8.77,-0.64 -12.28,-1.63 -7.07,-1.95 -11.41,-3.73 -11.41,-3.73 0,0 4.89,-0.47 11.79,-0.52 3.49,0.02 7.59,-0.58 11.84,-0.66 4.29,-0.06 8.9,-0.79 13.48,-1.09 2.27,0 4.55,-0.47 6.84,-0.7 2.23,-0.19 4.48,-0.41 6.63,-0.66 4.29,-0.64 8.39,-0.86 11.84,-1.37 3.56,-0.36 6.51,-0.66 8.57,-0.86 2.12,-0.19 3.26,-0.32 3.26,-0.32 0,0 -4.08,2.68 -10.78,5.3z"/>
   <path class="fil0" d="M4509.83 378.07c-271.02,-44.64 -323.9,176.82 -502.36,280.96 -178.49,104.1 -459.4,26.43 -459.4,26.43 135.55,82.62 232.19,82.94 353.65,62.79 54.64,-9.09 102.45,15.41 107.4,56.19 3.71,30.25 -33.03,62.79 -33.03,62.79 188.35,-14.9 94.16,-143.76 94.16,-143.76 130.55,4.93 208.25,-108.84 208.25,-108.84 -44.68,25.06 -99.15,0 -99.15,0 130.25,-16.57 181.74,-137.42 181.74,-137.42 -36.29,23.16 -84.29,9.95 -84.29,9.95 66.16,-6.63 100.82,-49.59 133.83,-76.04 33.04,-26.44 99.2,-33.06 99.2,-33.06zm-322.65 284.54c2.33,-0.28 3.71,-0.64 3.71,-0.64 0,0 -0.92,1.03 -2.88,2.46 -1.95,1.56 -4.95,3.18 -8.66,5.06 -3.91,1.3 -8.44,3.39 -13.59,3.99 -2.59,0.41 -5.25,0.96 -7.93,1.22 -2.68,0.02 -5.47,0.02 -8.27,0.02 -2.72,-0.15 -5.47,-0.06 -8.14,-0.52 -2.68,-0.41 -5.32,-1.09 -7.8,-1.59 -2.49,-0.52 -4.89,-1.12 -7.14,-1.76 -2.29,-0.7 -4.29,-1.69 -6.13,-2.53 -7.53,-3.32 -12.09,-6.37 -12.09,-6.37 0,0 5.68,-0.13 13.48,0.83 1.89,0.26 3.99,0.53 6.2,0.83 2.23,0.06 4.61,0.13 7.01,0.34 2.4,0.26 4.82,0.32 7.36,0.7 2.49,0.32 5.02,0.06 7.54,0.13 2.55,0.13 5.06,0.21 7.54,0.36 2.46,-0.26 4.93,-0.21 7.29,-0.36 2.4,0 4.74,0 6.9,-0.32 2.15,-0.26 4.25,-0.39 6.2,-0.52 3.78,-0.62 7.19,-0.82 9.4,-1.35zm91.54 -128.67c7.61,-2.88 12.99,-4.99 12.99,-4.99 0,0 -0.77,1.22 -2.53,3 -1.67,1.95 -4.35,4.29 -7.78,6.97 -3.49,2.36 -7.7,5.36 -12.61,7.48 -2.4,1.12 -4.87,2.36 -7.48,3.43 -2.68,0.83 -5.4,1.72 -8.13,2.55 -5.47,1.73 -11.02,2.75 -16.37,3.32 -5.25,0.83 -10.16,1.12 -14.45,0.79 -8.53,-0.3 -14.17,-1.37 -14.17,-1.37 0,0 5.4,-2.23 13.47,-4.29 1.97,-0.47 4.09,-0.99 6.45,-1.56 2.21,-0.7 4.55,-1.48 7.03,-2.1 2.42,-0.64 4.95,-1.43 7.54,-1.95 2.62,-0.53 5.12,-1.56 7.7,-2.33 5.21,-1.29 10.33,-2.93 15.16,-4.57 4.89,-1.35 9.18,-3.22 13.17,-4.38z"/>
   <path class="fil0" d="M5334.49 437.6c54.5,-105.78 -49.63,-138.83 -49.63,-138.83 19.83,71.04 -74.36,130.51 -149.74,142.09 -75.42,11.58 -141.1,71.09 -141.1,71.09 4.93,-29.75 -14.24,-52.22 -52.88,-56.21 -47.96,-4.93 -89.2,41.31 -89.2,41.31 26.41,-23.09 79.26,-16.5 79.26,28.11 0,44.61 -39.01,111.89 -132.27,190.02 -125.5,105.32 -260.98,112.37 -260.98,112.37 230.16,49.18 307.37,-118.97 418.03,-163.61 110.79,-44.61 124,43.01 124,43.01 49.56,-107.42 -55.76,-125.63 -55.76,-125.63 0,0 78.89,-47.89 156.54,-44.61 77.67,3.3 62.83,89.25 62.83,89.25 84.22,-38.01 56.19,-119 56.19,-119 0,0 89.39,4.89 99.21,90.89 5.81,50.76 -10.01,95.83 -69.7,117.76 -65.99,24.19 -115.46,-11.98 -115.46,-11.98 36.38,52.88 241.24,74.36 266.06,-79.3 24.81,-153.7 -145.4,-186.74 -145.4,-186.74zm-370.44 82.3c-0.28,2.33 -0.6,3.69 -0.6,3.69 0,0 -0.53,-1.3 -1.37,-3.52 -0.86,-2.21 -1.5,-5.36 -3.13,-8.87 -0.79,-1.73 -1.42,-3.71 -2.4,-5.64 -0.99,-1.86 -1.97,-3.82 -3,-5.83 -1.22,-1.89 -2.53,-3.78 -3.84,-5.72 -1.55,-1.65 -2.75,-3.73 -4.63,-5.19 -3.11,-3.49 -7.18,-5.94 -10.93,-8.4 -2.03,-0.92 -3.92,-2.23 -5.87,-2.98 -1.93,-0.9 -3.79,-1.69 -5.6,-2.36 -7.14,-2.72 -12.5,-3.99 -12.5,-3.99 0,0 5.27,-2.08 13.59,-1.56 4.22,0.13 9.05,1.22 14.13,3.05 2.36,1.22 5.08,2.08 7.36,3.88 2.46,1.46 4.69,3.32 6.77,5.36 2.29,1.89 3.73,4.55 5.53,6.71 1.63,2.36 2.62,5.02 3.91,7.4 0.96,2.53 1.55,5.06 2.16,7.36 0.6,2.29 0.66,4.68 0.86,6.71 0.55,4.11 -0.18,7.58 -0.44,9.92zm66.41 94.84c2.75,0.21 5.6,0.73 8.47,1.43 2.79,0.96 5.72,1.6 8.47,3 5.51,2.46 10.55,6.07 14.38,10.27 2.16,1.82 3.49,4.31 4.99,6.37 1.6,2.02 2.55,4.25 3.39,6.33 0.86,1.97 1.76,3.78 2.08,5.55 0.39,1.73 0.66,3.26 0.92,4.48 0.45,2.49 0.53,3.91 0.53,3.91 0,0 -0.86,-1.16 -2.4,-3.13 -0.66,-0.99 -1.48,-2.21 -2.46,-3.58 -0.9,-1.37 -2.36,-2.66 -3.52,-4.25 -1.3,-1.55 -2.62,-3.19 -4.29,-4.68 -1.69,-1.5 -3.24,-3.26 -5.19,-4.61 -1.89,-1.5 -3.84,-2.92 -5.98,-4.16 -2.03,-1.42 -4.29,-2.49 -6.63,-3.52 -2.16,-1.29 -4.68,-1.85 -7.01,-2.79 -2.42,-0.6 -4.76,-1.59 -7.2,-2.02 -4.76,-1.18 -9.37,-1.78 -13.4,-2.4 -8,-0.92 -13.85,-1.24 -13.85,-1.24 0,0 5.08,-2.98 13.68,-4.42 4.39,-0.69 9.5,-1.14 15.01,-0.56zm246.32 -44.94c-0.9,2.92 -1.89,5.61 -2.81,8.19 -1.16,2.42 -2.4,4.69 -3.54,6.75 -2.08,4.22 -5.08,6.94 -6.69,9.07 -1.76,2.06 -2.85,3.13 -2.85,3.13 0,0 0.39,-1.55 1.16,-4.09 0.6,-2.66 2.23,-5.98 3.13,-10.35 0.47,-2.15 1.09,-4.44 1.76,-6.77 0.34,-2.46 0.73,-5.02 1.24,-7.59 0.45,-2.55 0.15,-5.27 0.53,-7.96 -0.11,-2.66 -0.21,-5.38 -0.6,-8.06 -0.6,-2.62 -0.77,-5.34 -1.76,-7.8 -0.77,-2.55 -1.76,-5.02 -2.85,-7.36 -2.23,-4.61 -4.87,-8.86 -7.61,-12.28 -2.55,-3.45 -5.08,-6.24 -6.9,-8.13 -1.8,-1.93 -2.93,-2.98 -2.93,-2.98 0,0 6.3,1.22 13.85,7.07 1.93,1.42 3.91,3.13 5.83,5.12 1.85,2.03 3.78,4.29 5.38,6.9 1.56,2.62 3.32,5.36 4.25,8.47 1.37,3 1.82,6.33 2.62,9.56 0.28,3.3 0.39,6.63 0.28,9.82 -0.33,3.19 -0.76,6.43 -1.47,9.3zm42.06 -191.2c-0.39,1.89 -0.7,3.78 -1.16,5.7l-1.93 5.6c-1.16,3.79 -3.54,7.01 -5.27,10.46 -2.02,3.26 -4.74,6 -6.9,8.86 -2.59,2.55 -5.34,4.76 -7.8,6.88 -2.53,2.15 -5.38,3.48 -7.74,4.99 -4.69,3.13 -9.39,4.31 -12.41,5.53 -3.05,1.09 -4.82,1.6 -4.82,1.6 0,0 1.42,-1.18 3.92,-3.32 2.4,-2.15 6.2,-4.55 9.97,-8.4 1.85,-1.89 4.12,-3.65 6.13,-5.85 1.95,-2.27 3.99,-4.63 6.07,-7.1 1.72,-2.66 3.54,-5.4 5.38,-8.19 1.37,-3 3.39,-5.74 4.22,-9.03l1.78 -4.74 1.16 -4.82c0.9,-3.19 1.09,-6.51 1.63,-9.65 -0.04,-3.19 0.52,-6.3 0.28,-9.3 -0.06,-3 -0.21,-5.87 -0.47,-8.51 -0.99,-10.59 -2.92,-17.83 -2.92,-17.83 0,0 4.95,5.83 8.47,16.7 0.9,2.68 1.73,5.66 2.21,8.9 0.79,3.26 0.86,6.75 1.09,10.35 -0.22,3.56 0.1,7.39 -0.88,11.17zm129.48 221.75c-0.02,3.84 -0.06,7.63 -0.15,11.45 -0.77,7.48 -2.72,14.71 -4.18,21.71 -2.42,6.64 -5.14,12.95 -7.59,18.89 -2.85,5.79 -6.38,10.74 -9.3,15.48 -1.5,2.33 -2.92,4.57 -4.29,6.69 -1.55,2.02 -3.24,3.71 -4.69,5.47 -2.98,3.32 -5.6,6.2 -7.74,8.57 -4.35,4.69 -6.94,7.27 -6.94,7.27 0,0 1.63,-3.36 4.55,-8.99 1.5,-2.75 3.32,-6.13 5.38,-9.97 1.05,-1.89 2.29,-3.91 3.32,-6.07 0.9,-2.23 1.93,-4.57 2.92,-7.05 1.97,-4.93 4.5,-10.03 6.56,-15.67 1.6,-5.72 3.24,-11.77 5.14,-17.9 0.86,-6.33 1.82,-12.87 2.53,-19.4 0,-3.32 -0.02,-6.64 -0.11,-10.01l0 -4.99 -0.9 -4.95 -1.43 -9.9c-1.03,-3.19 -2.02,-6.43 -2.98,-9.56l-1.43 -4.74 -2.02 -4.5c-1.37,-3 -2.55,-6.04 -3.96,-8.9 -3.43,-5.4 -6.04,-11.17 -9.69,-15.93 -3.32,-4.99 -6.88,-9.41 -10.2,-13.55 -6.81,-8.06 -13.01,-14.56 -17.62,-18.86 -4.48,-4.44 -7.33,-6.77 -7.33,-6.77 0,0 3.45,1.24 9.05,4.38 5.68,3.05 13.48,8.06 21.93,15.28 4.22,3.69 8.73,7.7 12.82,12.74 4.55,4.63 8.32,10.4 12.37,16.25 1.76,3.05 3.39,6.3 5.14,9.56l2.59 4.93 1.86 5.38c1.18,3.58 2.49,7.16 3.61,10.87l1.97 11.34 0.92 5.74 -0.11 5.7z"/>
   <path class="fil0" d="M5275.33 301.43l-3.19 -11.51c-16.46,6.69 -33.63,15.48 -51.71,26.99 0,0 44.64,-117.41 -59.41,-166.97 -103.5,-49.26 -211.61,29.84 -213.24,89.33 0,0 56.14,-77.69 128.88,-36.36 72.73,41.31 33.03,130.51 -24.79,170.19 -21.67,14.86 -56.17,41.05 -94.41,75.48 13.59,3.45 24.66,9.46 32.77,17.83 84.91,-65.19 184.23,-118.8 276.27,-112.2 10.72,-17.39 13.73,-35.18 8.82,-52.78zm-96.13 -36.91c-0.66,6.3 -1.22,12.28 -2.46,17.62 -0.96,5.4 -2.29,10.23 -3.66,14.5 -1.22,4.25 -2.53,7.87 -3.75,10.81 -2.36,5.85 -3.86,9.16 -3.86,9.16 0,0 0.32,-3.65 0.99,-9.84 0.41,-3.06 0.7,-6.88 1.03,-11.19 0.39,-4.25 0.66,-9.11 0.77,-14.32 0.34,-5.27 -0.09,-10.91 -0.15,-16.79 -0.47,-5.9 -1.16,-11.98 -2.29,-18.2 -0.47,-3.13 -1.48,-6.13 -2.16,-9.26 -0.99,-3.05 -2.03,-6.07 -3.06,-9.16 -2.53,-5.94 -5.27,-11.89 -9.22,-17.13 -7.01,-10.98 -17.3,-19.59 -27.82,-26.41 -10.68,-6.71 -21.8,-11.45 -31.69,-14.9 -19.79,-6.71 -34.17,-8.96 -34.17,-8.96 0,0 3.56,-0.64 9.9,-0.96 6.33,-0.19 15.48,-0.19 26.39,1.69 5.42,0.83 11.28,2.15 17.36,4.05 6.07,2.06 12.54,4.29 18.73,7.74 6.17,3.39 12.61,7.16 18.22,12.28 5.74,4.93 10.98,10.68 15.37,17.06 4.5,6.33 7.61,13.48 10.35,20.54 2.53,7.11 3.95,14.45 4.76,21.46 0.88,7.02 0.69,13.81 0.43,20.21z"/>
   <path class="fil0" d="M3094.4 354.12c0,0 -114.9,91.84 -101.63,252.86 12.74,154.75 -69.4,232.98 -168.56,223.08 -99.12,-9.9 -97.5,-90.08 -97.5,-90.08 0,0 -8.27,-80.95 87.57,-80.95 0,0 -51.26,13.21 -44.64,64.46 6.64,51.19 81.91,62.73 117.37,24.79 92.55,-99.17 -24.8,-280.97 207.38,-394.15z"/>
   <path class="fil0" d="M1580.7 464.85c0,0 -4.5,8.32 -9.76,24.01 -5.12,15.69 -11.19,38.97 -11.96,67.85 -1.03,28.64 3.78,63.29 19.64,96.47 7.87,16.55 18.03,32.86 30.76,47.29 12.56,14.68 27.21,27.89 43.74,38.71 16.59,10.72 34.86,18.85 53.66,23.86 18.82,5.06 38.33,6.51 56.92,4.68 18.59,-1.85 36.36,-7.54 51.09,-16.79 14.84,-9.09 26.15,-22.04 32.73,-35.59 6.77,-13.55 8.79,-27.44 8.66,-39.23 -0.02,-11.89 -2.15,-21.97 -4.31,-29.97 -2.16,-8.08 -4.87,-14.04 -6.5,-18.13 -1.78,-4.03 -2.75,-6.17 -2.75,-6.17 0,0 0.6,2.23 1.76,6.51 0.99,4.25 2.46,10.55 3.65,18.55 1.09,8.02 1.67,17.88 0.64,28.81 -1.12,10.93 -4.38,23.03 -11.12,34.22 -6.71,11.19 -17.13,21.16 -30.21,28.24 -13.08,7.14 -28.75,11.04 -45.12,12.18 -16.46,1.16 -33.63,-1.16 -50.4,-5.74 -16.79,-4.74 -33.1,-12.22 -47.89,-22 -14.94,-9.6 -28.51,-21.48 -40.13,-34.69 -11.66,-13.27 -21.87,-27.51 -29.54,-42.46 -7.67,-14.94 -13.47,-30.25 -17.3,-45.34 -3.71,-15.14 -5.74,-29.87 -6.56,-43.56 -1.6,-27.46 1.5,-50.68 4.38,-66.67 2.94,-16.08 5.92,-25.02 5.92,-25.02z"/>
   <path class="fil0" d="M1589.76 581.32c0,0 0.17,1.24 0.47,3.62 0.41,2.29 0.47,5.81 1.6,10.1 1.03,4.35 2.21,9.65 4.29,15.54 1.89,5.91 4.5,12.44 8.08,19.25 1.76,3.43 3.58,6.94 5.81,10.46 2.08,3.58 4.42,7.23 6.97,10.78 4.95,7.29 10.87,14.51 17.43,21.54 6.75,6.9 13.91,13.87 21.93,20.02 7.89,6.37 16.53,12.02 25.38,17.3 8.99,5.06 18.39,9.3 27.94,12.95 9.59,3.43 19.45,5.81 29.14,7.16 9.76,1.22 19.38,0.99 28.34,-0.64 8.92,-1.72 17,-5.3 23.56,-9.69 6.64,-4.48 11.29,-10.27 14.62,-15.67 3.19,-5.44 5.27,-10.52 6.43,-14.84 1.56,-4.22 1.69,-7.8 2.16,-10.1 0.39,-2.33 0.58,-3.56 0.58,-3.56 0,0 -0.39,1.18 -1.12,3.45 -0.77,2.21 -1.55,5.6 -3.43,9.52 -1.6,4.03 -4.16,8.7 -7.7,13.42 -3.66,4.68 -8.4,9.41 -14.56,13.05 -6.2,3.54 -13.55,6.24 -21.74,7.23 -8.19,0.92 -16.96,0.47 -25.9,-0.83 -17.9,-3.11 -36.42,-10.29 -53.4,-20.11 -34.28,-19.45 -62.49,-48.62 -77.56,-74.18 -2.03,-3.13 -3.65,-6.26 -5.21,-9.26 -1.65,-2.98 -3.19,-5.83 -4.35,-8.64 -2.66,-5.51 -4.38,-10.46 -5.85,-14.58 -1.48,-4.12 -2.21,-7.54 -2.93,-9.82 -0.62,-2.25 -0.98,-3.49 -0.98,-3.49z"/>
   <path class="fil0" d="M2901.9 523.53c0,0 -5.91,2.55 -17.23,6.77 -11.21,4.31 -28.04,9.82 -49.56,16.25 -42.92,12.56 -105.99,27.14 -182.16,27.98 -9.5,-0.17 -19.19,-0.34 -29.07,-0.53 -9.84,-0.58 -19.83,-1.63 -29.99,-2.36 -10.16,-1.48 -20.49,-2.98 -30.98,-4.48 -10.01,-2.46 -20.24,-4.25 -30.44,-7.27 -10.2,-3.3 -20.64,-6.11 -30.63,-10.55 -10.27,-3.73 -19.96,-8.94 -29.84,-14 -19.19,-10.99 -37.62,-24.12 -53.48,-40.34 -31.86,-32.2 -52.82,-77.09 -48.66,-123.8 2.21,-46.18 28.58,-90.88 70.9,-111.26 20.49,-10.98 44.05,-16.5 67.74,-17.43 2.72,-0.02 6.45,-0.47 8.32,-0.21l9.6 0.41c6.75,0.06 12.02,1.12 17.52,1.95 11.12,1.6 22.48,5.19 32.97,9.41 20.88,9.09 38.71,23.8 51.32,41.91 6.07,9.2 10.93,19.15 14.13,29.54 2.81,10.42 4.87,21.14 4.29,31.69 0.19,2.68 -0.45,5.25 -0.66,7.83l-0.45 3.91 -0.04 0.47c0.04,-0.13 -0.15,0.92 0.06,-0.13l-0.26 1.09 -0.47 2.16 -2.03 8.77c-0.77,2.62 -1.67,4.8 -2.42,7.23 -3.45,9.52 -8.27,19.28 -14.58,27.27 -12.22,16.63 -30.01,28.17 -49.05,34.62 -19.34,6.07 -39.21,7.61 -58.68,3.69 -16.44,-3.88 -33.55,-14.11 -40.03,-29.14 -2.08,-3.56 -3,-7.54 -4.05,-11.42 -0.06,-0.32 -0.34,-1.37 -0.32,-1.05l-0.19 -1.76 -0.39 -3.52c-0.21,-2.23 -0.02,-3.71 -0.09,-5.66 0.26,-7.83 2.93,-15.26 6.97,-21.58 8.13,-12.88 22.79,-20.43 36.77,-21.03l2.59 -0.13c0.26,-0.09 1.76,0.09 2.55,0.13 1.86,0.15 3.99,0.19 5.4,0.58 3.05,0.52 6.33,1.48 9.29,2.79 5.87,2.62 10.74,6.84 14.13,11.85 6.84,10.03 8.26,23.04 3.3,31.9 -4.99,8.27 -14.71,13.12 -22.74,14.43 -8.21,1.6 -15.67,0.09 -20.77,-2.79 -5.25,-2.72 -7.89,-6.69 -9.59,-9.17 -1.43,-2.79 -2.19,-4.22 -2.19,-4.22 0,0 0.64,1.5 1.8,4.38 1.48,2.68 3.86,7.03 9.17,10.42 5.12,3.48 12.95,5.85 22.06,4.89 8.99,-0.83 19.85,-4.5 27.38,-15.22 6.64,-10.65 6.07,-26.15 -1.43,-39.01 -3.78,-6.45 -9.59,-12.24 -16.85,-16.08 -3.65,-1.93 -7.48,-3.36 -11.85,-4.35 -2.27,-0.64 -3.99,-0.73 -5.94,-1.05 -1.12,-0.09 -1.55,-0.28 -3.24,-0.39l-3.24 -0.02c-17.26,-0.32 -36.29,7.59 -48.32,23.88 -6.04,8.02 -10.03,18.07 -10.98,28.68 -0.13,2.72 -0.34,5.87 -0.19,8.27l0.21 3.49 0.13 1.76c0.13,1.5 0.26,1.56 0.41,2.4 1.05,5.34 2.16,10.78 4.68,15.76 1.86,5.32 5.47,9.71 8.51,14.51 3.91,4.03 7.46,8.7 12.22,11.84 8.86,7.4 19.7,11.71 31.49,15.28 21.2,5.21 45.62,4.42 68.62,-2.12 23.03,-6.9 45.6,-20.34 61.78,-40.73 8.39,-9.97 14.56,-21.35 19.32,-34 1.09,-3.19 2.42,-6.56 3.32,-9.63l2.16 -8.66 0.58 -2.16 0.26 -1.05c0.32,-1.43 0.17,-0.79 0.26,-1.24l0.06 -0.64 0.73 -5.06c0.34,-3.32 1.12,-6.75 1.03,-10.1 0.96,-13.61 -1.22,-27.18 -4.55,-40.39 -3.78,-13.14 -9.59,-25.64 -16.92,-37.32 -15.09,-23.04 -37.38,-41.78 -62.92,-52.95 -12.95,-5.36 -25.96,-9.59 -40.09,-11.77 -7.07,-1.12 -14.38,-2.29 -20.49,-2.29l-9.56 -0.52c-4.55,-0.32 -7.16,0.09 -10.85,0.13 -27.46,0.96 -55.37,7.1 -80.39,20.28 -12.69,6.24 -24.07,14.86 -34.79,24.14 -10.08,9.95 -19.79,20.52 -26.82,32.84 -15.14,24.01 -22.61,51.9 -24.24,79.32l-0.41 9.46 -0.09 2.36 -0.04 1.18 0 1.3 0 0.64 0.3 5.21 0.66 10.42 1.73 10.2c2.29,13.55 6.77,26.43 11.96,38.76 10.74,24.59 26.43,46.13 44.7,63.97 18.33,17.95 39.04,32.29 60.58,43.54 10.98,5.21 21.74,10.42 32.97,14.11 10.93,4.48 22.25,7.16 33.29,10.23 11.06,2.92 22.47,4.55 33.42,6.75 10.87,1.12 20.75,2.42 31.94,3.32 10.65,0.34 21.03,0.92 31.28,1.03 10.2,-0.28 20.22,-0.53 30.01,-0.79 39.21,-1.97 74.56,-8.4 105.28,-15.82 30.76,-7.41 56.94,-15.95 78.2,-23.69 21.27,-7.67 37.41,-15.09 48.34,-20.24 10.91,-5.14 16.59,-8.21 16.59,-8.21z"/>
   <path class="fil0" d="M2901.9 533.69c0,0 -7.41,7.54 -22.87,19.79 -15.35,12.31 -38.95,29.09 -70.91,46.84 -31.99,17.62 -72.86,35.39 -121.72,48.02 -48.92,12.54 -105.79,18.09 -167.45,12.91 -61.1,-5.12 -125.94,-23.73 -187.6,-56.87 -30.89,-16.57 -61.08,-36.61 -90.75,-59.15 -29.61,-22.6 -58.95,-47.36 -89.12,-72.8 -30.12,-25.45 -61.01,-51.79 -94.51,-76.62 -33.49,-24.74 -69.74,-48.26 -110.01,-65.62 -40.16,-17.58 -84.04,-28.94 -128.56,-32.33 -12.11,-0.66 -20.77,-1.37 -33.1,-1.22 -11.66,-0.15 -22.66,0.58 -33.96,1.43 -22.44,1.95 -44.95,6.07 -66.86,12.8 -43.92,13.18 -85.02,37.88 -117.1,71.21 -32.2,33.25 -55.1,75.01 -65.7,119.62 -5.44,22.25 -7.54,45.38 -6.2,68.45 0.45,5.74 0.92,11.51 1.82,17.3 0.7,4.82 1.73,10.46 2.79,16.14 2.23,10.87 5.02,21.48 8.27,31.99 13.14,41.78 35.26,81.02 66.41,111.69 31.02,30.66 70.73,51.64 111.17,60.05 20.15,4.42 40.39,6.3 60.14,6.37 19.51,0.21 40.26,-1.86 59.38,-7.01 38.53,-9.9 74.43,-33.62 94.16,-67.21 20.24,-33.23 24.01,-72.52 16.63,-105.96 -1.78,-8.7 -4.05,-16.12 -7.29,-24.87 -2.53,-6.45 -7.07,-15.95 -11.58,-22.47 -9.05,-14 -20.22,-25.64 -32.2,-35.33 -24.03,-19.34 -52.05,-31.36 -79.9,-33.62 -26.69,-1.56 -54.77,3.39 -73.85,19.85 -9.43,8.08 -16.37,18.33 -20.05,29.02 -3.58,10.72 -4.99,21.35 -3.45,31.56 3.71,21.2 18.26,34.66 31.92,41.03 14.04,6.43 28.06,5.42 37.41,1.37 9.56,-4.05 14.9,-10.03 18.09,-13.98 1.63,-2.02 2.66,-3.62 3.39,-4.74 0.7,-1.05 1.05,-1.63 1.05,-1.63 0,0 -0.41,0.52 -1.24,1.5 -0.79,1.03 -2.02,2.53 -3.84,4.29 -3.52,3.54 -9.41,8.7 -18.55,11.45 -9,2.75 -21.41,2.15 -32.97,-4.8 -11.29,-6.51 -22.31,-19.72 -23.47,-35.72 -0.96,-16.4 5.44,-35.84 21.2,-47.7 7.67,-6.04 17.49,-10.03 28.24,-12.24 5.51,-1.09 10.72,-1.6 16.53,-1.93 2.98,0 5.98,-0.02 9.03,-0.06 2.88,0.28 5.79,0.53 8.7,0.79 23.3,3.24 47.1,15.07 66.82,32.99 19.83,17.88 35.31,42.03 38.84,70.31 4.74,28.24 -0.23,58.89 -16.89,83.41 -16.46,24.61 -43.91,42.08 -75.55,49.05 -16.01,3.61 -32.13,4.8 -49.76,3.96 -17.36,-0.64 -34.69,-3 -51.47,-7.33 -33.63,-8.64 -65,-25.77 -89.65,-51.26 -24.72,-25.43 -42.62,-58.48 -53.04,-94.33 -2.55,-9.03 -4.74,-18.16 -6.38,-27.38 -0.73,-4.35 -1.5,-8.79 -2.15,-14.11 -0.53,-4.42 -0.96,-8.9 -1.24,-13.35 -0.92,-17.9 0.86,-36.38 5.38,-54.33 8.83,-36.04 27.76,-70.08 54.17,-96.92 26.28,-26.99 59.89,-46.65 96.56,-57.96 18.33,-5.74 37.45,-9.43 56.85,-11.25 9.69,-0.83 19.7,-1.55 29.07,-1.43 8.7,-0.32 20.97,0.41 29.8,0.83 39.19,2.75 77.41,12.35 113.34,27.76 72.22,30.7 134.77,81.96 195.94,131.58 60.95,50.1 123.61,97.91 190.86,130.89 66.99,33.62 137.65,49.43 202.58,51.86 64.55,2.85 124.12,-7.07 173.84,-22.77 49.95,-15.63 90.29,-37.32 121.53,-57.3 31.34,-20.11 53.35,-39.4 67.87,-52.88 14.38,-13.53 21.14,-21.66 21.14,-21.66z"/>
   <path class="fil0" d="M906.87 426.01c0,0 -5.14,0.83 -14.84,2.36 -9.63,1.63 -23.82,4.44 -41.46,9.59 -17.7,4.99 -38.83,12.82 -62.02,24.07 -23.21,11.28 -48.06,26.73 -73.76,45.08 -25.57,18.52 -51.98,39.87 -80.47,60.44 -28.36,20.69 -59.89,39.34 -94.93,52.15 -17.56,6.33 -35.84,11.53 -54.56,14.38 -18.35,2.72 -37.47,2.92 -55.76,-0.47 -18.29,-3.32 -36.04,-10.03 -51.45,-20.47 -15.43,-10.4 -28.62,-24.31 -38.07,-40.39 -9.43,-16.06 -15.31,-34.36 -15.95,-52.28 -0.9,-19.28 1.76,-38.31 7.74,-56 6.04,-17.65 15.73,-33.62 28.64,-46.11 12.88,-12.56 28.84,-21.52 45.92,-27.25 8.57,-2.85 17.3,-4.89 26.41,-6.2 8.14,-1.18 17.13,-1.35 25.36,-0.41 16.59,1.89 31.83,8.83 42.72,19.96 10.93,10.99 17.13,25.94 18.55,41.03 0.64,7.54 0.34,15.24 -1.12,22.51 -1.35,6.56 -4.31,13.53 -7.87,19.64 -7.23,12.44 -17.49,22.57 -28.81,29.27 -5.61,3.32 -11.58,5.87 -17.58,7.2 -6.33,1.35 -12.31,1.89 -18.03,1.48 -11.53,-0.7 -21.41,-6.13 -26.86,-14.32 -5.47,-8.14 -7.36,-17.75 -4.68,-25.49 2.53,-7.89 8.27,-13.68 14.07,-16.79 5.91,-3.11 11.98,-3.26 16.53,-2.1 9.24,2.66 12.56,7.54 12.69,7.23 -0.21,0.32 -2.81,-4.89 -12.18,-8.79 -4.69,-1.76 -11.45,-2.36 -18.52,0.39 -7.03,2.72 -14.24,8.7 -18.22,17.96 -1.97,4.48 -2.98,10.23 -2.33,15.67 0.77,5.66 2.62,11.06 5.85,16.31 6.2,10.59 18.91,18.35 32.67,19.58 6.94,0.77 14.11,0.34 21.01,-0.83 7.27,-1.12 14.38,-3.71 21.2,-7.16 13.61,-7.07 26,-17.9 35.33,-31.92 4.69,-7.14 8.53,-14.84 10.91,-24.1 2.12,-8.53 2.98,-17.52 2.62,-26.79 -0.77,-18.39 -7.48,-37.92 -21.1,-53.1 -13.42,-15.37 -33.42,-24.93 -53.94,-28.04 -10.42,-1.5 -20.56,-1.69 -31.43,-0.53 -9.88,1.05 -20.22,3 -30.21,5.98 -20.15,5.85 -40.13,16.06 -56.34,31.34 -16.37,15.09 -28.71,34.56 -36.38,55.5 -7.63,20.94 -11.12,43.48 -10.65,65.65 0.64,23.67 7.93,46.11 19.38,66.03 11.51,19.85 27.57,36.95 46.43,49.89 18.91,12.95 40.54,21.41 62.51,25.38 22.06,3.91 44.16,3.49 65.45,0.17 20.97,-3.32 40.99,-9.29 60.02,-16.37 38.31,-14.32 71.37,-36.36 100.07,-58.5 28.75,-22.38 53.55,-45.28 77.67,-64.59 23.76,-19.76 46.69,-36.17 68.11,-48.99 21.28,-13.08 41.16,-22.34 57.82,-29.35 16.72,-6.9 30.25,-11.45 39.56,-14.45 9.28,-2.9 14.28,-4.42 14.28,-4.42z"/>
   <path class="fil0" d="M906.87 426.01c0,0 -5.14,0.83 -14.84,2.36 -9.63,1.63 -23.82,4.44 -41.46,9.59 -17.7,4.99 -38.83,12.82 -62.02,24.07 -23.21,11.28 -48.06,26.73 -73.76,45.08 -25.57,18.52 -51.98,39.87 -80.47,60.44 -28.36,20.69 -59.89,39.34 -94.93,52.15 -17.56,6.33 -35.84,11.53 -54.56,14.38 -18.35,2.72 -37.47,2.92 -55.76,-0.47 -18.29,-3.32 -36.04,-10.03 -51.45,-20.47 -15.43,-10.4 -28.62,-24.31 -38.07,-40.39 -9.43,-16.06 -15.31,-34.36 -15.95,-52.28 -0.9,-19.28 1.76,-38.31 7.74,-56 6.04,-17.65 15.73,-33.62 28.64,-46.11 12.88,-12.56 28.84,-21.52 45.92,-27.25 8.57,-2.85 17.3,-4.89 26.41,-6.2 8.14,-1.18 17.13,-1.35 25.36,-0.41 16.59,1.89 31.83,8.83 42.72,19.96 10.93,10.99 17.13,25.94 18.55,41.03 0.64,7.54 0.34,15.24 -1.12,22.51 -1.35,6.56 -4.31,13.53 -7.87,19.64 -7.23,12.44 -17.49,22.57 -28.81,29.27 -5.61,3.32 -11.58,5.87 -17.58,7.2 -6.33,1.35 -12.31,1.89 -18.03,1.48 -11.53,-0.7 -21.41,-6.13 -26.86,-14.32 -5.47,-8.14 -7.36,-17.75 -4.68,-25.49 2.53,-7.89 8.27,-13.68 14.07,-16.79 5.91,-3.11 11.98,-3.26 16.53,-2.1 9.24,2.66 12.56,7.54 12.69,7.23 -0.21,0.32 -2.81,-4.89 -12.18,-8.79 -4.69,-1.76 -11.45,-2.36 -18.52,0.39 -7.03,2.72 -14.24,8.7 -18.22,17.96 -1.97,4.48 -2.98,10.23 -2.33,15.67 0.77,5.66 2.62,11.06 5.85,16.31 6.2,10.59 18.91,18.35 32.67,19.58 6.94,0.77 14.11,0.34 21.01,-0.83 7.27,-1.12 14.38,-3.71 21.2,-7.16 13.61,-7.07 26,-17.9 35.33,-31.92 4.69,-7.14 8.53,-14.84 10.91,-24.1 2.12,-8.53 2.98,-17.52 2.62,-26.79 -0.77,-18.39 -7.48,-37.92 -21.1,-53.1 -13.42,-15.37 -33.42,-24.93 -53.94,-28.04 -10.42,-1.5 -20.56,-1.69 -31.43,-0.53 -9.88,1.05 -20.22,3 -30.21,5.98 -20.15,5.85 -40.13,16.06 -56.34,31.34 -16.37,15.09 -28.71,34.56 -36.38,55.5 -7.63,20.94 -11.12,43.48 -10.65,65.65 0.64,23.67 7.93,46.11 19.38,66.03 11.51,19.85 27.57,36.95 46.43,49.89 18.91,12.95 40.54,21.41 62.51,25.38 22.06,3.91 44.16,3.49 65.45,0.17 20.97,-3.32 40.99,-9.29 60.02,-16.37 38.31,-14.32 71.37,-36.36 100.07,-58.5 28.75,-22.38 53.55,-45.28 77.67,-64.59 23.76,-19.76 46.69,-36.17 68.11,-48.99 21.28,-13.08 41.16,-22.34 57.82,-29.35 16.72,-6.9 30.25,-11.45 39.56,-14.45 9.28,-2.9 14.28,-4.42 14.28,-4.42z"/>
   <path class="fil0" d="M2838.43 0c0,0 34.88,93.43 -51.73,111.56 -42.11,-77.86 51.73,-111.56 51.73,-111.56z"/>
   <path class="fil0" d="M2759.51 93.12c-7.5,16.25 -0.47,35.5 15.76,43.05 16.25,7.5 35.52,0.47 43.05,-15.76 7.54,-16.25 0.45,-35.5 -15.73,-43.02 -16.27,-7.58 -35.52,-0.51 -43.07,15.73z"/>
   <path class="fil0" d="M2775.3 136.15c0,0 -32.9,-0.83 -34,-34.02 -0.73,-22.1 10.14,-43.39 -20.69,-62.79 0,0 53.08,5.94 60.84,54.24 1.71,10.61 1.02,26.49 -6.16,42.58z"/>
   <path class="fil0" d="M2775.3 136.13c0,0 21.91,24.66 47.93,3.99 17.32,-13.68 26.56,-35.76 61.29,-24.74 0,0 -38.84,-36.7 -80.67,-11.41 -9.22,5.51 -20.94,16.25 -28.55,32.16z"/>
   <path class="fil0" d="M1356.99 498.1c49.05,50.62 97.69,111.63 128.67,177.46 0,0 -58.55,-74.24 -143.72,-151.43 0.35,-14.92 7.98,-22.38 15.05,-26.02z"/>
   <path class="fil0" d="M56.17 440.86c0,0 -13.21,-54.51 42.98,-54.51 81.06,0 82.62,89.25 157.97,122.19 7.87,3.45 17.39,7.61 28.51,11.72 0,0.34 -0.02,0.73 -0.02,1.09 0.41,16.08 3.73,32 9.69,47.5 -137.38,-36.95 -184.94,-130.58 -295.3,-88.34 0,0.02 18.18,-34.66 56.17,-39.66z"/>
   <path class="fil0" d="M314.57 529.67c1.89,15.82 7.27,32.13 15.82,46.93 -3.62,-0.64 -7.2,-1.24 -10.72,-1.95 -7.76,-15.5 -12.37,-31.4 -13.65,-47.49 2.78,0.88 5.66,1.72 8.55,2.51z"/>
   <path class="fil0" d="M903.1 376.72c-188.1,65.26 -307.14,210.73 -506.46,206.29 -13.94,-0.34 -27.14,-1.24 -39.73,-2.59 -3.24,-4.05 -6.24,-8.27 -8.86,-12.69 -6.17,-10.48 -10.42,-21.87 -12.74,-33.12 25.32,5.14 55.1,7.96 89.46,5.27 5.85,2.79 12.22,4.63 18.86,5.21 6.97,0.77 15.16,0.45 23.5,-0.92 7.67,-1.22 15.82,-3.95 24.07,-8.14 6.84,-3.52 13.18,-7.96 19.08,-12.97 55.67,-17.19 119.57,-48.53 191.99,-102 0,0 -89.25,3.3 -132.21,-84.27 0,0 42.28,27.59 104.72,17.43 0.9,1.05 1.82,2.08 2.98,3.19 6.38,6.63 16.19,14.04 26.95,19.15 2.66,1.43 5.51,2.33 8.21,3.45 2.68,1.12 5.53,1.73 8.13,2.55 2.66,0.79 5.34,1.12 7.74,1.67 2.46,0.58 4.87,0.64 7.03,0.86 4.31,0.6 7.96,0.45 10.46,0.45 2.49,0 3.96,0 3.96,0 0,0 -1.43,-0.21 -3.91,-0.64 -2.49,-0.39 -6.04,-0.86 -10.1,-2.03 -2.08,-0.6 -4.31,-1.03 -6.58,-1.97 -2.23,-0.9 -4.69,-1.59 -7.03,-2.75 -2.33,-1.22 -4.87,-2.16 -7.16,-3.62 -2.36,-1.43 -4.82,-2.68 -7.01,-4.38 -8.19,-5.66 -14.97,-12.69 -19.59,-18.86 12.67,-3.11 25.96,-7.66 39.87,-14.5 9.09,-4.44 18.09,-9.09 27.14,-13.68 0.66,0.32 1.22,0.64 1.9,1.03 3.62,2.08 8.08,3.99 12.75,6.2 2.33,1.16 4.93,1.95 7.46,2.93 2.53,0.92 5.08,1.97 7.67,2.85 2.68,0.73 5.32,1.48 7.96,2.21 2.62,0.64 5.12,1.55 7.7,1.8 2.53,0.39 4.99,0.73 7.33,1.09 2.36,0.26 4.48,0.86 6.51,0.73 8.13,-0.13 13.53,-0.21 13.53,-0.21 0,0 -5.27,-0.79 -13.18,-2.1 -1.97,-0.17 -3.99,-1.16 -6.17,-1.76 -2.15,-0.7 -4.42,-1.5 -6.77,-2.27 -2.33,-0.6 -4.61,-1.95 -6.97,-3 -2.33,-1.09 -4.68,-2.16 -7.03,-3.3 -2.33,-1.22 -4.55,-2.66 -6.77,-3.96 -2.16,-1.37 -4.44,-2.46 -6.38,-3.95 -2.42,-1.69 -4.68,-3.26 -6.84,-4.76 20.77,-10.59 41.78,-20.73 63.63,-28.58 0,0.02 0.02,0.02 0.02,0.06 1.5,1.35 3.36,2.55 5.19,3.96 1.89,1.37 3.78,2.92 6,4.09 2.19,1.22 4.38,2.46 6.64,3.78 2.21,1.42 4.8,2.12 7.2,3.18 2.4,0.96 4.82,1.95 7.23,2.92 2.49,0.6 4.93,1.22 7.29,1.76 2.33,0.58 4.57,1.12 6.75,1.63 2.15,0.58 4.25,0.52 6.17,0.77 7.54,0.58 12.61,1.03 12.61,1.03 0,0 -4.87,-1.3 -12.15,-3.32 -1.76,-0.6 -3.78,-0.83 -5.72,-1.76 -1.95,-0.9 -3.99,-1.82 -6.11,-2.75 -2.08,-0.96 -4.25,-1.93 -6.45,-2.92 -2.02,-1.29 -4.09,-2.62 -6.13,-3.95 -1.97,-1.42 -4.18,-2.36 -5.91,-4.05 -1.82,-1.5 -3.58,-3 -5.32,-4.48 -1.69,-1.24 -3,-2.85 -4.31,-4.29 41.31,-12.74 85.93,-15.89 137.91,3.18l-7.83 2.49c-1.9,0.64 -48.21,15.73 -65.73,57.96 -3.89,9.21 -6.03,19.05 -6.48,29.34z"/>
   <path class="fil0" d="M3219.22 715.18c-9.97,54.54 -67.78,89.25 -87.62,132.25 -19.85,-43.01 -77.69,-77.69 -87.57,-132.25 0,0 -28.15,66.16 19.79,145.48 44.77,74.15 67.78,158.62 67.78,158.62 0,0 23.03,-84.48 67.81,-158.62 47.91,-79.32 19.81,-145.48 19.81,-145.48z"/>
   <path class="fil0" d="M2515.21 503.65c0,0 188.52,72.72 295.79,-8.26 135.72,-102.47 56.19,-318.95 56.19,-318.95 26.48,170.24 -71.04,264.39 -71.04,264.39 16.53,-171.87 -92.52,-191.37 -92.52,-191.37 39.66,81.25 31.36,140.14 -21.52,202.95 -52.87,62.79 -166.9,51.24 -166.9,51.24zm93.36 8.77c0,0 3.79,-1.24 10.52,-3.45 3.32,-1.03 7.33,-2.23 11.98,-3.65 4.61,-1.3 9.84,-2.66 15.28,-4.99 5.51,-2.15 11.42,-4.44 17.69,-6.69 6.2,-2.42 12.18,-6.13 18.78,-9.05 6.75,-2.68 12.31,-7.7 18.73,-11.45l4.74 -3 4.18 -3.71 8.47 -7.41c2.92,-2.33 4.99,-5.51 7.54,-8.21 2.29,-2.88 5.21,-5.34 6.94,-8.6 1.9,-3.13 3.91,-6.13 5.94,-9.16 2.02,-2.98 3.19,-6.43 4.82,-9.5 3.32,-6.24 4.95,-12.92 7.27,-19.08 1.3,-6.37 3.18,-12.37 3.78,-18.13 1.82,-11.47 1.95,-21.33 1.86,-28.24 -0.02,-6.97 -0.58,-10.98 -0.58,-10.98 0,0 0.41,0.92 1.03,2.68 0.66,1.78 1.63,4.42 2.46,7.87 0.99,3.39 1.76,7.63 2.55,12.54 0.53,4.89 1.37,10.52 1.16,16.7 0.32,6.2 -0.6,12.87 -1.43,19.98 -1.69,6.84 -2.66,14.56 -6.04,21.71 -1.56,3.58 -2.68,7.48 -4.69,11.02 -2.02,3.52 -4.09,7.14 -6.3,10.61 -1.9,3.78 -4.99,6.64 -7.57,9.97 -2.79,3.13 -5.14,6.71 -8.34,9.43l-9.63 8.13 -4.8 3.99 -5.27 3.26c-7.03,4.16 -13.74,8.83 -21.1,11.29 -7.14,2.85 -13.94,5.94 -20.73,7.8 -6.81,1.69 -13.27,3.13 -19.19,4.42 -5.87,1.63 -11.45,1.97 -16.37,2.36 -4.89,0.39 -9.17,0.7 -12.67,0.96 -7,0.44 -11.01,0.57 -11.01,0.57z"/>
   <path class="fil0" d="M2184.67 74c0,0 79.32,-37.98 122.3,37.2 42.98,75.21 -8.26,137.99 -14.86,218.97 -6.63,80.99 69.41,157.03 69.41,157.03 -19.83,-36.36 -64.01,-107.1 -40.65,-182.67 21.22,-68.43 111.69,-157.8 252.15,-114.82 140.46,42.96 208.25,-64.42 208.25,-64.42 0,0 -73.7,75.94 -193.35,37.98 -135.55,-42.98 -208.25,28.11 -208.25,28.11 0,0 44.64,-117.35 -51.21,-156.98 -95.85,-39.73 -143.78,39.6 -143.78,39.6zm112.83 -26.34c0,0 2.72,0.6 7.57,1.97 2.42,0.73 5.38,1.56 8.77,2.72 3.39,1.16 6.77,3.32 10.68,5.44 1.9,1.12 3.99,2.21 6,3.49 1.86,1.56 3.73,3.18 5.7,4.87 1.95,1.73 3.96,3.43 6.02,5.27 1.82,1.97 3.43,4.29 5.14,6.5 3.73,4.38 6.71,9.43 9.17,14.9 1.5,2.62 2.62,5.38 3.49,8.27l2.85 8.6c1.05,5.87 2.4,11.77 2.75,17.56 0.47,5.85 0.58,11.58 0.13,17.06 -0.06,5.53 -1.05,10.74 -1.86,15.67 -0.77,4.95 -2.08,9.5 -3.19,13.65 -4.87,16.7 -11.19,26.45 -11.19,26.45 0,0 1.59,-11.42 2.85,-27.91 0.34,-8.32 0.92,-17.9 0.34,-27.98 0.04,-5.08 -0.86,-10.2 -1.3,-15.37 -0.53,-5.21 -1.89,-10.33 -2.93,-15.48 -1.78,-4.87 -2.46,-10.2 -4.99,-14.68 -1.09,-2.27 -2.1,-4.61 -3.06,-6.9 -0.96,-2.33 -2.55,-4.25 -3.78,-6.33 -1.29,-2.12 -2.55,-4.16 -3.79,-6.17 -1.55,-1.8 -3,-3.52 -4.48,-5.27 -1.48,-1.73 -2.88,-3.45 -4.25,-5.12 -1.55,-1.5 -3.18,-2.81 -4.68,-4.16 -3.11,-2.55 -5.7,-5.47 -8.4,-7.4 -2.75,-1.9 -5.21,-3.62 -7.18,-4.99 -4.07,-2.9 -6.38,-4.68 -6.38,-4.68z"/>
   <path class="fil0" d="M1480.52 533.35c0,-74.36 58.01,-201.53 221.86,-248.78 152.83,-44.12 302.19,-10.55 449.22,134.84 114.79,113.53 239.65,161.96 239.65,161.96 -110.7,-57.75 -140.93,-195.7 -243.3,-308.74 -1.16,1.76 -2.36,3.58 -3.19,5.6 -1.55,3.11 -3.11,6.3 -4.63,9.5 -1.82,3.24 -2.85,6.75 -4.09,10.27 -1.24,3.54 -2.46,7.1 -3.69,10.59 -1.18,3.52 -1.56,7.16 -2.36,10.61 -0.7,3.56 -1.42,6.94 -2.06,10.2 -0.86,3.26 -0.7,6.38 -0.92,9.3 -0.6,11.77 -0.99,19.59 -0.99,19.59 0,0 -2.08,-7.67 -5.21,-19.21 -0.66,-2.92 -1.89,-6.11 -2.08,-9.56 -0.41,-3.45 -0.86,-7.11 -1.29,-10.93 -0.34,-3.79 -1.12,-7.83 -1.12,-11.85 0.06,-4.09 0.13,-8.26 0.19,-12.41 0.13,-4.18 0.06,-8.47 0.79,-12.54 0.6,-4.16 1.16,-8.21 1.72,-12.18 0.45,-4.03 1.73,-7.7 2.53,-11.36 0.92,-3.43 1.56,-6.77 2.68,-9.76 -44.18,-40.03 -107.53,-73.89 -178.64,-93.9 -1.69,4.03 -3.45,8.4 -4.93,13.27 -2.16,6.63 -3.86,13.87 -5.02,21.28 -0.32,3.69 -1.09,7.48 -1.05,11.17 -0.13,3.71 -0.34,7.41 0.06,10.93 0.15,3.58 0.41,7.07 1.12,10.29 0.64,3.26 1.03,6.45 2.02,9.17 0.86,2.85 1.67,5.42 2.36,7.74 0.99,2.23 1.86,4.12 2.55,5.72 1.48,3.24 2.33,5.06 2.33,5.06 0,0 -1.37,-1.5 -3.73,-4.16 -1.22,-1.35 -2.66,-2.93 -4.35,-4.82 -1.43,-2.06 -3.05,-4.42 -4.82,-6.94 -1.9,-2.59 -3.32,-5.64 -5.06,-8.83 -1.86,-3.19 -3.26,-6.71 -4.68,-10.48 -1.63,-3.73 -2.68,-7.74 -3.84,-11.84 -1.3,-4.09 -1.82,-8.34 -2.75,-12.62 -1.35,-8.53 -2.03,-17.3 -2.02,-25.49 -0.06,-6.17 0.34,-11.85 0.83,-17.17 -88.86,-19.32 -186.77,-16.27 -273.35,22.91 3.32,10.27 8.53,22.27 15.93,33.46 2.15,3.58 4.63,6.88 7.18,10.1 2.4,3.39 5.27,6.26 7.97,9.24 2.59,3.06 5.6,5.47 8.32,8.02 2.68,2.59 5.51,4.69 8.13,6.63 5.19,4.05 9.95,6.88 13.34,8.79 3.39,2.02 5.34,3.18 5.34,3.18 0,0 -2.23,-0.41 -6.04,-1.16 -3.95,-0.66 -9.56,-1.73 -16.12,-3.91 -3.32,-0.92 -6.94,-2.08 -10.59,-3.71 -3.69,-1.55 -7.8,-3 -11.59,-5.19 -3.91,-2.08 -8.13,-4.05 -12.02,-6.71 -3.99,-2.49 -8.06,-5.14 -11.84,-8.14 -13.01,-9.69 -24.24,-21.58 -32.67,-32.47 -2.88,1.69 -5.79,3.3 -8.64,5.08 -71.11,45.07 -106.18,101.53 -122.15,155.47 1.29,0 2.53,-0.06 3.84,-0.09 3.24,-0.13 6.51,-0.15 9.65,-0.83 3.19,-0.58 6.37,-1.12 9.39,-1.63 3.06,-0.58 6.13,-0.96 8.96,-1.67 2.75,-0.86 5.4,-1.65 7.8,-2.4 9.84,-3.05 16.4,-5.06 16.4,-5.06 0,0 -5.47,4.25 -13.65,10.61 -2.1,1.59 -4.38,3.39 -6.77,5.21 -2.46,1.76 -5.34,3.24 -8.19,4.99 -2.88,1.69 -5.87,3.49 -8.96,5.25 -3.05,1.97 -6.38,3.3 -9.78,4.74 -3.45,1.43 -6.88,2.85 -10.27,4.29 -1.48,0.58 -3,1.05 -4.55,1.43 -16.84,86.31 10.82,160.06 10.82,160.06zm557.11 -282.2c0.26,-3.13 0.6,-5.66 1.16,-7.46 0.45,-1.76 0.9,-2.72 0.9,-2.72 0,0 1.63,3.92 3.58,9.3 1.22,2.68 2.08,5.81 3.52,9.05 1.29,3.3 2.36,6.84 3.95,10.23 1.12,3.58 2.66,6.97 3.92,10.29 1.22,3.32 2.23,6.56 3.36,9.22 2.03,5.44 2.79,9.71 2.79,9.71 0,0 -3.45,-2.33 -7.66,-6.77 -2.29,-2.15 -4.31,-5.02 -6.33,-8.26 -2.15,-3.18 -3.91,-6.84 -5.34,-10.68 -1.5,-3.78 -2.55,-7.7 -3.18,-11.51 -0.78,-3.73 -0.67,-7.4 -0.67,-10.4zm-32.04 -15.61c-0.32,-2.72 0.21,-5.4 0.6,-7.89 0.34,-2.53 0.64,-4.87 1.3,-6.97 0.64,-2.1 1.35,-4.03 1.97,-5.66 0.52,-1.67 1.46,-3.06 2.02,-4.16 1.18,-2.27 2.15,-3.36 2.15,-3.36 0,0 -0.21,1.5 -0.28,3.99 -0.28,2.4 -0.09,5.9 -0.26,9.95 -0.02,1.97 0.41,4.22 0.41,6.51 0.13,2.23 0.26,4.63 0.77,7.1 0.39,2.46 0.9,4.95 1.18,7.5 0.28,2.55 1.37,5.06 2.03,7.54 0.7,2.55 1.12,5.19 1.97,7.61 1.12,2.38 1.95,4.8 2.92,7.14 0.96,2.33 1.72,4.63 2.49,6.88 0.92,2.08 2.1,3.99 2.93,5.85 3.73,7.31 5.66,12.97 5.66,12.97 0,0 -4.5,-3.49 -10.42,-9.88 -1.48,-1.6 -3.24,-3.24 -4.63,-5.27 -1.29,-2.15 -2.68,-4.42 -3.95,-6.81 -1.29,-2.42 -2.75,-4.89 -3.96,-7.5 -1.05,-2.66 -1.76,-5.57 -2.62,-8.39 -0.6,-2.92 -1.67,-5.7 -1.89,-8.6 -0.23,-2.88 -0.27,-5.78 -0.4,-8.54zm-185.61 -13.86c-2.53,-2.33 -4.5,-5.06 -6.69,-7.63 -2.08,-2.55 -3.73,-5.44 -5.4,-8.08 -3.18,-5.47 -5.51,-10.85 -6.97,-15.63 -3.06,-9.5 -2.93,-16.25 -2.93,-16.25 0,0 3.11,5.85 8.13,13.87 2.49,4.03 5.6,8.53 9.05,13.21 3.58,4.5 7.36,9.37 11.79,13.48 2.08,2.23 4.31,4.31 6.64,6.11 2.23,2.02 4.61,3.73 6.94,5.36 2.27,1.8 4.69,3.13 6.94,4.55 2.23,1.42 4.44,2.59 6.58,3.58 2.1,0.99 3.99,2.16 5.79,2.92 1.78,0.73 3.36,1.42 4.68,1.93 2.66,1.22 4.12,1.89 4.12,1.89 0,0 -1.63,0.09 -4.55,0.06 -2.88,0 -7.1,-0.13 -11.96,-1.42 -2.49,-0.45 -5.14,-1.12 -7.83,-2.29 -2.68,-1.03 -5.66,-2.02 -8.34,-3.73 -5.65,-2.97 -11.18,-7.11 -15.99,-11.92zm-66.6 -47.61c0,0 0.52,1.55 1.73,3.88 0.47,1.22 1.29,2.59 2.23,4.16 1.03,1.55 1.82,3.36 3.18,5.14 1.35,1.76 2.75,3.65 4.12,5.7 1.35,2.1 3.49,3.84 5.12,5.98 1.89,1.97 3.43,4.25 5.68,6.13 2.08,1.93 4.22,3.91 6.33,5.9 1.97,2.15 4.14,4.09 6.56,5.72 2.33,1.69 4.48,3.58 6.64,5.34 2.21,1.67 4.05,3.66 6.2,5.08 2.15,1.42 4.12,2.81 5.94,4.16 7.29,5.32 11.96,9.71 11.96,9.71 0,0 -6.04,-1.35 -14.77,-4.74 -2.21,-0.83 -4.57,-1.78 -7.03,-2.88 -2.49,-0.99 -4.8,-2.66 -7.29,-4.18 -2.42,-1.63 -5.08,-3.18 -7.61,-4.99 -2.62,-1.67 -5.02,-3.66 -7.29,-5.91 -2.23,-2.23 -4.48,-4.5 -6.69,-6.71 -2.36,-2.02 -3.73,-4.99 -5.57,-7.36 -1.63,-2.53 -3.43,-4.8 -4.48,-7.36 -1.16,-2.53 -2.15,-4.95 -2.98,-7.16 -0.92,-2.16 -1.16,-4.48 -1.6,-6.33 -0.47,-1.85 -0.6,-3.58 -0.6,-4.99 -0.11,-2.82 0.24,-4.3 0.24,-4.3zm-194.57 102.84c0,0 1.22,0.13 3.36,0.32 2.03,0.19 4.99,0.52 8.51,0.86 3.45,0.52 7.59,0.73 11.84,1.37 2.16,0.26 4.42,0.47 6.69,0.66 2.23,0.21 4.5,0.7 6.81,0.7 4.57,0.28 9.17,1.03 13.47,1.09 4.29,0.11 8.39,0.7 11.84,0.66 6.94,0.02 11.85,0.52 11.85,0.52 0,0 -4.42,1.78 -11.47,3.73 -3.49,0.99 -7.7,1.22 -12.22,1.63 -4.55,0.6 -9.35,-0.09 -14.17,-0.21 -9.59,-0.99 -18.95,-3.36 -25.64,-6.04 -6.73,-2.62 -10.87,-5.3 -10.87,-5.3z"/>
   <path class="fil0" d="M1852.56 411.13c33.03,26.45 67.72,69.41 133.81,76.04 0,0 -47.93,13.21 -84.29,-9.95 0,0 51.47,120.86 181.77,137.42 0,0 -54.51,25.06 -99.15,0 0,0 77.69,113.77 208.25,108.84 0,0 -94.21,128.86 94.2,143.76 0,0 -36.74,-32.54 -33.06,-62.79 4.95,-40.77 52.75,-65.26 107.42,-56.19 121.45,20.15 218.12,19.83 353.64,-62.79 0,0 -280.92,77.67 -459.4,-26.43 -178.49,-104.14 -231.35,-325.59 -502.36,-280.96 -0.01,0 66.15,6.62 99.18,33.06zm232.83 252.85c1.95,0.13 4.05,0.26 6.24,0.52 2.16,0.32 4.48,0.32 6.88,0.32 2.36,0.13 4.82,0.11 7.33,0.36 2.46,-0.13 4.99,-0.21 7.54,-0.36 2.53,-0.06 5.06,0.19 7.54,-0.13 2.49,-0.39 4.95,-0.45 7.37,-0.7 2.36,-0.21 4.69,-0.28 6.97,-0.34 2.21,-0.28 4.29,-0.58 6.24,-0.83 7.76,-0.96 13.47,-0.83 13.47,-0.83 0,0 -4.57,3.05 -12.05,6.37 -1.89,0.83 -3.91,1.82 -6.13,2.53 -2.27,0.64 -4.68,1.24 -7.16,1.76 -2.53,0.52 -5.12,1.18 -7.8,1.59 -2.66,0.45 -5.44,0.34 -8.19,0.52 -2.79,0 -5.53,0 -8.26,-0.02 -2.72,-0.26 -5.38,-0.79 -7.93,-1.22 -5.14,-0.6 -9.69,-2.68 -13.55,-3.99 -3.78,-1.89 -6.77,-3.49 -8.7,-5.06 -1.95,-1.43 -2.88,-2.46 -2.88,-2.46 0,0 1.37,0.34 3.71,0.64 2.22,0.52 5.59,0.71 9.36,1.35zm-87.74 -125.67c4.8,1.63 9.88,3.3 15.11,4.57 2.59,0.77 5.08,1.78 7.67,2.33 2.62,0.52 5.14,1.3 7.59,1.95 2.46,0.64 4.82,1.42 7.07,2.1 2.29,0.58 4.44,1.09 6.45,1.56 8,2.03 13.4,4.29 13.4,4.29 0,0 -5.6,1.09 -14.11,1.37 -4.29,0.32 -9.24,0.02 -14.51,-0.79 -5.27,-0.58 -10.87,-1.6 -16.33,-3.32 -2.72,-0.83 -5.44,-1.73 -8.08,-2.55 -2.62,-1.05 -5.08,-2.29 -7.5,-3.43 -4.93,-2.12 -9.09,-5.12 -12.62,-7.48 -3.39,-2.68 -6.07,-5.02 -7.74,-6.97 -1.73,-1.78 -2.53,-3 -2.53,-3 0,0 5.38,2.1 12.97,4.99 3.98,1.17 8.26,3.03 13.15,4.38z"/>
   <path class="fil0" d="M783.33 624.33c24.79,153.66 229.7,132.18 266.06,79.3 0,0 -49.5,36.17 -115.46,11.98 -59.71,-21.93 -75.48,-66.99 -69.7,-117.76 9.78,-86.01 99.25,-90.89 99.25,-90.89 0,0 -28.11,80.99 56.19,119 0,0 -14.88,-85.94 62.79,-89.25 77.69,-3.3 156.54,44.61 156.54,44.61 0,0 -105.32,18.2 -55.76,125.63 0,0 13.22,-87.62 123.97,-43.01 110.73,44.64 199.46,203.29 418.1,163.61 0,0 -147.75,-9.33 -261.03,-112.37 -90.02,-81.83 -132.27,-145.41 -132.27,-190.02 0,-44.61 52.88,-51.19 79.32,-28.11 0,0 -41.31,-46.24 -89.25,-41.31 -38.7,4.01 -57.83,26.45 -52.88,56.21 0,0 -65.7,-59.51 -141.1,-71.09 -75.39,-11.58 -169.55,-71.04 -149.74,-142.09 0,0 -104.1,33.06 -49.59,138.83 -0.05,0.02 -170.28,33.06 -145.45,186.74zm515.37 -114.37c0.26,-2.03 0.26,-4.42 0.9,-6.71 0.64,-2.29 1.22,-4.82 2.16,-7.36 1.24,-2.36 2.27,-5.02 3.88,-7.4 1.85,-2.16 3.3,-4.82 5.53,-6.71 2.1,-2.03 4.38,-3.91 6.81,-5.36 2.27,-1.8 4.99,-2.66 7.37,-3.88 5.02,-1.82 9.88,-2.92 14.07,-3.05 8.34,-0.52 13.61,1.56 13.61,1.56 0,0 -5.38,1.29 -12.5,3.99 -1.8,0.66 -3.65,1.48 -5.6,2.36 -1.97,0.73 -3.84,2.03 -5.87,2.98 -3.73,2.46 -7.8,4.93 -10.93,8.4 -1.89,1.43 -3.06,3.52 -4.63,5.19 -1.3,1.95 -2.62,3.84 -3.86,5.72 -0.99,2.02 -1.97,3.96 -3.05,5.83 -0.92,1.9 -1.5,3.91 -2.29,5.64 -1.63,3.52 -2.29,6.69 -3.19,8.87 -0.79,2.21 -1.35,3.52 -1.35,3.52 0,0 -0.32,-1.35 -0.6,-3.69 -0.23,-2.31 -1,-5.78 -0.46,-9.92zm-51.02 105.36c8.6,1.43 13.65,4.42 13.65,4.42 0,0 -5.74,0.32 -13.81,1.24 -4.05,0.6 -8.66,1.22 -13.4,2.4 -2.42,0.41 -4.74,1.42 -7.2,2.02 -2.29,0.92 -4.82,1.5 -7.01,2.79 -2.33,1.03 -4.57,2.1 -6.63,3.52 -2.15,1.24 -4.12,2.66 -5.98,4.16 -1.97,1.35 -3.49,3.11 -5.14,4.61 -1.69,1.48 -3,3.13 -4.31,4.68 -1.18,1.6 -2.66,2.88 -3.49,4.25 -0.99,1.37 -1.82,2.59 -2.49,3.58 -1.5,1.97 -2.42,3.13 -2.42,3.13 0,0 0.13,-1.42 0.58,-3.91 0.21,-1.22 0.52,-2.75 0.92,-4.48 0.32,-1.78 1.24,-3.58 2.08,-5.55 0.86,-2.08 1.78,-4.31 3.36,-6.33 1.5,-2.03 2.85,-4.55 5.02,-6.37 3.84,-4.18 8.9,-7.8 14.38,-10.27 2.72,-1.42 5.68,-2.03 8.47,-3 2.85,-0.7 5.72,-1.22 8.47,-1.43 5.53,-0.6 10.67,-0.15 14.96,0.56zm-262.8 -54.77c0,-3.19 0,-6.51 0.39,-9.82 0.77,-3.24 1.22,-6.56 2.55,-9.56 0.99,-3.11 2.68,-5.85 4.25,-8.47 1.63,-2.62 3.56,-4.87 5.44,-6.9 1.89,-1.97 3.84,-3.71 5.79,-5.12 7.54,-5.85 13.87,-7.07 13.87,-7.07 0,0 -1.18,1.05 -2.98,2.98 -1.82,1.89 -4.31,4.68 -6.94,8.13 -2.72,3.43 -5.32,7.67 -7.59,12.28 -1.12,2.33 -2.08,4.8 -2.85,7.36 -1.03,2.46 -1.22,5.19 -1.76,7.8 -0.39,2.68 -0.52,5.4 -0.6,8.06 0.34,2.68 0.09,5.4 0.52,7.96 0.58,2.55 0.9,5.12 1.24,7.59 0.7,2.33 1.29,4.63 1.78,6.77 0.86,4.38 2.53,7.7 3.13,10.35 0.79,2.55 1.12,4.09 1.12,4.09 0,0 -1.05,-1.09 -2.85,-3.13 -1.56,-2.15 -4.57,-4.87 -6.63,-9.07 -1.18,-2.03 -2.42,-4.31 -3.62,-6.75 -0.92,-2.55 -1.9,-5.27 -2.79,-8.19 -0.66,-2.91 -1.07,-6.15 -1.46,-9.3zm-41.46 -193.15c0.26,-3.61 0.34,-7.1 1.09,-10.35 0.47,-3.24 1.35,-6.2 2.23,-8.9 3.49,-10.87 8.47,-16.7 8.47,-16.7 0,0 -1.95,7.27 -2.92,17.83 -0.26,2.62 -0.41,5.51 -0.45,8.51 -0.26,3 0.28,6.11 0.26,9.3 0.53,3.13 0.73,6.45 1.63,9.65l1.16 4.82 1.78 4.74c0.83,3.26 2.88,6 4.18,9.03 1.86,2.79 3.65,5.53 5.4,8.19 2.1,2.46 4.16,4.82 6.07,7.1 2.02,2.21 4.29,3.96 6.17,5.85 3.71,3.86 7.54,6.26 9.97,8.4 2.46,2.15 3.91,3.32 3.91,3.32 0,0 -1.76,-0.52 -4.87,-1.6 -2.98,-1.22 -7.67,-2.4 -12.37,-5.53 -2.36,-1.5 -5.21,-2.85 -7.74,-4.99 -2.46,-2.12 -5.21,-4.31 -7.76,-6.88 -2.23,-2.85 -4.93,-5.6 -6.97,-8.86 -1.69,-3.45 -4.09,-6.64 -5.25,-10.46l-1.9 -5.6c-0.45,-1.93 -0.77,-3.82 -1.16,-5.7 -0.96,-3.73 -0.65,-7.56 -0.92,-11.17zm-128.65 227.17l0.86 -5.74 2.02 -11.34c1.09,-3.71 2.42,-7.29 3.62,-10.87l1.82 -5.38 2.62 -4.93c1.76,-3.26 3.36,-6.51 5.19,-9.56 4.03,-5.85 7.76,-11.59 12.35,-16.25 4.09,-5.02 8.64,-9.05 12.78,-12.74 8.51,-7.23 16.27,-12.24 21.97,-15.28 5.57,-3.13 9.03,-4.38 9.03,-4.38 0,0 -2.81,2.33 -7.33,6.77 -4.61,4.31 -10.78,10.81 -17.58,18.86 -3.32,4.16 -6.88,8.57 -10.2,13.55 -3.65,4.76 -6.26,10.52 -9.69,15.93 -1.37,2.85 -2.62,5.9 -3.96,8.9l-1.97 4.5 -1.48 4.74c-0.96,3.13 -1.95,6.37 -2.93,9.56l-1.5 9.9 -0.83 4.95 -0.02 4.99c-0.06,3.36 -0.09,6.69 -0.15,10.01 0.73,6.56 1.69,13.08 2.59,19.4 1.9,6.13 3.52,12.18 5.14,17.9 2.03,5.64 4.57,10.74 6.51,15.67 1.03,2.49 2.06,4.82 2.93,7.05 1.03,2.19 2.27,4.18 3.3,6.07 2.08,3.84 3.92,7.23 5.38,9.97 2.93,5.64 4.55,8.99 4.55,8.99 0,0 -2.55,-2.55 -6.9,-7.27 -2.15,-2.36 -4.76,-5.25 -7.76,-8.57 -1.48,-1.76 -3.13,-3.45 -4.68,-5.47 -1.37,-2.1 -2.79,-4.35 -4.29,-6.69 -2.92,-4.74 -6.45,-9.69 -9.29,-15.48 -2.46,-5.94 -5.14,-12.24 -7.61,-18.89 -1.43,-7.01 -3.39,-14.24 -4.22,-21.71 -0.04,-3.79 -0.11,-7.61 -0.17,-11.45l-0.08 -5.7z"/>
   <path class="fil0" d="M996.71 354.25c92.03,-6.63 191.3,47.01 276.27,112.2 8.08,-8.39 19.21,-14.38 32.77,-17.83 -38.24,-34.43 -72.73,-60.62 -94.41,-75.48 -57.83,-39.68 -97.52,-128.88 -24.79,-170.19 72.72,-41.35 128.88,36.36 128.88,36.36 -1.63,-59.51 -109.74,-138.61 -213.24,-89.33 -104.1,49.56 -59.45,166.97 -59.45,166.97 -18.07,-11.51 -35.25,-20.3 -51.71,-26.99l-3.18 11.47c-4.89,17.6 -1.89,35.39 8.85,52.82zm87.75 -109.97c0.86,-7.01 2.25,-14.32 4.76,-21.46 2.75,-7.03 5.87,-14.2 10.35,-20.54 4.38,-6.38 9.65,-12.15 15.41,-17.06 5.6,-5.12 12.02,-8.9 18.22,-12.28 6.17,-3.45 12.67,-5.7 18.69,-7.74 6.07,-1.9 11.92,-3.24 17.36,-4.05 10.87,-1.89 20.02,-1.89 26.37,-1.69 6.33,0.32 9.88,0.96 9.88,0.96 0,0 -14.38,2.23 -34.17,8.96 -9.88,3.45 -20.97,8.19 -31.66,14.9 -10.55,6.81 -20.77,15.43 -27.85,26.41 -3.91,5.25 -6.69,11.19 -9.17,17.13 -1.05,3.06 -2.08,6.11 -3.06,9.16 -0.7,3.13 -1.69,6.13 -2.21,9.26 -1.12,6.2 -1.8,12.31 -2.27,18.2 -0.02,5.87 -0.47,11.51 -0.15,16.79 0.11,5.21 0.34,10.08 0.77,14.32 0.28,4.31 0.53,8.13 1.03,11.19 0.7,6.2 0.96,9.84 0.96,9.84 0,0 -1.48,-3.3 -3.84,-9.16 -1.22,-2.93 -2.55,-6.56 -3.73,-10.81 -1.37,-4.25 -2.72,-9.09 -3.65,-14.5 -1.3,-5.34 -1.89,-11.32 -2.46,-17.62 -0.3,-6.36 -0.49,-13.15 0.41,-20.21z"/>
  </g>
 </g>
</svg>
