<?xml version="1.0" encoding="UTF-8"?>
<!DOCTYPE svg PUBLIC "-//W3C//DTD SVG 1.1//EN" "http://www.w3.org/Graphics/SVG/1.1/DTD/svg11.dtd">
<!-- Creator: CorelDRAW -->
<svg xmlns="http://www.w3.org/2000/svg" xml:space="preserve" width="77.3011mm" height="12.58mm" version="1.1" style="shape-rendering:geometricPrecision; text-rendering:geometricPrecision; image-rendering:optimizeQuality; fill-rule:evenodd; clip-rule:evenodd"
viewBox="0 0 2646.68 430.72"
 xmlns:xlink="http://www.w3.org/1999/xlink"
 xmlns:xodm="http://www.corel.com/coreldraw/odm/2003">
 <defs>
  <style type="text/css">
   <![CDATA[
    .fil0 {fill:#121F38;fill-rule:nonzero}
   ]]>
  </style>
 </defs>
 <g id="Layer_x0020_1">
  <metadata id="CorelCorpID_0Corel-Layer"/>
  <g id="_1717420959696">
   <path class="fil0" d="M1339.03 281.08c0,0 48.57,-38.81 42.97,-106.85 -5.39,-65.4 29.33,-98.45 71.22,-94.27 41.91,4.18 41.21,38.07 41.21,38.07 0,0 3.49,34.21 -37.03,34.21 0,0 21.64,-5.58 18.86,-27.24 -2.8,-21.63 -34.62,-26.51 -49.57,-10.47 -39.12,41.91 10.45,118.73 -87.66,166.56z"/>
   <path class="fil0" d="M1978.71 234.29c0,0 1.92,-3.52 4.12,-10.14 2.15,-6.63 4.74,-16.47 5.04,-28.67 0.45,-12.1 -1.57,-26.74 -8.28,-40.76 -3.32,-6.99 -7.62,-13.89 -12.98,-19.99 -5.31,-6.2 -11.52,-11.78 -18.5,-16.36 -7,-4.53 -14.73,-7.96 -22.68,-10.08 -7.94,-2.14 -16.19,-2.75 -24.03,-1.98 -7.85,0.78 -15.36,3.19 -21.59,7.09 -6.27,3.84 -11.06,9.31 -13.83,15.04 -2.85,5.72 -3.7,11.6 -3.66,16.58 0.01,5.03 0.91,9.29 1.84,12.66 0.91,3.41 2.03,5.93 2.72,7.66 0.77,1.7 1.19,2.61 1.19,2.61 0,0 -0.25,-0.94 -0.74,-2.75 -0.45,-1.79 -1.07,-4.46 -1.55,-7.84 -0.46,-3.39 -0.69,-7.56 -0.25,-12.18 0.46,-4.62 1.84,-9.73 4.69,-14.46 2.83,-4.73 7.23,-8.94 12.76,-11.93 5.53,-3.02 12.16,-4.67 19.06,-5.15 6.96,-0.49 14.21,0.49 21.28,2.43 7.1,2 13.99,5.16 20.26,9.3 6.31,4.06 12.05,9.08 16.97,14.66 4.92,5.61 9.2,11.62 12.46,17.94 3.24,6.31 5.72,12.78 7.32,19.16 1.57,6.4 2.43,12.62 2.77,18.41 0.65,11.6 -0.63,21.42 -1.85,28.17 -1.3,6.8 -2.53,10.57 -2.53,10.57z"/>
   <path class="fil0" d="M1974.88 185.07c0,0 -0.07,-0.52 -0.19,-1.53 -0.2,-0.97 -0.23,-2.45 -0.69,-4.27 -0.43,-1.84 -0.94,-4.08 -1.81,-6.57 -0.81,-2.5 -1.92,-5.26 -3.41,-8.14 -0.74,-1.45 -1.52,-2.93 -2.45,-4.42 -0.88,-1.51 -1.85,-3.05 -2.96,-4.56 -2.09,-3.08 -4.58,-6.13 -7.36,-9.1 -2.83,-2.92 -5.86,-5.86 -9.27,-8.46 -3.32,-2.69 -6.97,-5.08 -10.73,-7.31 -3.79,-2.14 -7.74,-3.93 -11.8,-5.47 -4.05,-1.45 -8.22,-2.45 -12.32,-3.03 -4.09,-0.52 -8.17,-0.42 -11.94,0.27 -3.8,0.73 -7.2,2.24 -9.98,4.09 -2.8,1.89 -4.76,4.34 -6.18,6.62 -1.34,2.3 -2.2,4.45 -2.7,6.27 -0.65,1.78 -0.72,3.3 -0.91,4.27 -0.17,0.99 -0.25,1.5 -0.25,1.5 0,0 0.16,-0.5 0.47,-1.46 0.33,-0.93 0.65,-2.37 1.43,-4.02 0.68,-1.7 1.76,-3.68 3.25,-5.67 1.56,-1.98 3.57,-3.98 6.18,-5.52 2.62,-1.5 5.7,-2.64 9.18,-3.05 3.46,-0.39 7.15,-0.2 10.94,0.35 7.56,1.31 15.37,4.35 22.57,8.5 14.46,8.22 26.4,20.55 32.77,31.35 0.86,1.32 1.54,2.65 2.2,3.91 0.71,1.26 1.34,2.47 1.84,3.65 1.12,2.33 1.84,4.42 2.45,6.16 0.63,1.74 0.93,3.19 1.26,4.15 0.27,0.95 0.41,1.48 0.41,1.48z"/>
   <path class="fil0" d="M1420.41 209.49c0,0 2.5,-1.08 7.27,-2.86 4.76,-1.82 11.85,-4.15 20.94,-6.87 18.12,-5.31 44.79,-11.47 76.99,-11.82 3.99,0.07 8.09,0.14 12.26,0.23 4.16,0.24 8.38,0.69 12.68,1 4.28,0.63 8.65,1.26 13.09,1.89 4.23,1.04 8.54,1.79 12.86,3.07 4.29,1.39 8.74,2.58 12.95,4.46 4.34,1.57 8.43,3.78 12.59,5.92 8.12,4.65 15.92,10.19 22.63,17.05 13.44,13.61 22.3,32.57 20.55,52.32 -0.94,19.51 -12.08,38.4 -29.94,47.02 -8.68,4.64 -18.63,6.97 -28.63,7.36 -1.15,0.01 -2.75,0.2 -3.52,0.09l-4.04 -0.17c-2.86,-0.03 -5.09,-0.47 -7.42,-0.83 -4.7,-0.68 -9.5,-2.19 -13.93,-3.98 -8.82,-3.84 -16.36,-10.06 -21.69,-17.71 -2.56,-3.89 -4.62,-8.09 -6,-12.48 -1.16,-4.4 -2.03,-8.93 -1.78,-13.39 -0.09,-1.13 0.19,-2.22 0.28,-3.31l0.19 -1.65 0.01 -0.2c-0.01,0.05 0.08,-0.39 -0.01,0.05l0.09 -0.46 0.2 -0.91 0.85 -3.7c0.33,-1.11 0.72,-2.03 1.04,-3.05 1.46,-4.02 3.5,-8.15 6.16,-11.52 5.16,-7.03 12.69,-11.9 20.73,-14.63 8.17,-2.56 16.58,-3.21 24.8,-1.56 6.93,1.64 14.18,5.96 16.91,12.31 0.89,1.5 1.24,3.19 1.7,4.83 0.05,0.14 0.16,0.58 0.14,0.45l0.07 0.74 0.17 1.49c0.09,0.94 0,1.57 0.04,2.39 -0.11,3.31 -1.24,6.45 -2.94,9.12 -3.43,5.44 -9.65,8.63 -15.54,8.89l-1.11 0.05c-0.09,0.04 -0.72,-0.04 -1.07,-0.05 -0.79,-0.07 -1.69,-0.08 -2.28,-0.24 -1.29,-0.22 -2.66,-0.63 -3.9,-1.18 -2.5,-1.11 -4.57,-2.89 -6,-5.01 -2.86,-4.24 -3.46,-9.74 -1.39,-13.48 2.12,-3.5 6.23,-5.54 9.62,-6.1 3.49,-0.68 6.62,-0.04 8.77,1.18 2.23,1.15 3.33,2.83 4.05,3.88 0.63,1.18 0.93,1.78 0.93,1.78 0,0 -0.27,-0.63 -0.74,-1.85 -0.65,-1.13 -1.65,-2.97 -3.9,-4.4 -2.15,-1.47 -5.49,-2.47 -9.32,-2.06 -3.8,0.35 -8.42,1.9 -11.57,6.43 -2.81,4.5 -2.55,11.05 0.6,16.49 1.6,2.73 4.05,5.17 7.14,6.79 1.54,0.81 3.17,1.42 5.03,1.84 0.94,0.27 1.66,0.31 2.5,0.45 0.47,0.04 0.65,0.12 1.37,0.16l1.37 0.01c7.28,0.14 15.34,-3.21 20.43,-10.09 2.54,-3.39 4.23,-7.64 4.62,-12.12 0.05,-1.15 0.14,-2.48 0.08,-3.5l-0.09 -1.48 -0.05 -0.74c-0.07,-0.63 -0.13,-0.66 -0.17,-1.01 -0.47,-2.26 -0.93,-4.56 -1.98,-6.66 -0.77,-2.25 -2.31,-4.11 -3.61,-6.13 -1.62,-1.7 -3.13,-3.68 -5.16,-5 -3.73,-3.13 -8.31,-4.95 -13.3,-6.46 -8.97,-2.2 -19.27,-1.87 -29.01,0.9 -9.71,2.92 -19.25,8.6 -26.09,17.21 -3.54,4.21 -6.16,9.02 -8.16,14.37 -0.47,1.35 -1.01,2.77 -1.4,4.07l-0.93 3.66 -0.22 0.91 -0.12 0.45c-0.14,0.61 -0.07,0.34 -0.11,0.52l-0.04 0.27 -0.3 2.14c-0.14,1.4 -0.46,2.85 -0.43,4.27 -0.41,5.75 0.5,11.49 1.92,17.07 1.57,5.55 4.04,10.83 7.17,15.77 6.36,9.74 15.79,17.66 26.58,22.37 5.48,2.26 10.96,4.05 16.94,4.97 3,0.47 6.08,0.97 8.65,0.97l4.05 0.22c1.92,0.14 3.03,-0.04 4.58,-0.05 11.62,-0.41 23.42,-3 33.97,-8.57 5.35,-2.64 10.17,-6.28 14.7,-10.2 4.24,-4.2 8.36,-8.67 11.33,-13.88 6.4,-10.14 9.55,-21.93 10.24,-33.52l0.16 -4 0.05 -1 0.02 -0.5 0.01 -0.55 -0.01 -0.27 -0.14 -2.2 -0.25 -4.4 -0.74 -4.31c-0.96,-5.72 -2.86,-11.17 -5.06,-16.38 -4.53,-10.39 -11.17,-19.5 -18.88,-27.03 -7.73,-7.58 -16.49,-13.64 -25.59,-18.4 -4.65,-2.2 -9.21,-4.4 -13.96,-5.96 -4.61,-1.89 -9.38,-3.03 -14.04,-4.32 -4.69,-1.23 -9.51,-1.92 -14.13,-2.85 -4.59,-0.47 -8.78,-1.02 -13.5,-1.4 -4.5,-0.14 -8.91,-0.39 -13.22,-0.43 -4.31,0.12 -8.54,0.23 -12.68,0.34 -16.57,0.83 -31.53,3.55 -44.49,6.69 -13,3.13 -24.05,6.74 -33.05,10.01 -8.99,3.24 -15.81,6.38 -20.43,8.55 -4.63,2.17 -7.02,3.47 -7.02,3.47z"/>
   <path class="fil0" d="M1420.41 205.2c0,0 3.13,-3.19 9.63,-8.36 6.51,-5.2 16.46,-12.29 29.99,-19.79 13.51,-7.45 30.78,-14.96 51.45,-20.29 20.65,-5.3 44.68,-7.65 70.74,-5.45 25.81,2.16 53.21,10.03 79.28,24.03 13.06,7 25.81,15.47 38.33,24.99 12.54,9.55 24.93,20.01 37.66,30.76 12.73,10.75 25.78,21.89 39.94,32.38 14.16,10.45 29.48,20.39 46.51,27.73 16.97,7.43 35.51,12.23 54.33,13.66 5.12,0.28 8.79,0.58 13.99,0.52 4.92,0.07 9.58,-0.24 14.35,-0.61 9.48,-0.83 19,-2.56 28.26,-5.41 18.55,-5.57 35.93,-16.01 49.46,-30.09 13.62,-14.05 23.29,-31.7 27.76,-50.55 2.28,-9.4 3.19,-19.18 2.62,-28.92 -0.17,-2.43 -0.38,-4.87 -0.77,-7.31 -0.28,-2.04 -0.74,-4.42 -1.21,-6.82 -0.93,-4.59 -2.09,-9.08 -3.47,-13.52 -5.54,-17.66 -14.9,-34.24 -28.07,-47.2 -13.11,-12.96 -29.9,-21.82 -46.98,-25.37 -8.52,-1.87 -17.05,-2.66 -25.43,-2.69 -8.22,-0.09 -17,0.79 -25.07,2.96 -16.3,4.18 -31.47,14.21 -39.81,28.4 -8.54,14.04 -10.14,30.65 -7.03,44.78 0.75,3.68 1.74,6.81 3.11,10.51 1.04,2.73 2.99,6.74 4.87,9.49 3.8,5.92 8.53,10.83 13.62,14.93 10.14,8.17 21.99,13.25 33.75,14.21 11.27,0.66 23.15,-1.43 31.21,-8.39 3.99,-3.41 6.92,-7.74 8.46,-12.26 1.52,-4.53 2.12,-9.02 1.46,-13.34 -1.56,-8.96 -7.72,-14.65 -13.47,-17.34 -5.93,-2.72 -11.85,-2.29 -15.81,-0.58 -4.05,1.71 -6.3,4.24 -7.66,5.91 -0.68,0.85 -1.11,1.53 -1.4,2 -0.31,0.45 -0.46,0.69 -0.46,0.69 0,0 0.17,-0.22 0.54,-0.63 0.33,-0.43 0.83,-1.07 1.6,-1.81 1.49,-1.5 3.98,-3.68 7.84,-4.84 3.8,-1.16 9.05,-0.91 13.91,2.03 4.78,2.75 9.45,8.33 9.92,15.09 0.42,6.93 -2.28,15.15 -8.96,20.16 -3.24,2.55 -7.37,4.24 -11.91,5.17 -2.33,0.46 -4.53,0.68 -6.98,0.81 -1.27,0 -2.54,0.01 -3.82,0.03 -1.22,-0.12 -2.42,-0.23 -3.68,-0.34 -9.85,-1.37 -19.89,-6.37 -28.23,-13.94 -8.38,-7.56 -14.9,-17.76 -16.43,-29.71 -2,-11.93 0.09,-24.88 7.15,-35.25 6.95,-10.4 18.53,-17.78 31.94,-20.73 6.76,-1.52 13.58,-2.03 21.01,-1.67 7.32,0.27 14.66,1.27 21.77,3.1 14.19,3.65 27.44,10.89 37.87,21.66 10.45,10.74 18.01,24.71 22.4,39.86 1.1,3.81 2,7.67 2.72,11.57 0.33,1.84 0.63,3.71 0.91,5.96 0.22,1.87 0.38,3.76 0.52,5.64 0.39,7.56 -0.36,15.37 -2.27,22.96 -3.71,15.23 -11.73,29.61 -22.87,40.96 -11.12,11.4 -25.32,19.71 -40.8,24.49 -7.76,2.43 -15.84,3.99 -24.03,4.76 -4.09,0.35 -8.31,0.65 -12.28,0.61 -3.66,0.14 -8.86,-0.17 -12.59,-0.35 -16.57,-1.16 -32.72,-5.22 -47.89,-11.73 -30.54,-12.97 -56.96,-34.63 -82.81,-55.6 -25.75,-21.17 -52.23,-41.37 -80.66,-55.31 -28.31,-14.21 -58.15,-20.89 -85.6,-21.91 -27.28,-1.21 -52.45,2.99 -73.45,9.62 -21.11,6.6 -38.18,15.77 -51.38,24.21 -13.23,8.5 -22.54,16.65 -28.67,22.35 -6.07,5.72 -8.92,9.15 -8.92,9.15z"/>
   <path class="fil0" d="M2263.45 250.7c0,0 2.19,-0.35 6.27,-1 4.08,-0.69 10.07,-1.88 17.51,-4.05 7.5,-2.11 16.41,-5.42 26.23,-10.17 9.79,-4.77 20.32,-11.3 31.17,-19.05 10.81,-7.83 21.98,-16.85 34,-25.54 12.01,-8.74 25.31,-16.62 40.11,-22.04 7.43,-2.67 15.15,-4.87 23.06,-6.08 7.77,-1.15 15.85,-1.23 23.55,0.2 7.74,1.4 15.23,4.24 21.75,8.65 6.5,4.39 12.09,10.27 16.08,17.07 4,6.79 6.48,14.52 6.76,22.09 0.36,8.15 -0.74,16.19 -3.27,23.66 -2.56,7.46 -6.66,14.21 -12.12,19.49 -5.44,5.31 -12.18,9.09 -19.4,11.51 -3.62,1.21 -7.28,2.06 -11.13,2.62 -3.46,0.5 -7.26,0.57 -10.73,0.17 -7,-0.8 -13.45,-3.73 -18.04,-8.43 -4.64,-4.65 -7.26,-10.96 -7.85,-17.34 -0.27,-3.19 -0.14,-6.44 0.49,-9.51 0.55,-2.77 1.79,-5.72 3.31,-8.3 3.05,-5.26 7.4,-9.54 12.16,-12.37 2.39,-1.4 4.92,-2.48 7.45,-3.04 2.67,-0.57 5.2,-0.8 7.61,-0.63 4.9,0.3 9.07,2.59 11.36,6.05 2.31,3.44 3.11,7.5 1.98,10.77 -1.07,3.33 -3.5,5.78 -5.93,7.09 -2.5,1.31 -5.09,1.38 -7.01,0.89 -3.9,-1.12 -5.3,-3.19 -5.35,-3.05 0.08,-0.14 1.19,2.06 5.16,3.71 1.96,0.74 4.83,1 7.81,-0.16 2.96,-1.15 6,-3.68 7.7,-7.59 0.84,-1.89 1.26,-4.32 0.99,-6.62 -0.33,-2.39 -1.11,-4.67 -2.47,-6.89 -2.62,-4.47 -7.98,-7.76 -13.8,-8.27 -2.92,-0.33 -5.97,-0.14 -8.89,0.35 -3.05,0.47 -6.08,1.57 -8.94,3.03 -5.74,2.99 -10.99,7.56 -14.94,13.49 -1.98,3.02 -3.6,6.27 -4.62,10.18 -0.88,3.61 -1.23,7.4 -1.08,11.32 0.33,7.77 3.16,16.02 8.92,22.44 5.67,6.5 14.12,10.54 22.81,11.85 4.39,0.63 8.67,0.72 13.27,0.23 4.18,-0.45 8.54,-1.27 12.78,-2.53 8.5,-2.47 16.96,-6.79 23.8,-13.24 6.93,-6.38 12.15,-14.6 15.36,-23.45 3.24,-8.85 4.71,-18.37 4.51,-27.74 -0.28,-10 -3.36,-19.49 -8.2,-27.9 -4.85,-8.39 -11.63,-15.62 -19.62,-21.08 -7.96,-5.47 -17.1,-9.05 -26.4,-10.73 -9.32,-1.65 -18.67,-1.48 -27.66,-0.07 -8.86,1.4 -17.32,3.92 -25.36,6.92 -16.17,6.05 -30.16,15.36 -42.29,24.72 -12.15,9.46 -22.63,19.13 -32.82,27.29 -10.04,8.35 -19.71,15.28 -28.78,20.7 -8.99,5.53 -17.39,9.44 -24.44,12.4 -7.06,2.92 -12.75,4.84 -16.7,6.1 -3.99,1.23 -6.1,1.87 -6.1,1.87z"/>
   <path class="fil0" d="M2263.45 250.7c0,0 2.19,-0.35 6.27,-1 4.08,-0.69 10.07,-1.88 17.51,-4.05 7.5,-2.11 16.41,-5.42 26.23,-10.17 9.79,-4.77 20.32,-11.3 31.17,-19.05 10.81,-7.83 21.98,-16.85 34,-25.54 12.01,-8.74 25.31,-16.62 40.11,-22.04 7.43,-2.67 15.15,-4.87 23.06,-6.08 7.77,-1.15 15.85,-1.23 23.55,0.2 7.74,1.4 15.23,4.24 21.75,8.65 6.5,4.39 12.09,10.27 16.08,17.07 4,6.79 6.48,14.52 6.76,22.09 0.36,8.15 -0.74,16.19 -3.27,23.66 -2.56,7.46 -6.66,14.21 -12.12,19.49 -5.44,5.31 -12.18,9.09 -19.4,11.51 -3.62,1.21 -7.28,2.06 -11.13,2.62 -3.46,0.5 -7.26,0.57 -10.73,0.17 -7,-0.8 -13.45,-3.73 -18.04,-8.43 -4.64,-4.65 -7.26,-10.96 -7.85,-17.34 -0.27,-3.19 -0.14,-6.44 0.49,-9.51 0.55,-2.77 1.79,-5.72 3.31,-8.3 3.05,-5.26 7.4,-9.54 12.16,-12.37 2.39,-1.4 4.92,-2.48 7.45,-3.04 2.67,-0.57 5.2,-0.8 7.61,-0.63 4.9,0.3 9.07,2.59 11.36,6.05 2.31,3.44 3.11,7.5 1.98,10.77 -1.07,3.33 -3.5,5.78 -5.93,7.09 -2.5,1.31 -5.09,1.38 -7.01,0.89 -3.9,-1.12 -5.3,-3.19 -5.35,-3.05 0.08,-0.14 1.19,2.06 5.16,3.71 1.96,0.74 4.83,1 7.81,-0.16 2.96,-1.15 6,-3.68 7.7,-7.59 0.84,-1.89 1.26,-4.32 0.99,-6.62 -0.33,-2.39 -1.11,-4.67 -2.47,-6.89 -2.62,-4.47 -7.98,-7.76 -13.8,-8.27 -2.92,-0.33 -5.97,-0.14 -8.89,0.35 -3.05,0.47 -6.08,1.57 -8.94,3.03 -5.74,2.99 -10.99,7.56 -14.94,13.49 -1.98,3.02 -3.6,6.27 -4.62,10.18 -0.88,3.61 -1.23,7.4 -1.08,11.32 0.33,7.77 3.16,16.02 8.92,22.44 5.67,6.5 14.12,10.54 22.81,11.85 4.39,0.63 8.67,0.72 13.27,0.23 4.18,-0.45 8.54,-1.27 12.78,-2.53 8.5,-2.47 16.96,-6.79 23.8,-13.24 6.93,-6.38 12.15,-14.6 15.36,-23.45 3.24,-8.85 4.71,-18.37 4.51,-27.74 -0.28,-10 -3.36,-19.49 -8.2,-27.9 -4.85,-8.39 -11.63,-15.62 -19.62,-21.08 -7.96,-5.47 -17.1,-9.05 -26.4,-10.73 -9.32,-1.65 -18.67,-1.48 -27.66,-0.07 -8.86,1.4 -17.32,3.92 -25.36,6.92 -16.17,6.05 -30.16,15.36 -42.29,24.72 -12.15,9.46 -22.63,19.13 -32.82,27.29 -10.04,8.35 -19.71,15.28 -28.78,20.7 -8.99,5.53 -17.39,9.44 -24.44,12.4 -7.06,2.92 -12.75,4.84 -16.7,6.1 -3.99,1.23 -6.1,1.87 -6.1,1.87z"/>
   <path class="fil0" d="M1447.23 430.72c0,0 -14.74,-39.48 21.86,-47.14 17.79,32.9 -21.86,47.14 -21.86,47.14z"/>
   <path class="fil0" d="M1480.57 391.37c3.17,-6.87 0.19,-15 -6.66,-18.19 -6.87,-3.17 -15,-0.2 -18.2,6.66 -3.17,6.87 -0.19,15 6.68,18.18 6.86,3.2 14.97,0.22 18.18,-6.65z"/>
   <path class="fil0" d="M1473.9 373.19c0,0 13.91,0.35 14.36,14.38 0.33,9.34 -4.29,18.33 8.74,26.53 0,0 -22.43,-2.51 -25.71,-22.92 -0.7,-4.49 -0.44,-11.2 2.61,-17.99z"/>
   <path class="fil0" d="M1473.9 373.2c0,0 -9.26,-10.42 -20.26,-1.68 -7.32,5.78 -11.22,15.11 -25.9,10.45 0,0 16.41,15.51 34.09,4.82 3.9,-2.33 8.85,-6.87 12.07,-13.59z"/>
   <path class="fil0" d="M2073.25 220.24c-20.73,-21.39 -41.28,-47.17 -54.35,-74.99 0,0 24.72,31.37 60.7,63.99 -0.12,6.31 -3.36,9.46 -6.35,11z"/>
   <path class="fil0" d="M2622.93 244.43c0,0 5.61,23.04 -18.15,23.04 -34.22,0 -34.91,-37.71 -66.75,-51.64 -3.32,-1.46 -7.35,-3.21 -12.07,-4.95 0,-0.14 0.03,-0.31 0.03,-0.46 -0.19,-6.79 -1.57,-13.52 -4.09,-20.07 58.06,15.62 78.13,55.18 124.79,37.33 0,-0.01 -7.68,14.65 -23.75,16.76z"/>
   <path class="fil0" d="M2513.76 206.89c-0.83,-6.69 -3.08,-13.58 -6.7,-19.83 1.52,0.27 3.05,0.52 4.51,0.83 3.31,6.55 5.25,13.27 5.78,20.07 -1.17,-0.37 -2.36,-0.73 -3.59,-1.06z"/>
   <path class="fil0" d="M2265.05 271.53c79.49,-27.58 129.79,-89.05 214.02,-87.17 5.89,0.14 11.46,0.52 16.79,1.1 1.34,1.71 2.64,3.5 3.74,5.36 2.59,4.43 4.4,9.24 5.38,14 -10.7,-2.17 -23.28,-3.36 -37.82,-2.23 -2.44,-1.18 -5.16,-1.96 -7.95,-2.2 -2.93,-0.33 -6.41,-0.19 -9.95,0.39 -3.24,0.52 -6.68,1.67 -10.17,3.44 -2.88,1.49 -5.58,3.36 -8.05,5.48 -23.53,7.27 -50.55,20.51 -81.15,43.1 0,0 37.69,-1.39 55.86,35.61 0,0 -17.85,-11.66 -44.23,-7.36 -0.39,-0.45 -0.8,-0.88 -1.27,-1.35 -2.72,-2.8 -6.84,-5.93 -11.4,-8.09 -1.11,-0.61 -2.33,-0.99 -3.44,-1.46 -1.16,-0.47 -2.36,-0.73 -3.46,-1.08 -1.11,-0.34 -2.25,-0.47 -3.28,-0.71 -1.01,-0.24 -2.04,-0.27 -2.93,-0.36 -1.85,-0.25 -3.36,-0.19 -4.43,-0.19 -1.05,0 -1.66,0 -1.66,0 0,0 0.58,0.09 1.65,0.27 1.04,0.16 2.54,0.36 4.27,0.86 0.86,0.25 1.81,0.43 2.77,0.83 0.94,0.38 1.98,0.67 2.97,1.16 0.99,0.52 2.04,0.91 3.04,1.53 0.99,0.61 2.03,1.13 2.94,1.85 3.46,2.39 6.32,5.36 8.3,7.97 -5.36,1.31 -10.99,3.24 -16.88,6.13 -3.82,1.88 -7.64,3.84 -11.46,5.78 -0.27,-0.14 -0.52,-0.27 -0.8,-0.43 -1.52,-0.88 -3.43,-1.68 -5.39,-2.62 -0.99,-0.49 -2.11,-0.83 -3.14,-1.24 -1.1,-0.39 -2.15,-0.83 -3.27,-1.21 -1.12,-0.31 -2.25,-0.63 -3.35,-0.93 -1.11,-0.27 -2.16,-0.65 -3.25,-0.76 -1.07,-0.16 -2.11,-0.31 -3.11,-0.46 -0.97,-0.11 -1.88,-0.36 -2.75,-0.31 -3.41,0.05 -5.72,0.09 -5.72,0.09 0,0 2.25,0.34 5.58,0.89 0.83,0.07 1.68,0.49 2.59,0.74 0.91,0.3 1.87,0.63 2.86,0.96 1,0.25 1.98,0.83 2.94,1.27 1,0.46 2,0.91 2.98,1.39 0.97,0.52 1.92,1.12 2.86,1.67 0.91,0.58 1.85,1.04 2.7,1.67 1.02,0.72 1.98,1.38 2.88,2.01 -8.77,4.47 -17.66,8.76 -26.87,12.08 0,-0.01 -0.02,-0.01 -0.02,-0.03 -0.65,-0.57 -1.43,-1.08 -2.2,-1.67 -0.78,-0.58 -1.57,-1.23 -2.53,-1.73 -0.91,-0.52 -1.85,-1.04 -2.83,-1.6 -0.91,-0.6 -2.01,-0.9 -3.03,-1.34 -1.02,-0.41 -2.04,-0.83 -3.04,-1.23 -1.05,-0.25 -2.09,-0.52 -3.1,-0.74 -0.99,-0.24 -1.95,-0.47 -2.85,-0.69 -0.91,-0.24 -1.79,-0.22 -2.59,-0.33 -3.21,-0.24 -5.33,-0.43 -5.33,-0.43 0,0 2.04,0.55 5.12,1.4 0.76,0.25 1.62,0.35 2.42,0.74 0.84,0.38 1.7,0.77 2.58,1.16 0.91,0.41 1.81,0.81 2.73,1.23 0.88,0.54 1.73,1.11 2.61,1.67 0.83,0.6 1.78,1 2.51,1.71 0.75,0.63 1.5,1.27 2.23,1.89 0.72,0.52 1.27,1.21 1.82,1.81 -17.45,5.38 -36.31,6.71 -58.28,-1.34l3.31 -1.05c0.83,-0.27 20.39,-6.65 27.79,-24.49 1.66,-3.89 2.54,-8.05 2.74,-12.4z"/>
   <path class="fil0" d="M1323.34 261.06c0,0 -64.46,-72.46 0,-155.04 64.46,82.58 0,155.04 0,155.04z"/>
   <path class="fil0" d="M1376.76 324.02c-15.55,4 -27.51,-1.98 -36.16,-10.23 15.32,39.43 -17.27,69.94 -17.27,69.94 0,0 -32.6,-30.52 -17.28,-69.94 -8.62,8.24 -20.59,14.23 -36.15,10.23 -36.67,-9.42 -29.33,-76.46 -29.33,-76.46 27.24,83.81 82.75,39.81 82.75,39.81 0,0 55.52,44.01 82.75,-39.81 0.01,0 7.34,67.05 -29.33,76.46z"/>
   <path class="fil0" d="M1513.27 239.53c-22.34,26.53 -25.84,51.43 -9.07,85.76 0,0 -46.1,-8.24 -39.12,-80.87 0,0 -41.21,39.79 -30.02,111.72 0,0 -33.6,-91.48 23.74,-134.78 45.33,-34.21 125,-3.49 125,-3.49 0,0 -48.18,-4.87 -70.55,21.65zm26.44 -25.12c-1.48,0.11 -3.28,0.24 -5.36,0.41 -2.06,0.16 -4.42,0.31 -6.9,1 -2.5,0.54 -5.23,1.15 -8.12,1.87 -2.83,0.78 -5.72,2.09 -8.74,3.3 -3.09,1.04 -5.94,3.02 -8.91,4.77l-2.25 1.38 -2.01 1.68 -4.08 3.43c-1.35,1.15 -2.34,2.66 -3.52,3.99 -1.08,1.4 -2.41,2.62 -3.21,4.21 -0.93,1.48 -1.79,3 -2.65,4.49 -0.85,1.5 -1.34,3.15 -2,4.66 -1.42,3.03 -1.82,6.29 -2.55,9.18 -0.34,3.02 -0.73,5.82 -0.6,8.44 -0.09,2.61 0.25,4.98 0.49,7.06 0.34,2.06 0.68,3.86 1.08,5.3 0.35,1.46 0.76,2.56 1.04,3.32 0.25,0.74 0.43,1.13 0.43,1.13 0,0 -0.22,-1.68 -0.23,-4.64 -0.05,-2.92 0,-7.08 0.77,-11.93 0.24,-2.43 1.02,-4.97 1.57,-7.66 0.99,-2.61 1.66,-5.44 3.08,-8.06 0.69,-1.29 1.19,-2.75 2.04,-4.01 0.86,-1.27 1.71,-2.54 2.53,-3.87 0.73,-1.38 1.93,-2.42 2.92,-3.63 1.08,-1.15 1.95,-2.48 3.21,-3.47l3.57 -3.13 1.78 -1.57 2 -1.27c2.7,-1.57 5.05,-3.7 7.92,-4.84 2.77,-1.23 5.28,-2.8 7.9,-3.82 2.67,-0.94 5.17,-1.92 7.47,-2.83 2.31,-0.99 4.54,-1.56 6.47,-2.11 1.96,-0.6 3.66,-1.11 5.08,-1.54 2.83,-0.93 4.42,-1.46 4.42,-1.46 0,0 -1.69,0.07 -4.64,0.24z"/>
   <path class="fil0" d="M1662.73 416.21c-40.49,-16.75 -21.64,-66.34 -21.64,-66.34 0,0 -30.73,30.04 -88,11.88 -50.56,-16.03 -81.7,16.05 -81.7,16.05 0,0 28.63,-45.39 88,-27.22 59.36,18.16 97.58,-19.6 106.53,-48.52 9.89,-31.92 -8.78,-61.83 -17.18,-77.19 0,0 32.14,32.13 29.35,66.36 -2.78,34.21 -24.44,60.75 -6.29,92.53 18.16,31.77 51.68,15.72 51.68,15.72 0,0 -20.25,33.51 -60.76,16.74zm10.4 -7.59c-0.85,-0.58 -1.87,-1.29 -3.05,-2.11 -1.15,-0.8 -2.24,-2.04 -3.54,-3.13 -0.63,-0.57 -1.32,-1.12 -1.98,-1.76 -0.58,-0.71 -1.16,-1.43 -1.78,-2.16 -0.63,-0.74 -1.24,-1.48 -1.9,-2.23 -0.52,-0.85 -1.05,-1.71 -1.6,-2.61 -0.52,-0.88 -1.19,-1.68 -1.6,-2.67 -0.39,-0.97 -0.81,-1.96 -1.29,-2.92 -1.05,-1.89 -1.35,-4.15 -2.09,-6.2 -0.43,-2.17 -1.04,-4.34 -1.23,-6.54 -0.22,-2.19 -0.57,-4.35 -0.57,-6.5 -0.23,-4.26 0,-8.31 0.14,-11.82 0.52,-6.97 1.23,-11.8 1.23,-11.8 0,0 -2.7,4.12 -4.74,11.18 -0.46,1.76 -1.01,3.68 -1.34,5.77 -0.35,2.09 -0.77,4.28 -0.8,6.62 -0.19,2.33 -0.16,4.74 0.04,7.21 0.17,2.44 0.73,4.93 1.19,7.42l1.21 3.63c0.34,1.23 0.8,2.39 1.46,3.5 1.04,2.31 2.3,4.45 3.87,6.3 0.74,0.93 1.42,1.9 2.19,2.75 0.86,0.79 1.71,1.5 2.54,2.23 0.83,0.72 1.61,1.39 2.41,2.06 0.85,0.54 1.73,1 2.54,1.48 1.65,0.89 3.1,1.81 4.49,2.3 1.46,0.49 2.7,0.83 3.73,1.15 2.06,0.58 3.21,0.83 3.21,0.83 0,0 -1,-0.76 -2.69,-1.98z"/>
   <path class="fil0" d="M2025.6 272.99c-0.66,0.16 -1.32,0.36 -1.93,0.61 -1.42,0.61 -2.88,1.21 -4.34,1.81 -1.43,0.61 -2.85,1.16 -4.12,2 -1.31,0.74 -2.58,1.5 -3.8,2.22 -1.21,0.74 -2.42,1.37 -3.46,2.11 -1.02,0.77 -1.98,1.53 -2.86,2.2 -3.46,2.69 -5.78,4.49 -5.78,4.49 0,0 2.78,-0.85 6.96,-2.14 1.01,-0.31 2.12,-0.65 3.28,-1.01 1.18,-0.3 2.48,-0.46 3.77,-0.71 1.29,-0.22 2.64,-0.45 3.97,-0.69 1.34,-0.28 2.75,-0.3 4.09,-0.35 0.54,-0.01 1.07,-0.04 1.61,-0.04 -6.73,22.79 -21.55,46.65 -51.62,65.7 -1.21,0.75 -2.42,1.43 -3.63,2.15 -3.55,-4.61 -8.31,-9.64 -13.8,-13.72 -1.6,-1.27 -3.31,-2.39 -5,-3.44 -1.63,-1.12 -3.41,-1.96 -5.08,-2.83 -1.6,-0.92 -3.33,-1.54 -4.9,-2.19 -1.54,-0.69 -3.07,-1.18 -4.47,-1.57 -2.78,-0.91 -5.16,-1.37 -6.79,-1.65 -1.64,-0.31 -2.55,-0.49 -2.55,-0.49 0,0 0.81,0.49 2.25,1.34 1.43,0.81 3.44,2 5.63,3.71 1.13,0.81 2.31,1.7 3.44,2.8 1.15,1.08 2.42,2.09 3.52,3.39 1.13,1.26 2.35,2.47 3.36,3.9 1.08,1.37 2.14,2.75 3.04,4.27 3.13,4.73 5.31,9.81 6.73,14.14 -36.61,16.57 -77.96,17.85 -115.49,9.68 0.19,-2.24 0.36,-4.65 0.34,-7.26 0.03,-3.46 -0.28,-7.16 -0.86,-10.77 -0.38,-1.81 -0.6,-3.61 -1.16,-5.33 -0.47,-1.73 -0.91,-3.41 -1.6,-5 -0.6,-1.6 -1.22,-3.08 -1.98,-4.43 -0.71,-1.35 -1.31,-2.64 -2.12,-3.73 -0.75,-1.07 -1.43,-2.06 -2.04,-2.93 -0.72,-0.8 -1.34,-1.48 -1.82,-2.04 -1,-1.12 -1.57,-1.76 -1.57,-1.76 0,0 0.35,0.77 0.97,2.14 0.28,0.68 0.65,1.48 1.08,2.42 0.28,0.97 0.63,2.06 1,3.27 0.42,1.15 0.58,2.5 0.83,3.88 0.33,1.37 0.42,2.83 0.49,4.35 0.17,1.49 0.08,3.05 0.03,4.62 0.02,1.55 -0.31,3.16 -0.45,4.72 -0.5,3.13 -1.22,6.2 -2.12,8.99 -0.63,2.06 -1.37,3.9 -2.06,5.61 -30.07,-8.46 -56.83,-22.77 -75.49,-39.68 0.46,-1.26 0.73,-2.67 1.13,-4.12 0.33,-1.54 0.86,-3.1 1.05,-4.8 0.23,-1.67 0.49,-3.39 0.73,-5.15 0.31,-1.72 0.28,-3.52 0.33,-5.3 0.05,-1.76 0.07,-3.52 0.09,-5.25 0,-1.7 -0.33,-3.41 -0.47,-5.01 -0.17,-1.61 -0.36,-3.16 -0.54,-4.62 -0.07,-1.46 -0.6,-2.81 -0.88,-4.04 -1.31,-4.87 -2.2,-8.12 -2.2,-8.12 0,0 -0.16,3.31 -0.42,8.28 -0.09,1.23 -0.02,2.55 -0.39,3.93 -0.25,1.38 -0.57,2.81 -0.85,4.31 -0.35,1.46 -0.52,3 -1,4.49 -0.52,1.48 -1.04,2.97 -1.57,4.47 -0.52,1.49 -0.96,2.97 -1.72,4.34 -0.66,1.35 -1.34,2.7 -1.98,4.01 -0.36,0.85 -0.87,1.62 -1.37,2.37 -43.24,-47.76 -56,-106.06 -102.79,-130.47 0,0 52.75,20.45 101.25,68.44 62.15,61.44 125.25,75.62 189.84,56.98 69.25,-19.96 93.77,-73.71 93.77,-105.13 -0.02,-0.01 11.66,31.16 4.54,67.64zm-240.26 47.2c-0.25,-1.61 -0.71,-3.27 -1.34,-4.87 -0.6,-1.62 -1.35,-3.18 -2.27,-4.51 -0.83,-1.36 -1.68,-2.58 -2.65,-3.49 -1.77,-1.88 -3.24,-2.86 -3.24,-2.86 0,0 0.3,1.81 1.18,4.11 0.47,1.12 0.88,2.48 1.39,3.9 0.55,1.4 1.21,2.83 1.67,4.35 0.66,1.43 1.12,2.93 1.67,4.32 0.58,1.37 0.96,2.69 1.49,3.82 0.83,2.27 1.5,3.93 1.5,3.93 0,0 0.19,-0.41 0.38,-1.15 0.23,-0.75 0.38,-1.82 0.47,-3.15 0.01,-1.26 0.07,-2.81 -0.26,-4.39zm13.65 7.39c-0.11,-1.23 -0.54,-2.41 -0.8,-3.63 -0.36,-1.19 -0.65,-2.42 -1.11,-3.54 -0.52,-1.11 -1.12,-2.15 -1.68,-3.17 -0.52,-1.01 -1.11,-1.98 -1.65,-2.88 -0.6,-0.86 -1.34,-1.56 -1.96,-2.23 -2.5,-2.7 -4.4,-4.18 -4.4,-4.18 0,0 0.83,2.39 2.39,5.48 0.36,0.79 0.85,1.6 1.24,2.47 0.33,0.94 0.65,1.92 1.07,2.91 0.39,0.99 0.74,2.01 1.21,3.02 0.36,1.02 0.55,2.14 0.83,3.21 0.3,1.05 0.74,2.11 0.88,3.19 0.11,1.08 0.33,2.14 0.5,3.17 0.22,1.04 0.27,2.06 0.33,3 0,0.97 0.19,1.92 0.17,2.75 -0.05,1.71 0.02,3.19 -0.12,4.2 -0.01,1.05 -0.11,1.68 -0.11,1.68 0,0 0.41,-0.46 0.9,-1.42 0.24,-0.46 0.66,-1.05 0.88,-1.76 0.24,-0.69 0.55,-1.5 0.83,-2.39 0.28,-0.9 0.41,-1.88 0.55,-2.94 0.14,-1.05 0.39,-2.19 0.24,-3.33 -0.06,-1.16 -0.06,-2.39 -0.18,-3.61zm71.85 4.44c-1.13,-0.73 -2.39,-1.15 -3.52,-1.57 -1.13,-0.5 -2.26,-0.79 -3.3,-0.97 -2.06,-0.54 -3.84,-0.6 -5.06,-0.6 -1.23,-0.01 -1.92,0.03 -1.92,0.03 0,0 0.63,0.28 1.74,0.8 0.54,0.22 1.22,0.5 1.98,0.81 0.77,0.31 1.56,0.8 2.45,1.23 0.88,0.42 1.82,0.91 2.75,1.51 0.97,0.6 1.98,1.16 2.93,1.92 1,0.69 1.98,1.41 2.94,2.26 0.99,0.76 1.92,1.64 2.8,2.58 1.89,1.74 3.49,3.8 5,5.7 1.45,1.98 2.77,3.88 3.81,5.58 2.14,3.39 3.44,5.86 3.44,5.86 0,0 0.05,-2.85 -1.24,-6.87 -0.63,-2.03 -1.62,-4.29 -2.93,-6.6 -0.73,-1.12 -1.42,-2.34 -2.3,-3.41 -0.91,-1.1 -1.76,-2.25 -2.83,-3.23 -2.01,-2.04 -4.37,-3.79 -6.75,-5.04zm34.98 23.34c0,-0.6 -0.07,-1.32 -0.25,-2.11 -0.2,-0.78 -0.27,-1.76 -0.66,-2.67 -0.38,-0.93 -0.78,-1.96 -1.26,-3.03 -0.46,-1.08 -1.22,-2.04 -1.9,-3.11 -0.77,-1 -1.35,-2.26 -2.36,-3.11 -0.94,-0.93 -1.88,-1.89 -2.83,-2.83 -0.96,-0.94 -1.98,-1.79 -3.08,-2.5 -1.05,-0.77 -2.16,-1.42 -3.2,-2.11 -1.07,-0.64 -2.04,-1.35 -3.11,-1.77 -1.04,-0.46 -2.04,-0.86 -2.96,-1.22 -3.69,-1.43 -6.24,-2 -6.24,-2 0,0 1.96,1.87 5.05,4.11 0.77,0.57 1.6,1.16 2.5,1.76 0.93,0.6 1.71,1.44 2.64,2.15 0.91,0.74 1.82,1.54 2.81,2.26 1.01,0.69 1.92,1.51 2.77,2.42 0.91,0.83 1.81,1.67 2.69,2.49 0.94,0.8 1.6,1.76 2.39,2.59 0.69,0.91 1.6,1.64 2.16,2.53 0.58,0.86 1.19,1.66 1.76,2.41 0.57,0.75 0.91,1.53 1.32,2.17 0.41,0.66 0.73,1.24 0.94,1.76 0.52,0.99 0.73,1.64 0.73,1.64 0,0 0.15,-0.63 0.08,-1.82zm77.55 -43.88c-2.83,-1.13 -6.79,-2.14 -10.83,-2.55 -2.04,-0.05 -4.06,-0.35 -5.97,-0.09 -1.92,0.17 -3.7,0.27 -5.19,0.69 -2.99,0.83 -4.82,1.57 -4.82,1.57 0,0 2.06,0.2 4.98,0.22 1.48,-0.01 3.21,0.24 5,0.28 1.81,0.03 3.76,0.34 5.7,0.46 0.96,0 1.92,0.2 2.89,0.3 0.94,0.08 1.89,0.17 2.8,0.28 1.81,0.27 3.54,0.36 5,0.58 1.5,0.15 2.75,0.28 3.62,0.36 0.9,0.08 1.38,0.14 1.38,0.14 0,0 -1.72,-1.13 -4.56,-2.24z"/>
   <path class="fil0" d="M1905.74 270.96c-114.52,18.86 -136.87,-74.72 -212.29,-118.73 -75.42,-43.99 -194.13,-11.17 -194.13,-11.17 57.28,-34.91 98.12,-35.05 149.44,-26.53 23.09,3.84 43.29,-6.51 45.39,-23.74 1.57,-12.78 -13.96,-26.53 -13.96,-26.53 79.59,6.3 39.79,60.75 39.79,60.75 55.17,-2.09 88,45.99 88,45.99 -18.88,-10.59 -41.9,0 -41.9,0 55.04,7 76.8,58.07 76.8,58.07 -15.34,-9.79 -35.62,-4.2 -35.62,-4.2 27.96,2.8 42.6,20.95 56.56,32.13 13.96,11.17 41.92,13.97 41.92,13.97zm-136.34 -120.24c0.99,0.12 1.57,0.27 1.57,0.27 0,0 -0.39,-0.43 -1.22,-1.04 -0.83,-0.66 -2.09,-1.34 -3.66,-2.14 -1.65,-0.55 -3.57,-1.43 -5.74,-1.68 -1.1,-0.17 -2.22,-0.41 -3.35,-0.52 -1.13,-0.01 -2.31,-0.01 -3.5,-0.01 -1.15,0.07 -2.31,0.03 -3.44,0.22 -1.13,0.17 -2.25,0.46 -3.3,0.67 -1.05,0.22 -2.06,0.47 -3.02,0.74 -0.97,0.3 -1.81,0.72 -2.59,1.07 -3.18,1.4 -5.11,2.69 -5.11,2.69 0,0 2.4,0.05 5.7,-0.35 0.8,-0.11 1.68,-0.23 2.62,-0.35 0.94,-0.03 1.95,-0.05 2.96,-0.14 1.01,-0.11 2.04,-0.14 3.11,-0.3 1.05,-0.14 2.12,-0.03 3.19,-0.05 1.08,-0.05 2.14,-0.09 3.19,-0.15 1.04,0.11 2.09,0.09 3.08,0.15 1.01,0 2,0 2.92,0.14 0.91,0.11 1.79,0.16 2.62,0.22 1.6,0.26 3.04,0.35 3.97,0.57zm38.68 54.37c3.21,1.22 5.49,2.11 5.49,2.11 0,0 -0.33,-0.52 -1.07,-1.27 -0.71,-0.83 -1.84,-1.81 -3.29,-2.94 -1.48,-1 -3.25,-2.26 -5.33,-3.16 -1.01,-0.47 -2.06,-1 -3.16,-1.45 -1.13,-0.35 -2.28,-0.73 -3.43,-1.08 -2.31,-0.73 -4.66,-1.16 -6.92,-1.4 -2.22,-0.35 -4.29,-0.47 -6.1,-0.34 -3.61,0.13 -5.99,0.58 -5.99,0.58 0,0 2.28,0.94 5.69,1.81 0.83,0.2 1.73,0.42 2.73,0.66 0.93,0.3 1.92,0.63 2.97,0.89 1.02,0.27 2.09,0.61 3.19,0.83 1.11,0.23 2.16,0.66 3.25,0.99 2.2,0.54 4.37,1.24 6.41,1.93 2.07,0.57 3.88,1.36 5.57,1.85z"/>
   <path class="fil0" d="M2254.22 245.8c23.03,44.7 -20.97,58.66 -20.97,58.66 8.38,-30.02 -31.42,-55.15 -63.28,-60.04 -31.87,-4.89 -59.63,-30.04 -59.63,-30.04 2.09,12.57 -6.02,22.07 -22.35,23.75 -20.27,2.09 -37.69,-17.46 -37.69,-17.46 11.16,9.76 33.49,6.97 33.49,-11.88 0,-18.85 -16.49,-47.28 -55.89,-80.3 -53.03,-44.51 -110.28,-47.49 -110.28,-47.49 97.26,-20.78 129.89,50.28 176.65,69.14 46.82,18.85 52.4,-18.17 52.4,-18.17 20.94,45.39 -23.56,53.09 -23.56,53.09 0,0 33.34,20.24 66.15,18.85 32.82,-1.39 26.55,-37.71 26.55,-37.71 35.59,16.06 23.74,50.29 23.74,50.29 0,0 37.78,-2.06 41.93,-38.41 2.45,-21.45 -4.23,-40.49 -29.45,-49.76 -27.88,-10.22 -48.79,5.06 -48.79,5.06 15.37,-22.35 101.94,-31.42 112.43,33.51 10.48,64.95 -61.44,78.91 -61.44,78.91zm-156.54 -34.78c-0.12,-0.99 -0.25,-1.56 -0.25,-1.56 0,0 -0.23,0.55 -0.58,1.49 -0.36,0.93 -0.63,2.26 -1.32,3.75 -0.34,0.73 -0.6,1.57 -1.01,2.38 -0.42,0.79 -0.83,1.61 -1.27,2.47 -0.52,0.8 -1.07,1.6 -1.62,2.42 -0.65,0.7 -1.16,1.57 -1.96,2.19 -1.31,1.48 -3.03,2.51 -4.62,3.55 -0.86,0.39 -1.66,0.94 -2.48,1.26 -0.81,0.38 -1.6,0.72 -2.37,1 -3.02,1.15 -5.28,1.68 -5.28,1.68 0,0 2.23,0.88 5.74,0.66 1.78,-0.05 3.82,-0.52 5.97,-1.29 1,-0.52 2.15,-0.88 3.11,-1.64 1.04,-0.62 1.98,-1.4 2.86,-2.26 0.97,-0.8 1.57,-1.92 2.34,-2.83 0.69,-1 1.11,-2.12 1.65,-3.13 0.41,-1.07 0.65,-2.14 0.91,-3.11 0.25,-0.97 0.28,-1.98 0.36,-2.83 0.23,-1.74 -0.08,-3.2 -0.18,-4.19zm28.07 -40.08c1.16,-0.09 2.37,-0.31 3.58,-0.61 1.18,-0.41 2.42,-0.68 3.58,-1.27 2.33,-1.04 4.46,-2.56 6.08,-4.34 0.91,-0.77 1.48,-1.82 2.11,-2.69 0.68,-0.85 1.08,-1.79 1.43,-2.67 0.36,-0.83 0.74,-1.6 0.88,-2.35 0.16,-0.73 0.28,-1.38 0.39,-1.89 0.19,-1.05 0.23,-1.65 0.23,-1.65 0,0 -0.36,0.49 -1.01,1.32 -0.28,0.42 -0.63,0.93 -1.04,1.51 -0.38,0.58 -1,1.12 -1.49,1.79 -0.55,0.65 -1.11,1.35 -1.81,1.98 -0.72,0.63 -1.37,1.38 -2.19,1.95 -0.8,0.63 -1.62,1.23 -2.53,1.76 -0.86,0.6 -1.81,1.05 -2.8,1.49 -0.91,0.54 -1.98,0.78 -2.96,1.18 -1.02,0.25 -2.01,0.67 -3.04,0.85 -2.01,0.5 -3.96,0.75 -5.66,1.01 -3.38,0.39 -5.85,0.52 -5.85,0.52 0,0 2.15,1.26 5.78,1.87 1.86,0.29 4.01,0.48 6.34,0.24zm104.09 18.99c-0.38,-1.23 -0.8,-2.37 -1.19,-3.46 -0.49,-1.02 -1.01,-1.98 -1.5,-2.85 -0.88,-1.78 -2.15,-2.93 -2.83,-3.83 -0.74,-0.87 -1.21,-1.32 -1.21,-1.32 0,0 0.16,0.65 0.49,1.73 0.25,1.12 0.94,2.53 1.32,4.38 0.2,0.91 0.46,1.88 0.74,2.86 0.14,1.04 0.31,2.12 0.52,3.21 0.19,1.08 0.07,2.23 0.23,3.36 -0.04,1.12 -0.09,2.27 -0.25,3.41 -0.25,1.11 -0.33,2.26 -0.74,3.3 -0.33,1.08 -0.74,2.12 -1.21,3.11 -0.94,1.95 -2.06,3.74 -3.21,5.19 -1.08,1.46 -2.15,2.64 -2.92,3.43 -0.76,0.81 -1.24,1.26 -1.24,1.26 0,0 2.66,-0.52 5.85,-2.99 0.81,-0.6 1.65,-1.32 2.47,-2.16 0.78,-0.86 1.6,-1.81 2.27,-2.92 0.66,-1.11 1.4,-2.26 1.79,-3.58 0.58,-1.27 0.77,-2.67 1.11,-4.04 0.12,-1.39 0.16,-2.8 0.12,-4.15 -0.14,-1.35 -0.32,-2.72 -0.62,-3.93zm17.77 80.8c-0.16,-0.8 -0.3,-1.6 -0.49,-2.41l-0.81 -2.37c-0.49,-1.6 -1.5,-2.96 -2.23,-4.42 -0.85,-1.38 -2,-2.54 -2.92,-3.74 -1.1,-1.08 -2.26,-2.01 -3.3,-2.91 -1.07,-0.91 -2.27,-1.47 -3.27,-2.11 -1.98,-1.32 -3.97,-1.82 -5.25,-2.34 -1.29,-0.46 -2.04,-0.68 -2.04,-0.68 0,0 0.6,0.5 1.66,1.4 1.01,0.91 2.62,1.92 4.21,3.55 0.78,0.8 1.74,1.54 2.59,2.47 0.83,0.96 1.68,1.96 2.56,3 0.73,1.12 1.5,2.28 2.27,3.46 0.58,1.27 1.43,2.43 1.78,3.81l0.75 2 0.49 2.04c0.38,1.35 0.46,2.75 0.69,4.08 -0.02,1.35 0.22,2.66 0.12,3.93 -0.03,1.27 -0.09,2.48 -0.2,3.6 -0.42,4.47 -1.23,7.54 -1.23,7.54 0,0 2.09,-2.47 3.58,-7.06 0.38,-1.13 0.73,-2.39 0.93,-3.76 0.34,-1.38 0.36,-2.85 0.46,-4.38 -0.09,-1.5 0.04,-3.12 -0.37,-4.72zm54.72 -93.7c-0.01,-1.62 -0.03,-3.23 -0.07,-4.84 -0.33,-3.16 -1.15,-6.21 -1.77,-9.18 -1.02,-2.81 -2.17,-5.47 -3.21,-7.98 -1.21,-2.44 -2.7,-4.54 -3.93,-6.54 -0.63,-0.99 -1.23,-1.93 -1.81,-2.83 -0.65,-0.85 -1.37,-1.57 -1.98,-2.31 -1.26,-1.4 -2.37,-2.62 -3.27,-3.62 -1.84,-1.98 -2.93,-3.07 -2.93,-3.07 0,0 0.69,1.42 1.92,3.8 0.63,1.16 1.4,2.59 2.27,4.21 0.45,0.8 0.97,1.65 1.4,2.56 0.38,0.94 0.81,1.93 1.23,2.98 0.83,2.09 1.9,4.24 2.77,6.62 0.68,2.42 1.37,4.97 2.17,7.56 0.36,2.67 0.77,5.44 1.07,8.2 0,1.4 -0.01,2.81 -0.04,4.23l0 2.11 -0.38 2.09 -0.61 4.18c-0.43,1.35 -0.85,2.72 -1.26,4.04l-0.61 2 -0.85 1.9c-0.58,1.27 -1.08,2.55 -1.67,3.76 -1.45,2.28 -2.55,4.72 -4.09,6.73 -1.4,2.11 -2.91,3.98 -4.31,5.72 -2.88,3.41 -5.5,6.15 -7.45,7.97 -1.89,1.88 -3.1,2.86 -3.1,2.86 0,0 1.46,-0.52 3.82,-1.85 2.4,-1.29 5.7,-3.41 9.27,-6.46 1.78,-1.56 3.69,-3.25 5.42,-5.38 1.92,-1.96 3.52,-4.39 5.23,-6.87 0.74,-1.29 1.43,-2.66 2.17,-4.04l1.1 -2.09 0.79 -2.27c0.5,-1.51 1.05,-3.03 1.52,-4.59l0.83 -4.79 0.39 -2.43 -0.04 -2.41z"/>
   <path class="fil0" d="M2229.22 303.34l-1.35 4.87c-6.96,-2.83 -14.21,-6.54 -21.85,-11.4 0,0 18.86,49.62 -25.1,70.56 -43.74,20.82 -89.42,-12.61 -90.11,-37.75 0,0 23.72,32.83 54.46,15.36 30.74,-17.46 13.96,-55.15 -10.47,-71.92 -9.16,-6.28 -23.73,-17.35 -39.89,-31.9 5.74,-1.46 10.42,-4 13.85,-7.54 35.88,27.55 77.85,50.2 116.74,47.41 4.53,7.35 5.8,14.87 3.73,22.3zm-40.62 15.6c-0.28,-2.66 -0.52,-5.19 -1.04,-7.45 -0.41,-2.28 -0.97,-4.32 -1.55,-6.13 -0.52,-1.79 -1.07,-3.32 -1.59,-4.57 -1,-2.47 -1.63,-3.87 -1.63,-3.87 0,0 0.14,1.54 0.42,4.16 0.17,1.29 0.3,2.91 0.43,4.73 0.16,1.79 0.28,3.85 0.33,6.05 0.14,2.23 -0.04,4.61 -0.07,7.09 -0.2,2.49 -0.49,5.06 -0.97,7.69 -0.2,1.32 -0.63,2.59 -0.91,3.91 -0.42,1.29 -0.86,2.56 -1.29,3.87 -1.07,2.51 -2.23,5.03 -3.9,7.24 -2.96,4.64 -7.31,8.28 -11.76,11.16 -4.51,2.83 -9.21,4.84 -13.39,6.3 -8.36,2.83 -14.44,3.79 -14.44,3.79 0,0 1.5,0.27 4.18,0.41 2.67,0.08 6.54,0.08 11.15,-0.72 2.29,-0.35 4.77,-0.91 7.34,-1.71 2.56,-0.87 5.3,-1.81 7.92,-3.27 2.61,-1.43 5.33,-3.03 7.7,-5.19 2.43,-2.09 4.64,-4.51 6.5,-7.21 1.9,-2.67 3.21,-5.7 4.38,-8.68 1.07,-3.01 1.67,-6.1 2.01,-9.07 0.37,-2.97 0.29,-5.84 0.18,-8.54z"/>
   <path class="fil0" d="M1307.62 281.08c0,0 -48.55,-38.81 -42.95,-106.85 5.39,-65.4 -29.33,-98.45 -71.23,-94.27 -41.89,4.18 -41.2,38.07 -41.2,38.07 0,0 -3.5,34.21 37.01,34.21 0,0 -21.66,-5.58 -18.86,-27.24 2.81,-21.63 34.62,-26.51 49.6,-10.47 39.11,41.91 -10.48,118.73 87.63,166.56z"/>
   <path class="fil0" d="M667.96 234.29c0,0 -1.9,-3.52 -4.12,-10.14 -2.16,-6.63 -4.73,-16.47 -5.05,-28.67 -0.43,-12.1 1.6,-26.74 8.3,-40.76 3.32,-6.99 7.62,-13.89 13,-19.99 5.31,-6.2 11.5,-11.78 18.48,-16.36 7.01,-4.53 14.73,-7.96 22.68,-10.08 7.95,-2.14 16.2,-2.75 24.05,-1.98 7.85,0.78 15.36,3.19 21.59,7.09 6.27,3.84 11.05,9.31 13.83,15.04 2.86,5.72 3.71,11.6 3.66,16.58 -0.01,5.03 -0.91,9.29 -1.82,12.66 -0.91,3.41 -2.06,5.93 -2.75,7.66 -0.75,1.7 -1.16,2.61 -1.16,2.61 0,0 0.25,-0.94 0.74,-2.75 0.42,-1.79 1.04,-4.46 1.54,-7.84 0.46,-3.39 0.71,-7.56 0.27,-12.18 -0.47,-4.62 -1.85,-9.73 -4.7,-14.46 -2.83,-4.73 -7.24,-8.94 -12.76,-11.93 -5.53,-3.02 -12.15,-4.67 -19.07,-5.15 -6.96,-0.49 -14.21,0.49 -21.3,2.43 -7.09,2 -13.99,5.16 -20.24,9.3 -6.31,4.06 -12.05,9.08 -16.96,14.66 -4.93,5.61 -9.24,11.62 -12.48,17.94 -3.24,6.31 -5.69,12.78 -7.31,19.16 -1.57,6.4 -2.43,12.62 -2.77,18.41 -0.68,11.6 0.63,21.42 1.85,28.17 1.24,6.8 2.5,10.57 2.5,10.57z"/>
   <path class="fil0" d="M671.79 185.07c0,0 0.07,-0.52 0.2,-1.53 0.17,-0.97 0.2,-2.45 0.68,-4.27 0.43,-1.84 0.93,-4.08 1.81,-6.57 0.8,-2.5 1.9,-5.26 3.41,-8.14 0.74,-1.45 1.51,-2.93 2.45,-4.42 0.88,-1.51 1.87,-3.05 2.94,-4.56 2.09,-3.08 4.59,-6.13 7.36,-9.1 2.85,-2.92 5.88,-5.86 9.27,-8.46 3.33,-2.69 6.98,-5.08 10.73,-7.31 3.8,-2.14 7.77,-3.93 11.81,-5.47 4.05,-1.45 8.22,-2.45 12.31,-3.03 4.12,-0.52 8.19,-0.42 11.98,0.27 3.77,0.73 7.18,2.24 9.96,4.09 2.81,1.89 4.77,4.34 6.18,6.62 1.35,2.3 2.23,4.45 2.72,6.27 0.66,1.78 0.72,3.3 0.91,4.27 0.16,0.99 0.24,1.5 0.24,1.5 0,0 -0.16,-0.5 -0.47,-1.46 -0.33,-0.93 -0.65,-2.37 -1.45,-4.02 -0.68,-1.7 -1.76,-3.68 -3.25,-5.67 -1.55,-1.98 -3.55,-3.98 -6.15,-5.52 -2.62,-1.5 -5.72,-2.64 -9.19,-3.05 -3.46,-0.39 -7.17,-0.2 -10.94,0.35 -7.56,1.31 -15.39,4.35 -22.57,8.5 -14.49,8.22 -26.41,20.55 -32.78,31.35 -0.86,1.32 -1.54,2.65 -2.2,3.91 -0.7,1.26 -1.35,2.47 -1.84,3.65 -1.12,2.33 -1.85,4.42 -2.47,6.16 -0.63,1.74 -0.93,3.19 -1.24,4.15 -0.26,0.95 -0.41,1.48 -0.41,1.48z"/>
   <path class="fil0" d="M1226.27 209.49c0,0 -2.5,-1.08 -7.28,-2.86 -4.74,-1.82 -11.85,-4.15 -20.94,-6.87 -18.14,-5.31 -44.79,-11.47 -76.98,-11.82 -4.01,0.07 -8.11,0.14 -12.28,0.23 -4.16,0.24 -8.38,0.69 -12.68,1 -4.29,0.63 -8.66,1.26 -13.09,1.89 -4.23,1.04 -8.55,1.79 -12.86,3.07 -4.31,1.39 -8.72,2.58 -12.95,4.46 -4.34,1.57 -8.43,3.78 -12.61,5.92 -8.11,4.65 -15.9,10.19 -22.6,17.05 -13.46,13.61 -22.32,32.57 -20.56,52.32 0.93,19.51 12.08,38.4 29.96,47.02 8.66,4.64 18.62,6.97 28.63,7.36 1.15,0.01 2.73,0.2 3.52,0.09l4.06 -0.17c2.85,-0.03 5.08,-0.47 7.4,-0.83 4.7,-0.68 9.5,-2.19 13.93,-3.98 8.82,-3.84 16.36,-10.06 21.69,-17.71 2.56,-3.89 4.62,-8.09 5.97,-12.48 1.19,-4.4 2.06,-8.93 1.81,-13.39 0.08,-1.13 -0.19,-2.22 -0.28,-3.31l-0.19 -1.65 -0.02 -0.2c0.02,0.05 -0.07,-0.39 0.03,0.05l-0.11 -0.46 -0.2 -0.91 -0.86 -3.7c-0.33,-1.11 -0.71,-2.03 -1.02,-3.05 -1.46,-4.02 -3.5,-8.15 -6.16,-11.52 -5.16,-7.03 -12.68,-11.9 -20.73,-14.63 -8.17,-2.56 -16.57,-3.21 -24.8,-1.56 -6.95,1.64 -14.18,5.96 -16.91,12.31 -0.88,1.5 -1.27,3.19 -1.71,4.83 -0.03,0.14 -0.14,0.58 -0.14,0.45l-0.08 0.74 -0.16 1.49c-0.09,0.94 -0.01,1.57 -0.04,2.39 0.11,3.31 1.24,6.45 2.94,9.12 3.43,5.44 9.63,8.63 15.54,8.89l1.1 0.05c0.11,0.04 0.74,-0.04 1.08,-0.05 0.79,-0.07 1.68,-0.08 2.28,-0.24 1.29,-0.22 2.67,-0.63 3.92,-1.18 2.48,-1.11 4.54,-2.89 5.97,-5.01 2.89,-4.24 3.49,-9.74 1.39,-13.48 -2.11,-3.5 -6.21,-5.54 -9.61,-6.1 -3.47,-0.68 -6.62,-0.04 -8.78,1.18 -2.22,1.15 -3.33,2.83 -4.05,3.88 -0.61,1.18 -0.92,1.78 -0.92,1.78 0,0 0.27,-0.63 0.76,-1.85 0.63,-1.13 1.63,-2.97 3.88,-4.4 2.16,-1.47 5.47,-2.47 9.32,-2.06 3.8,0.35 8.39,1.9 11.57,6.43 2.81,4.5 2.56,11.05 -0.61,16.49 -1.6,2.73 -4.05,5.17 -7.12,6.79 -1.54,0.81 -3.16,1.42 -5.01,1.84 -0.96,0.27 -1.68,0.31 -2.51,0.45 -0.47,0.04 -0.65,0.12 -1.37,0.16l-1.37 0.01c-7.29,0.14 -15.34,-3.21 -20.42,-10.09 -2.55,-3.39 -4.24,-7.64 -4.64,-12.12 -0.05,-1.15 -0.14,-2.48 -0.08,-3.5l0.09 -1.48 0.05 -0.74c0.05,-0.63 0.11,-0.66 0.17,-1.01 0.45,-2.26 0.91,-4.56 1.98,-6.66 0.79,-2.25 2.31,-4.11 3.6,-6.13 1.65,-1.7 3.15,-3.68 5.16,-5 3.74,-3.13 8.33,-4.95 13.31,-6.46 8.96,-2.2 19.28,-1.87 29,0.9 9.73,2.92 19.27,8.6 26.11,17.21 3.54,4.21 6.15,9.02 8.16,14.37 0.46,1.35 1.02,2.77 1.4,4.07l0.91 3.66 0.24 0.91 0.11 0.45c0.14,0.61 0.07,0.34 0.11,0.52l0.03 0.27 0.31 2.14c0.14,1.4 0.47,2.85 0.43,4.27 0.41,5.75 -0.52,11.49 -1.92,17.07 -1.6,5.55 -4.05,10.83 -7.15,15.77 -6.38,9.74 -15.8,17.66 -26.59,22.37 -5.47,2.26 -10.97,4.05 -16.94,4.97 -2.99,0.47 -6.08,0.97 -8.66,0.97l-4.04 0.22c-1.92,0.14 -3.03,-0.04 -4.58,-0.05 -11.6,-0.41 -23.4,-3 -33.97,-8.57 -5.36,-2.64 -10.17,-6.28 -14.7,-10.2 -4.26,-4.2 -8.36,-8.67 -11.33,-13.88 -6.4,-10.14 -9.56,-21.93 -10.24,-33.52l-0.17 -4 -0.04 -1 -0.02 -0.5 0 -0.55 0 -0.27 0.13 -2.2 0.28 -4.4 0.73 -4.31c0.97,-5.72 2.86,-11.17 5.05,-16.38 4.54,-10.39 11.17,-19.5 18.89,-27.03 7.74,-7.58 16.5,-13.64 25.6,-18.4 4.64,-2.2 9.19,-4.4 13.93,-5.96 4.62,-1.89 9.4,-3.03 14.07,-4.32 4.67,-1.23 9.49,-1.92 14.12,-2.85 4.59,-0.47 8.77,-1.02 13.5,-1.4 4.5,-0.14 8.89,-0.39 13.22,-0.43 4.31,0.12 8.54,0.23 12.68,0.34 16.57,0.83 31.51,3.55 44.49,6.69 13,3.13 24.06,6.74 33.05,10.01 8.99,3.24 15.81,6.38 20.43,8.55 4.61,2.17 7.01,3.47 7.01,3.47z"/>
   <path class="fil0" d="M1226.27 205.2c0,0 -3.13,-3.19 -9.67,-8.36 -6.48,-5.2 -16.46,-12.29 -29.97,-19.79 -13.52,-7.45 -30.79,-14.96 -51.44,-20.29 -20.67,-5.3 -44.71,-7.65 -70.76,-5.45 -25.82,2.16 -53.22,10.03 -79.28,24.03 -13.06,7 -25.81,15.47 -38.35,24.99 -12.51,9.55 -24.91,20.01 -37.66,30.76 -12.73,10.75 -25.78,21.89 -39.94,32.38 -14.15,10.45 -29.47,20.39 -46.49,27.73 -16.97,7.43 -35.51,12.23 -54.33,13.66 -5.12,0.28 -8.78,0.58 -13.99,0.52 -4.93,0.07 -9.58,-0.24 -14.35,-0.61 -9.48,-0.83 -19,-2.56 -28.25,-5.41 -18.56,-5.57 -35.93,-16.01 -49.48,-30.09 -13.61,-14.05 -23.28,-31.7 -27.76,-50.55 -2.3,-9.4 -3.19,-19.18 -2.62,-28.92 0.19,-2.43 0.39,-4.87 0.77,-7.31 0.3,-2.04 0.73,-4.42 1.18,-6.82 0.94,-4.59 2.12,-9.08 3.5,-13.52 5.55,-17.66 14.9,-34.24 28.07,-47.2 13.11,-12.96 29.89,-21.82 46.98,-25.37 8.52,-1.87 17.07,-2.66 25.41,-2.69 8.24,-0.09 17.01,0.79 25.09,2.96 16.28,4.18 31.45,14.21 39.79,28.4 8.55,14.04 10.14,30.65 7.03,44.78 -0.75,3.68 -1.71,6.81 -3.08,10.51 -1.07,2.73 -2.99,6.74 -4.89,9.49 -3.82,5.92 -8.54,10.83 -13.61,14.93 -10.16,8.17 -21.99,13.25 -33.76,14.21 -11.28,0.66 -23.15,-1.43 -31.21,-8.39 -3.99,-3.41 -6.92,-7.74 -8.47,-12.26 -1.51,-4.53 -2.11,-9.02 -1.46,-13.34 1.57,-8.96 7.72,-14.65 13.49,-17.34 5.93,-2.72 11.86,-2.29 15.81,-0.58 4.04,1.71 6.3,4.24 7.65,5.91 0.69,0.85 1.12,1.53 1.43,2 0.3,0.45 0.45,0.69 0.45,0.69 0,0 -0.17,-0.22 -0.52,-0.63 -0.34,-0.43 -0.85,-1.07 -1.62,-1.81 -1.49,-1.5 -3.98,-3.68 -7.84,-4.84 -3.8,-1.16 -9.05,-0.91 -13.93,2.03 -4.77,2.75 -9.43,8.33 -9.92,15.09 -0.41,6.93 2.3,15.15 8.96,20.16 3.24,2.55 7.39,4.24 11.93,5.17 2.33,0.46 4.53,0.68 6.98,0.81 1.26,0 2.53,0.01 3.81,0.03 1.22,-0.12 2.44,-0.23 3.68,-0.34 9.85,-1.37 19.9,-6.37 28.24,-13.94 8.38,-7.56 14.92,-17.76 16.41,-29.71 2,-11.93 -0.1,-24.88 -7.14,-35.25 -6.96,-10.4 -18.55,-17.78 -31.92,-20.73 -6.77,-1.52 -13.58,-2.03 -21.03,-1.67 -7.34,0.27 -14.66,1.27 -21.75,3.1 -14.21,3.65 -27.47,10.89 -37.88,21.66 -10.45,10.74 -18.01,24.71 -22.41,39.86 -1.08,3.81 -2,7.67 -2.7,11.57 -0.31,1.84 -0.63,3.71 -0.91,5.96 -0.23,1.87 -0.41,3.76 -0.52,5.64 -0.39,7.56 0.36,15.37 2.27,22.96 3.73,15.23 11.73,29.61 22.89,40.96 11.11,11.4 25.31,19.71 40.8,24.49 7.74,2.43 15.83,3.99 24.03,4.76 4.09,0.35 8.33,0.65 12.28,0.61 3.68,0.14 8.86,-0.17 12.59,-0.35 16.56,-1.16 32.71,-5.22 47.9,-11.73 30.52,-12.97 56.95,-34.63 82.8,-55.6 25.75,-21.17 52.23,-41.37 80.65,-55.31 28.31,-14.21 58.17,-20.89 85.61,-21.91 27.28,-1.21 52.45,2.99 73.46,9.62 21.11,6.6 38.16,15.77 51.35,24.21 13.24,8.5 22.55,16.65 28.68,22.35 6.08,5.72 8.93,9.15 8.93,9.15z"/>
   <path class="fil0" d="M383.22 250.7c0,0 -2.17,-0.35 -6.27,-1 -4.07,-0.69 -10.07,-1.88 -17.52,-4.05 -7.48,-2.11 -16.41,-5.42 -26.21,-10.17 -9.81,-4.77 -20.31,-11.3 -31.17,-19.05 -10.81,-7.83 -21.97,-16.85 -34.01,-25.54 -11.98,-8.74 -25.31,-16.62 -40.11,-22.04 -7.42,-2.67 -15.15,-4.87 -23.06,-6.08 -7.76,-1.15 -15.84,-1.23 -23.56,0.2 -7.73,1.4 -15.23,4.24 -21.74,8.65 -6.52,4.39 -12.09,10.27 -16.09,17.07 -3.99,6.79 -6.47,14.52 -6.74,22.09 -0.38,8.15 0.74,16.19 3.27,23.66 2.55,7.46 6.65,14.21 12.1,19.49 5.44,5.31 12.19,9.09 19.4,11.51 3.62,1.21 7.31,2.06 11.16,2.62 3.44,0.5 7.24,0.57 10.72,0.17 7.01,-0.8 13.45,-3.73 18.05,-8.43 4.62,-4.65 7.24,-10.96 7.84,-17.34 0.27,-3.19 0.14,-6.44 -0.47,-9.51 -0.57,-2.77 -1.82,-5.72 -3.32,-8.3 -3.05,-5.26 -7.39,-9.54 -12.18,-12.37 -2.37,-1.4 -4.89,-2.48 -7.43,-3.04 -2.67,-0.57 -5.2,-0.8 -7.62,-0.63 -4.87,0.3 -9.05,2.59 -11.35,6.05 -2.31,3.44 -3.11,7.5 -1.98,10.77 1.07,3.33 3.5,5.78 5.94,7.09 2.5,1.31 5.06,1.38 6.98,0.89 3.9,-1.12 5.31,-3.19 5.36,-3.05 -0.09,-0.14 -1.19,2.06 -5.15,3.71 -1.98,0.74 -4.84,1 -7.83,-0.16 -2.97,-1.15 -6.02,-3.68 -7.7,-7.59 -0.83,-1.89 -1.26,-4.32 -0.99,-6.62 0.33,-2.39 1.11,-4.67 2.47,-6.89 2.62,-4.47 7.99,-7.76 13.8,-8.27 2.93,-0.33 5.96,-0.14 8.88,0.35 3.07,0.47 6.08,1.57 8.96,3.03 5.75,2.99 10.99,7.56 14.93,13.49 1.98,3.02 3.61,6.27 4.61,10.18 0.9,3.61 1.26,7.4 1.11,11.32 -0.33,7.77 -3.16,16.02 -8.92,22.44 -5.67,6.5 -14.12,10.54 -22.79,11.85 -4.4,0.63 -8.69,0.72 -13.28,0.23 -4.18,-0.45 -8.54,-1.27 -12.76,-2.53 -8.52,-2.47 -16.96,-6.79 -23.81,-13.24 -6.92,-6.38 -12.13,-14.6 -15.37,-23.45 -3.23,-8.85 -4.7,-18.37 -4.5,-27.74 0.27,-10 3.35,-19.49 8.19,-27.9 4.87,-8.39 11.65,-15.62 19.62,-21.08 7.99,-5.47 17.13,-9.05 26.42,-10.73 9.32,-1.65 18.66,-1.48 27.66,-0.07 8.86,1.4 17.32,3.92 25.36,6.92 16.19,6.05 30.16,15.36 42.29,24.72 12.15,9.46 22.63,19.13 32.82,27.29 10.04,8.35 19.73,15.28 28.78,20.7 8.99,5.53 17.39,9.44 24.43,12.4 7.07,2.92 12.78,4.84 16.72,6.1 3.92,1.23 6.03,1.87 6.03,1.87z"/>
   <path class="fil0" d="M383.22 250.7c0,0 -2.17,-0.35 -6.27,-1 -4.07,-0.69 -10.07,-1.88 -17.52,-4.05 -7.48,-2.11 -16.41,-5.42 -26.21,-10.17 -9.81,-4.77 -20.31,-11.3 -31.17,-19.05 -10.81,-7.83 -21.97,-16.85 -34.01,-25.54 -11.98,-8.74 -25.31,-16.62 -40.11,-22.04 -7.42,-2.67 -15.15,-4.87 -23.06,-6.08 -7.76,-1.15 -15.84,-1.23 -23.56,0.2 -7.73,1.4 -15.23,4.24 -21.74,8.65 -6.52,4.39 -12.09,10.27 -16.09,17.07 -3.99,6.79 -6.47,14.52 -6.74,22.09 -0.38,8.15 0.74,16.19 3.27,23.66 2.55,7.46 6.65,14.21 12.1,19.49 5.44,5.31 12.19,9.09 19.4,11.51 3.62,1.21 7.31,2.06 11.16,2.62 3.44,0.5 7.24,0.57 10.72,0.17 7.01,-0.8 13.45,-3.73 18.05,-8.43 4.62,-4.65 7.24,-10.96 7.84,-17.34 0.27,-3.19 0.14,-6.44 -0.47,-9.51 -0.57,-2.77 -1.82,-5.72 -3.32,-8.3 -3.05,-5.26 -7.39,-9.54 -12.18,-12.37 -2.37,-1.4 -4.89,-2.48 -7.43,-3.04 -2.67,-0.57 -5.2,-0.8 -7.62,-0.63 -4.87,0.3 -9.05,2.59 -11.35,6.05 -2.31,3.44 -3.11,7.5 -1.98,10.77 1.07,3.33 3.5,5.78 5.94,7.09 2.5,1.31 5.06,1.38 6.98,0.89 3.9,-1.12 5.31,-3.19 5.36,-3.05 -0.09,-0.14 -1.19,2.06 -5.15,3.71 -1.98,0.74 -4.84,1 -7.83,-0.16 -2.97,-1.15 -6.02,-3.68 -7.7,-7.59 -0.83,-1.89 -1.26,-4.32 -0.99,-6.62 0.33,-2.39 1.11,-4.67 2.47,-6.89 2.62,-4.47 7.99,-7.76 13.8,-8.27 2.93,-0.33 5.96,-0.14 8.88,0.35 3.07,0.47 6.08,1.57 8.96,3.03 5.75,2.99 10.99,7.56 14.93,13.49 1.98,3.02 3.61,6.27 4.61,10.18 0.9,3.61 1.26,7.4 1.11,11.32 -0.33,7.77 -3.16,16.02 -8.92,22.44 -5.67,6.5 -14.12,10.54 -22.79,11.85 -4.4,0.63 -8.69,0.72 -13.28,0.23 -4.18,-0.45 -8.54,-1.27 -12.76,-2.53 -8.52,-2.47 -16.96,-6.79 -23.81,-13.24 -6.92,-6.38 -12.13,-14.6 -15.37,-23.45 -3.23,-8.85 -4.7,-18.37 -4.5,-27.74 0.27,-10 3.35,-19.49 8.19,-27.9 4.87,-8.39 11.65,-15.62 19.62,-21.08 7.99,-5.47 17.13,-9.05 26.42,-10.73 9.32,-1.65 18.66,-1.48 27.66,-0.07 8.86,1.4 17.32,3.92 25.36,6.92 16.19,6.05 30.16,15.36 42.29,24.72 12.15,9.46 22.63,19.13 32.82,27.29 10.04,8.35 19.73,15.28 28.78,20.7 8.99,5.53 17.39,9.44 24.43,12.4 7.07,2.92 12.78,4.84 16.72,6.1 3.92,1.23 6.03,1.87 6.03,1.87z"/>
   <path class="fil0" d="M1199.45 430.72c0,0 14.74,-39.48 -21.86,-47.14 -17.79,32.9 21.86,47.14 21.86,47.14z"/>
   <path class="fil0" d="M1166.1 391.37c-3.17,-6.87 -0.2,-15 6.66,-18.19 6.87,-3.17 15.01,-0.2 18.19,6.66 3.19,6.87 0.19,15 -6.65,18.18 -6.88,3.2 -15.01,0.22 -18.2,-6.65z"/>
   <path class="fil0" d="M1172.77 373.19c0,0 -13.9,0.35 -14.37,14.38 -0.31,9.34 4.28,18.33 -8.74,26.53 0,0 22.43,-2.51 25.71,-22.92 0.72,-4.49 0.43,-11.2 -2.6,-17.99z"/>
   <path class="fil0" d="M1172.77 373.2c0,0 9.26,-10.42 20.26,-1.68 7.32,5.78 11.22,15.11 25.9,10.45 0,0 -16.41,15.51 -34.09,4.82 -3.9,-2.33 -8.85,-6.87 -12.07,-13.59z"/>
   <path class="fil0" d="M573.43 220.24c20.73,-21.39 41.28,-47.17 54.37,-74.99 0,0 -24.74,31.37 -60.73,63.99 0.15,6.31 3.37,9.46 6.36,11z"/>
   <path class="fil0" d="M23.73 244.43c0,0 -5.58,23.04 18.16,23.04 34.25,0 34.91,-37.71 66.75,-51.64 3.32,-1.46 7.35,-3.21 12.05,-4.95 0,-0.14 -0.01,-0.31 -0.01,-0.46 0.17,-6.79 1.57,-13.52 4.09,-20.07 -58.05,15.62 -78.15,55.18 -124.79,37.33 0,-0.01 7.68,14.65 23.73,16.76z"/>
   <path class="fil0" d="M132.93 206.89c0.8,-6.69 3.07,-13.58 6.69,-19.83 -1.53,0.27 -3.04,0.52 -4.53,0.83 -3.28,6.55 -5.23,13.27 -5.77,20.07 1.17,-0.37 2.39,-0.73 3.61,-1.06z"/>
   <path class="fil0" d="M381.63 271.53c-79.48,-27.58 -129.79,-89.05 -214.02,-87.17 -5.89,0.14 -11.47,0.52 -16.79,1.1 -1.37,1.71 -2.64,3.5 -3.74,5.36 -2.61,4.43 -4.4,9.24 -5.38,14 10.7,-2.17 23.28,-3.36 37.8,-2.23 2.47,-1.18 5.16,-1.96 7.97,-2.2 2.94,-0.33 6.41,-0.19 9.93,0.39 3.24,0.52 6.69,1.67 10.17,3.44 2.89,1.49 5.57,3.36 8.06,5.48 23.53,7.27 50.53,20.51 81.13,43.1 0,0 -37.71,-1.39 -55.87,35.61 0,0 17.87,-11.66 44.25,-7.36 0.38,-0.45 0.77,-0.88 1.26,-1.35 2.7,-2.8 6.84,-5.93 11.39,-8.09 1.12,-0.61 2.33,-0.99 3.47,-1.46 1.13,-0.47 2.34,-0.73 3.43,-1.08 1.12,-0.34 2.26,-0.47 3.27,-0.71 1.04,-0.24 2.06,-0.27 2.97,-0.36 1.82,-0.25 3.36,-0.19 4.42,-0.19 1.05,0 1.67,0 1.67,0 0,0 -0.61,0.09 -1.65,0.27 -1.05,0.16 -2.55,0.36 -4.27,0.86 -0.88,0.25 -1.82,0.43 -2.78,0.83 -0.94,0.38 -1.98,0.67 -2.97,1.16 -0.99,0.52 -2.06,0.91 -3.03,1.53 -1,0.61 -2.04,1.13 -2.96,1.85 -3.46,2.39 -6.32,5.36 -8.28,7.97 5.35,1.31 10.97,3.24 16.85,6.13 3.84,1.88 7.65,3.84 11.47,5.78 0.28,-0.14 0.52,-0.27 0.8,-0.43 1.53,-0.88 3.41,-1.68 5.39,-2.62 0.99,-0.49 2.09,-0.83 3.15,-1.24 1.07,-0.39 2.15,-0.83 3.24,-1.21 1.13,-0.31 2.25,-0.63 3.36,-0.93 1.11,-0.27 2.16,-0.65 3.25,-0.76 1.07,-0.16 2.11,-0.31 3.1,-0.46 1,-0.11 1.89,-0.36 2.75,-0.31 3.43,0.05 5.72,0.09 5.72,0.09 0,0 -2.23,0.34 -5.57,0.89 -0.83,0.07 -1.68,0.49 -2.61,0.74 -0.91,0.3 -1.87,0.63 -2.86,0.96 -0.99,0.25 -1.95,0.83 -2.94,1.27 -0.99,0.46 -1.98,0.91 -2.97,1.39 -0.99,0.52 -1.92,1.12 -2.86,1.67 -0.91,0.58 -1.88,1.04 -2.7,1.67 -1.02,0.72 -1.98,1.38 -2.89,2.01 8.78,4.47 17.66,8.76 26.89,12.08 0,-0.01 0.01,-0.01 0.01,-0.03 0.63,-0.57 1.42,-1.08 2.19,-1.67 0.8,-0.58 1.6,-1.23 2.54,-1.73 0.92,-0.52 1.85,-1.04 2.81,-1.6 0.93,-0.6 2.03,-0.9 3.04,-1.34 1.01,-0.41 2.04,-0.83 3.05,-1.23 1.05,-0.25 2.09,-0.52 3.08,-0.74 0.99,-0.24 1.93,-0.47 2.85,-0.69 0.91,-0.24 1.79,-0.22 2.61,-0.33 3.19,-0.24 5.33,-0.43 5.33,-0.43 0,0 -2.06,0.55 -5.14,1.4 -0.74,0.25 -1.6,0.35 -2.42,0.74 -0.83,0.38 -1.68,0.77 -2.58,1.16 -0.88,0.41 -1.79,0.81 -2.73,1.23 -0.85,0.54 -1.73,1.11 -2.59,1.67 -0.83,0.6 -1.77,1 -2.5,1.71 -0.77,0.63 -1.51,1.27 -2.25,1.89 -0.72,0.52 -1.27,1.21 -1.82,1.81 17.46,5.38 36.31,6.71 58.28,-1.34l-3.31 -1.05c-0.8,-0.27 -20.37,-6.65 -27.77,-24.49 -1.64,-3.89 -2.55,-8.05 -2.74,-12.4z"/>
   <path class="fil0" d="M1360.36 128.5c-4.21,-23.05 -28.64,-37.71 -37.03,-55.88 -8.39,18.17 -32.83,32.83 -37.01,55.88 0,0 -11.89,-27.96 8.36,-61.48 18.92,-31.34 28.64,-67.03 28.64,-67.03 0,0 9.73,35.7 28.65,67.03 20.25,33.52 8.37,61.48 8.37,61.48z"/>
   <path class="fil0" d="M1062.87 217.89c0,0 79.66,-30.73 124.99,3.49 57.35,43.3 23.74,134.78 23.74,134.78 11.19,-71.94 -30.02,-111.72 -30.02,-111.72 6.98,72.63 -39.1,80.87 -39.1,80.87 16.76,-34.33 13.25,-59.22 -9.09,-85.76 -22.34,-26.53 -70.53,-21.65 -70.53,-21.65zm39.45 -3.7c0,0 1.6,0.52 4.45,1.46 1.4,0.43 3.1,0.94 5.06,1.54 1.95,0.55 4.16,1.12 6.46,2.11 2.33,0.91 4.83,1.88 7.47,2.83 2.62,1.02 5.15,2.59 7.94,3.82 2.85,1.13 5.2,3.25 7.92,4.84l2 1.27 1.77 1.57 3.58 3.13c1.23,0.99 2.11,2.33 3.19,3.47 0.97,1.22 2.2,2.26 2.93,3.63 0.8,1.32 1.65,2.59 2.51,3.87 0.85,1.26 1.35,2.72 2.04,4.01 1.4,2.64 2.09,5.46 3.07,8.06 0.55,2.69 1.34,5.23 1.6,7.66 0.77,4.85 0.83,9.02 0.79,11.93 -0.01,2.94 -0.24,4.64 -0.24,4.64 0,0 0.17,-0.39 0.43,-1.13 0.28,-0.75 0.69,-1.87 1.04,-3.32 0.42,-1.43 0.74,-3.23 1.08,-5.3 0.23,-2.06 0.58,-4.45 0.49,-7.06 0.14,-2.62 -0.25,-5.44 -0.61,-8.44 -0.72,-2.89 -1.12,-6.15 -2.55,-9.18 -0.66,-1.51 -1.13,-3.16 -1.98,-4.66 -0.85,-1.49 -1.73,-3.02 -2.66,-4.49 -0.8,-1.6 -2.11,-2.81 -3.2,-4.21 -1.18,-1.32 -2.17,-2.83 -3.52,-3.99l-4.07 -3.43 -2.03 -1.68 -2.23 -1.38c-2.97,-1.76 -5.81,-3.73 -8.92,-4.77 -3.02,-1.21 -5.89,-2.51 -8.76,-3.3 -2.88,-0.72 -5.61,-1.32 -8.11,-1.87 -2.48,-0.69 -4.84,-0.83 -6.92,-1 -2.06,-0.16 -3.88,-0.3 -5.35,-0.41 -2.96,-0.18 -4.65,-0.24 -4.65,-0.24z"/>
   <path class="fil0" d="M923.19 399.45c0,0 33.52,16.05 51.68,-15.72 18.16,-31.78 -3.49,-58.31 -6.28,-92.53 -2.8,-34.22 29.33,-66.36 29.33,-66.36 -8.38,15.36 -27.05,45.26 -17.18,77.19 8.97,28.92 47.2,66.68 106.55,48.52 59.36,-18.15 88,27.22 88,27.22 0,0 -31.14,-32.09 -81.7,-16.05 -57.28,18.16 -88,-11.88 -88,-11.88 0,0 18.86,49.59 -21.64,66.34 -40.5,16.79 -60.76,-16.74 -60.76,-16.74zm47.68 11.13c0,0 1.15,-0.25 3.2,-0.83 1.02,-0.31 2.27,-0.66 3.7,-1.15 1.43,-0.49 2.86,-1.4 4.51,-2.3 0.8,-0.47 1.68,-0.93 2.54,-1.48 0.79,-0.66 1.57,-1.34 2.41,-2.06 0.83,-0.73 1.67,-1.45 2.54,-2.23 0.77,-0.83 1.45,-1.81 2.17,-2.75 1.57,-1.85 2.83,-3.99 3.88,-6.3 0.63,-1.11 1.11,-2.27 1.48,-3.5l1.21 -3.63c0.45,-2.48 1.01,-4.97 1.16,-7.42 0.2,-2.47 0.24,-4.89 0.05,-7.21 -0.03,-2.34 -0.45,-4.54 -0.79,-6.62 -0.33,-2.09 -0.88,-4.01 -1.35,-5.77 -2.06,-7.06 -4.73,-11.18 -4.73,-11.18 0,0 0.67,4.83 1.21,11.8 0.14,3.52 0.39,7.56 0.14,11.82 0.02,2.15 -0.36,4.31 -0.55,6.5 -0.23,2.2 -0.8,4.37 -1.24,6.54 -0.75,2.06 -1.04,4.31 -2.11,6.2 -0.46,0.96 -0.89,1.95 -1.29,2.92 -0.41,0.99 -1.08,1.79 -1.6,2.67 -0.54,0.9 -1.08,1.76 -1.6,2.61 -0.65,0.76 -1.27,1.49 -1.89,2.23 -0.63,0.73 -1.22,1.46 -1.79,2.16 -0.65,0.63 -1.34,1.19 -1.98,1.76 -1.31,1.08 -2.41,2.31 -3.55,3.13 -1.16,0.8 -2.2,1.53 -3.03,2.11 -1.72,1.23 -2.7,1.98 -2.7,1.98z"/>
   <path class="fil0" d="M625.63 205.34c0,31.42 24.51,85.16 93.75,105.13 64.58,18.64 127.7,4.46 189.83,-56.98 48.51,-47.98 101.27,-68.44 101.27,-68.44 -46.78,24.41 -59.55,82.7 -102.81,130.47 -0.49,-0.74 -1,-1.51 -1.35,-2.37 -0.65,-1.31 -1.31,-2.66 -1.96,-4.01 -0.77,-1.37 -1.21,-2.85 -1.73,-4.34 -0.52,-1.5 -1.04,-3 -1.56,-4.47 -0.5,-1.49 -0.66,-3.03 -1,-4.49 -0.3,-1.5 -0.6,-2.93 -0.87,-4.31 -0.36,-1.38 -0.3,-2.7 -0.39,-3.93 -0.25,-4.97 -0.42,-8.28 -0.42,-8.28 0,0 -0.88,3.24 -2.2,8.12 -0.28,1.23 -0.8,2.58 -0.88,4.04 -0.17,1.46 -0.36,3.01 -0.54,4.62 -0.14,1.6 -0.47,3.31 -0.47,5.01 0.03,1.73 0.05,3.49 0.08,5.25 0.05,1.77 0.03,3.58 0.34,5.3 0.25,1.76 0.49,3.47 0.73,5.15 0.19,1.7 0.73,3.25 1.07,4.8 0.39,1.45 0.66,2.86 1.13,4.12 -18.67,16.91 -45.44,31.23 -75.49,39.68 -0.72,-1.7 -1.46,-3.55 -2.09,-5.61 -0.91,-2.8 -1.63,-5.86 -2.12,-8.99 -0.14,-1.56 -0.46,-3.16 -0.45,-4.72 -0.05,-1.57 -0.14,-3.13 0.03,-4.62 0.07,-1.51 0.17,-2.99 0.47,-4.35 0.27,-1.38 0.43,-2.73 0.85,-3.88 0.36,-1.21 0.71,-2.29 1,-3.27 0.42,-0.94 0.79,-1.74 1.08,-2.42 0.63,-1.37 0.99,-2.14 0.99,-2.14 0,0 -0.58,0.63 -1.57,1.76 -0.52,0.57 -1.12,1.24 -1.84,2.04 -0.61,0.87 -1.29,1.87 -2.04,2.93 -0.8,1.1 -1.4,2.38 -2.14,3.73 -0.79,1.35 -1.38,2.83 -1.98,4.43 -0.69,1.57 -1.13,3.27 -1.62,5 -0.55,1.73 -0.77,3.52 -1.16,5.33 -0.57,3.61 -0.86,7.31 -0.85,10.77 -0.03,2.61 0.14,5.01 0.35,7.26 -37.55,8.16 -78.92,6.88 -115.51,-9.68 1.4,-4.34 3.61,-9.41 6.73,-14.14 0.91,-1.51 1.96,-2.91 3.03,-4.27 1.01,-1.43 2.23,-2.65 3.37,-3.9 1.1,-1.29 2.37,-2.31 3.52,-3.39 1.13,-1.1 2.33,-1.98 3.43,-2.8 2.19,-1.71 4.2,-2.91 5.64,-3.71 1.43,-0.85 2.26,-1.34 2.26,-1.34 0,0 -0.94,0.17 -2.55,0.49 -1.67,0.28 -4.04,0.73 -6.81,1.65 -1.4,0.39 -2.93,0.88 -4.47,1.57 -1.56,0.65 -3.3,1.27 -4.9,2.19 -1.65,0.88 -3.43,1.71 -5.08,2.83 -1.68,1.05 -3.41,2.17 -5,3.44 -5.5,4.09 -10.24,9.12 -13.8,13.72 -1.22,-0.72 -2.44,-1.39 -3.65,-2.15 -30.05,-19.04 -44.87,-42.9 -51.62,-65.7 0.54,0 1.07,0.03 1.62,0.04 1.37,0.05 2.75,0.07 4.08,0.35 1.35,0.24 2.69,0.47 3.97,0.69 1.29,0.24 2.59,0.41 3.79,0.71 1.16,0.36 2.28,0.7 3.3,1.01 4.16,1.29 6.93,2.14 6.93,2.14 0,0 -2.31,-1.79 -5.77,-4.49 -0.89,-0.67 -1.85,-1.43 -2.86,-2.2 -1.04,-0.74 -2.26,-1.37 -3.46,-2.11 -1.22,-0.72 -2.48,-1.48 -3.79,-2.22 -1.29,-0.83 -2.7,-1.39 -4.13,-2 -1.46,-0.61 -2.91,-1.21 -4.34,-1.81 -0.63,-0.24 -1.27,-0.45 -1.92,-0.61 -7.11,-36.47 4.57,-67.64 4.57,-67.64zm235.42 119.25c0.11,1.32 0.25,2.39 0.49,3.15 0.19,0.74 0.38,1.15 0.38,1.15 0,0 0.69,-1.66 1.51,-3.93 0.52,-1.13 0.88,-2.45 1.49,-3.82 0.54,-1.39 1,-2.89 1.67,-4.32 0.47,-1.51 1.12,-2.94 1.66,-4.35 0.52,-1.4 0.94,-2.77 1.42,-3.9 0.86,-2.3 1.18,-4.11 1.18,-4.11 0,0 -1.46,0.99 -3.24,2.86 -0.97,0.91 -1.82,2.12 -2.67,3.49 -0.91,1.34 -1.65,2.89 -2.26,4.51 -0.63,1.6 -1.08,3.25 -1.34,4.87 -0.33,1.57 -0.28,3.13 -0.28,4.39zm-13.54 6.59c-0.14,1.15 0.09,2.28 0.25,3.33 0.14,1.07 0.27,2.06 0.55,2.94 0.27,0.89 0.57,1.7 0.83,2.39 0.22,0.71 0.62,1.29 0.85,1.76 0.5,0.96 0.91,1.42 0.91,1.42 0,0 -0.09,-0.63 -0.12,-1.68 -0.12,-1.01 -0.04,-2.49 -0.11,-4.2 -0.01,-0.83 0.17,-1.78 0.17,-2.75 0.05,-0.94 0.11,-1.96 0.33,-3 0.16,-1.04 0.38,-2.09 0.5,-3.17 0.12,-1.08 0.58,-2.14 0.86,-3.19 0.3,-1.08 0.47,-2.19 0.83,-3.21 0.47,-1.01 0.83,-2.03 1.23,-3.02 0.41,-0.99 0.73,-1.96 1.05,-2.91 0.39,-0.88 0.89,-1.68 1.24,-2.47 1.57,-3.09 2.39,-5.48 2.39,-5.48 0,0 -1.9,1.48 -4.4,4.18 -0.63,0.68 -1.37,1.37 -1.96,2.23 -0.54,0.91 -1.13,1.87 -1.67,2.88 -0.54,1.02 -1.16,2.06 -1.67,3.17 -0.45,1.12 -0.74,2.36 -1.11,3.54 -0.25,1.23 -0.71,2.41 -0.8,3.63 -0.1,1.22 -0.11,2.44 -0.17,3.61zm-78.43 5.85c-1.07,0.99 -1.9,2.14 -2.83,3.23 -0.88,1.08 -1.57,2.3 -2.28,3.41 -1.34,2.31 -2.33,4.58 -2.94,6.6 -1.29,4.01 -1.24,6.87 -1.24,6.87 0,0 1.31,-2.47 3.43,-5.86 1.05,-1.7 2.37,-3.61 3.82,-5.58 1.51,-1.9 3.11,-3.96 4.98,-5.7 0.88,-0.94 1.82,-1.82 2.81,-2.58 0.94,-0.85 1.95,-1.57 2.93,-2.26 0.96,-0.76 1.98,-1.32 2.93,-1.92 0.94,-0.6 1.88,-1.1 2.78,-1.51 0.89,-0.42 1.68,-0.91 2.44,-1.23 0.75,-0.31 1.42,-0.6 1.98,-0.81 1.12,-0.52 1.74,-0.8 1.74,-0.8 0,0 -0.69,-0.04 -1.92,-0.03 -1.22,0 -3,0.05 -5.05,0.6 -1.05,0.19 -2.17,0.47 -3.31,0.97 -1.13,0.43 -2.39,0.85 -3.52,1.57 -2.39,1.26 -4.72,3.01 -6.76,5.04zm-28.14 20.12c0,0 0.22,-0.65 0.73,-1.64 0.2,-0.52 0.54,-1.1 0.94,-1.76 0.43,-0.65 0.77,-1.42 1.34,-2.17 0.57,-0.74 1.16,-1.54 1.74,-2.41 0.57,-0.89 1.48,-1.62 2.16,-2.53 0.8,-0.83 1.45,-1.79 2.4,-2.59 0.88,-0.81 1.78,-1.65 2.67,-2.49 0.83,-0.91 1.75,-1.73 2.77,-2.42 0.99,-0.72 1.89,-1.51 2.81,-2.26 0.93,-0.71 1.71,-1.55 2.62,-2.15 0.91,-0.6 1.74,-1.19 2.51,-1.76 3.08,-2.25 5.05,-4.11 5.05,-4.11 0,0 -2.55,0.57 -6.24,2 -0.93,0.35 -1.93,0.75 -2.97,1.22 -1.05,0.42 -2.03,1.12 -3.08,1.77 -1.02,0.69 -2.15,1.34 -3.21,2.11 -1.11,0.71 -2.12,1.55 -3.08,2.5 -0.94,0.94 -1.89,1.9 -2.83,2.83 -1,0.85 -1.57,2.11 -2.36,3.11 -0.69,1.07 -1.45,2.03 -1.89,3.11 -0.49,1.07 -0.91,2.09 -1.26,3.03 -0.39,0.91 -0.49,1.89 -0.68,2.67 -0.2,0.78 -0.25,1.51 -0.25,2.11 -0.04,1.19 0.1,1.82 0.1,1.82zm-82.22 -43.46c0,0 0.52,-0.05 1.42,-0.14 0.86,-0.08 2.11,-0.22 3.6,-0.36 1.46,-0.22 3.21,-0.31 5,-0.58 0.91,-0.11 1.87,-0.2 2.83,-0.28 0.94,-0.09 1.9,-0.3 2.88,-0.3 1.93,-0.12 3.88,-0.43 5.69,-0.46 1.81,-0.04 3.54,-0.3 5,-0.28 2.93,-0.01 5.01,-0.22 5.01,-0.22 0,0 -1.87,-0.75 -4.85,-1.57 -1.48,-0.42 -3.25,-0.52 -5.16,-0.69 -1.92,-0.25 -3.95,0.04 -5.99,0.09 -4.05,0.42 -8.01,1.42 -10.83,2.55 -2.85,1.11 -4.59,2.24 -4.59,2.24z"/>
   <path class="fil0" d="M782.85 256.99c13.96,-11.18 28.62,-29.33 56.54,-32.13 0,0 -20.26,-5.58 -35.62,4.2 0,0 21.75,-51.07 76.81,-58.07 0,0 -23.04,-10.59 -41.9,0 0,0 32.83,-48.07 88,-45.99 0,0 -39.81,-54.45 39.81,-60.75 0,0 -15.53,13.75 -13.97,26.53 2.09,17.23 22.29,27.58 45.39,23.74 51.32,-8.52 92.17,-8.38 149.44,26.53 0,0 -118.71,-32.82 -194.13,11.17 -75.42,44.01 -97.76,137.59 -212.29,118.73 -0,0 27.95,-2.8 41.91,-13.97zm98.39 -106.85c0.83,-0.05 1.71,-0.11 2.64,-0.22 0.91,-0.14 1.89,-0.14 2.91,-0.14 1,-0.05 2.04,-0.04 3.1,-0.15 1.04,0.05 2.11,0.09 3.19,0.15 1.07,0.03 2.14,-0.08 3.19,0.05 1.05,0.16 2.09,0.19 3.12,0.3 1,0.09 1.98,0.12 2.94,0.14 0.93,0.12 1.81,0.24 2.64,0.35 3.28,0.41 5.69,0.35 5.69,0.35 0,0 -1.93,-1.29 -5.09,-2.69 -0.8,-0.35 -1.65,-0.77 -2.59,-1.07 -0.96,-0.27 -1.98,-0.52 -3.03,-0.74 -1.07,-0.22 -2.16,-0.5 -3.3,-0.67 -1.12,-0.19 -2.3,-0.14 -3.46,-0.22 -1.18,0 -2.34,0 -3.49,0.01 -1.15,0.11 -2.27,0.34 -3.35,0.52 -2.17,0.25 -4.09,1.13 -5.72,1.68 -1.6,0.8 -2.86,1.48 -3.68,2.14 -0.83,0.61 -1.22,1.04 -1.22,1.04 0,0 0.58,-0.14 1.57,-0.27 0.94,-0.22 2.36,-0.3 3.95,-0.57zm-37.08 53.1c2.03,-0.69 4.18,-1.39 6.39,-1.93 1.1,-0.33 2.15,-0.75 3.24,-0.99 1.11,-0.22 2.17,-0.55 3.21,-0.83 1.04,-0.27 2.04,-0.6 2.99,-0.89 0.97,-0.24 1.88,-0.46 2.73,-0.66 3.38,-0.86 5.66,-1.81 5.66,-1.81 0,0 -2.37,-0.46 -5.96,-0.58 -1.81,-0.14 -3.9,-0.01 -6.13,0.34 -2.23,0.24 -4.59,0.68 -6.9,1.4 -1.15,0.35 -2.3,0.73 -3.41,1.08 -1.11,0.45 -2.15,0.97 -3.17,1.45 -2.09,0.9 -3.84,2.16 -5.33,3.16 -1.43,1.13 -2.56,2.12 -3.27,2.94 -0.73,0.75 -1.07,1.27 -1.07,1.27 0,0 2.27,-0.89 5.48,-2.11 1.68,-0.49 3.49,-1.28 5.56,-1.85z"/>
   <path class="fil0" d="M331.01 166.9c10.47,-64.93 97.07,-55.86 112.43,-33.51 0,0 -20.92,-15.28 -48.79,-5.06 -25.23,9.27 -31.9,28.31 -29.45,49.76 4.13,36.34 41.94,38.41 41.94,38.41 0,0 -11.88,-34.22 23.74,-50.29 0,0 -6.29,36.32 26.53,37.71 32.83,1.39 66.15,-18.85 66.15,-18.85 0,0 -44.51,-7.69 -23.56,-53.09 0,0 5.59,37.03 52.39,18.17 46.79,-18.86 84.29,-85.9 176.68,-69.14 0,0 -62.43,3.94 -110.3,47.49 -38.04,34.58 -55.89,61.45 -55.89,80.3 0,18.85 22.35,21.63 33.52,11.88 0,0 -17.46,19.54 -37.71,17.46 -16.35,-1.69 -24.44,-11.18 -22.35,-23.75 0,0 -27.76,25.15 -59.63,30.04 -31.86,4.89 -71.65,30.02 -63.28,60.04 0,0 -43.99,-13.97 -20.95,-58.66 -0.02,-0.01 -71.96,-13.97 -61.47,-78.91zm217.78 48.33c0.11,0.86 0.11,1.87 0.38,2.83 0.27,0.97 0.52,2.04 0.91,3.11 0.52,1 0.96,2.12 1.64,3.13 0.78,0.91 1.39,2.04 2.34,2.83 0.89,0.86 1.85,1.65 2.88,2.26 0.96,0.76 2.11,1.12 3.12,1.64 2.12,0.77 4.18,1.23 5.94,1.29 3.52,0.22 5.75,-0.66 5.75,-0.66 0,0 -2.27,-0.54 -5.28,-1.68 -0.76,-0.28 -1.54,-0.63 -2.37,-1 -0.83,-0.31 -1.62,-0.86 -2.48,-1.26 -1.57,-1.04 -3.3,-2.09 -4.62,-3.55 -0.8,-0.61 -1.29,-1.49 -1.96,-2.19 -0.55,-0.83 -1.11,-1.62 -1.63,-2.42 -0.42,-0.85 -0.83,-1.67 -1.29,-2.47 -0.39,-0.8 -0.63,-1.65 -0.97,-2.38 -0.69,-1.49 -0.97,-2.83 -1.35,-3.75 -0.34,-0.93 -0.57,-1.49 -0.57,-1.49 0,0 -0.14,0.57 -0.25,1.56 -0.1,0.98 -0.42,2.44 -0.2,4.19zm-21.56 -44.52c3.63,-0.61 5.77,-1.87 5.77,-1.87 0,0 -2.43,-0.14 -5.83,-0.52 -1.71,-0.25 -3.66,-0.52 -5.66,-1.01 -1.02,-0.17 -2,-0.6 -3.04,-0.85 -0.97,-0.39 -2.04,-0.63 -2.96,-1.18 -0.99,-0.43 -1.93,-0.89 -2.8,-1.49 -0.91,-0.52 -1.74,-1.12 -2.53,-1.76 -0.83,-0.57 -1.48,-1.31 -2.17,-1.95 -0.72,-0.63 -1.27,-1.32 -1.82,-1.98 -0.5,-0.68 -1.12,-1.22 -1.48,-1.79 -0.42,-0.58 -0.77,-1.1 -1.05,-1.51 -0.63,-0.83 -1.02,-1.32 -1.02,-1.32 0,0 0.05,0.6 0.24,1.65 0.09,0.52 0.22,1.16 0.39,1.89 0.14,0.75 0.52,1.51 0.88,2.35 0.36,0.88 0.75,1.82 1.42,2.67 0.63,0.86 1.21,1.92 2.12,2.69 1.62,1.77 3.76,3.3 6.08,4.34 1.15,0.6 2.4,0.86 3.58,1.27 1.21,0.3 2.42,0.52 3.58,0.61 2.34,0.25 4.51,0.06 6.32,-0.24zm-111.05 23.15c0,1.35 0,2.75 0.16,4.15 0.33,1.37 0.52,2.77 1.08,4.04 0.42,1.31 1.13,2.47 1.79,3.58 0.69,1.11 1.5,2.06 2.3,2.92 0.8,0.83 1.62,1.57 2.44,2.16 3.19,2.47 5.86,2.99 5.86,2.99 0,0 -0.5,-0.45 -1.26,-1.26 -0.77,-0.8 -1.82,-1.98 -2.93,-3.43 -1.15,-1.45 -2.25,-3.24 -3.21,-5.19 -0.47,-0.99 -0.88,-2.03 -1.21,-3.11 -0.43,-1.04 -0.52,-2.19 -0.74,-3.3 -0.16,-1.13 -0.22,-2.28 -0.25,-3.41 0.14,-1.13 0.04,-2.28 0.22,-3.36 0.24,-1.08 0.38,-2.16 0.52,-3.21 0.3,-0.99 0.54,-1.96 0.75,-2.86 0.36,-1.85 1.07,-3.25 1.32,-4.38 0.34,-1.08 0.47,-1.73 0.47,-1.73 0,0 -0.45,0.46 -1.21,1.32 -0.66,0.91 -1.93,2.06 -2.8,3.83 -0.5,0.86 -1.02,1.82 -1.53,2.85 -0.39,1.08 -0.8,2.23 -1.18,3.46 -0.28,1.23 -0.45,2.6 -0.62,3.93zm-17.52 81.62c0.11,1.52 0.14,3 0.46,4.38 0.2,1.37 0.57,2.62 0.94,3.76 1.48,4.59 3.58,7.06 3.58,7.06 0,0 -0.83,-3.07 -1.23,-7.54 -0.11,-1.11 -0.17,-2.33 -0.19,-3.6 -0.11,-1.27 0.12,-2.58 0.11,-3.93 0.23,-1.32 0.31,-2.73 0.69,-4.08l0.49 -2.04 0.75 -2c0.35,-1.38 1.22,-2.54 1.77,-3.81 0.79,-1.18 1.54,-2.34 2.28,-3.46 0.89,-1.04 1.76,-2.04 2.56,-3 0.85,-0.93 1.81,-1.67 2.61,-2.47 1.57,-1.63 3.19,-2.65 4.21,-3.55 1.04,-0.91 1.65,-1.4 1.65,-1.4 0,0 -0.74,0.22 -2.06,0.68 -1.26,0.52 -3.24,1.01 -5.23,2.34 -1,0.63 -2.2,1.21 -3.27,2.11 -1.04,0.9 -2.2,1.82 -3.28,2.91 -0.94,1.21 -2.09,2.37 -2.94,3.74 -0.72,1.46 -1.73,2.81 -2.22,4.42l-0.8 2.37c-0.19,0.81 -0.33,1.61 -0.49,2.41 -0.41,1.57 -0.27,3.19 -0.39,4.72zm-54.36 -96l0.36 2.43 0.85 4.79c0.46,1.57 1.02,3.08 1.53,4.59l0.77 2.27 1.11 2.09c0.74,1.38 1.42,2.75 2.19,4.04 1.7,2.47 3.28,4.9 5.22,6.87 1.73,2.12 3.65,3.82 5.4,5.38 3.6,3.05 6.88,5.17 9.29,6.46 2.36,1.32 3.81,1.85 3.81,1.85 0,0 -1.19,-0.99 -3.1,-2.86 -1.95,-1.82 -4.56,-4.57 -7.43,-7.97 -1.4,-1.76 -2.91,-3.62 -4.31,-5.72 -1.54,-2.01 -2.65,-4.45 -4.09,-6.73 -0.58,-1.21 -1.11,-2.49 -1.67,-3.76l-0.83 -1.9 -0.63 -2c-0.41,-1.32 -0.83,-2.69 -1.24,-4.04l-0.63 -4.18 -0.35 -2.09 -0.01 -2.11c-0.03,-1.42 -0.04,-2.83 -0.07,-4.23 0.31,-2.77 0.72,-5.53 1.1,-8.2 0.8,-2.59 1.49,-5.15 2.17,-7.56 0.86,-2.38 1.93,-4.54 2.75,-6.62 0.43,-1.05 0.87,-2.04 1.24,-2.98 0.43,-0.92 0.96,-1.77 1.39,-2.56 0.88,-1.62 1.66,-3.05 2.27,-4.21 1.24,-2.38 1.92,-3.8 1.92,-3.8 0,0 -1.08,1.08 -2.92,3.07 -0.91,1 -2.01,2.22 -3.28,3.62 -0.63,0.74 -1.32,1.46 -1.98,2.31 -0.58,0.89 -1.18,1.84 -1.81,2.83 -1.23,2 -2.73,4.09 -3.92,6.54 -1.04,2.51 -2.17,5.17 -3.21,7.98 -0.61,2.96 -1.43,6.02 -1.78,9.18 -0.02,1.6 -0.04,3.21 -0.07,4.84l-0.03 2.41z"/>
   <path class="fil0" d="M421.19 281.02c38.89,2.8 80.84,-19.87 116.74,-47.41 3.41,3.54 8.12,6.08 13.85,7.54 -16.16,14.55 -30.74,25.62 -39.89,31.9 -24.44,16.77 -41.21,54.46 -10.47,71.92 30.73,17.48 54.46,-15.36 54.46,-15.36 -0.69,25.15 -46.37,58.58 -90.11,37.75 -43.99,-20.94 -25.12,-70.56 -25.12,-70.56 -7.64,4.87 -14.89,8.58 -21.85,11.4l-1.35 -4.85c-2.07,-7.44 -0.8,-14.96 3.74,-22.32zm37.08 46.47c0.36,2.96 0.95,6.05 2.01,9.07 1.16,2.97 2.48,6 4.38,8.68 1.85,2.7 4.08,5.14 6.51,7.21 2.37,2.16 5.08,3.76 7.7,5.19 2.61,1.46 5.35,2.41 7.9,3.27 2.56,0.8 5.04,1.37 7.34,1.71 4.59,0.8 8.46,0.8 11.14,0.72 2.67,-0.14 4.18,-0.41 4.18,-0.41 0,0 -6.08,-0.94 -14.44,-3.79 -4.18,-1.46 -8.86,-3.46 -13.38,-6.3 -4.46,-2.88 -8.78,-6.52 -11.77,-11.16 -1.65,-2.22 -2.83,-4.73 -3.88,-7.24 -0.45,-1.29 -0.88,-2.58 -1.29,-3.87 -0.3,-1.32 -0.72,-2.59 -0.93,-3.91 -0.47,-2.62 -0.76,-5.2 -0.96,-7.69 -0.01,-2.48 -0.2,-4.87 -0.07,-7.09 0.04,-2.2 0.14,-4.26 0.33,-6.05 0.12,-1.82 0.23,-3.43 0.43,-4.73 0.3,-2.62 0.41,-4.16 0.41,-4.16 0,0 -0.63,1.39 -1.62,3.87 -0.52,1.24 -1.08,2.77 -1.57,4.57 -0.58,1.79 -1.15,3.84 -1.54,6.13 -0.55,2.26 -0.8,4.78 -1.04,7.45 -0.13,2.69 -0.21,5.56 0.17,8.54z"/>
  </g>
 </g>
</svg>
