<?xml version="1.0" encoding="UTF-8"?>
<!DOCTYPE svg PUBLIC "-//W3C//DTD SVG 1.1//EN" "http://www.w3.org/Graphics/SVG/1.1/DTD/svg11.dtd">
<!-- Creator: CorelDRAW -->
<svg xmlns="http://www.w3.org/2000/svg" xml:space="preserve" width="48.8982mm" height="5.1525mm" version="1.1" style="shape-rendering:geometricPrecision; text-rendering:geometricPrecision; image-rendering:optimizeQuality; fill-rule:evenodd; clip-rule:evenodd"
viewBox="0 0 2049.3 215.94"
 xmlns:xlink="http://www.w3.org/1999/xlink"
 xmlns:xodm="http://www.corel.com/coreldraw/odm/2003">
 <defs>
  <style type="text/css">
   <![CDATA[
    .fil0 {fill:#121F38;fill-rule:nonzero}
   ]]>
  </style>
 </defs>
 <g id="Layer_x0020_1">
  <metadata id="CorelCorpID_0Corel-Layer"/>
  <g id="_1717277136400">
   <path class="fil0" d="M1032.38 142.49c0,0 23.8,-19.05 21.06,-52.44 -2.62,-32.08 14.4,-48.33 34.99,-46.27 20.55,2.07 20.2,18.67 20.2,18.67 0,0 1.72,16.8 -18.13,16.8 0,0 10.61,-2.75 9.22,-13.36 -1.37,-10.63 -16.98,-13.01 -24.31,-5.12 -19.23,20.57 5.12,58.25 -43.02,81.72z"/>
   <path class="fil0" d="M1346.32 119.55c0,0 0.94,-1.74 2.03,-4.99 1.04,-3.25 2.31,-8.08 2.49,-14.08 0.22,-5.93 -0.81,-13.1 -4.08,-20 -1.63,-3.43 -3.73,-6.82 -6.39,-9.79 -2.62,-3.05 -5.65,-5.8 -9.07,-8.06 -3.45,-2.21 -7.22,-3.88 -11.14,-4.92 -3.9,-1.04 -7.93,-1.35 -11.81,-0.96 -3.83,0.36 -7.54,1.55 -10.57,3.48 -3.07,1.85 -5.43,4.56 -6.8,7.36 -1.4,2.82 -1.83,5.69 -1.81,8.13 0.02,2.49 0.43,4.56 0.92,6.21 0.43,1.68 0.98,2.92 1.33,3.77 0.39,0.83 0.57,1.29 0.57,1.29 0,0 -0.11,-0.48 -0.36,-1.37 -0.2,-0.88 -0.5,-2.16 -0.72,-3.83 -0.24,-1.68 -0.36,-3.7 -0.16,-5.98 0.24,-2.28 0.92,-4.77 2.31,-7.11 1.4,-2.31 3.52,-4.38 6.28,-5.84 2.68,-1.5 5.96,-2.28 9.35,-2.53 3.4,-0.24 6.97,0.24 10.46,1.2 3.47,0.96 6.82,2.53 9.94,4.56 3.07,1.99 5.89,4.45 8.28,7.2 2.44,2.77 4.56,5.69 6.14,8.81 1.58,3.11 2.8,6.28 3.59,9.39 0.77,3.14 1.17,6.21 1.35,9.03 0.32,5.71 -0.3,10.52 -0.92,13.86 -0.6,3.35 -1.2,5.21 -1.2,5.21z"/>
   <path class="fil0" d="M1344.42 95.37c0,0 -0.02,-0.27 -0.09,-0.74 -0.09,-0.48 -0.11,-1.22 -0.32,-2.12 -0.22,-0.9 -0.48,-1.99 -0.9,-3.23 -0.39,-1.2 -0.94,-2.59 -1.68,-3.97 -0.36,-0.72 -0.77,-1.46 -1.2,-2.18 -0.43,-0.74 -0.92,-1.49 -1.46,-2.25 -1.02,-1.5 -2.25,-3 -3.62,-4.47 -1.37,-1.42 -2.88,-2.85 -4.56,-4.15 -1.62,-1.33 -3.4,-2.51 -5.26,-3.59 -1.85,-1.04 -3.81,-1.92 -5.78,-2.68 -2.01,-0.72 -4.06,-1.2 -6.06,-1.49 -2.03,-0.27 -4.01,-0.22 -5.87,0.13 -1.87,0.34 -3.52,1.09 -4.9,2.01 -1.37,0.94 -2.33,2.14 -3.03,3.27 -0.67,1.13 -1.09,2.18 -1.33,3.07 -0.36,0.85 -0.36,1.58 -0.45,2.1 -0.07,0.45 -0.11,0.74 -0.11,0.74 0,0 0.07,-0.26 0.22,-0.74 0.2,-0.45 0.36,-1.13 0.74,-1.96 0.33,-0.85 0.83,-1.81 1.58,-2.82 0.79,-0.94 1.74,-1.92 3.03,-2.68 1.29,-0.74 2.82,-1.29 4.51,-1.51 1.7,-0.18 3.52,-0.11 5.37,0.18 3.7,0.63 7.56,2.14 11.08,4.18 7.11,4.04 12.96,10.07 16.1,15.39 0.41,0.63 0.74,1.29 1.06,1.89 0.34,0.61 0.65,1.24 0.9,1.83 0.57,1.11 0.92,2.14 1.22,2.98 0.31,0.88 0.45,1.58 0.61,2.03 0.1,0.5 0.17,0.77 0.17,0.77z"/>
   <path class="fil0" d="M1072.31 107.36c0,0 1.22,-0.52 3.55,-1.4 2.33,-0.92 5.82,-2.03 10.27,-3.38 8.91,-2.59 21.99,-5.62 37.79,-5.8 1.99,0.02 3.99,0.07 6.04,0.11 2.05,0.11 4.09,0.32 6.23,0.48 2.1,0.32 4.22,0.63 6.43,0.94 2.05,0.5 4.16,0.88 6.28,1.53 2.14,0.65 4.29,1.24 6.39,2.16 2.12,0.81 4.12,1.85 6.16,2.9 3.99,2.31 7.83,5.03 11.09,8.39 6.63,6.66 10.94,16 10.11,25.67 -0.5,9.57 -5.96,18.83 -14.71,23.06 -4.27,2.31 -9.14,3.45 -14.08,3.64 -0.54,0 -1.31,0.09 -1.7,0.02l-2.01 -0.07c-1.4,-0.02 -2.49,-0.24 -3.64,-0.39 -2.28,-0.32 -4.65,-1.09 -6.8,-1.96 -4.36,-1.89 -8.04,-4.95 -10.66,-8.69 -1.27,-1.94 -2.26,-3.97 -2.94,-6.12 -0.57,-2.18 -1,-4.4 -0.9,-6.59 -0.02,-0.54 0.11,-1.06 0.16,-1.63l0.09 -0.79 0 -0.11c0,0.02 0.05,-0.2 0,0.02l0.07 -0.22 0.09 -0.48 0.41 -1.79c0.18,-0.54 0.34,-1 0.5,-1.51 0.7,-1.99 1.72,-3.99 3.05,-5.67 2.51,-3.45 6.21,-5.82 10.13,-7.17 4.04,-1.27 8.15,-1.58 12.19,-0.77 3.43,0.81 6.95,2.94 8.31,6.06 0.45,0.74 0.63,1.55 0.85,2.35 0.02,0.07 0.07,0.29 0.05,0.22l0.07 0.36 0.07 0.72c0.07,0.45 0,0.79 0.02,1.15 -0.05,1.63 -0.59,3.18 -1.44,4.51 -1.7,2.64 -4.72,4.22 -7.63,4.36l-0.54 0.02c-0.05,0.02 -0.36,-0.02 -0.52,-0.05 -0.4,-0.02 -0.83,-0.05 -1.11,-0.11 -0.65,-0.13 -1.31,-0.31 -1.94,-0.57 -1.2,-0.54 -2.23,-1.42 -2.92,-2.46 -1.4,-2.07 -1.72,-4.79 -0.67,-6.63 1.02,-1.7 3.03,-2.73 4.71,-2.98 1.7,-0.34 3.25,-0.02 4.29,0.57 1.11,0.57 1.66,1.4 2.03,1.92 0.28,0.57 0.41,0.88 0.41,0.88 0,0 -0.11,-0.33 -0.36,-0.92 -0.29,-0.57 -0.79,-1.49 -1.89,-2.16 -1.04,-0.72 -2.68,-1.2 -4.56,-1 -1.87,0.18 -4.15,0.92 -5.71,3.14 -1.35,2.21 -1.27,5.43 0.32,8.08 0.79,1.35 1.99,2.55 3.48,3.34 0.77,0.41 1.55,0.7 2.46,0.9 0.45,0.16 0.83,0.18 1.22,0.22 0.24,0.05 0.33,0.09 0.67,0.11l0.65 0.01c3.62,0.07 7.54,-1.58 10.05,-4.95 1.24,-1.65 2.07,-3.77 2.26,-5.98 0.02,-0.54 0.07,-1.2 0.05,-1.7l-0.05 -0.74 -0.05 -0.34c-0.02,-0.3 -0.05,-0.3 -0.09,-0.5 -0.22,-1.11 -0.43,-2.22 -0.96,-3.25 -0.39,-1.11 -1.11,-2.03 -1.76,-3.03 -0.81,-0.83 -1.55,-1.81 -2.53,-2.46 -1.83,-1.53 -4.07,-2.4 -6.54,-3.14 -4.4,-1.09 -9.46,-0.94 -14.23,0.41 -4.77,1.44 -9.46,4.2 -12.79,8.44 -1.74,2.1 -3.03,4.45 -4.04,7.06 -0.22,0.65 -0.5,1.37 -0.67,2.01l-0.43 1.79 -0.13 0.45 -0.05 0.22c-0.09,0.31 -0.05,0.18 -0.07,0.27l-0.02 0.13 -0.13 1.04c-0.09,0.7 -0.23,1.4 -0.23,2.1 -0.18,2.84 0.26,5.65 0.96,8.39 0.79,2.71 1.99,5.3 3.5,7.74 3.14,4.77 7.74,8.65 13.06,10.99 2.68,1.09 5.36,1.99 8.31,2.44 1.49,0.2 2.98,0.45 4.25,0.48l1.99 0.07c0.96,0.09 1.51,0 2.26,0 5.69,-0.2 11.49,-1.46 16.65,-4.22 2.62,-1.27 4.99,-3.07 7.22,-4.99 2.1,-2.07 4.12,-4.25 5.58,-6.8 3.14,-4.99 4.67,-10.77 5.01,-16.48l0.09 -1.94 0 -0.5 0.05 -0.24 0 -0.27 -0.02 -0.16 -0.07 -1.06 -0.13 -2.18 -0.34 -2.12c-0.48,-2.8 -1.42,-5.47 -2.49,-8.02 -2.23,-5.1 -5.49,-9.59 -9.26,-13.29 -3.81,-3.68 -8.11,-6.66 -12.57,-9 -2.26,-1.09 -4.51,-2.18 -6.84,-2.92 -2.26,-0.94 -4.6,-1.51 -6.89,-2.14 -2.28,-0.61 -4.69,-0.94 -6.93,-1.4 -2.26,-0.24 -4.31,-0.5 -6.63,-0.7 -2.23,-0.07 -4.38,-0.2 -6.5,-0.2 -2.12,0.05 -4.18,0.09 -6.23,0.16 -8.13,0.41 -15.45,1.74 -21.82,3.29 -6.39,1.53 -11.83,3.32 -16.24,4.9 -4.4,1.58 -7.76,3.11 -10.02,4.2 -2.27,1.04 -3.43,1.69 -3.43,1.69z"/>
   <path class="fil0" d="M1072.31 105.24c0,0 1.53,-1.58 4.71,-4.1 3.21,-2.55 8.11,-6.03 14.74,-9.68 6.62,-3.68 15.1,-7.36 25.24,-9.98 10.13,-2.62 21.94,-3.77 34.72,-2.71 12.69,1.06 26.13,4.92 38.91,11.81 6.41,3.43 12.69,7.59 18.83,12.25 6.12,4.69 12.21,9.85 18.46,15.1 6.25,5.28 12.67,10.75 19.64,15.91 6.95,5.12 14.45,9.98 22.8,13.62 8.35,3.62 17.41,5.98 26.68,6.68 2.51,0.11 4.31,0.29 6.84,0.24 2.44,0.05 4.71,-0.13 7.04,-0.32 4.67,-0.36 9.35,-1.24 13.91,-2.62 9.09,-2.75 17.61,-7.87 24.28,-14.8 6.68,-6.86 11.42,-15.54 13.63,-24.81 1.09,-4.6 1.55,-9.39 1.29,-14.17 -0.11,-1.2 -0.2,-2.4 -0.36,-3.59 -0.18,-1 -0.36,-2.18 -0.59,-3.36 -0.48,-2.24 -1.04,-4.45 -1.72,-6.64 -2.73,-8.62 -7.31,-16.78 -13.77,-23.14 -6.45,-6.34 -14.67,-10.7 -23.04,-12.44 -4.2,-0.94 -8.39,-1.33 -12.48,-1.33 -4.06,-0.05 -8.35,0.39 -12.32,1.46 -8,2.05 -15.44,6.97 -19.53,13.95 -4.2,6.89 -4.99,15.01 -3.45,21.96 0.34,1.79 0.83,3.34 1.51,5.15 0.52,1.35 1.46,3.32 2.37,4.67 1.89,2.92 4.22,5.32 6.7,7.34 4.99,3.99 10.79,6.5 16.57,6.95 5.56,0.32 11.38,-0.7 15.33,-4.12 1.99,-1.68 3.43,-3.79 4.18,-6.02 0.72,-2.22 1.02,-4.43 0.72,-6.52 -0.79,-4.4 -3.81,-7.22 -6.62,-8.54 -2.9,-1.33 -5.82,-1.13 -7.81,-0.29 -1.94,0.85 -3.05,2.07 -3.7,2.9 -0.34,0.41 -0.57,0.77 -0.72,0.98 -0.16,0.22 -0.22,0.34 -0.22,0.34 0,0 0.09,-0.13 0.26,-0.33 0.16,-0.22 0.43,-0.52 0.81,-0.9 0.72,-0.72 1.94,-1.79 3.83,-2.35 1.87,-0.59 4.45,-0.45 6.84,0.98 2.33,1.35 4.62,4.1 4.86,7.41 0.2,3.4 -1.13,7.45 -4.4,9.87 -1.58,1.29 -3.64,2.12 -5.84,2.57 -1.15,0.22 -2.23,0.33 -3.43,0.39 -0.63,0 -1.27,0 -1.87,0 -0.61,-0.05 -1.22,-0.11 -1.81,-0.18 -4.86,-0.65 -9.76,-3.11 -13.86,-6.82 -4.12,-3.7 -7.32,-8.74 -8.06,-14.58 -1,-5.84 0.07,-12.23 3.5,-17.31 3.4,-5.1 9.09,-8.72 15.67,-10.18 3.32,-0.74 6.64,-0.98 10.31,-0.81 3.59,0.13 7.2,0.63 10.68,1.51 6.95,1.81 13.49,5.37 18.6,10.63 5.12,5.28 8.85,12.12 10.99,19.55 0.54,1.87 1,3.77 1.37,5.69 0.11,0.92 0.29,1.81 0.41,2.92 0.13,0.92 0.2,1.83 0.27,2.77 0.18,3.73 -0.18,7.54 -1.13,11.29 -1.81,7.43 -5.73,14.51 -11.22,20.09 -5.42,5.58 -12.4,9.66 -20.02,12.01 -3.79,1.2 -7.74,1.96 -11.76,2.33 -2.01,0.18 -4.09,0.34 -6.03,0.31 -1.81,0.07 -4.36,-0.09 -6.16,-0.18 -8.13,-0.57 -16.07,-2.55 -23.52,-5.75 -14.97,-6.37 -27.95,-17 -40.65,-27.29 -12.64,-10.42 -25.62,-20.31 -39.59,-27.16 -13.91,-6.97 -28.53,-10.25 -42,-10.77 -13.41,-0.59 -25.74,1.49 -36.07,4.74 -10.36,3.25 -18.72,7.74 -25.22,11.9 -6.5,4.16 -11.08,8.17 -14.06,10.97 -3.01,2.89 -4.41,4.54 -4.41,4.54z"/>
   <path class="fil0" d="M1486.07 127.59c0,0 1.06,-0.16 3.07,-0.5 2.01,-0.33 4.95,-0.92 8.6,-1.96 3.66,-1.04 8.04,-2.68 12.86,-5.01 4.81,-2.35 9.98,-5.51 15.3,-9.37 5.32,-3.81 10.77,-8.26 16.68,-12.51 5.93,-4.29 12.44,-8.15 19.71,-10.81 3.64,-1.31 7.43,-2.37 11.31,-2.96 3.83,-0.59 7.78,-0.61 11.58,0.07 3.79,0.7 7.47,2.1 10.68,4.25 3.18,2.16 5.93,5.03 7.87,8.39 1.99,3.29 3.21,7.15 3.32,10.83 0.2,3.99 -0.36,7.95 -1.58,11.62 -1.27,3.66 -3.29,6.95 -5.96,9.55 -2.66,2.62 -5.98,4.47 -9.53,5.67 -1.76,0.59 -3.57,1 -5.47,1.27 -1.7,0.27 -3.55,0.31 -5.23,0.11 -3.47,-0.39 -6.63,-1.83 -8.87,-4.14 -2.28,-2.26 -3.57,-5.37 -3.83,-8.5 -0.16,-1.58 -0.09,-3.16 0.22,-4.69 0.27,-1.35 0.9,-2.8 1.63,-4.08 1.49,-2.57 3.62,-4.67 5.96,-6.06 1.17,-0.7 2.42,-1.22 3.66,-1.49 1.31,-0.29 2.53,-0.39 3.75,-0.33 2.37,0.18 4.43,1.29 5.56,2.98 1.13,1.7 1.53,3.68 0.96,5.28 -0.5,1.63 -1.68,2.86 -2.92,3.49 -1.22,0.65 -2.46,0.7 -3.43,0.43 -1.92,-0.54 -2.62,-1.58 -2.64,-1.49 0.05,-0.09 0.59,1.02 2.53,1.81 0.98,0.36 2.4,0.5 3.86,-0.07 1.46,-0.57 2.94,-1.83 3.77,-3.73 0.42,-0.92 0.63,-2.14 0.48,-3.25 -0.18,-1.17 -0.54,-2.31 -1.2,-3.38 -1.29,-2.21 -3.93,-3.83 -6.8,-4.08 -1.4,-0.18 -2.9,-0.07 -4.34,0.18 -1.51,0.24 -2.98,0.77 -4.4,1.49 -2.8,1.46 -5.38,3.7 -7.34,6.62 -0.96,1.49 -1.74,3.07 -2.24,5.01 -0.45,1.74 -0.59,3.62 -0.54,5.53 0.18,3.81 1.55,7.9 4.38,11.03 2.8,3.18 6.93,5.15 11.2,5.82 2.14,0.29 4.27,0.34 6.5,0.09 2.05,-0.2 4.2,-0.61 6.28,-1.22 4.18,-1.22 8.33,-3.34 11.68,-6.5 3.38,-3.14 5.96,-7.2 7.56,-11.53 1.58,-4.31 2.28,-9.03 2.21,-13.62 -0.13,-4.88 -1.65,-9.57 -4.04,-13.66 -2.4,-4.14 -5.71,-7.67 -9.61,-10.38 -3.93,-2.66 -8.42,-4.43 -12.96,-5.26 -4.6,-0.81 -9.17,-0.72 -13.58,-0.05 -4.36,0.7 -8.5,1.94 -12.44,3.4 -7.95,2.98 -14.8,7.54 -20.77,12.14 -5.96,4.65 -11.1,9.39 -16.09,13.41 -4.92,4.1 -9.7,7.52 -14.13,10.16 -4.43,2.71 -8.56,4.65 -12.03,6.08 -3.45,1.44 -6.25,2.37 -8.17,3 -1.95,0.6 -3,0.91 -3,0.91z"/>
   <path class="fil0" d="M1486.07 127.59c0,0 1.06,-0.16 3.07,-0.5 2.01,-0.33 4.95,-0.92 8.6,-1.96 3.66,-1.04 8.04,-2.68 12.86,-5.01 4.81,-2.35 9.98,-5.51 15.3,-9.37 5.32,-3.81 10.77,-8.26 16.68,-12.51 5.93,-4.29 12.44,-8.15 19.71,-10.81 3.64,-1.31 7.43,-2.37 11.31,-2.96 3.83,-0.59 7.78,-0.61 11.58,0.07 3.79,0.7 7.47,2.1 10.68,4.25 3.18,2.16 5.93,5.03 7.87,8.39 1.99,3.29 3.21,7.15 3.32,10.83 0.2,3.99 -0.36,7.95 -1.58,11.62 -1.27,3.66 -3.29,6.95 -5.96,9.55 -2.66,2.62 -5.98,4.47 -9.53,5.67 -1.76,0.59 -3.57,1 -5.47,1.27 -1.7,0.27 -3.55,0.31 -5.23,0.11 -3.47,-0.39 -6.63,-1.83 -8.87,-4.14 -2.28,-2.26 -3.57,-5.37 -3.83,-8.5 -0.16,-1.58 -0.09,-3.16 0.22,-4.69 0.27,-1.35 0.9,-2.8 1.63,-4.08 1.49,-2.57 3.62,-4.67 5.96,-6.06 1.17,-0.7 2.42,-1.22 3.66,-1.49 1.31,-0.29 2.53,-0.39 3.75,-0.33 2.37,0.18 4.43,1.29 5.56,2.98 1.13,1.7 1.53,3.68 0.96,5.28 -0.5,1.63 -1.68,2.86 -2.92,3.49 -1.22,0.65 -2.46,0.7 -3.43,0.43 -1.92,-0.54 -2.62,-1.58 -2.64,-1.49 0.05,-0.09 0.59,1.02 2.53,1.81 0.98,0.36 2.4,0.5 3.86,-0.07 1.46,-0.57 2.94,-1.83 3.77,-3.73 0.42,-0.92 0.63,-2.14 0.48,-3.25 -0.18,-1.17 -0.54,-2.31 -1.2,-3.38 -1.29,-2.21 -3.93,-3.83 -6.8,-4.08 -1.4,-0.18 -2.9,-0.07 -4.34,0.18 -1.51,0.24 -2.98,0.77 -4.4,1.49 -2.8,1.46 -5.38,3.7 -7.34,6.62 -0.96,1.49 -1.74,3.07 -2.24,5.01 -0.45,1.74 -0.59,3.62 -0.54,5.53 0.18,3.81 1.55,7.9 4.38,11.03 2.8,3.18 6.93,5.15 11.2,5.82 2.14,0.29 4.27,0.34 6.5,0.09 2.05,-0.2 4.2,-0.61 6.28,-1.22 4.18,-1.22 8.33,-3.34 11.68,-6.5 3.38,-3.14 5.96,-7.2 7.56,-11.53 1.58,-4.31 2.28,-9.03 2.21,-13.62 -0.13,-4.88 -1.65,-9.57 -4.04,-13.66 -2.4,-4.14 -5.71,-7.67 -9.61,-10.38 -3.93,-2.66 -8.42,-4.43 -12.96,-5.26 -4.6,-0.81 -9.17,-0.72 -13.58,-0.05 -4.36,0.7 -8.5,1.94 -12.44,3.4 -7.95,2.98 -14.8,7.54 -20.77,12.14 -5.96,4.65 -11.1,9.39 -16.09,13.41 -4.92,4.1 -9.7,7.52 -14.13,10.16 -4.43,2.71 -8.56,4.65 -12.03,6.08 -3.45,1.44 -6.25,2.37 -8.17,3 -1.95,0.6 -3,0.91 -3,0.91z"/>
   <path class="fil0" d="M1085.47 215.94c0,0 -7.26,-19.37 10.72,-23.12 8.71,16.12 -10.72,23.12 -10.72,23.12z"/>
   <path class="fil0" d="M1101.81 196.63c1.58,-3.38 0.09,-7.36 -3.27,-8.91 -3.38,-1.58 -7.34,-0.11 -8.94,3.25 -1.55,3.36 -0.09,7.38 3.27,8.91 3.38,1.59 7.38,0.13 8.94,-3.25z"/>
   <path class="fil0" d="M1098.54 187.72c0,0 6.82,0.18 7.04,7.04 0.16,4.58 -2.1,9 4.29,13.03 0,0 -11.01,-1.24 -12.6,-11.27 -0.36,-2.2 -0.21,-5.49 1.27,-8.81z"/>
   <path class="fil0" d="M1098.54 187.72c0,0 -4.56,-5.12 -9.94,-0.85 -3.59,2.86 -5.51,7.43 -12.73,5.17 0,0 8.06,7.61 16.77,2.35 1.89,-1.17 4.31,-3.37 5.9,-6.66z"/>
   <path class="fil0" d="M1392.71 112.64c-10.18,-10.5 -20.27,-23.14 -26.7,-36.79 0,0 12.14,15.39 29.82,31.38 -0.06,3.12 -1.68,4.65 -3.12,5.41z"/>
   <path class="fil0" d="M1662.5 124.51c0,0 2.73,11.31 -8.91,11.31 -16.8,0 -17.15,-18.51 -32.76,-25.35 -1.61,-0.72 -3.62,-1.58 -5.93,-2.44 0,-0.07 0,-0.16 0,-0.22 -0.07,-3.34 -0.74,-6.62 -1.99,-9.85 28.49,7.65 38.33,27.07 61.24,18.31 0.01,0 -3.76,7.2 -11.65,8.24z"/>
   <path class="fil0" d="M1608.91 106.07c-0.41,-3.27 -1.5,-6.64 -3.27,-9.72 0.74,0.13 1.49,0.24 2.2,0.41 1.62,3.18 2.57,6.5 2.84,9.84 -0.54,-0.18 -1.15,-0.35 -1.76,-0.52z"/>
   <path class="fil0" d="M1486.85 137.81c39.01,-13.54 63.7,-43.7 105.05,-42.78 2.88,0.07 5.62,0.27 8.22,0.52 0.67,0.88 1.31,1.74 1.85,2.66 1.27,2.16 2.16,4.51 2.64,6.84 -5.26,-1.06 -11.42,-1.65 -18.55,-1.09 -1.22,-0.57 -2.55,-0.93 -3.93,-1.06 -1.44,-0.18 -3.14,-0.09 -4.88,0.2 -1.58,0.24 -3.27,0.83 -4.97,1.68 -1.44,0.72 -2.75,1.65 -3.97,2.71 -11.55,3.57 -24.81,10.07 -39.84,21.15 0,0 18.51,-0.67 27.42,17.48 0,0 -8.76,-5.71 -21.69,-3.59 -0.2,-0.22 -0.39,-0.43 -0.65,-0.7 -1.33,-1.35 -3.34,-2.9 -5.58,-3.95 -0.54,-0.3 -1.13,-0.48 -1.7,-0.72 -0.57,-0.24 -1.15,-0.34 -1.68,-0.52 -0.57,-0.18 -1.11,-0.24 -1.61,-0.34 -0.5,-0.13 -1,-0.13 -1.44,-0.2 -0.92,-0.11 -1.63,-0.09 -2.18,-0.09 -0.52,0 -0.83,0 -0.83,0 0,0 0.28,0.07 0.83,0.13 0.5,0.09 1.22,0.18 2.07,0.43 0.45,0.13 0.9,0.22 1.37,0.41 0.45,0.18 0.98,0.33 1.49,0.57 0.45,0.24 0.96,0.45 1.46,0.77 0.5,0.29 0.98,0.57 1.46,0.9 1.7,1.15 3.09,2.62 4.08,3.9 -2.64,0.67 -5.41,1.61 -8.28,3 -1.87,0.94 -3.75,1.89 -5.65,2.86 -0.13,-0.09 -0.24,-0.16 -0.36,-0.22 -0.77,-0.43 -1.7,-0.83 -2.66,-1.29 -0.45,-0.24 -1.02,-0.41 -1.55,-0.61 -0.54,-0.22 -1.04,-0.41 -1.58,-0.59 -0.57,-0.18 -1.11,-0.3 -1.65,-0.43 -0.54,-0.16 -1.04,-0.34 -1.6,-0.39 -0.52,-0.09 -1.04,-0.16 -1.51,-0.24 -0.5,-0.07 -0.94,-0.18 -1.4,-0.13 -1.65,0.02 -2.8,0.05 -2.8,0.05 0,0 1.11,0.18 2.75,0.41 0.41,0.05 0.81,0.27 1.29,0.36 0.41,0.16 0.92,0.32 1.37,0.48 0.5,0.11 0.98,0.39 1.46,0.61 0.5,0.24 0.98,0.45 1.46,0.7 0.5,0.27 0.94,0.57 1.42,0.81 0.43,0.31 0.92,0.52 1.31,0.83 0.52,0.34 0.98,0.67 1.44,0.98 -4.34,2.21 -8.67,4.31 -13.21,5.96 0,-0.02 0,-0.02 0,-0.02 -0.32,-0.29 -0.7,-0.52 -1.06,-0.83 -0.41,-0.29 -0.79,-0.61 -1.24,-0.85 -0.43,-0.24 -0.92,-0.5 -1.4,-0.81 -0.45,-0.27 -1,-0.39 -1.51,-0.63 -0.48,-0.2 -1,-0.39 -1.49,-0.59 -0.52,-0.13 -1,-0.27 -1.53,-0.36 -0.45,-0.13 -0.94,-0.24 -1.37,-0.34 -0.45,-0.11 -0.9,-0.09 -1.29,-0.16 -1.58,-0.13 -2.62,-0.22 -2.62,-0.22 0,0 1.02,0.29 2.51,0.7 0.36,0.13 0.79,0.16 1.2,0.36 0.41,0.16 0.81,0.36 1.27,0.57 0.43,0.2 0.88,0.39 1.35,0.59 0.39,0.29 0.83,0.54 1.29,0.83 0.39,0.29 0.85,0.5 1.2,0.85 0.36,0.29 0.74,0.61 1.09,0.92 0.36,0.27 0.63,0.61 0.92,0.88 -8.56,2.66 -17.83,3.32 -28.62,-0.63l1.64 -0.52c0.41,-0.13 10,-3.27 13.62,-12.01 0.78,-2 1.22,-4.03 1.31,-6.16z"/>
   <path class="fil0" d="M1024.64 132.66c0,0 -31.65,-35.57 0,-76.11 31.65,40.54 0,76.11 0,76.11z"/>
   <path class="fil0" d="M1050.86 163.57c-7.63,1.99 -13.49,-0.98 -17.72,-5.03 7.52,19.37 -8.5,34.35 -8.5,34.35 0,0 -16,-14.97 -8.48,-34.35 -4.22,4.06 -10.11,7.02 -17.72,5.03 -18.01,-4.62 -14.43,-37.51 -14.43,-37.51 13.39,41.13 40.63,19.53 40.63,19.53 0,0 27.27,21.6 40.63,-19.53 0,0 3.59,32.89 -14.4,37.51z"/>
   <path class="fil0" d="M1152.49 111.47c0,0 -39.1,-15.06 -61.35,1.72 -28.14,21.24 -11.64,66.14 -11.64,66.14 -5.49,-35.33 14.74,-54.83 14.74,-54.83 -3.45,35.64 19.21,39.68 19.21,39.68 -8.24,-16.86 -6.52,-29.07 4.43,-42.09 10.98,-13.01 34.63,-10.62 34.63,-10.62zm-19.37 -1.81c0,0 -0.77,0.27 -2.18,0.72 -0.67,0.22 -1.51,0.45 -2.46,0.72 -0.96,0.3 -2.05,0.57 -3.18,1.06 -1.13,0.43 -2.35,0.92 -3.66,1.37 -1.29,0.5 -2.53,1.27 -3.9,1.87 -1.4,0.57 -2.55,1.61 -3.9,2.37l-0.96 0.65 -0.88 0.74 -1.74 1.54c-0.61,0.48 -1.04,1.15 -1.56,1.7 -0.5,0.59 -1.09,1.11 -1.44,1.79 -0.41,0.65 -0.83,1.29 -1.24,1.89 -0.43,0.61 -0.65,1.33 -1,1.99 -0.7,1.29 -1.02,2.66 -1.51,3.95 -0.29,1.31 -0.67,2.57 -0.79,3.77 -0.39,2.37 -0.41,4.4 -0.39,5.84 0.02,1.44 0.11,2.28 0.11,2.28 0,0 -0.07,-0.2 -0.2,-0.57 -0.16,-0.36 -0.34,-0.92 -0.52,-1.61 -0.2,-0.72 -0.36,-1.61 -0.52,-2.62 -0.09,-1.04 -0.29,-2.18 -0.22,-3.46 -0.09,-1.27 0.13,-2.68 0.28,-4.14 0.36,-1.44 0.57,-3 1.24,-4.49 0.32,-0.77 0.54,-1.58 1,-2.31 0.41,-0.72 0.83,-1.46 1.29,-2.2 0.42,-0.79 1.02,-1.37 1.58,-2.07 0.59,-0.63 1.06,-1.4 1.74,-1.94l2.01 -1.7 0.96 -0.83 1.11 -0.67c1.46,-0.88 2.86,-1.83 4.38,-2.35 1.51,-0.59 2.88,-1.22 4.29,-1.58 1.42,-0.34 2.75,-0.65 3.99,-0.92 1.2,-0.33 2.37,-0.41 3.38,-0.5 1.04,-0.09 1.92,-0.16 2.64,-0.2 1.42,-0.1 2.25,-0.12 2.25,-0.12z"/>
   <path class="fil0" d="M1221.06 200.6c0,0 -16.48,7.87 -25.37,-7.72 -8.91,-15.58 1.7,-28.64 3.09,-45.4 1.37,-16.82 -14.43,-32.56 -14.43,-32.56 4.12,7.52 13.29,22.21 8.44,37.86 -4.4,14.19 -23.14,32.71 -52.3,23.82 -29.1,-8.91 -43.18,13.36 -43.18,13.36 0,0 15.3,-15.73 40.11,-7.87 28.12,8.91 43.2,-5.84 43.2,-5.84 0,0 -9.26,24.34 10.61,32.56 19.87,8.27 29.83,-8.2 29.83,-8.2zm-23.41 5.47c0,0 -0.57,-0.16 -1.56,-0.41 -0.52,-0.16 -1.13,-0.3 -1.81,-0.57 -0.72,-0.27 -1.42,-0.7 -2.23,-1.13 -0.41,-0.24 -0.83,-0.45 -1.27,-0.72 -0.36,-0.3 -0.77,-0.65 -1.17,-1.02 -0.41,-0.34 -0.83,-0.7 -1.24,-1.09 -0.36,-0.39 -0.7,-0.9 -1.06,-1.33 -0.74,-0.92 -1.4,-1.96 -1.89,-3.09 -0.3,-0.54 -0.54,-1.11 -0.72,-1.72l-0.59 -1.79c-0.22,-1.2 -0.5,-2.42 -0.57,-3.64 -0.11,-1.22 -0.13,-2.4 -0.07,-3.52 0.02,-1.13 0.24,-2.23 0.41,-3.27 0.13,-1 0.43,-1.96 0.65,-2.82 1.02,-3.46 2.33,-5.47 2.33,-5.47 0,0 -0.32,2.35 -0.61,5.78 -0.07,1.72 -0.2,3.73 -0.07,5.82 0,1.02 0.2,2.1 0.28,3.16 0.09,1.09 0.39,2.16 0.63,3.23 0.36,1 0.48,2.12 1,3.03 0.24,0.48 0.45,0.96 0.65,1.42 0.2,0.52 0.52,0.92 0.77,1.33 0.27,0.43 0.52,0.88 0.79,1.29 0.32,0.36 0.65,0.72 0.94,1.09 0.3,0.36 0.61,0.72 0.9,1.06 0.31,0.32 0.65,0.57 0.96,0.88 0.63,0.52 1.17,1.13 1.72,1.53 0.61,0.39 1.11,0.74 1.51,1.02 0.83,0.59 1.32,0.96 1.32,0.96z"/>
   <path class="fil0" d="M1367.11 105.33c0,15.44 -12.05,41.78 -46.03,51.58 -31.69,9.16 -62.68,2.21 -93.2,-27.97 -23.78,-23.54 -49.68,-33.59 -49.68,-33.59 22.95,11.99 29.23,40.59 50.45,64.06 0.24,-0.36 0.48,-0.77 0.67,-1.17 0.28,-0.65 0.61,-1.31 0.93,-1.96 0.36,-0.7 0.61,-1.42 0.85,-2.16 0.27,-0.72 0.5,-1.46 0.79,-2.18 0.22,-0.72 0.3,-1.49 0.48,-2.2 0.13,-0.74 0.29,-1.44 0.43,-2.1 0.18,-0.7 0.13,-1.35 0.2,-1.96 0.11,-2.44 0.2,-4.08 0.2,-4.08 0,0 0.41,1.62 1.06,4.01 0.16,0.61 0.39,1.27 0.41,1.99 0.11,0.72 0.2,1.49 0.29,2.24 0.07,0.81 0.24,1.63 0.24,2.49 -0.02,0.83 -0.02,1.72 -0.05,2.57 -0.02,0.85 -0.02,1.74 -0.16,2.62 -0.16,0.83 -0.26,1.7 -0.36,2.51 -0.09,0.85 -0.34,1.58 -0.52,2.35 -0.2,0.7 -0.32,1.42 -0.57,2.03 9.17,8.28 22.3,15.33 37.07,19.46 0.34,-0.83 0.7,-1.72 1,-2.75 0.45,-1.37 0.81,-2.88 1.04,-4.43 0.07,-0.77 0.22,-1.53 0.22,-2.31 0,-0.77 0.07,-1.54 -0.02,-2.26 -0.02,-0.74 -0.09,-1.46 -0.22,-2.12 -0.16,-0.67 -0.22,-1.37 -0.43,-1.92 -0.18,-0.61 -0.32,-1.13 -0.45,-1.58 -0.22,-0.48 -0.39,-0.85 -0.54,-1.22 -0.33,-0.63 -0.5,-1.02 -0.5,-1.02 0,0 0.31,0.31 0.79,0.85 0.26,0.29 0.54,0.61 0.9,1 0.28,0.43 0.65,0.92 1.02,1.46 0.36,0.5 0.67,1.15 1.04,1.81 0.36,0.67 0.65,1.42 0.96,2.18 0.36,0.79 0.57,1.62 0.79,2.46 0.29,0.83 0.36,1.74 0.57,2.59 0.28,1.79 0.43,3.62 0.41,5.3 0.05,1.29 -0.07,2.46 -0.16,3.57 18.42,3.99 38.73,3.36 56.7,-4.78 -0.7,-2.12 -1.76,-4.6 -3.32,-6.95 -0.43,-0.72 -0.96,-1.4 -1.51,-2.07 -0.5,-0.7 -1.09,-1.29 -1.63,-1.92 -0.54,-0.63 -1.15,-1.15 -1.72,-1.65 -0.54,-0.54 -1.13,-0.98 -1.68,-1.37 -1.06,-0.85 -2.07,-1.46 -2.76,-1.83 -0.7,-0.43 -1.11,-0.65 -1.11,-0.65 0,0 0.45,0.09 1.27,0.22 0.81,0.16 1.96,0.36 3.34,0.81 0.7,0.22 1.44,0.45 2.21,0.79 0.77,0.32 1.61,0.63 2.4,1.06 0.81,0.43 1.68,0.88 2.49,1.42 0.83,0.5 1.68,1.06 2.46,1.68 2.71,2.01 5.03,4.47 6.78,6.73 0.61,-0.34 1.2,-0.67 1.79,-1.06 14.74,-9.32 22.01,-21.06 25.33,-32.23 -0.26,0 -0.52,0.02 -0.77,0.02 -0.7,0.05 -1.37,0.05 -2.03,0.18 -0.65,0.13 -1.31,0.24 -1.96,0.32 -0.63,0.16 -1.27,0.2 -1.85,0.36 -0.57,0.16 -1.11,0.34 -1.61,0.5 -2.03,0.61 -3.38,1.02 -3.38,1.02 0,0 1.11,-0.88 2.82,-2.2 0.43,-0.32 0.9,-0.67 1.42,-1.06 0.5,-0.36 1.09,-0.65 1.7,-1.04 0.59,-0.34 1.22,-0.72 1.83,-1.09 0.65,-0.39 1.35,-0.67 2.03,-0.96 0.72,-0.32 1.44,-0.61 2.16,-0.9 0.31,-0.13 0.61,-0.22 0.92,-0.3 3.48,-17.89 -2.23,-33.19 -2.23,-33.19zm-115.55 58.55c-0.07,0.63 -0.13,1.15 -0.24,1.55 -0.11,0.34 -0.18,0.54 -0.18,0.54 0,0 -0.36,-0.83 -0.77,-1.94 -0.26,-0.54 -0.43,-1.2 -0.72,-1.85 -0.29,-0.7 -0.5,-1.44 -0.83,-2.14 -0.24,-0.74 -0.54,-1.46 -0.83,-2.14 -0.24,-0.67 -0.43,-1.37 -0.67,-1.92 -0.43,-1.13 -0.57,-2.01 -0.57,-2.01 0,0 0.7,0.48 1.58,1.4 0.48,0.43 0.92,1.04 1.31,1.7 0.45,0.67 0.83,1.44 1.13,2.22 0.27,0.79 0.52,1.6 0.63,2.4 0.17,0.8 0.16,1.57 0.16,2.2zm6.64 3.23c0.05,0.57 -0.05,1.11 -0.13,1.63 -0.07,0.52 -0.13,1 -0.27,1.44 -0.16,0.43 -0.3,0.83 -0.41,1.17 -0.11,0.36 -0.31,0.61 -0.43,0.88 -0.24,0.45 -0.43,0.67 -0.43,0.67 0,0 0.05,-0.29 0.05,-0.81 0.07,-0.5 0.05,-1.24 0.05,-2.07 0.02,-0.41 -0.07,-0.88 -0.07,-1.37 -0.02,-0.43 -0.05,-0.96 -0.18,-1.46 -0.07,-0.5 -0.18,-1.02 -0.22,-1.55 -0.09,-0.52 -0.31,-1.04 -0.41,-1.56 -0.16,-0.52 -0.27,-1.06 -0.43,-1.6 -0.24,-0.48 -0.41,-1 -0.59,-1.46 -0.2,-0.5 -0.36,-0.98 -0.52,-1.42 -0.2,-0.45 -0.43,-0.85 -0.61,-1.24 -0.77,-1.51 -1.17,-2.68 -1.17,-2.68 0,0 0.94,0.72 2.16,2.05 0.32,0.34 0.7,0.67 0.96,1.11 0.29,0.41 0.54,0.92 0.83,1.4 0.27,0.5 0.57,1.02 0.81,1.58 0.24,0.54 0.36,1.15 0.54,1.72 0.13,0.61 0.34,1.17 0.39,1.76 0.06,0.64 0.06,1.23 0.08,1.83zm38.49 2.87c0.52,0.45 0.94,1.02 1.37,1.58 0.43,0.54 0.79,1.11 1.11,1.68 0.67,1.13 1.15,2.24 1.44,3.25 0.67,1.96 0.63,3.38 0.63,3.38 0,0 -0.63,-1.22 -1.7,-2.9 -0.5,-0.81 -1.13,-1.76 -1.85,-2.73 -0.74,-0.96 -1.53,-1.94 -2.44,-2.82 -0.43,-0.45 -0.9,-0.88 -1.4,-1.27 -0.45,-0.41 -0.96,-0.79 -1.44,-1.11 -0.48,-0.34 -0.98,-0.63 -1.44,-0.94 -0.45,-0.29 -0.92,-0.54 -1.37,-0.74 -0.43,-0.22 -0.83,-0.45 -1.2,-0.61 -0.36,-0.18 -0.67,-0.29 -0.96,-0.39 -0.54,-0.24 -0.83,-0.39 -0.83,-0.39 0,0 0.3,-0.02 0.94,0 0.57,0 1.46,0.02 2.46,0.27 0.5,0.11 1.06,0.24 1.61,0.5 0.57,0.22 1.17,0.41 1.74,0.77 1.19,0.6 2.33,1.48 3.32,2.48zm13.81 9.87c0,0 -0.13,-0.33 -0.36,-0.81 -0.13,-0.27 -0.26,-0.54 -0.5,-0.88 -0.2,-0.32 -0.36,-0.7 -0.63,-1.06 -0.29,-0.36 -0.59,-0.77 -0.88,-1.17 -0.27,-0.43 -0.74,-0.81 -1.04,-1.24 -0.39,-0.39 -0.72,-0.9 -1.17,-1.29 -0.43,-0.39 -0.89,-0.79 -1.31,-1.22 -0.43,-0.43 -0.88,-0.83 -1.37,-1.17 -0.48,-0.38 -0.94,-0.74 -1.37,-1.11 -0.48,-0.34 -0.85,-0.74 -1.29,-1.06 -0.45,-0.27 -0.88,-0.59 -1.24,-0.85 -1.51,-1.09 -2.46,-2.01 -2.46,-2.01 0,0 1.22,0.29 3.05,0.98 0.45,0.18 0.94,0.36 1.46,0.57 0.5,0.24 1,0.57 1.51,0.92 0.5,0.33 1.06,0.63 1.58,1.02 0.54,0.34 1.04,0.77 1.51,1.22 0.45,0.48 0.94,0.92 1.4,1.42 0.48,0.39 0.77,1 1.13,1.51 0.36,0.52 0.72,0.98 0.93,1.53 0.24,0.5 0.45,1.02 0.63,1.49 0.2,0.45 0.24,0.92 0.32,1.33 0.11,0.36 0.13,0.72 0.13,1.02 0.01,0.56 -0.04,0.88 -0.04,0.88zm40.35 -21.34c0,0 -0.26,-0.02 -0.67,-0.07 -0.43,-0.05 -1.06,-0.11 -1.76,-0.18 -0.74,-0.11 -1.58,-0.16 -2.46,-0.3 -0.45,-0.02 -0.92,-0.07 -1.4,-0.13 -0.48,-0.05 -0.94,-0.13 -1.42,-0.13 -0.96,-0.09 -1.92,-0.24 -2.8,-0.27 -0.9,0 -1.72,-0.13 -2.44,-0.11 -1.46,-0.02 -2.46,-0.11 -2.46,-0.11 0,0 0.92,-0.36 2.37,-0.77 0.74,-0.22 1.58,-0.27 2.53,-0.34 0.94,-0.13 1.94,0 2.94,0.02 1.99,0.22 3.93,0.72 5.32,1.27 1.4,0.55 2.25,1.12 2.25,1.12z"/>
   <path class="fil0" d="M1289.93 130.66c-6.84,-5.44 -14.06,-14.38 -27.74,-15.73 0,0 9.94,-2.75 17.48,2.05 0,0 -10.68,-25.08 -37.7,-28.49 0,0 11.29,-5.23 20.56,0 0,0 -16.09,-23.63 -43.18,-22.58 0,0 19.53,-26.75 -19.55,-29.84 0,0 7.63,6.73 6.86,13.01 -1.02,8.47 -10.94,13.56 -22.3,11.71 -25.17,-4.22 -45.22,-4.15 -73.32,13.01 0,0 58.26,-16.12 95.26,5.47 37.01,21.58 47.99,67.52 104.2,58.26 0,0 -13.72,-1.35 -20.57,-6.86zm-48.3 -52.42c-0.39,-0.05 -0.85,-0.07 -1.29,-0.11 -0.43,-0.09 -0.94,-0.09 -1.44,-0.09 -0.48,0 -0.98,0 -1.51,-0.07 -0.52,0.02 -1.04,0.07 -1.58,0.07 -0.52,0.02 -1.04,-0.02 -1.56,0.05 -0.5,0.07 -1.02,0.09 -1.53,0.16 -0.48,0.05 -0.98,0.05 -1.44,0.07 -0.48,0.07 -0.9,0.11 -1.31,0.16 -1.58,0.22 -2.8,0.2 -2.8,0.2 0,0 0.93,-0.63 2.51,-1.33 0.36,-0.18 0.79,-0.36 1.29,-0.54 0.45,-0.11 0.94,-0.22 1.49,-0.34 0.5,-0.11 1.04,-0.22 1.6,-0.33 0.57,-0.09 1.15,-0.07 1.72,-0.09 0.57,0 1.13,0 1.7,0 0.57,0.05 1.11,0.18 1.65,0.24 1.04,0.13 2.01,0.57 2.82,0.85 0.79,0.39 1.4,0.72 1.79,1.02 0.43,0.3 0.61,0.52 0.61,0.52 0,0 -0.31,-0.07 -0.79,-0.16 -0.41,-0.09 -1.15,-0.13 -1.92,-0.27zm18.22 26.07c-1.02,-0.36 -2.05,-0.7 -3.14,-0.96 -0.54,-0.16 -1.09,-0.34 -1.61,-0.5 -0.54,-0.09 -1.04,-0.27 -1.58,-0.39 -0.5,-0.13 -1,-0.29 -1.46,-0.45 -0.5,-0.09 -0.92,-0.22 -1.35,-0.31 -1.65,-0.43 -2.77,-0.9 -2.77,-0.9 0,0 1.15,-0.22 2.92,-0.29 0.9,-0.07 1.92,-0.02 3,0.16 1.11,0.16 2.26,0.36 3.4,0.7 0.54,0.2 1.11,0.36 1.65,0.54 0.57,0.2 1.09,0.48 1.58,0.72 1.02,0.41 1.89,1.04 2.62,1.53 0.72,0.57 1.29,1.06 1.61,1.44 0.34,0.39 0.52,0.65 0.52,0.65 0,0 -1.11,-0.45 -2.71,-1.02 -0.8,-0.28 -1.67,-0.68 -2.68,-0.93z"/>
   <path class="fil0" d="M1511.69 86.46c-5.17,-31.87 -47.65,-27.42 -55.19,-16.45 0,0 10.27,-7.5 23.93,-2.49 12.4,4.56 15.67,13.88 14.47,24.43 -2.03,17.85 -20.57,18.85 -20.57,18.85 0,0 5.8,-16.8 -11.66,-24.67 0,0 3.07,17.83 -13.01,18.51 -16.12,0.67 -32.48,-9.26 -32.48,-9.26 0,0 21.83,-3.77 11.55,-26.05 0,0 -2.73,18.15 -25.69,8.91 -22.97,-9.26 -38.99,-44.13 -86.72,-33.93 0,0 28.1,1.46 54.13,23.3 19.33,16.21 27.44,30.16 27.44,39.43 0,9.24 -10.97,10.61 -16.45,5.82 0,0 8.57,9.59 18.53,8.56 8.02,-0.83 11.97,-5.49 10.97,-11.66 0,0 13.63,12.35 29.27,14.76 15.62,2.4 35.16,14.71 31.06,29.47 0,0 21.58,-6.86 10.27,-28.8 -0.01,-0.01 35.27,-6.87 30.15,-38.75zm-106.9 23.73c-0.05,0.41 -0.05,0.9 -0.18,1.37 -0.13,0.48 -0.24,1 -0.45,1.53 -0.27,0.5 -0.45,1.04 -0.81,1.53 -0.39,0.45 -0.67,1.02 -1.15,1.4 -0.41,0.43 -0.9,0.81 -1.4,1.13 -0.45,0.36 -1.02,0.54 -1.53,0.79 -1.04,0.36 -2.05,0.61 -2.94,0.63 -1.7,0.11 -2.8,-0.33 -2.8,-0.33 0,0 1.11,-0.27 2.59,-0.83 0.36,-0.13 0.74,-0.3 1.13,-0.45 0.41,-0.18 0.79,-0.45 1.22,-0.65 0.79,-0.52 1.63,-1 2.26,-1.74 0.39,-0.31 0.63,-0.72 0.96,-1.06 0.29,-0.39 0.54,-0.79 0.81,-1.17 0.22,-0.43 0.41,-0.83 0.63,-1.22 0.2,-0.39 0.32,-0.81 0.48,-1.15 0.34,-0.74 0.48,-1.4 0.65,-1.85 0.18,-0.46 0.29,-0.72 0.29,-0.72 0,0 0.07,0.27 0.13,0.77 0.05,0.45 0.22,1.17 0.09,2.04zm10.6 -21.86c-1.79,-0.3 -2.83,-0.92 -2.83,-0.92 0,0 1.22,-0.07 2.87,-0.27 0.83,-0.11 1.79,-0.27 2.77,-0.48 0.5,-0.11 0.98,-0.32 1.51,-0.41 0.45,-0.22 1,-0.33 1.44,-0.59 0.48,-0.24 0.94,-0.45 1.37,-0.74 0.43,-0.27 0.85,-0.54 1.22,-0.85 0.43,-0.29 0.74,-0.65 1.09,-0.96 0.34,-0.31 0.61,-0.65 0.9,-0.98 0.24,-0.32 0.54,-0.61 0.72,-0.88 0.2,-0.29 0.38,-0.54 0.52,-0.77 0.31,-0.41 0.5,-0.63 0.5,-0.63 0,0 -0.05,0.29 -0.11,0.79 -0.07,0.29 -0.13,0.59 -0.2,0.96 -0.09,0.38 -0.28,0.72 -0.43,1.15 -0.18,0.41 -0.36,0.9 -0.7,1.31 -0.31,0.41 -0.61,0.96 -1.04,1.31 -0.79,0.88 -1.83,1.63 -2.96,2.14 -0.59,0.29 -1.2,0.41 -1.79,0.63 -0.59,0.13 -1.15,0.22 -1.74,0.29 -1.14,0.13 -2.22,0.06 -3.11,-0.1zm54.48 11.35c0.02,0.65 0,1.35 -0.07,2.05 -0.18,0.65 -0.24,1.33 -0.54,1.99 -0.2,0.61 -0.54,1.17 -0.88,1.74 -0.33,0.52 -0.74,1 -1.13,1.42 -0.39,0.41 -0.79,0.79 -1.17,1.09 -1.6,1.2 -2.9,1.46 -2.9,1.46 0,0 0.27,-0.22 0.63,-0.63 0.36,-0.39 0.88,-0.98 1.42,-1.68 0.57,-0.7 1.11,-1.58 1.58,-2.55 0.22,-0.48 0.43,-0.98 0.59,-1.53 0.2,-0.5 0.24,-1.06 0.34,-1.63 0.09,-0.54 0.13,-1.11 0.16,-1.65 -0.09,-0.57 -0.05,-1.11 -0.13,-1.68 -0.11,-0.5 -0.18,-1.02 -0.23,-1.53 -0.13,-0.5 -0.29,-0.96 -0.36,-1.42 -0.18,-0.92 -0.52,-1.61 -0.67,-2.16 -0.16,-0.54 -0.2,-0.83 -0.2,-0.83 0,0 0.2,0.24 0.54,0.63 0.36,0.45 0.96,1.02 1.4,1.87 0.26,0.43 0.5,0.9 0.74,1.4 0.22,0.54 0.43,1.11 0.59,1.72 0.17,0.6 0.26,1.25 0.31,1.93zm8.6 40.09c-0.05,0.74 -0.05,1.46 -0.22,2.12 -0.09,0.67 -0.27,1.31 -0.43,1.87 -0.72,2.24 -1.76,3.45 -1.76,3.45 0,0 0.39,-1.51 0.61,-3.7 0.05,-0.57 0.09,-1.15 0.09,-1.74 0.05,-0.63 -0.07,-1.27 -0.07,-1.96 -0.11,-0.63 -0.13,-1.33 -0.33,-1.99l-0.24 -1.02 -0.36 -0.96c-0.18,-0.67 -0.59,-1.27 -0.88,-1.87 -0.36,-0.59 -0.77,-1.15 -1.11,-1.7 -0.43,-0.52 -0.88,-0.98 -1.27,-1.49 -0.41,-0.43 -0.88,-0.81 -1.29,-1.2 -0.77,-0.83 -1.58,-1.29 -2.07,-1.74 -0.5,-0.43 -0.81,-0.7 -0.81,-0.7 0,0 0.36,0.13 1,0.32 0.65,0.27 1.58,0.52 2.57,1.13 0.5,0.34 1.09,0.61 1.61,1.06 0.5,0.41 1.09,0.9 1.61,1.44 0.45,0.57 1.02,1.13 1.44,1.81 0.34,0.72 0.88,1.4 1.09,2.18l0.39 1.15c0.11,0.39 0.18,0.79 0.24,1.17 0.24,0.77 0.15,1.58 0.2,2.35zm26.7 -47.15l-0.18 1.2 -0.41 2.37c-0.26,0.77 -0.5,1.51 -0.77,2.24l-0.36 1.09 -0.54 1.04c-0.34,0.63 -0.67,1.33 -1.06,1.96 -0.83,1.22 -1.61,2.42 -2.55,3.38 -0.85,1.02 -1.79,1.87 -2.66,2.64 -1.76,1.51 -3.38,2.55 -4.56,3.16 -1.15,0.67 -1.87,0.92 -1.87,0.92 0,0 0.57,-0.48 1.51,-1.4 0.96,-0.9 2.24,-2.24 3.64,-3.93 0.72,-0.85 1.46,-1.79 2.14,-2.82 0.79,-0.96 1.31,-2.18 2.01,-3.29 0.3,-0.61 0.54,-1.22 0.83,-1.85l0.41 -0.92 0.31 -1c0.2,-0.65 0.39,-1.31 0.61,-1.99l0.31 -2.05 0.18 -1.02 0.02 -1.04c0,-0.7 0,-1.37 0,-2.1 -0.13,-1.33 -0.32,-2.71 -0.52,-4.04 -0.39,-1.27 -0.74,-2.49 -1.06,-3.68 -0.41,-1.17 -0.96,-2.23 -1.35,-3.27 -0.2,-0.5 -0.39,-0.98 -0.61,-1.46 -0.22,-0.43 -0.48,-0.85 -0.67,-1.27 -0.43,-0.79 -0.81,-1.49 -1.11,-2.07 -0.63,-1.13 -0.94,-1.85 -0.94,-1.85 0,0 0.52,0.54 1.42,1.51 0.45,0.5 0.98,1.09 1.63,1.81 0.28,0.34 0.63,0.72 0.96,1.11 0.27,0.43 0.57,0.92 0.88,1.4 0.63,0.98 1.35,2.01 1.94,3.18 0.5,1.24 1.06,2.57 1.58,3.95 0.27,1.42 0.67,2.92 0.85,4.51 0.02,0.77 0.02,1.54 0.05,2.37l-0 1.2 -0.02 0z"/>
   <path class="fil0" d="M1467.42 142.47c-19.07,1.37 -39.68,-9.75 -57.29,-23.28 -1.68,1.74 -3.97,2.98 -6.8,3.7 7.93,7.13 15.1,12.57 19.59,15.67 11.99,8.22 20.23,26.72 5.17,35.28 -15.1,8.56 -26.77,-7.52 -26.77,-7.52 0.33,12.32 22.75,28.73 44.22,18.51 21.62,-10.27 12.34,-34.63 12.34,-34.63 3.75,2.4 7.3,4.22 10.7,5.6l0.67 -2.4c1.02,-3.64 0.39,-7.34 -1.84,-10.94zm-18.22 22.82c-0.16,1.44 -0.43,2.94 -0.96,4.43 -0.57,1.46 -1.22,2.94 -2.15,4.27 -0.92,1.31 -2.01,2.51 -3.18,3.52 -1.17,1.06 -2.51,1.85 -3.79,2.55 -1.29,0.72 -2.62,1.2 -3.86,1.58 -1.29,0.39 -2.49,0.67 -3.62,0.88 -2.26,0.39 -4.15,0.39 -5.47,0.34 -1.33,-0.09 -2.07,-0.22 -2.07,-0.22 0,0 2.98,-0.45 7.11,-1.83 2.03,-0.74 4.36,-1.72 6.58,-3.09 2.16,-1.42 4.29,-3.23 5.75,-5.49 0.83,-1.06 1.4,-2.33 1.92,-3.55 0.22,-0.63 0.41,-1.27 0.63,-1.89 0.16,-0.65 0.34,-1.29 0.45,-1.92 0.24,-1.31 0.39,-2.55 0.45,-3.79 0.02,-1.22 0.13,-2.37 0.05,-3.47 -0.02,-1.09 -0.07,-2.07 -0.16,-2.96 -0.07,-0.92 -0.13,-1.68 -0.22,-2.33 -0.16,-1.29 -0.22,-2.05 -0.22,-2.05 0,0 0.32,0.7 0.81,1.92 0.27,0.61 0.54,1.35 0.79,2.22 0.28,0.9 0.57,1.87 0.77,3 0.27,1.09 0.39,2.35 0.5,3.66 0.1,1.33 0.1,2.75 -0.1,4.22z"/>
   <path class="fil0" d="M1016.94 142.49c0,0 -23.82,-19.05 -21.08,-52.44 2.64,-32.08 -14.4,-48.33 -34.96,-46.27 -20.58,2.07 -20.23,18.67 -20.23,18.67 0,0 -1.72,16.8 18.15,16.8 0,0 -10.63,-2.75 -9.24,-13.36 1.35,-10.63 16.98,-13.01 24.33,-5.12 19.2,20.57 -5.15,58.25 43.02,81.72z"/>
   <path class="fil0" d="M702.98 119.55c0,0 -0.93,-1.74 -2.03,-4.99 -1.06,-3.25 -2.33,-8.08 -2.46,-14.08 -0.22,-5.93 0.77,-13.1 4.08,-20 1.61,-3.43 3.73,-6.82 6.37,-9.79 2.62,-3.05 5.62,-5.8 9.05,-8.06 3.47,-2.21 7.26,-3.88 11.16,-4.92 3.9,-1.04 7.95,-1.35 11.81,-0.96 3.83,0.36 7.52,1.55 10.59,3.48 3.07,1.85 5.4,4.56 6.78,7.36 1.4,2.82 1.83,5.69 1.79,8.13 0,2.49 -0.43,4.56 -0.89,6.21 -0.43,1.68 -1,2.92 -1.33,3.77 -0.39,0.83 -0.59,1.29 -0.59,1.29 0,0 0.13,-0.48 0.36,-1.37 0.22,-0.88 0.5,-2.16 0.77,-3.83 0.22,-1.68 0.36,-3.7 0.13,-5.98 -0.24,-2.28 -0.92,-4.77 -2.31,-7.11 -1.37,-2.31 -3.55,-4.38 -6.28,-5.84 -2.71,-1.5 -5.96,-2.28 -9.35,-2.53 -3.4,-0.24 -6.95,0.24 -10.44,1.2 -3.48,0.96 -6.86,2.53 -9.94,4.56 -3.09,1.99 -5.93,4.45 -8.33,7.2 -2.42,2.77 -4.53,5.69 -6.12,8.81 -1.58,3.11 -2.82,6.28 -3.59,9.39 -0.74,3.14 -1.17,6.21 -1.35,9.03 -0.33,5.71 0.3,10.52 0.9,13.86 0.6,3.35 1.22,5.21 1.22,5.21z"/>
   <path class="fil0" d="M704.86 95.37c0,0 0.05,-0.27 0.11,-0.74 0.09,-0.48 0.11,-1.22 0.36,-2.12 0.18,-0.9 0.43,-1.99 0.9,-3.23 0.38,-1.2 0.92,-2.59 1.68,-3.97 0.36,-0.72 0.72,-1.46 1.17,-2.18 0.43,-0.74 0.92,-1.49 1.44,-2.25 1.04,-1.5 2.26,-3 3.62,-4.47 1.42,-1.42 2.9,-2.85 4.56,-4.15 1.63,-1.33 3.44,-2.51 5.26,-3.59 1.87,-1.04 3.83,-1.92 5.82,-2.68 1.99,-0.72 4.04,-1.2 6.03,-1.49 2.03,-0.27 4.04,-0.22 5.89,0.13 1.85,0.34 3.5,1.09 4.88,2.01 1.37,0.94 2.31,2.14 3.03,3.27 0.65,1.13 1.09,2.18 1.31,3.07 0.34,0.85 0.34,1.58 0.48,2.1 0.05,0.45 0.09,0.74 0.09,0.74 0,0 -0.05,-0.26 -0.22,-0.74 -0.16,-0.45 -0.32,-1.13 -0.7,-1.96 -0.33,-0.85 -0.88,-1.81 -1.6,-2.82 -0.77,-0.94 -1.76,-1.92 -3.05,-2.68 -1.27,-0.74 -2.8,-1.29 -4.49,-1.51 -1.7,-0.18 -3.5,-0.11 -5.38,0.18 -3.7,0.63 -7.54,2.14 -11.06,4.18 -7.13,4.04 -12.96,10.07 -16.1,15.39 -0.43,0.63 -0.77,1.29 -1.06,1.89 -0.34,0.61 -0.67,1.24 -0.91,1.83 -0.54,1.11 -0.9,2.14 -1.2,2.98 -0.31,0.88 -0.48,1.58 -0.61,2.03 -0.14,0.5 -0.22,0.77 -0.22,0.77z"/>
   <path class="fil0" d="M976.99 107.36c0,0 -1.22,-0.52 -3.55,-1.4 -2.33,-0.92 -5.82,-2.03 -10.29,-3.38 -8.89,-2.59 -21.99,-5.62 -37.79,-5.8 -1.96,0.02 -3.97,0.07 -6.01,0.11 -2.05,0.11 -4.12,0.32 -6.21,0.48 -2.12,0.32 -4.27,0.63 -6.43,0.94 -2.1,0.5 -4.18,0.88 -6.32,1.53 -2.12,0.65 -4.27,1.24 -6.34,2.16 -2.12,0.81 -4.15,1.85 -6.19,2.9 -3.99,2.31 -7.83,5.03 -11.12,8.39 -6.59,6.66 -10.92,16 -10.09,25.67 0.48,9.57 5.96,18.83 14.71,23.06 4.25,2.31 9.14,3.45 14.06,3.64 0.57,0 1.35,0.09 1.72,0.02l1.99 -0.07c1.42,-0.02 2.51,-0.24 3.66,-0.39 2.28,-0.32 4.65,-1.09 6.82,-1.96 4.31,-1.89 8.04,-4.95 10.63,-8.69 1.27,-1.94 2.26,-3.97 2.93,-6.12 0.59,-2.18 1,-4.4 0.91,-6.59 0.02,-0.54 -0.11,-1.06 -0.16,-1.63l-0.09 -0.79 -0.02 -0.11c0.02,0.02 -0.02,-0.2 0.02,0.02l-0.05 -0.22 -0.11 -0.48 -0.43 -1.79c-0.13,-0.54 -0.32,-1 -0.48,-1.51 -0.72,-1.99 -1.74,-3.99 -3.05,-5.67 -2.53,-3.45 -6.21,-5.82 -10.16,-7.17 -4.04,-1.27 -8.13,-1.58 -12.19,-0.77 -3.4,0.81 -6.93,2.94 -8.31,6.06 -0.43,0.74 -0.61,1.55 -0.81,2.35 -0.02,0.07 -0.09,0.29 -0.09,0.22l-0.02 0.36 -0.09 0.72c-0.05,0.45 0,0.79 -0.02,1.15 0.05,1.63 0.59,3.18 1.44,4.51 1.7,2.64 4.72,4.22 7.63,4.36l0.52 0.02c0.07,0.02 0.38,-0.02 0.54,-0.05 0.36,-0.02 0.83,-0.05 1.11,-0.11 0.63,-0.13 1.31,-0.31 1.94,-0.57 1.2,-0.54 2.23,-1.42 2.92,-2.46 1.42,-2.07 1.7,-4.79 0.67,-6.63 -1.02,-1.7 -3.03,-2.73 -4.71,-2.98 -1.7,-0.34 -3.23,-0.02 -4.31,0.57 -1.09,0.57 -1.63,1.4 -1.99,1.92 -0.29,0.57 -0.43,0.88 -0.43,0.88 0,0 0.11,-0.33 0.36,-0.92 0.29,-0.57 0.79,-1.49 1.89,-2.16 1.04,-0.72 2.68,-1.2 4.58,-1 1.85,0.18 4.12,0.92 5.67,3.14 1.37,2.21 1.27,5.43 -0.31,8.08 -0.79,1.35 -1.99,2.55 -3.48,3.34 -0.77,0.41 -1.54,0.7 -2.46,0.9 -0.45,0.16 -0.83,0.18 -1.24,0.22 -0.22,0.05 -0.3,0.09 -0.65,0.11l-0.68 0.01c-3.59,0.07 -7.52,-1.58 -10,-4.95 -1.27,-1.65 -2.1,-3.77 -2.28,-5.98 -0.02,-0.54 -0.07,-1.2 -0.05,-1.7l0.05 -0.74 0.02 -0.34c0.02,-0.3 0.07,-0.3 0.09,-0.5 0.24,-1.11 0.45,-2.22 0.98,-3.25 0.36,-1.11 1.11,-2.03 1.76,-3.03 0.81,-0.83 1.54,-1.81 2.53,-2.46 1.83,-1.53 4.08,-2.4 6.54,-3.14 4.4,-1.09 9.46,-0.94 14.23,0.41 4.74,1.44 9.46,4.2 12.79,8.44 1.74,2.1 3.03,4.45 4.01,7.06 0.22,0.65 0.5,1.37 0.7,2.01l0.43 1.79 0.13 0.45 0.05 0.22c0.07,0.31 0.05,0.18 0.07,0.27l0.02 0.13 0.16 1.04c0.07,0.7 0.22,1.4 0.22,2.1 0.2,2.84 -0.29,5.65 -0.96,8.39 -0.79,2.71 -1.99,5.3 -3.5,7.74 -3.14,4.77 -7.76,8.65 -13.05,10.99 -2.68,1.09 -5.37,1.99 -8.31,2.44 -1.46,0.2 -2.98,0.45 -4.25,0.48l-1.99 0.07c-0.93,0.09 -1.49,0 -2.26,0 -5.69,-0.2 -11.47,-1.46 -16.65,-4.22 -2.64,-1.27 -4.99,-3.07 -7.22,-4.99 -2.12,-2.07 -4.12,-4.25 -5.58,-6.8 -3.14,-4.99 -4.69,-10.77 -5.01,-16.48l-0.09 -1.94 -0.02 -0.5 -0.02 -0.24 0 -0.27 0 -0.16 0.09 -1.06 0.13 -2.18 0.34 -2.12c0.48,-2.8 1.42,-5.47 2.49,-8.02 2.22,-5.1 5.49,-9.59 9.26,-13.29 3.79,-3.68 8.11,-6.66 12.57,-9 2.24,-1.09 4.51,-2.18 6.82,-2.92 2.28,-0.94 4.62,-1.51 6.91,-2.14 2.28,-0.61 4.67,-0.94 6.93,-1.4 2.26,-0.24 4.31,-0.5 6.63,-0.7 2.21,-0.07 4.36,-0.2 6.5,-0.2 2.1,0.05 4.18,0.09 6.23,0.16 8.13,0.41 15.46,1.74 21.84,3.29 6.37,1.53 11.79,3.32 16.21,4.9 4.4,1.58 7.74,3.11 10.02,4.2 2.27,1.04 3.42,1.69 3.42,1.69z"/>
   <path class="fil0" d="M976.99 105.24c0,0 -1.51,-1.58 -4.74,-4.1 -3.18,-2.55 -8.08,-6.03 -14.71,-9.68 -6.63,-3.68 -15.1,-7.36 -25.24,-9.98 -10.16,-2.62 -21.94,-3.77 -34.74,-2.71 -12.67,1.06 -26.11,4.92 -38.89,11.81 -6.43,3.43 -12.69,7.59 -18.83,12.25 -6.14,4.69 -12.23,9.85 -18.49,15.1 -6.25,5.28 -12.64,10.75 -19.61,15.91 -6.93,5.12 -14.45,9.98 -22.82,13.62 -8.33,3.62 -17.41,5.98 -26.66,6.68 -2.53,0.11 -4.31,0.29 -6.86,0.24 -2.42,0.05 -4.69,-0.13 -7.04,-0.32 -4.65,-0.36 -9.32,-1.24 -13.86,-2.62 -9.12,-2.75 -17.63,-7.87 -24.31,-14.8 -6.66,-6.86 -11.42,-15.54 -13.63,-24.81 -1.11,-4.6 -1.56,-9.39 -1.29,-14.17 0.09,-1.2 0.2,-2.4 0.36,-3.59 0.18,-1 0.36,-2.18 0.59,-3.36 0.48,-2.24 1.04,-4.45 1.72,-6.64 2.73,-8.62 7.32,-16.78 13.77,-23.14 6.45,-6.34 14.67,-10.7 23.06,-12.44 4.18,-0.94 8.37,-1.33 12.46,-1.33 4.04,-0.05 8.35,0.39 12.3,1.46 8,2.05 15.46,6.97 19.55,13.95 4.2,6.89 4.99,15.01 3.45,21.96 -0.36,1.79 -0.83,3.34 -1.51,5.15 -0.54,1.35 -1.46,3.32 -2.4,4.67 -1.85,2.92 -4.2,5.32 -6.68,7.34 -4.99,3.99 -10.79,6.5 -16.57,6.95 -5.53,0.32 -11.35,-0.7 -15.3,-4.12 -1.99,-1.68 -3.43,-3.79 -4.18,-6.02 -0.74,-2.22 -1,-4.43 -0.7,-6.52 0.74,-4.4 3.77,-7.22 6.63,-8.54 2.9,-1.33 5.8,-1.13 7.76,-0.29 1.96,0.85 3.07,2.07 3.75,2.9 0.32,0.41 0.54,0.77 0.7,0.98 0.13,0.22 0.22,0.34 0.22,0.34 0,0 -0.09,-0.13 -0.27,-0.33 -0.18,-0.22 -0.41,-0.52 -0.81,-0.9 -0.72,-0.72 -1.94,-1.79 -3.83,-2.35 -1.89,-0.59 -4.45,-0.45 -6.84,0.98 -2.33,1.35 -4.62,4.1 -4.84,7.41 -0.22,3.4 1.11,7.45 4.38,9.87 1.6,1.29 3.62,2.12 5.84,2.57 1.15,0.22 2.24,0.33 3.43,0.39 0.63,0 1.27,0 1.87,0 0.61,-0.05 1.2,-0.11 1.81,-0.18 4.84,-0.65 9.77,-3.11 13.86,-6.82 4.09,-3.7 7.32,-8.74 8.06,-14.58 0.98,-5.84 -0.05,-12.23 -3.5,-17.31 -3.4,-5.1 -9.09,-8.72 -15.67,-10.18 -3.32,-0.74 -6.66,-0.98 -10.31,-0.81 -3.59,0.13 -7.2,0.63 -10.68,1.51 -6.97,1.81 -13.47,5.37 -18.6,10.63 -5.12,5.28 -8.85,12.12 -11.01,19.55 -0.52,1.87 -1,3.77 -1.33,5.69 -0.16,0.92 -0.3,1.81 -0.45,2.92 -0.09,0.92 -0.2,1.83 -0.24,2.77 -0.2,3.73 0.18,7.54 1.11,11.29 1.83,7.43 5.75,14.51 11.24,20.09 5.42,5.58 12.42,9.66 20.02,12.01 3.79,1.2 7.74,1.96 11.76,2.33 2.01,0.18 4.08,0.34 6.04,0.31 1.81,0.07 4.34,-0.09 6.19,-0.18 8.13,-0.57 16.05,-2.55 23.5,-5.75 14.95,-6.37 27.97,-17 40.65,-27.29 12.62,-10.42 25.63,-20.31 39.55,-27.16 13.91,-6.97 28.57,-10.25 42.03,-10.77 13.41,-0.59 25.76,1.49 36.05,4.74 10.4,3.25 18.74,7.74 25.24,11.9 6.48,4.16 11.06,8.17 14.04,10.97 3.05,2.89 4.43,4.54 4.43,4.54z"/>
   <path class="fil0" d="M563.23 127.59c0,0 -1.06,-0.16 -3.07,-0.5 -1.99,-0.33 -4.95,-0.92 -8.6,-1.96 -3.66,-1.04 -8.06,-2.68 -12.86,-5.01 -4.81,-2.35 -9.98,-5.51 -15.3,-9.37 -5.31,-3.81 -10.79,-8.26 -16.7,-12.51 -5.89,-4.29 -12.42,-8.15 -19.68,-10.81 -3.64,-1.31 -7.43,-2.37 -11.31,-2.96 -3.83,-0.59 -7.78,-0.61 -11.58,0.07 -3.79,0.7 -7.5,2.1 -10.66,4.25 -3.23,2.16 -5.96,5.03 -7.9,8.39 -2.01,3.29 -3.21,7.15 -3.32,10.83 -0.2,3.99 0.36,7.95 1.6,11.62 1.24,3.66 3.25,6.95 5.96,9.55 2.66,2.62 5.96,4.47 9.5,5.67 1.79,0.59 3.57,1 5.47,1.27 1.7,0.27 3.57,0.31 5.26,0.11 3.47,-0.39 6.63,-1.83 8.87,-4.14 2.28,-2.26 3.57,-5.37 3.86,-8.5 0.11,-1.58 0.07,-3.16 -0.24,-4.69 -0.26,-1.35 -0.89,-2.8 -1.63,-4.08 -1.49,-2.57 -3.62,-4.67 -5.96,-6.06 -1.17,-0.7 -2.42,-1.22 -3.66,-1.49 -1.31,-0.29 -2.55,-0.39 -3.75,-0.33 -2.4,0.18 -4.45,1.29 -5.58,2.98 -1.11,1.7 -1.51,3.68 -0.96,5.28 0.54,1.63 1.72,2.86 2.93,3.49 1.22,0.65 2.49,0.7 3.45,0.43 1.92,-0.54 2.62,-1.58 2.62,-1.49 -0.05,-0.09 -0.57,1.02 -2.53,1.81 -0.96,0.36 -2.37,0.5 -3.83,-0.07 -1.46,-0.57 -2.94,-1.83 -3.79,-3.73 -0.39,-0.92 -0.61,-2.14 -0.45,-3.25 0.16,-1.17 0.54,-2.31 1.2,-3.38 1.29,-2.21 3.93,-3.83 6.78,-4.08 1.42,-0.18 2.92,-0.07 4.36,0.18 1.51,0.24 2.98,0.77 4.38,1.49 2.84,1.46 5.4,3.7 7.36,6.62 0.93,1.49 1.76,3.07 2.23,5.01 0.45,1.74 0.63,3.62 0.54,5.53 -0.16,3.81 -1.52,7.9 -4.36,11.03 -2.8,3.18 -6.93,5.15 -11.18,5.82 -2.16,0.29 -4.27,0.34 -6.52,0.09 -2.05,-0.2 -4.2,-0.61 -6.28,-1.22 -4.18,-1.22 -8.33,-3.34 -11.71,-6.5 -3.38,-3.14 -5.93,-7.2 -7.52,-11.53 -1.58,-4.31 -2.33,-9.03 -2.22,-13.62 0.13,-4.88 1.65,-9.57 4.04,-13.66 2.37,-4.14 5.71,-7.67 9.61,-10.38 3.93,-2.66 8.42,-4.43 12.98,-5.26 4.58,-0.81 9.18,-0.72 13.6,-0.05 4.34,0.7 8.48,1.94 12.42,3.4 7.95,2.98 14.79,7.54 20.77,12.14 5.93,4.65 11.09,9.39 16.09,13.41 4.92,4.1 9.68,7.52 14.13,10.16 4.43,2.71 8.55,4.65 12.01,6.08 3.47,1.44 6.28,2.37 8.19,3 1.94,0.6 2.95,0.91 2.95,0.91z"/>
   <path class="fil0" d="M563.23 127.59c0,0 -1.06,-0.16 -3.07,-0.5 -1.99,-0.33 -4.95,-0.92 -8.6,-1.96 -3.66,-1.04 -8.06,-2.68 -12.86,-5.01 -4.81,-2.35 -9.98,-5.51 -15.3,-9.37 -5.31,-3.81 -10.79,-8.26 -16.7,-12.51 -5.89,-4.29 -12.42,-8.15 -19.68,-10.81 -3.64,-1.31 -7.43,-2.37 -11.31,-2.96 -3.83,-0.59 -7.78,-0.61 -11.58,0.07 -3.79,0.7 -7.5,2.1 -10.66,4.25 -3.23,2.16 -5.96,5.03 -7.9,8.39 -2.01,3.29 -3.21,7.15 -3.32,10.83 -0.2,3.99 0.36,7.95 1.6,11.62 1.24,3.66 3.25,6.95 5.96,9.55 2.66,2.62 5.96,4.47 9.5,5.67 1.79,0.59 3.57,1 5.47,1.27 1.7,0.27 3.57,0.31 5.26,0.11 3.47,-0.39 6.63,-1.83 8.87,-4.14 2.28,-2.26 3.57,-5.37 3.86,-8.5 0.11,-1.58 0.07,-3.16 -0.24,-4.69 -0.26,-1.35 -0.89,-2.8 -1.63,-4.08 -1.49,-2.57 -3.62,-4.67 -5.96,-6.06 -1.17,-0.7 -2.42,-1.22 -3.66,-1.49 -1.31,-0.29 -2.55,-0.39 -3.75,-0.33 -2.4,0.18 -4.45,1.29 -5.58,2.98 -1.11,1.7 -1.51,3.68 -0.96,5.28 0.54,1.63 1.72,2.86 2.93,3.49 1.22,0.65 2.49,0.7 3.45,0.43 1.92,-0.54 2.62,-1.58 2.62,-1.49 -0.05,-0.09 -0.57,1.02 -2.53,1.81 -0.96,0.36 -2.37,0.5 -3.83,-0.07 -1.46,-0.57 -2.94,-1.83 -3.79,-3.73 -0.39,-0.92 -0.61,-2.14 -0.45,-3.25 0.16,-1.17 0.54,-2.31 1.2,-3.38 1.29,-2.21 3.93,-3.83 6.78,-4.08 1.42,-0.18 2.92,-0.07 4.36,0.18 1.51,0.24 2.98,0.77 4.38,1.49 2.84,1.46 5.4,3.7 7.36,6.62 0.93,1.49 1.76,3.07 2.23,5.01 0.45,1.74 0.63,3.62 0.54,5.53 -0.16,3.81 -1.52,7.9 -4.36,11.03 -2.8,3.18 -6.93,5.15 -11.18,5.82 -2.16,0.29 -4.27,0.34 -6.52,0.09 -2.05,-0.2 -4.2,-0.61 -6.28,-1.22 -4.18,-1.22 -8.33,-3.34 -11.71,-6.5 -3.38,-3.14 -5.93,-7.2 -7.52,-11.53 -1.58,-4.31 -2.33,-9.03 -2.22,-13.62 0.13,-4.88 1.65,-9.57 4.04,-13.66 2.37,-4.14 5.71,-7.67 9.61,-10.38 3.93,-2.66 8.42,-4.43 12.98,-5.26 4.58,-0.81 9.18,-0.72 13.6,-0.05 4.34,0.7 8.48,1.94 12.42,3.4 7.95,2.98 14.79,7.54 20.77,12.14 5.93,4.65 11.09,9.39 16.09,13.41 4.92,4.1 9.68,7.52 14.13,10.16 4.43,2.71 8.55,4.65 12.01,6.08 3.47,1.44 6.28,2.37 8.19,3 1.94,0.6 2.95,0.91 2.95,0.91z"/>
   <path class="fil0" d="M963.83 215.94c0,0 7.26,-19.37 -10.72,-23.12 -8.71,16.12 10.72,23.12 10.72,23.12z"/>
   <path class="fil0" d="M947.48 196.63c-1.54,-3.38 -0.09,-7.36 3.25,-8.91 3.38,-1.58 7.38,-0.11 8.94,3.25 1.55,3.36 0.09,7.38 -3.27,8.91 -3.36,1.59 -7.34,0.13 -8.91,-3.25z"/>
   <path class="fil0" d="M950.73 187.72c0,0 -6.82,0.18 -7.02,7.04 -0.18,4.58 2.1,9 -4.31,13.03 0,0 11.01,-1.24 12.62,-11.27 0.34,-2.2 0.22,-5.49 -1.29,-8.81z"/>
   <path class="fil0" d="M950.73 187.72c0,0 4.56,-5.12 9.96,-0.85 3.59,2.86 5.49,7.43 12.73,5.17 0,0 -8.08,7.61 -16.77,2.35 -1.91,-1.17 -4.33,-3.37 -5.92,-6.66z"/>
   <path class="fil0" d="M656.58 112.64c10.18,-10.5 20.27,-23.14 26.7,-36.79 0,0 -12.14,15.39 -29.82,31.38 0.06,3.12 1.66,4.65 3.12,5.41z"/>
   <path class="fil0" d="M386.8 124.51c0,0 -2.75,11.31 8.91,11.31 16.8,0 17.13,-18.51 32.76,-25.35 1.63,-0.72 3.59,-1.58 5.91,-2.44 0,-0.07 0,-0.16 0,-0.22 0.09,-3.34 0.77,-6.62 2.01,-9.85 -28.49,7.65 -38.36,27.07 -61.24,18.31 -0.01,0 3.77,7.2 11.66,8.24z"/>
   <path class="fil0" d="M440.39 106.07c0.39,-3.27 1.51,-6.64 3.29,-9.72 -0.77,0.13 -1.53,0.24 -2.24,0.41 -1.61,3.18 -2.57,6.5 -2.84,9.84 0.58,-0.18 1.17,-0.35 1.78,-0.52z"/>
   <path class="fil0" d="M562.44 137.81c-39.01,-13.54 -63.7,-43.7 -105.05,-42.78 -2.87,0.07 -5.62,0.27 -8.24,0.52 -0.63,0.88 -1.29,1.74 -1.83,2.66 -1.29,2.16 -2.16,4.51 -2.66,6.84 5.28,-1.06 11.45,-1.65 18.57,-1.09 1.22,-0.57 2.55,-0.93 3.93,-1.06 1.42,-0.18 3.14,-0.09 4.88,0.2 1.6,0.24 3.29,0.83 4.99,1.68 1.42,0.72 2.73,1.65 3.97,2.71 11.51,3.57 24.81,10.07 39.8,21.15 0,0 -18.49,-0.67 -27.42,17.48 0,0 8.78,-5.71 21.71,-3.59 0.2,-0.22 0.39,-0.43 0.65,-0.7 1.31,-1.35 3.34,-2.9 5.58,-3.95 0.54,-0.3 1.13,-0.48 1.7,-0.72 0.54,-0.24 1.13,-0.34 1.68,-0.52 0.54,-0.18 1.11,-0.24 1.61,-0.34 0.5,-0.13 1.02,-0.13 1.46,-0.2 0.88,-0.11 1.63,-0.09 2.14,-0.09 0.54,0 0.83,0 0.83,0 0,0 -0.28,0.07 -0.81,0.13 -0.5,0.09 -1.24,0.18 -2.07,0.43 -0.43,0.13 -0.89,0.22 -1.4,0.41 -0.43,0.18 -0.96,0.33 -1.44,0.57 -0.48,0.24 -1,0.45 -1.49,0.77 -0.48,0.29 -1,0.57 -1.46,0.9 -1.7,1.15 -3.09,2.62 -4.06,3.9 2.62,0.67 5.38,1.61 8.26,3 1.89,0.94 3.77,1.89 5.62,2.86 0.13,-0.09 0.27,-0.16 0.39,-0.22 0.77,-0.43 1.68,-0.83 2.66,-1.29 0.48,-0.24 1.02,-0.41 1.55,-0.61 0.52,-0.22 1.04,-0.41 1.58,-0.59 0.57,-0.18 1.11,-0.3 1.65,-0.43 0.54,-0.16 1.06,-0.34 1.58,-0.39 0.54,-0.09 1.06,-0.16 1.55,-0.24 0.45,-0.07 0.92,-0.18 1.35,-0.13 1.68,0.02 2.8,0.05 2.8,0.05 0,0 -1.09,0.18 -2.73,0.41 -0.41,0.05 -0.81,0.27 -1.29,0.36 -0.43,0.16 -0.92,0.32 -1.37,0.48 -0.52,0.11 -0.98,0.39 -1.46,0.61 -0.5,0.24 -0.98,0.45 -1.46,0.7 -0.5,0.27 -0.96,0.57 -1.42,0.81 -0.45,0.31 -0.91,0.52 -1.33,0.83 -0.5,0.34 -0.96,0.67 -1.4,0.98 4.29,2.21 8.62,4.31 13.16,5.96 0,-0.02 0.02,-0.02 0.02,-0.02 0.32,-0.29 0.7,-0.52 1.06,-0.83 0.39,-0.29 0.79,-0.61 1.27,-0.85 0.43,-0.24 0.92,-0.5 1.37,-0.81 0.45,-0.27 1,-0.39 1.49,-0.63 0.5,-0.2 1,-0.39 1.51,-0.59 0.5,-0.13 1.02,-0.27 1.51,-0.36 0.5,-0.13 0.96,-0.24 1.4,-0.34 0.45,-0.11 0.9,-0.09 1.29,-0.16 1.58,-0.13 2.62,-0.22 2.62,-0.22 0,0 -1,0.29 -2.51,0.7 -0.36,0.13 -0.79,0.16 -1.2,0.36 -0.39,0.16 -0.83,0.36 -1.27,0.57 -0.45,0.2 -0.88,0.39 -1.35,0.59 -0.41,0.29 -0.83,0.54 -1.27,0.83 -0.41,0.29 -0.85,0.5 -1.22,0.85 -0.36,0.29 -0.74,0.61 -1.09,0.92 -0.36,0.27 -0.63,0.61 -0.92,0.88 8.56,2.66 17.83,3.32 28.62,-0.63l-1.63 -0.52c-0.39,-0.13 -10,-3.27 -13.64,-12.01 -0.79,-2 -1.23,-4.03 -1.32,-6.16z"/>
   <path class="fil0" d="M1031.72 59.41c-0.83,-4.38 -5.47,-7.17 -7.09,-10.63 -1.56,3.47 -6.25,6.25 -7.04,10.63 0,0 -2.24,-5.34 1.62,-11.71 3.59,-5.96 5.42,-12.77 5.42,-12.77 0,0 1.85,6.8 5.47,12.77 3.84,6.37 1.62,11.71 1.62,11.71z"/>
   <path class="fil0" d="M931.41 122.12c10.97,13.01 12.69,25.22 4.45,42.09 0,0 22.62,-4.06 19.23,-39.68 0,0 20.23,19.5 14.74,54.83 0,0 16.5,-44.9 -11.66,-66.14 -22.27,-16.78 -61.35,-1.72 -61.35,-1.72 0,0 23.64,-2.42 34.6,10.62zm-12.96 -12.34c0.72,0.05 1.61,0.11 2.64,0.2 1,0.09 2.16,0.18 3.38,0.5 1.24,0.27 2.57,0.57 3.99,0.92 1.4,0.36 2.8,1 4.29,1.58 1.53,0.52 2.9,1.49 4.36,2.35l1.11 0.67 1 0.83 1.99 1.7c0.65,0.54 1.15,1.31 1.74,1.94 0.52,0.7 1.15,1.29 1.55,2.07 0.48,0.74 0.89,1.49 1.33,2.2 0.41,0.74 0.65,1.55 0.98,2.31 0.7,1.49 0.9,3.05 1.24,4.49 0.18,1.46 0.34,2.87 0.31,4.14 0.02,1.29 -0.13,2.42 -0.24,3.46 -0.16,1 -0.34,1.89 -0.52,2.62 -0.2,0.7 -0.39,1.24 -0.54,1.61 -0.11,0.36 -0.2,0.57 -0.2,0.57 0,0 0.11,-0.85 0.13,-2.28 0,-1.44 0,-3.46 -0.39,-5.84 -0.11,-1.2 -0.5,-2.46 -0.79,-3.77 -0.45,-1.29 -0.81,-2.66 -1.53,-3.95 -0.34,-0.65 -0.57,-1.37 -0.98,-1.99 -0.41,-0.61 -0.85,-1.24 -1.22,-1.89 -0.36,-0.67 -0.96,-1.2 -1.46,-1.79 -0.52,-0.54 -0.94,-1.22 -1.55,-1.7l-1.76 -1.54 -0.88 -0.74 -0.98 -0.65c-1.33,-0.77 -2.49,-1.81 -3.88,-2.37 -1.37,-0.61 -2.62,-1.37 -3.88,-1.87 -1.31,-0.45 -2.53,-0.94 -3.68,-1.37 -1.13,-0.5 -2.21,-0.77 -3.18,-1.06 -0.96,-0.27 -1.79,-0.5 -2.49,-0.72 -1.37,-0.45 -2.16,-0.72 -2.16,-0.72 0,0 0.8,0.03 2.27,0.12z"/>
   <path class="fil0" d="M858.08 208.82c19.88,-8.22 10.61,-32.56 10.61,-32.56 0,0 15.08,14.76 43.18,5.84 24.83,-7.87 40.13,7.87 40.13,7.87 0,0 -14.06,-22.27 -43.18,-13.36 -29.16,8.89 -47.92,-9.64 -52.3,-23.82 -4.86,-15.64 4.29,-30.34 8.42,-37.86 0,0 -15.76,15.73 -14.38,32.56 1.35,16.77 12.01,29.82 3.07,45.4 -8.91,15.58 -25.35,7.72 -25.35,7.72 0,0 9.91,16.46 29.81,8.2zm-5.1 -3.73c0.39,-0.29 0.91,-0.63 1.49,-1.02 0.54,-0.39 1.11,-1 1.74,-1.53 0.3,-0.3 0.65,-0.54 0.98,-0.88 0.27,-0.34 0.57,-0.7 0.88,-1.06 0.3,-0.36 0.61,-0.72 0.92,-1.09 0.26,-0.41 0.52,-0.85 0.81,-1.29 0.24,-0.41 0.57,-0.81 0.77,-1.33 0.2,-0.45 0.41,-0.94 0.65,-1.42 0.52,-0.92 0.65,-2.03 1.02,-3.03 0.24,-1.06 0.5,-2.14 0.61,-3.23 0.09,-1.06 0.29,-2.14 0.26,-3.16 0.13,-2.1 0,-4.1 -0.05,-5.82 -0.28,-3.43 -0.59,-5.78 -0.59,-5.78 0,0 1.31,2.01 2.28,5.47 0.24,0.85 0.52,1.81 0.7,2.82 0.13,1.04 0.36,2.14 0.36,3.27 0.09,1.13 0.07,2.31 -0.05,3.52 -0.07,1.22 -0.32,2.44 -0.57,3.64l-0.59 1.79c-0.18,0.61 -0.41,1.17 -0.72,1.72 -0.5,1.13 -1.13,2.18 -1.89,3.09 -0.36,0.43 -0.7,0.94 -1.09,1.33 -0.41,0.39 -0.83,0.74 -1.22,1.09 -0.41,0.36 -0.83,0.72 -1.2,1.02 -0.41,0.27 -0.85,0.48 -1.24,0.72 -0.79,0.43 -1.51,0.88 -2.21,1.13 -0.72,0.27 -1.33,0.41 -1.83,0.57 -1,0.27 -1.56,0.41 -1.56,0.41 0,0 0.46,-0.34 1.33,-0.96z"/>
   <path class="fil0" d="M679.97 138.53c0.33,0.09 0.65,0.18 0.94,0.3 0.72,0.29 1.44,0.57 2.16,0.9 0.7,0.29 1.37,0.57 2.03,0.96 0.61,0.36 1.24,0.74 1.85,1.09 0.59,0.39 1.15,0.67 1.7,1.04 0.48,0.39 0.96,0.74 1.4,1.06 1.68,1.33 2.84,2.2 2.84,2.2 0,0 -1.35,-0.41 -3.4,-1.02 -0.5,-0.16 -1.04,-0.34 -1.62,-0.5 -0.59,-0.18 -1.24,-0.22 -1.85,-0.36 -0.65,-0.09 -1.29,-0.2 -1.99,-0.32 -0.61,-0.13 -1.31,-0.13 -1.99,-0.18 -0.27,0 -0.54,-0.02 -0.79,-0.02 3.29,11.18 10.57,22.91 25.33,32.23 0.57,0.39 1.2,0.72 1.79,1.06 1.72,-2.26 4.09,-4.72 6.78,-6.73 0.79,-0.61 1.62,-1.17 2.46,-1.68 0.79,-0.54 1.65,-0.98 2.49,-1.42 0.81,-0.43 1.63,-0.74 2.4,-1.06 0.77,-0.32 1.53,-0.57 2.21,-0.79 1.37,-0.43 2.53,-0.65 3.34,-0.81 0.81,-0.13 1.27,-0.22 1.27,-0.22 0,0 -0.41,0.22 -1.11,0.65 -0.7,0.36 -1.68,0.98 -2.77,1.83 -0.54,0.39 -1.13,0.83 -1.7,1.37 -0.54,0.5 -1.15,1.02 -1.7,1.65 -0.57,0.63 -1.15,1.22 -1.65,1.92 -0.52,0.67 -1.04,1.35 -1.51,2.07 -1.51,2.35 -2.59,4.84 -3.29,6.95 17.99,8.13 38.26,8.76 56.69,4.78 -0.11,-1.11 -0.18,-2.28 -0.18,-3.57 0,-1.68 0.13,-3.5 0.41,-5.3 0.2,-0.85 0.3,-1.76 0.59,-2.59 0.24,-0.85 0.45,-1.68 0.81,-2.46 0.29,-0.77 0.57,-1.51 0.96,-2.18 0.34,-0.65 0.63,-1.31 1.04,-1.81 0.34,-0.54 0.7,-1.02 1,-1.46 0.34,-0.39 0.63,-0.72 0.9,-1 0.48,-0.54 0.79,-0.85 0.79,-0.85 0,0 -0.2,0.39 -0.5,1.02 -0.13,0.36 -0.32,0.74 -0.54,1.22 -0.13,0.45 -0.28,0.98 -0.45,1.58 -0.22,0.54 -0.31,1.24 -0.41,1.92 -0.16,0.65 -0.22,1.37 -0.27,2.12 -0.07,0.72 -0.02,1.51 0,2.26 0,0.79 0.16,1.55 0.22,2.31 0.24,1.54 0.59,3.05 1.04,4.43 0.3,1.02 0.67,1.92 1.02,2.75 14.76,-4.14 27.88,-11.18 37.04,-19.46 -0.22,-0.61 -0.38,-1.33 -0.54,-2.03 -0.18,-0.77 -0.41,-1.51 -0.52,-2.35 -0.11,-0.81 -0.22,-1.68 -0.34,-2.51 -0.18,-0.88 -0.16,-1.76 -0.18,-2.62 -0.02,-0.85 -0.05,-1.74 -0.05,-2.57 0,-0.85 0.16,-1.68 0.24,-2.49 0.09,-0.77 0.18,-1.53 0.27,-2.24 0.05,-0.72 0.3,-1.37 0.43,-1.99 0.65,-2.4 1.09,-4.01 1.09,-4.01 0,0 0.07,1.63 0.2,4.08 0.05,0.61 0,1.27 0.18,1.96 0.16,0.65 0.29,1.35 0.43,2.1 0.18,0.72 0.26,1.49 0.5,2.2 0.24,0.72 0.5,1.46 0.74,2.18 0.29,0.74 0.5,1.46 0.88,2.16 0.33,0.65 0.63,1.31 0.94,1.96 0.18,0.41 0.43,0.81 0.7,1.17 21.21,-23.47 27.49,-52.07 50.43,-64.06 0,0 -25.87,10.05 -49.69,33.59 -30.49,30.16 -61.46,37.12 -93.2,27.97 -33.96,-9.8 -46.01,-36.16 -46.01,-51.58 -0.03,-0 -5.74,15.3 -2.25,33.19zm117.91 23.16c0.13,-0.81 0.38,-1.62 0.67,-2.4 0.29,-0.79 0.65,-1.54 1.11,-2.22 0.39,-0.65 0.83,-1.27 1.29,-1.7 0.88,-0.92 1.58,-1.4 1.58,-1.4 0,0 -0.16,0.88 -0.59,2.01 -0.22,0.54 -0.43,1.24 -0.67,1.92 -0.27,0.67 -0.59,1.4 -0.81,2.14 -0.32,0.7 -0.57,1.44 -0.83,2.14 -0.29,0.65 -0.48,1.31 -0.72,1.85 -0.41,1.11 -0.77,1.94 -0.77,1.94 0,0 -0.09,-0.2 -0.18,-0.54 -0.11,-0.39 -0.2,-0.92 -0.24,-1.55 0.03,-0.65 0,-1.41 0.15,-2.2zm-6.67 3.6c0.05,-0.59 0.24,-1.15 0.36,-1.76 0.2,-0.57 0.36,-1.17 0.54,-1.72 0.26,-0.54 0.57,-1.06 0.81,-1.58 0.29,-0.48 0.57,-0.98 0.85,-1.4 0.29,-0.43 0.65,-0.77 0.96,-1.11 1.22,-1.33 2.16,-2.05 2.16,-2.05 0,0 -0.41,1.17 -1.2,2.68 -0.18,0.39 -0.39,0.79 -0.57,1.24 -0.18,0.43 -0.34,0.92 -0.54,1.42 -0.2,0.45 -0.36,0.98 -0.59,1.46 -0.18,0.52 -0.28,1.06 -0.41,1.6 -0.13,0.52 -0.36,1.04 -0.43,1.56 -0.05,0.52 -0.18,1.04 -0.24,1.55 -0.13,0.5 -0.13,1.02 -0.18,1.46 0,0.5 -0.07,0.96 -0.07,1.37 0.02,0.83 0,1.56 0.05,2.07 0.02,0.52 0.07,0.81 0.07,0.81 0,0 -0.22,-0.22 -0.43,-0.67 -0.13,-0.27 -0.33,-0.52 -0.41,-0.88 -0.13,-0.34 -0.28,-0.74 -0.43,-1.17 -0.13,-0.43 -0.2,-0.92 -0.27,-1.44 -0.07,-0.52 -0.2,-1.06 -0.13,-1.63 0.01,-0.61 0.01,-1.2 0.1,-1.83zm-35.28 2.2c0.54,-0.34 1.2,-0.54 1.74,-0.77 0.54,-0.27 1.09,-0.39 1.61,-0.5 1,-0.24 1.87,-0.27 2.49,-0.27 0.61,-0.02 0.94,0 0.94,0 0,0 -0.31,0.16 -0.85,0.39 -0.29,0.11 -0.59,0.22 -0.98,0.39 -0.36,0.16 -0.77,0.39 -1.17,0.61 -0.45,0.2 -0.92,0.45 -1.4,0.74 -0.45,0.3 -0.96,0.59 -1.44,0.94 -0.48,0.32 -0.96,0.7 -1.42,1.11 -0.5,0.39 -0.93,0.81 -1.4,1.27 -0.92,0.88 -1.7,1.85 -2.44,2.82 -0.72,0.96 -1.35,1.92 -1.87,2.73 -1.06,1.68 -1.68,2.9 -1.68,2.9 0,0 -0.05,-1.42 0.61,-3.38 0.3,-1 0.77,-2.12 1.44,-3.25 0.36,-0.57 0.67,-1.13 1.13,-1.68 0.41,-0.54 0.85,-1.11 1.35,-1.58 1.02,-0.99 2.17,-1.86 3.34,-2.48zm-17.17 11.47c0,-0.3 0.05,-0.65 0.16,-1.02 0.07,-0.41 0.11,-0.88 0.31,-1.33 0.18,-0.45 0.39,-0.98 0.63,-1.49 0.2,-0.54 0.57,-1 0.92,-1.53 0.39,-0.5 0.67,-1.11 1.15,-1.51 0.48,-0.5 0.91,-0.94 1.4,-1.42 0.45,-0.45 0.96,-0.88 1.51,-1.22 0.52,-0.39 1.06,-0.7 1.6,-1.02 0.5,-0.34 0.98,-0.67 1.51,-0.92 0.52,-0.2 1,-0.39 1.46,-0.57 1.81,-0.7 3.07,-0.98 3.07,-0.98 0,0 -1,0.92 -2.49,2.01 -0.39,0.27 -0.79,0.59 -1.27,0.85 -0.41,0.32 -0.81,0.72 -1.27,1.06 -0.43,0.36 -0.9,0.74 -1.37,1.11 -0.5,0.34 -0.96,0.74 -1.37,1.17 -0.43,0.43 -0.88,0.83 -1.31,1.22 -0.48,0.39 -0.79,0.9 -1.15,1.29 -0.34,0.43 -0.83,0.81 -1.09,1.24 -0.29,0.41 -0.57,0.81 -0.88,1.17 -0.27,0.36 -0.41,0.74 -0.63,1.06 -0.2,0.32 -0.34,0.61 -0.48,0.88 -0.24,0.48 -0.34,0.81 -0.34,0.81 0,0 -0.1,-0.31 -0.08,-0.88zm-38.05 -21.56c1.37,-0.54 3.34,-1.04 5.32,-1.27 0.98,-0.02 2.01,-0.16 2.94,-0.02 0.93,0.09 1.81,0.13 2.51,0.34 1.49,0.39 2.4,0.77 2.4,0.77 0,0 -1.02,0.09 -2.46,0.11 -0.72,-0.02 -1.55,0.11 -2.44,0.11 -0.9,0.02 -1.85,0.18 -2.8,0.27 -0.48,0 -0.96,0.09 -1.42,0.13 -0.45,0.07 -0.93,0.11 -1.4,0.13 -0.88,0.16 -1.72,0.2 -2.44,0.3 -0.74,0.07 -1.35,0.13 -1.79,0.18 -0.41,0.05 -0.67,0.07 -0.67,0.07 0,0 0.85,-0.57 2.25,-1.12z"/>
   <path class="fil0" d="M738.8 137.52c56.21,9.26 67.17,-36.68 104.2,-58.26 37.01,-21.6 95.26,-5.47 95.26,-5.47 -28.1,-17.15 -48.17,-17.24 -73.34,-13.01 -11.33,1.85 -21.24,-3.23 -22.27,-11.71 -0.77,-6.28 6.86,-13.01 6.86,-13.01 -39.1,3.09 -19.53,29.84 -19.53,29.84 -27.09,-1.04 -43.2,22.58 -43.2,22.58 9.26,-5.23 20.54,0 20.54,0 -27,3.4 -37.68,28.49 -37.68,28.49 7.54,-4.79 17.48,-2.05 17.48,-2.05 -13.7,1.35 -20.88,10.29 -27.74,15.73 -6.84,5.51 -20.57,6.86 -20.57,6.86zm66.93 -59.02c-0.48,0.09 -0.79,0.16 -0.79,0.16 0,0 0.2,-0.22 0.61,-0.52 0.41,-0.31 1,-0.63 1.81,-1.02 0.79,-0.29 1.72,-0.72 2.82,-0.85 0.5,-0.07 1.04,-0.2 1.63,-0.24 0.59,0 1.13,0 1.7,0 0.57,0.02 1.15,0 1.7,0.09 0.57,0.11 1.09,0.22 1.61,0.33 0.54,0.13 1.02,0.24 1.49,0.34 0.48,0.18 0.9,0.36 1.27,0.54 1.58,0.7 2.53,1.33 2.53,1.33 0,0 -1.2,0.02 -2.8,-0.2 -0.39,-0.05 -0.85,-0.09 -1.29,-0.16 -0.48,-0.02 -0.96,-0.02 -1.46,-0.07 -0.5,-0.07 -1,-0.09 -1.55,-0.16 -0.5,-0.07 -1.02,-0.02 -1.55,-0.05 -0.52,0 -1.06,-0.05 -1.58,-0.07 -0.52,0.07 -1.02,0.07 -1.53,0.07 -0.5,0 -0.96,0 -1.42,0.09 -0.43,0.05 -0.9,0.07 -1.31,0.11 -0.73,0.14 -1.45,0.18 -1.88,0.27zm-19.01 26.71c-1.56,0.57 -2.68,1.02 -2.68,1.02 0,0 0.16,-0.27 0.52,-0.65 0.34,-0.36 0.9,-0.88 1.62,-1.44 0.72,-0.48 1.58,-1.11 2.59,-1.53 0.52,-0.24 1.04,-0.52 1.56,-0.72 0.57,-0.18 1.11,-0.34 1.68,-0.54 1.13,-0.34 2.31,-0.54 3.38,-0.7 1.09,-0.18 2.14,-0.22 3.03,-0.16 1.76,0.07 2.92,0.29 2.92,0.29 0,0 -1.11,0.45 -2.77,0.9 -0.43,0.09 -0.88,0.22 -1.35,0.31 -0.45,0.18 -0.96,0.33 -1.46,0.45 -0.5,0.13 -1.02,0.3 -1.54,0.39 -0.54,0.16 -1.11,0.34 -1.64,0.5 -1.06,0.27 -2.14,0.61 -3.14,0.96 -0.98,0.28 -1.87,0.68 -2.7,0.93z"/>
   <path class="fil0" d="M567.77 125.19c-11.29,21.92 10.29,28.8 10.29,28.8 -4.12,-14.76 15.41,-27.07 31.06,-29.47 15.62,-2.4 29.27,-14.76 29.27,-14.76 -1.04,6.16 2.94,10.83 10.94,11.66 9.96,1.02 18.53,-8.56 18.53,-8.56 -5.49,4.79 -16.45,3.43 -16.45,-5.82 0,-9.26 8.76,-22.46 27.44,-39.43 23.5,-21.36 54.13,-23.3 54.13,-23.3 -45.35,-8.24 -63.75,24.67 -86.72,33.93 -22.95,9.24 -25.69,-8.91 -25.69,-8.91 -10.29,22.27 11.55,26.05 11.55,26.05 0,0 -16.37,9.94 -32.45,9.26 -16.1,-0.67 -13.01,-18.51 -13.01,-18.51 -17.5,7.87 -11.69,24.67 -11.69,24.67 0,0 -18.55,-1 -20.59,-18.85 -1.17,-10.54 2.12,-19.88 14.47,-24.43 13.68,-5.01 23.95,2.49 23.95,2.49 -7.56,-10.97 -50.02,-15.41 -55.17,16.45 -5.15,31.88 30.13,38.75 30.13,38.75zm76.83 -17.07c0.07,-0.5 0.11,-0.77 0.11,-0.77 0,0 0.13,0.27 0.28,0.72 0.2,0.45 0.33,1.11 0.65,1.85 0.18,0.34 0.31,0.77 0.5,1.15 0.22,0.39 0.41,0.79 0.61,1.22 0.27,0.39 0.54,0.79 0.81,1.17 0.33,0.34 0.57,0.77 0.98,1.06 0.63,0.74 1.49,1.22 2.24,1.74 0.45,0.2 0.83,0.48 1.24,0.65 0.39,0.16 0.77,0.33 1.13,0.45 1.49,0.57 2.62,0.83 2.62,0.83 0,0 -1.09,0.43 -2.84,0.33 -0.88,-0.02 -1.87,-0.27 -2.92,-0.63 -0.48,-0.24 -1.04,-0.41 -1.53,-0.79 -0.5,-0.33 -0.98,-0.7 -1.42,-1.13 -0.45,-0.36 -0.77,-0.94 -1.13,-1.4 -0.32,-0.48 -0.54,-1.02 -0.81,-1.53 -0.2,-0.52 -0.32,-1.04 -0.45,-1.53 -0.16,-0.48 -0.16,-0.96 -0.18,-1.37 -0.08,-0.84 0.05,-1.56 0.11,-2.04zm-13.81 -19.68c-0.57,-0.07 -1.15,-0.16 -1.72,-0.29 -0.59,-0.22 -1.22,-0.34 -1.76,-0.63 -1.15,-0.5 -2.22,-1.27 -3,-2.14 -0.43,-0.34 -0.72,-0.9 -1.02,-1.31 -0.33,-0.41 -0.52,-0.9 -0.7,-1.31 -0.18,-0.43 -0.36,-0.79 -0.43,-1.15 -0.09,-0.36 -0.13,-0.67 -0.2,-0.96 -0.09,-0.5 -0.11,-0.79 -0.11,-0.79 0,0 0.2,0.22 0.48,0.63 0.16,0.22 0.33,0.48 0.52,0.77 0.18,0.27 0.5,0.54 0.74,0.88 0.29,0.32 0.54,0.67 0.9,0.98 0.34,0.3 0.65,0.67 1.06,0.96 0.39,0.3 0.79,0.59 1.22,0.85 0.45,0.29 0.9,0.5 1.4,0.74 0.43,0.27 0.96,0.36 1.46,0.59 0.5,0.09 0.98,0.3 1.49,0.41 0.98,0.22 1.94,0.36 2.77,0.48 1.68,0.2 2.87,0.27 2.87,0.27 0,0 -1.04,0.61 -2.84,0.92 -0.89,0.14 -1.96,0.21 -3.12,0.1zm-51.06 9.32c0.18,-0.61 0.36,-1.17 0.57,-1.72 0.27,-0.5 0.5,-0.96 0.77,-1.4 0.41,-0.85 1.02,-1.42 1.37,-1.87 0.36,-0.39 0.57,-0.63 0.57,-0.63 0,0 -0.05,0.29 -0.22,0.83 -0.13,0.54 -0.48,1.24 -0.63,2.16 -0.11,0.45 -0.27,0.92 -0.41,1.42 -0.05,0.5 -0.11,1.02 -0.22,1.53 -0.11,0.57 -0.05,1.11 -0.13,1.68 0.02,0.54 0.07,1.11 0.13,1.65 0.13,0.57 0.18,1.13 0.36,1.63 0.18,0.54 0.36,1.04 0.57,1.53 0.5,0.96 1.04,1.85 1.62,2.55 0.52,0.7 1.02,1.29 1.44,1.68 0.36,0.41 0.61,0.63 0.61,0.63 0,0 -1.33,-0.27 -2.9,-1.46 -0.41,-0.3 -0.79,-0.67 -1.2,-1.09 -0.36,-0.41 -0.79,-0.9 -1.11,-1.42 -0.33,-0.57 -0.7,-1.13 -0.9,-1.74 -0.28,-0.65 -0.36,-1.33 -0.52,-1.99 -0.09,-0.7 -0.09,-1.4 -0.09,-2.05 0.09,-0.68 0.17,-1.34 0.32,-1.93zm-8.71 39.64c0.07,-0.39 0.13,-0.79 0.22,-1.17l0.39 -1.15c0.24,-0.79 0.74,-1.46 1.09,-2.18 0.43,-0.67 1,-1.24 1.46,-1.81 0.54,-0.54 1.09,-1.02 1.62,-1.44 0.52,-0.45 1.11,-0.72 1.62,-1.06 0.98,-0.61 1.94,-0.88 2.57,-1.13 0.63,-0.2 1,-0.32 1,-0.32 0,0 -0.3,0.27 -0.81,0.7 -0.5,0.45 -1.31,0.92 -2.07,1.74 -0.39,0.39 -0.85,0.77 -1.27,1.2 -0.43,0.5 -0.83,0.96 -1.29,1.49 -0.36,0.54 -0.74,1.11 -1.11,1.7 -0.27,0.61 -0.72,1.2 -0.88,1.87l-0.39 0.96 -0.24 1.02c-0.18,0.65 -0.22,1.35 -0.33,1.99 0,0.7 -0.09,1.33 -0.07,1.96 0.02,0.59 0.05,1.17 0.13,1.74 0.2,2.21 0.59,3.7 0.59,3.7 0,0 -1.04,-1.2 -1.76,-3.45 -0.2,-0.57 -0.34,-1.2 -0.45,-1.87 -0.18,-0.65 -0.18,-1.37 -0.22,-2.12 0.05,-0.75 0,-1.56 0.21,-2.35zm-26.88 -45.96c0.02,-0.83 0.05,-1.61 0.05,-2.37 0.16,-1.6 0.59,-3.09 0.88,-4.51 0.5,-1.37 1.04,-2.71 1.58,-3.95 0.59,-1.17 1.33,-2.21 1.94,-3.18 0.3,-0.48 0.59,-0.96 0.88,-1.4 0.33,-0.39 0.67,-0.77 0.98,-1.11 0.61,-0.72 1.15,-1.31 1.61,-1.81 0.9,-0.96 1.42,-1.51 1.42,-1.51 0,0 -0.33,0.72 -0.96,1.85 -0.28,0.59 -0.65,1.29 -1.09,2.07 -0.22,0.41 -0.45,0.83 -0.67,1.27 -0.2,0.48 -0.41,0.96 -0.61,1.46 -0.39,1.04 -0.93,2.1 -1.37,3.27 -0.33,1.2 -0.65,2.42 -1.04,3.68 -0.2,1.33 -0.39,2.71 -0.54,4.04 0.02,0.72 0.02,1.4 0.02,2.1l0 1.04 0.18 1.02 0.32 2.05c0.22,0.67 0.41,1.33 0.61,1.99l0.31 1 0.41 0.92c0.28,0.63 0.54,1.24 0.81,1.85 0.72,1.11 1.27,2.33 2.03,3.29 0.65,1.02 1.42,1.96 2.12,2.82 1.42,1.68 2.68,3.03 3.66,3.93 0.92,0.92 1.51,1.4 1.51,1.4 0,0 -0.72,-0.24 -1.85,-0.92 -1.2,-0.61 -2.82,-1.65 -4.58,-3.16 -0.88,-0.77 -1.79,-1.61 -2.66,-2.64 -0.94,-0.96 -1.72,-2.16 -2.55,-3.38 -0.36,-0.63 -0.7,-1.33 -1.06,-1.96l-0.52 -1.04 -0.39 -1.09c-0.27,-0.74 -0.52,-1.49 -0.74,-2.24l-0.45 -2.37 -0.18 -1.2 -0.01 -1.2z"/>
   <path class="fil0" d="M580.04 153.41l0.65 2.4c3.4,-1.37 6.97,-3.21 10.72,-5.6 0,0 -9.26,24.37 12.34,34.63 21.47,10.22 43.88,-6.19 44.22,-18.51 0,0 -11.66,16.09 -26.75,7.52 -15.08,-8.56 -6.84,-27.07 5.12,-35.28 4.53,-3.09 11.68,-8.54 19.61,-15.67 -2.84,-0.72 -5.12,-1.96 -6.8,-3.7 -17.63,13.54 -38.21,24.65 -57.29,23.28 -2.24,3.6 -2.87,7.3 -1.84,10.94zm19.92 7.67c0.13,-1.31 0.27,-2.57 0.52,-3.66 0.2,-1.13 0.5,-2.12 0.77,-3 0.24,-0.88 0.52,-1.61 0.77,-2.22 0.5,-1.22 0.81,-1.92 0.81,-1.92 0,0 -0.07,0.77 -0.2,2.05 -0.11,0.65 -0.16,1.42 -0.2,2.33 -0.11,0.9 -0.16,1.87 -0.18,2.96 -0.07,1.09 0.02,2.24 0.02,3.47 0.11,1.24 0.24,2.49 0.48,3.79 0.11,0.63 0.3,1.27 0.43,1.92 0.24,0.63 0.43,1.27 0.67,1.89 0.5,1.22 1.09,2.49 1.89,3.55 1.46,2.26 3.59,4.08 5.75,5.49 2.23,1.37 4.53,2.35 6.59,3.09 4.1,1.37 7.09,1.83 7.09,1.83 0,0 -0.74,0.13 -2.05,0.22 -1.31,0.05 -3.23,0.05 -5.47,-0.34 -1.13,-0.2 -2.35,-0.48 -3.62,-0.88 -1.24,-0.39 -2.57,-0.88 -3.86,-1.58 -1.29,-0.7 -2.62,-1.49 -3.79,-2.55 -1.17,-1.02 -2.28,-2.22 -3.21,-3.52 -0.92,-1.33 -1.58,-2.82 -2.14,-4.27 -0.52,-1.49 -0.81,-2.98 -0.98,-4.43 -0.17,-1.5 -0.15,-2.92 -0.1,-4.22z"/>
   <rect class="fil0" x="-0" y="9.85" width="2049.3" height="9.35"/>
   <rect class="fil0" x="-0" y="0" width="2049.3" height="3.03"/>
  </g>
 </g>
</svg>
