<?xml version="1.0" encoding="UTF-8"?>
<!DOCTYPE svg PUBLIC "-//W3C//DTD SVG 1.1//EN" "http://www.w3.org/Graphics/SVG/1.1/DTD/svg11.dtd">
<!-- Creator: CorelDRAW -->
<svg xmlns="http://www.w3.org/2000/svg" xml:space="preserve" width="27.7771mm" height="6.9051mm" version="1.1" style="shape-rendering:geometricPrecision; text-rendering:geometricPrecision; image-rendering:optimizeQuality; fill-rule:evenodd; clip-rule:evenodd"
viewBox="0 0 1078.73 268.16"
 xmlns:xlink="http://www.w3.org/1999/xlink"
 xmlns:xodm="http://www.corel.com/coreldraw/odm/2003">
 <defs>
  <style type="text/css">
   <![CDATA[
    .fil0 {fill:#FAF0DE;fill-rule:nonzero}
   ]]>
  </style>
 </defs>
 <g id="Layer_x0020_1">
  <metadata id="CorelCorpID_0Corel-Layer"/>
  <g id="_1557177296048">
   <g>
    <path class="fil0" d="M811.37 145.79c0,0 1.52,0.23 4.37,0.68 2.83,0.48 7.02,1.32 12.23,2.83 5.19,1.46 11.43,3.77 18.29,7.08 6.84,3.35 14.17,7.89 21.74,13.3 7.52,5.47 15.32,11.76 23.7,17.83 8.38,6.1 17.65,11.59 27.98,15.38 5.19,1.86 10.57,3.37 16.09,4.23 5.43,0.8 11.08,0.86 16.46,-0.13 5.38,-1 10.61,-2.98 15.16,-6.05 4.56,-3.06 8.45,-7.14 11.23,-11.9 2.78,-4.71 4.52,-10.13 4.71,-15.4 0.25,-5.67 -0.52,-11.29 -2.27,-16.51 -1.79,-5.19 -4.66,-9.88 -8.46,-13.58 -3.81,-3.69 -8.5,-6.34 -13.53,-8.02 -2.54,-0.84 -5.1,-1.44 -7.77,-1.84 -2.42,-0.33 -5.08,-0.39 -7.48,-0.1 -4.9,0.56 -9.4,2.6 -12.62,5.87 -3.25,3.25 -5.03,7.65 -5.47,12.09 -0.21,2.24 -0.11,4.49 0.33,6.64 0.4,1.94 1.27,4 2.33,5.79 2.14,3.66 5.16,6.65 8.48,8.62 1.65,0.99 3.42,1.74 5.17,2.12 1.88,0.4 3.64,0.56 5.32,0.43 3.42,-0.21 6.33,-1.8 7.94,-4.21 1.59,-2.42 2.14,-5.24 1.35,-7.51 -0.73,-2.33 -2.42,-4.04 -4.12,-4.95 -1.77,-0.94 -3.53,-0.97 -4.88,-0.63 -2.73,0.78 -3.71,2.23 -3.77,2.14 0.09,0.09 0.84,-1.44 3.64,-2.6 1.35,-0.51 3.37,-0.71 5.44,0.1 2.05,0.8 4.19,2.57 5.36,5.3 0.57,1.34 0.89,3.02 0.67,4.61 -0.21,1.67 -0.75,3.27 -1.7,4.83 -1.83,3.1 -5.56,5.38 -9.64,5.76 -2.03,0.24 -4.15,0.09 -6.19,-0.26 -2.16,-0.33 -4.25,-1.09 -6.27,-2.1 -4,-2.07 -7.65,-5.27 -10.41,-9.42 -1.39,-2.09 -2.52,-4.36 -3.21,-7.09 -0.64,-2.53 -0.89,-5.17 -0.77,-7.91 0.22,-5.41 2.21,-11.19 6.23,-15.65 3.96,-4.54 9.84,-7.37 15.9,-8.27 3.06,-0.44 6.07,-0.5 9.27,-0.17 2.91,0.33 5.92,0.89 8.9,1.77 5.94,1.73 11.83,4.73 16.59,9.25 4.85,4.44 8.48,10.19 10.73,16.36 2.25,6.17 3.31,12.82 3.15,19.35 -0.19,6.98 -2.37,13.58 -5.73,19.46 -3.38,5.84 -8.12,10.89 -13.68,14.72 -5.58,3.8 -11.96,6.31 -18.44,7.47 -6.5,1.15 -13.02,1.03 -19.31,0.05 -6.17,-0.97 -12.05,-2.71 -17.67,-4.83 -11.3,-4.23 -21.03,-10.71 -29.5,-17.26 -8.5,-6.59 -15.8,-13.34 -22.9,-19.03 -7.02,-5.83 -13.77,-10.68 -20.08,-14.46 -6.31,-3.83 -12.16,-6.57 -17.06,-8.64 -4.96,-2.02 -8.92,-3.37 -11.65,-4.25 -2.71,-0.82 -4.18,-1.27 -4.18,-1.27z"/>
    <path class="fil0" d="M811.37 145.79c0,0 1.52,0.23 4.37,0.68 2.83,0.48 7.02,1.32 12.23,2.83 5.19,1.46 11.43,3.77 18.29,7.08 6.84,3.35 14.17,7.89 21.74,13.3 7.52,5.47 15.32,11.76 23.7,17.83 8.38,6.1 17.65,11.59 27.98,15.38 5.19,1.86 10.57,3.37 16.09,4.23 5.43,0.8 11.08,0.86 16.46,-0.13 5.38,-1 10.61,-2.98 15.16,-6.05 4.56,-3.06 8.45,-7.14 11.23,-11.9 2.78,-4.71 4.52,-10.13 4.71,-15.4 0.25,-5.67 -0.52,-11.29 -2.27,-16.51 -1.79,-5.19 -4.66,-9.88 -8.46,-13.58 -3.81,-3.69 -8.5,-6.34 -13.53,-8.02 -2.54,-0.84 -5.1,-1.44 -7.77,-1.84 -2.42,-0.33 -5.08,-0.39 -7.48,-0.1 -4.9,0.56 -9.4,2.6 -12.62,5.87 -3.25,3.25 -5.03,7.65 -5.47,12.09 -0.21,2.24 -0.11,4.49 0.33,6.64 0.4,1.94 1.27,4 2.33,5.79 2.14,3.66 5.16,6.65 8.48,8.62 1.65,0.99 3.42,1.74 5.17,2.12 1.88,0.4 3.64,0.56 5.32,0.43 3.42,-0.21 6.33,-1.8 7.94,-4.21 1.59,-2.42 2.14,-5.24 1.35,-7.51 -0.73,-2.33 -2.42,-4.04 -4.12,-4.95 -1.77,-0.94 -3.53,-0.97 -4.88,-0.63 -2.73,0.78 -3.71,2.23 -3.77,2.14 0.09,0.09 0.84,-1.44 3.64,-2.6 1.35,-0.51 3.37,-0.71 5.44,0.1 2.05,0.8 4.19,2.57 5.36,5.3 0.57,1.34 0.89,3.02 0.67,4.61 -0.21,1.67 -0.75,3.27 -1.7,4.83 -1.83,3.1 -5.56,5.38 -9.64,5.76 -2.03,0.24 -4.15,0.09 -6.19,-0.26 -2.16,-0.33 -4.25,-1.09 -6.27,-2.1 -4,-2.07 -7.65,-5.27 -10.41,-9.42 -1.39,-2.09 -2.52,-4.36 -3.21,-7.09 -0.64,-2.53 -0.89,-5.17 -0.77,-7.91 0.22,-5.41 2.21,-11.19 6.23,-15.65 3.96,-4.54 9.84,-7.37 15.9,-8.27 3.06,-0.44 6.07,-0.5 9.27,-0.17 2.91,0.33 5.92,0.89 8.9,1.77 5.94,1.73 11.83,4.73 16.59,9.25 4.85,4.44 8.48,10.19 10.73,16.36 2.25,6.17 3.31,12.82 3.15,19.35 -0.19,6.98 -2.37,13.58 -5.73,19.46 -3.38,5.84 -8.12,10.89 -13.68,14.72 -5.58,3.8 -11.96,6.31 -18.44,7.47 -6.5,1.15 -13.02,1.03 -19.31,0.05 -6.17,-0.97 -12.05,-2.71 -17.67,-4.83 -11.3,-4.23 -21.03,-10.71 -29.5,-17.26 -8.5,-6.59 -15.8,-13.34 -22.9,-19.03 -7.02,-5.83 -13.77,-10.68 -20.08,-14.46 -6.31,-3.83 -12.16,-6.57 -17.06,-8.64 -4.96,-2.02 -8.92,-3.37 -11.65,-4.25 -2.71,-0.82 -4.18,-1.27 -4.18,-1.27z"/>
    <path class="fil0" d="M678.65 167.03c-14.46,14.94 -28.8,32.92 -37.96,52.31 0,0 17.26,-21.89 42.37,-44.63 -0.1,-4.41 -2.34,-6.57 -4.42,-7.69z"/>
    <path class="fil0" d="M1062.15 150.16c0,0 3.93,-16.07 -12.65,-16.07 -23.88,0 -24.36,26.31 -46.59,36.02 -2.3,1.03 -5.12,2.26 -8.4,3.47 0,0.1 0.02,0.22 0.02,0.31 -0.13,4.75 -1.1,9.44 -2.89,14.02 40.52,-10.9 54.53,-38.5 87.08,-26.05 -0,0 -5.37,-10.22 -16.57,-11.7z"/>
    <path class="fil0" d="M985.98 176.35c-0.57,4.66 -2.16,9.5 -4.7,13.84 1.1,-0.17 2.14,-0.36 3.18,-0.57 2.29,-4.56 3.64,-9.25 4.04,-14 -0.82,0.27 -1.66,0.49 -2.52,0.73z"/>
    <path class="fil0" d="M812.46 131.25c55.46,19.25 90.54,62.13 149.33,60.83 4.1,-0.09 8,-0.37 11.69,-0.77 0.97,-1.21 1.83,-2.42 2.62,-3.73 1.81,-3.09 3.07,-6.46 3.75,-9.77 -7.48,1.52 -16.24,2.34 -26.37,1.54 -1.72,0.83 -3.62,1.37 -5.58,1.56 -2.03,0.23 -4.46,0.11 -6.92,-0.27 -2.27,-0.37 -4.68,-1.17 -7.1,-2.42 -2.02,-1.04 -3.88,-2.34 -5.61,-3.83 -16.42,-5.06 -35.27,-14.31 -56.61,-30.05 0,0 26.3,0.96 38.95,-24.87 0,0 -12.46,8.14 -30.87,5.14 -0.29,0.32 -0.54,0.62 -0.9,0.94 -1.88,1.94 -4.75,4.14 -7.94,5.66 -0.77,0.4 -1.63,0.67 -2.4,0.99 -0.79,0.34 -1.61,0.51 -2.4,0.76 -0.75,0.23 -1.58,0.33 -2.29,0.5 -0.71,0.16 -1.42,0.19 -2.05,0.25 -1.27,0.17 -2.34,0.12 -3.07,0.12 -0.75,0 -1.17,0 -1.17,0 0,0 0.42,-0.07 1.13,-0.19 0.75,-0.1 1.79,-0.24 3,-0.61 0.59,-0.17 1.27,-0.31 1.92,-0.57 0.66,-0.26 1.39,-0.46 2.1,-0.81 0.67,-0.37 1.41,-0.64 2.12,-1.07 0.69,-0.43 1.41,-0.8 2.03,-1.29 2.4,-1.67 4.42,-3.75 5.79,-5.57 -3.73,-0.91 -7.65,-2.25 -11.76,-4.26 -2.65,-1.32 -5.32,-2.67 -7.99,-4.04 -0.19,0.09 -0.35,0.19 -0.56,0.31 -1.06,0.61 -2.38,1.17 -3.75,1.83 -0.69,0.35 -1.46,0.56 -2.19,0.87 -0.77,0.28 -1.52,0.59 -2.27,0.83 -0.79,0.22 -1.58,0.42 -2.37,0.64 -0.75,0.19 -1.52,0.47 -2.27,0.54 -0.73,0.1 -1.48,0.22 -2.16,0.33 -0.69,0.06 -1.3,0.26 -1.94,0.22 -2.38,-0.04 -3.98,-0.06 -3.98,-0.06 0,0 1.57,-0.25 3.88,-0.62 0.57,-0.06 1.19,-0.36 1.85,-0.54 0.62,-0.21 1.29,-0.42 1.96,-0.67 0.71,-0.19 1.39,-0.56 2.1,-0.86 0.67,-0.33 1.37,-0.66 2.05,-0.97 0.67,-0.36 1.35,-0.78 2,-1.17 0.66,-0.39 1.3,-0.72 1.9,-1.15 0.69,-0.5 1.35,-0.97 1.98,-1.43 -6.11,-3.09 -12.31,-6.1 -18.75,-8.43 0,0.02 -0.02,0.02 -0.02,0.02 -0.44,0.4 -0.97,0.77 -1.52,1.18 -0.57,0.39 -1.08,0.85 -1.75,1.2 -0.66,0.35 -1.3,0.72 -1.98,1.1 -0.64,0.43 -1.41,0.63 -2.14,0.96 -0.71,0.29 -1.41,0.57 -2.1,0.85 -0.75,0.17 -1.46,0.36 -2.17,0.51 -0.67,0.17 -1.32,0.33 -1.98,0.48 -0.64,0.17 -1.27,0.13 -1.81,0.21 -2.25,0.19 -3.73,0.33 -3.73,0.33 0,0 1.44,-0.4 3.58,-0.99 0.52,-0.17 1.11,-0.27 1.7,-0.54 0.59,-0.26 1.19,-0.54 1.81,-0.81 0.59,-0.27 1.25,-0.57 1.88,-0.86 0.62,-0.38 1.21,-0.77 1.81,-1.14 0.62,-0.41 1.27,-0.7 1.77,-1.2 0.52,-0.45 1.04,-0.9 1.55,-1.32 0.5,-0.36 0.89,-0.82 1.29,-1.25 -12.19,-3.77 -25.36,-4.7 -40.67,0.94l2.29 0.72c0.57,0.19 14.23,4.64 19.42,17.09 1.14,2.75 1.76,5.66 1.89,8.69z"/>
    <path class="fil0" d="M804.91 149.2c16.08,-31.18 -14.63,-40.94 -14.63,-40.94 5.84,20.96 -21.92,38.49 -44.15,41.9 -22.23,3.42 -41.62,20.95 -41.62,20.95 1.46,-8.77 -4.17,-15.37 -15.58,-16.55 -14.13,-1.47 -26.3,12.19 -26.3,12.19 7.81,-6.82 23.4,-4.88 23.4,8.28 0,13.15 -11.52,32.97 -39.01,56.02 -36.99,31.04 -76.95,33.12 -76.95,33.12 67.84,14.52 90.63,-35.07 123.25,-48.22 32.65,-13.15 36.54,12.68 36.54,12.68 14.61,-31.68 -16.44,-37.02 -16.44,-37.02 0,0 23.26,-14.15 46.17,-13.17 22.9,0.97 18.52,26.3 18.52,26.3 24.87,-11.19 16.57,-35.08 16.57,-35.08 0,0 26.35,1.44 29.24,26.8 1.72,14.99 -2.94,28.27 -20.55,34.73 -19.46,7.13 -34.05,-3.53 -34.05,-3.53 10.73,15.6 71.17,21.92 78.47,-23.39 7.29,-45.33 -42.87,-55.07 -42.87,-55.07zm-109.22 24.26c-0.09,0.7 -0.17,1.08 -0.17,1.08 0,0 -0.17,-0.37 -0.4,-1.03 -0.25,-0.64 -0.46,-1.58 -0.97,-2.63 -0.22,-0.51 -0.37,-1.07 -0.66,-1.63 -0.31,-0.57 -0.59,-1.15 -0.9,-1.74 -0.38,-0.54 -0.75,-1.12 -1.13,-1.69 -0.46,-0.48 -0.81,-1.1 -1.37,-1.52 -0.92,-1.04 -2.12,-1.77 -3.25,-2.49 -0.59,-0.28 -1.13,-0.67 -1.74,-0.9 -0.54,-0.25 -1.1,-0.48 -1.63,-0.68 -2.12,-0.8 -3.67,-1.16 -3.67,-1.16 0,0 1.54,-0.63 4,-0.47 1.25,0.03 2.69,0.36 4.17,0.89 0.68,0.37 1.5,0.62 2.16,1.13 0.73,0.44 1.39,0.97 2.03,1.59 0.64,0.56 1.08,1.35 1.61,2 0.48,0.69 0.75,1.46 1.12,2.17 0.29,0.74 0.46,1.48 0.66,2.17 0.17,0.69 0.17,1.39 0.25,1.98 0.2,1.21 -0.05,2.23 -0.11,2.92zm19.6 27.98c0.79,0.06 1.65,0.22 2.48,0.4 0.82,0.29 1.7,0.48 2.5,0.89 1.61,0.75 3.11,1.81 4.25,3.03 0.64,0.54 1.04,1.29 1.46,1.88 0.48,0.59 0.75,1.26 1,1.87 0.25,0.59 0.52,1.12 0.62,1.63 0.11,0.54 0.22,0.97 0.27,1.32 0.11,0.75 0.17,1.13 0.17,1.13 0,0 -0.27,-0.31 -0.71,-0.9 -0.19,-0.28 -0.44,-0.64 -0.75,-1.06 -0.23,-0.4 -0.67,-0.79 -1.02,-1.25 -0.38,-0.44 -0.79,-0.94 -1.27,-1.39 -0.48,-0.44 -0.94,-0.96 -1.52,-1.35 -0.56,-0.43 -1.1,-0.86 -1.75,-1.22 -0.62,-0.43 -1.29,-0.74 -1.94,-1.03 -0.66,-0.4 -1.41,-0.57 -2.12,-0.84 -0.69,-0.17 -1.37,-0.44 -2.1,-0.59 -1.41,-0.33 -2.75,-0.51 -3.95,-0.69 -2.37,-0.27 -4.08,-0.36 -4.08,-0.36 0,0 1.52,-0.87 4.02,-1.3 1.28,-0.19 2.8,-0.34 4.43,-0.16zm72.62 -13.27c-0.27,0.86 -0.57,1.7 -0.82,2.42 -0.37,0.73 -0.75,1.39 -1.08,1.98 -0.62,1.25 -1.48,2.05 -1.96,2.69 -0.52,0.59 -0.83,0.92 -0.83,0.92 0,0 0.09,-0.45 0.35,-1.21 0.17,-0.79 0.66,-1.79 0.9,-3.04 0.13,-0.66 0.33,-1.32 0.54,-2.03 0.09,-0.7 0.22,-1.46 0.35,-2.22 0.16,-0.75 0.08,-1.56 0.16,-2.35 0,-0.79 -0.06,-1.58 -0.17,-2.37 -0.16,-0.77 -0.22,-1.56 -0.5,-2.3 -0.25,-0.76 -0.52,-1.48 -0.84,-2.16 -0.67,-1.35 -1.42,-2.62 -2.23,-3.62 -0.79,-1.02 -1.52,-1.83 -2.05,-2.38 -0.52,-0.57 -0.86,-0.91 -0.86,-0.91 0,0 1.85,0.38 4.08,2.1 0.59,0.41 1.14,0.94 1.7,1.53 0.57,0.59 1.13,1.25 1.59,2.02 0.48,0.76 0.97,1.57 1.27,2.49 0.4,0.9 0.56,1.87 0.75,2.83 0.11,0.96 0.16,1.94 0.11,2.89 -0.12,0.95 -0.24,1.9 -0.43,2.74zm12.38 -56.36c-0.11,0.54 -0.19,1.11 -0.35,1.67l-0.54 1.64c-0.37,1.13 -1.08,2.07 -1.57,3.07 -0.59,0.97 -1.41,1.77 -2.05,2.62 -0.75,0.75 -1.56,1.42 -2.29,2.03 -0.73,0.62 -1.56,1.01 -2.29,1.46 -1.39,0.92 -2.75,1.26 -3.65,1.63 -0.9,0.32 -1.41,0.46 -1.41,0.46 0,0 0.42,-0.35 1.13,-0.97 0.71,-0.66 1.85,-1.35 2.96,-2.5 0.56,-0.54 1.21,-1.08 1.81,-1.74 0.57,-0.66 1.17,-1.37 1.79,-2.07 0.52,-0.78 1.06,-1.58 1.58,-2.42 0.4,-0.89 1,-1.7 1.27,-2.66l0.52 -1.4 0.31 -1.43c0.31,-0.94 0.35,-1.92 0.5,-2.85 0,-0.92 0.16,-1.86 0.08,-2.75 0,-0.89 -0.06,-1.72 -0.11,-2.5 -0.31,-3.12 -0.86,-5.25 -0.86,-5.25 0,0 1.46,1.7 2.5,4.91 0.25,0.79 0.5,1.67 0.66,2.63 0.24,0.94 0.25,1.98 0.33,3.06 -0.12,1.07 -0.03,2.21 -0.32,3.32zm38.21 65.37c-0.04,1.13 -0.06,2.26 -0.08,3.37 -0.25,2.23 -0.83,4.37 -1.21,6.38 -0.77,1.98 -1.54,3.84 -2.27,5.62 -0.81,1.67 -1.87,3.15 -2.75,4.54 -0.4,0.69 -0.84,1.34 -1.25,1.97 -0.46,0.59 -0.94,1.11 -1.39,1.61 -0.89,0.97 -1.63,1.82 -2.29,2.53 -1.27,1.39 -2.03,2.14 -2.03,2.14 0,0 0.48,-0.97 1.35,-2.65 0.42,-0.79 0.97,-1.79 1.57,-2.93 0.31,-0.56 0.66,-1.15 0.97,-1.82 0.29,-0.65 0.56,-1.34 0.86,-2.07 0.57,-1.46 1.32,-2.97 1.92,-4.6 0.48,-1.72 0.94,-3.5 1.54,-5.3 0.23,-1.85 0.5,-3.78 0.75,-5.72 -0.04,-0.97 -0.04,-1.95 -0.06,-2.93l0 -1.48 -0.23 -1.48 -0.44 -2.93c-0.33,-0.94 -0.62,-1.87 -0.9,-2.8l-0.4 -1.41 -0.59 -1.32c-0.39,-0.89 -0.73,-1.77 -1.17,-2.63 -1,-1.59 -1.79,-3.28 -2.85,-4.68 -0.97,-1.48 -2.02,-2.8 -3.02,-3.98 -1.98,-2.39 -3.82,-4.31 -5.17,-5.6 -1.32,-1.29 -2.19,-1.99 -2.19,-1.99 0,0 1.06,0.37 2.69,1.3 1.65,0.91 3.98,2.35 6.46,4.51 1.23,1.08 2.6,2.27 3.79,3.74 1.35,1.36 2.42,3.07 3.64,4.78 0.54,0.91 1.02,1.86 1.52,2.83l0.79 1.46 0.54 1.56c0.35,1.07 0.71,2.14 1.06,3.22l0.57 3.36 0.27 1.7 -0 1.69 0.01 0z"/>
    <path class="fil0" d="M787.44 109.05l-0.94 -3.4c-4.85,1.98 -9.91,4.57 -15.23,7.98 0,0 13.17,-34.63 -17.52,-49.25 -30.52,-14.52 -62.4,8.83 -62.87,26.36 0,0 16.55,-22.91 38.02,-10.72 21.43,12.17 9.73,38.49 -7.32,50.18 -6.38,4.37 -16.55,12.09 -27.83,22.24 4,1 7.3,2.77 9.67,5.25 25.03,-19.2 54.31,-35.02 81.45,-33.08 3.16,-5.14 4.04,-10.36 2.57,-15.58zm-28.34 -10.89c-0.17,1.88 -0.33,3.65 -0.69,5.22 -0.31,1.6 -0.69,3.02 -1.1,4.25 -0.33,1.26 -0.73,2.34 -1.12,3.21 -0.67,1.74 -1.13,2.68 -1.13,2.68 0,0 0.09,-1.07 0.29,-2.89 0.13,-0.92 0.19,-2.03 0.29,-3.29 0.16,-1.27 0.22,-2.69 0.23,-4.25 0.13,-1.54 -0.02,-3.2 -0.02,-4.94 -0.16,-1.74 -0.33,-3.55 -0.69,-5.36 -0.11,-0.91 -0.44,-1.81 -0.64,-2.73 -0.31,-0.89 -0.62,-1.79 -0.92,-2.71 -0.73,-1.74 -1.54,-3.5 -2.69,-5.04 -2.07,-3.22 -5.12,-5.77 -8.21,-7.77 -3.15,-1.99 -6.44,-3.37 -9.33,-4.4 -5.87,-1.97 -10.09,-2.64 -10.09,-2.64 0,0 1.06,-0.19 2.92,-0.27 1.86,-0.07 4.54,-0.06 7.77,0.49 1.59,0.26 3.33,0.65 5.14,1.2 1.79,0.61 3.67,1.25 5.52,2.27 1.83,1.02 3.71,2.12 5.36,3.64 1.7,1.44 3.27,3.13 4.56,5.03 1.3,1.85 2.23,3.96 3.06,6.04 0.71,2.1 1.15,4.26 1.37,6.33 0.28,2.06 0.22,4.05 0.13,5.92z"/>
    <path class="fil0" d="M267.36 145.79c0,0 -1.52,0.23 -4.39,0.68 -2.8,0.48 -7.02,1.32 -12.19,2.83 -5.25,1.46 -11.46,3.77 -18.32,7.08 -6.82,3.35 -14.17,7.89 -21.73,13.3 -7.56,5.47 -15.34,11.76 -23.75,17.83 -8.34,6.1 -17.65,11.59 -27.96,15.38 -5.17,1.86 -10.57,3.37 -16.11,4.23 -5.41,0.8 -11.04,0.86 -16.42,-0.13 -5.38,-1 -10.63,-2.98 -15.18,-6.05 -4.55,-3.06 -8.45,-7.14 -11.25,-11.9 -2.75,-4.71 -4.5,-10.13 -4.7,-15.4 -0.25,-5.67 0.52,-11.29 2.27,-16.51 1.79,-5.19 4.66,-9.88 8.46,-13.58 3.81,-3.69 8.5,-6.34 13.55,-8.02 2.5,-0.84 5.08,-1.44 7.77,-1.84 2.4,-0.33 5.06,-0.39 7.48,-0.1 4.88,0.56 9.4,2.6 12.6,5.87 3.25,3.25 5.03,7.65 5.47,12.09 0.22,2.24 0.11,4.49 -0.33,6.64 -0.39,1.94 -1.27,4 -2.33,5.79 -2.12,3.66 -5.15,6.65 -8.48,8.62 -1.65,0.99 -3.42,1.74 -5.17,2.12 -1.88,0.4 -3.64,0.56 -5.32,0.43 -3.42,-0.21 -6.31,-1.8 -7.92,-4.21 -1.61,-2.42 -2.16,-5.24 -1.37,-7.51 0.73,-2.33 2.42,-4.04 4.11,-4.95 1.79,-0.94 3.55,-0.97 4.88,-0.63 2.73,0.78 3.71,2.23 3.75,2.14 -0.06,0.09 -0.82,-1.44 -3.62,-2.6 -1.35,-0.51 -3.36,-0.71 -5.47,0.1 -2.03,0.8 -4.17,2.57 -5.36,5.3 -0.56,1.34 -0.86,3.02 -0.66,4.61 0.22,1.67 0.77,3.27 1.72,4.83 1.83,3.1 5.56,5.38 9.64,5.76 2.03,0.24 4.15,0.09 6.19,-0.26 2.16,-0.33 4.25,-1.09 6.27,-2.1 4,-2.07 7.65,-5.27 10.4,-9.42 1.41,-2.09 2.52,-4.36 3.22,-7.09 0.64,-2.53 0.89,-5.17 0.77,-7.91 -0.22,-5.41 -2.21,-11.19 -6.23,-15.65 -3.95,-4.54 -9.84,-7.37 -15.91,-8.27 -3.06,-0.44 -6.06,-0.5 -9.27,-0.17 -2.91,0.33 -5.94,0.89 -8.91,1.77 -5.94,1.73 -11.83,4.73 -16.59,9.25 -4.85,4.44 -8.48,10.19 -10.75,16.36 -2.23,6.17 -3.29,12.82 -3.13,19.35 0.22,6.98 2.37,13.58 5.73,19.46 3.36,5.84 8.12,10.89 13.67,14.72 5.58,3.8 11.96,6.31 18.44,7.47 6.5,1.15 13.04,1.03 19.29,0.05 6.17,-0.97 12.07,-2.71 17.7,-4.83 11.29,-4.23 21.01,-10.71 29.5,-17.26 8.48,-6.59 15.78,-13.34 22.88,-19.03 7.02,-5.83 13.77,-10.68 20.08,-14.46 6.31,-3.83 12.17,-6.57 17.06,-8.64 4.96,-2.02 8.9,-3.37 11.65,-4.25 2.77,-0.82 4.27,-1.27 4.27,-1.27z"/>
    <path class="fil0" d="M267.36 145.79c0,0 -1.52,0.23 -4.39,0.68 -2.8,0.48 -7.02,1.32 -12.19,2.83 -5.25,1.46 -11.46,3.77 -18.32,7.08 -6.82,3.35 -14.17,7.89 -21.73,13.3 -7.56,5.47 -15.34,11.76 -23.75,17.83 -8.34,6.1 -17.65,11.59 -27.96,15.38 -5.17,1.86 -10.57,3.37 -16.11,4.23 -5.41,0.8 -11.04,0.86 -16.42,-0.13 -5.38,-1 -10.63,-2.98 -15.18,-6.05 -4.55,-3.06 -8.45,-7.14 -11.25,-11.9 -2.75,-4.71 -4.5,-10.13 -4.7,-15.4 -0.25,-5.67 0.52,-11.29 2.27,-16.51 1.79,-5.19 4.66,-9.88 8.46,-13.58 3.81,-3.69 8.5,-6.34 13.55,-8.02 2.5,-0.84 5.08,-1.44 7.77,-1.84 2.4,-0.33 5.06,-0.39 7.48,-0.1 4.88,0.56 9.4,2.6 12.6,5.87 3.25,3.25 5.03,7.65 5.47,12.09 0.22,2.24 0.11,4.49 -0.33,6.64 -0.39,1.94 -1.27,4 -2.33,5.79 -2.12,3.66 -5.15,6.65 -8.48,8.62 -1.65,0.99 -3.42,1.74 -5.17,2.12 -1.88,0.4 -3.64,0.56 -5.32,0.43 -3.42,-0.21 -6.31,-1.8 -7.92,-4.21 -1.61,-2.42 -2.16,-5.24 -1.37,-7.51 0.73,-2.33 2.42,-4.04 4.11,-4.95 1.79,-0.94 3.55,-0.97 4.88,-0.63 2.73,0.78 3.71,2.23 3.75,2.14 -0.06,0.09 -0.82,-1.44 -3.62,-2.6 -1.35,-0.51 -3.36,-0.71 -5.47,0.1 -2.03,0.8 -4.17,2.57 -5.36,5.3 -0.56,1.34 -0.86,3.02 -0.66,4.61 0.22,1.67 0.77,3.27 1.72,4.83 1.83,3.1 5.56,5.38 9.64,5.76 2.03,0.24 4.15,0.09 6.19,-0.26 2.16,-0.33 4.25,-1.09 6.27,-2.1 4,-2.07 7.65,-5.27 10.4,-9.42 1.41,-2.09 2.52,-4.36 3.22,-7.09 0.64,-2.53 0.89,-5.17 0.77,-7.91 -0.22,-5.41 -2.21,-11.19 -6.23,-15.65 -3.95,-4.54 -9.84,-7.37 -15.91,-8.27 -3.06,-0.44 -6.06,-0.5 -9.27,-0.17 -2.91,0.33 -5.94,0.89 -8.91,1.77 -5.94,1.73 -11.83,4.73 -16.59,9.25 -4.85,4.44 -8.48,10.19 -10.75,16.36 -2.23,6.17 -3.29,12.82 -3.13,19.35 0.22,6.98 2.37,13.58 5.73,19.46 3.36,5.84 8.12,10.89 13.67,14.72 5.58,3.8 11.96,6.31 18.44,7.47 6.5,1.15 13.04,1.03 19.29,0.05 6.17,-0.97 12.07,-2.71 17.7,-4.83 11.29,-4.23 21.01,-10.71 29.5,-17.26 8.48,-6.59 15.78,-13.34 22.88,-19.03 7.02,-5.83 13.77,-10.68 20.08,-14.46 6.31,-3.83 12.17,-6.57 17.06,-8.64 4.96,-2.02 8.9,-3.37 11.65,-4.25 2.77,-0.82 4.27,-1.27 4.27,-1.27z"/>
    <path class="fil0" d="M400.07 167.03c14.46,14.94 28.8,32.92 37.93,52.31 0,0 -17.25,-21.89 -42.34,-44.63 0.09,-4.41 2.32,-6.57 4.41,-7.69z"/>
    <path class="fil0" d="M16.57 150.16c0,0 -3.93,-16.07 12.67,-16.07 23.86,0 24.36,26.31 46.56,36.02 2.31,1.03 5.16,2.26 8.43,3.47 0,0.1 -0.02,0.22 -0.02,0.31 0.16,4.75 1.11,9.44 2.87,14.02 -40.49,-10.9 -54.51,-38.5 -87.06,-26.05 -0.01,0 5.37,-10.22 16.56,-11.7z"/>
    <path class="fil0" d="M92.76 176.35c0.56,4.66 2.14,9.5 4.66,13.84 -1.06,-0.17 -2.14,-0.36 -3.15,-0.57 -2.27,-4.56 -3.64,-9.25 -4.04,-14 0.82,0.27 1.66,0.49 2.54,0.73z"/>
    <path class="fil0" d="M266.25 131.25c-55.46,19.25 -90.56,62.13 -149.31,60.83 -4.13,-0.09 -8,-0.37 -11.71,-0.77 -0.94,-1.21 -1.85,-2.42 -2.62,-3.73 -1.81,-3.09 -3.07,-6.46 -3.75,-9.77 7.48,1.52 16.24,2.34 26.37,1.54 1.73,0.83 3.62,1.37 5.58,1.56 2.03,0.23 4.46,0.11 6.92,-0.27 2.27,-0.37 4.68,-1.17 7.1,-2.42 2.02,-1.04 3.88,-2.34 5.63,-3.83 16.38,-5.06 35.24,-14.31 56.59,-30.05 0,0 -26.28,0.96 -38.97,-24.87 0,0 12.47,8.14 30.88,5.14 0.29,0.32 0.54,0.62 0.89,0.94 1.88,1.94 4.77,4.14 7.97,5.66 0.77,0.4 1.63,0.67 2.4,0.99 0.79,0.34 1.61,0.51 2.4,0.76 0.77,0.23 1.58,0.33 2.29,0.5 0.73,0.16 1.41,0.19 2.05,0.25 1.27,0.17 2.34,0.12 3.07,0.12 0.75,0 1.17,0 1.17,0 0,0 -0.42,-0.07 -1.15,-0.19 -0.73,-0.1 -1.77,-0.24 -2.96,-0.61 -0.62,-0.17 -1.29,-0.31 -1.94,-0.57 -0.66,-0.26 -1.39,-0.46 -2.1,-0.81 -0.68,-0.37 -1.41,-0.64 -2.12,-1.07 -0.68,-0.43 -1.41,-0.8 -2.05,-1.29 -2.4,-1.67 -4.42,-3.75 -5.76,-5.57 3.75,-0.91 7.65,-2.25 11.76,-4.26 2.67,-1.32 5.32,-2.67 8.02,-4.04 0.17,0.09 0.35,0.19 0.54,0.31 1.08,0.61 2.4,1.17 3.75,1.83 0.69,0.35 1.46,0.56 2.21,0.87 0.75,0.28 1.48,0.59 2.25,0.83 0.79,0.22 1.58,0.42 2.37,0.64 0.75,0.19 1.5,0.47 2.27,0.54 0.73,0.1 1.48,0.22 2.16,0.33 0.69,0.06 1.3,0.26 1.94,0.22 2.38,-0.04 3.98,-0.06 3.98,-0.06 0,0 -1.57,-0.25 -3.88,-0.62 -0.57,-0.06 -1.19,-0.36 -1.83,-0.54 -0.64,-0.21 -1.3,-0.42 -2,-0.67 -0.69,-0.19 -1.37,-0.56 -2.05,-0.86 -0.69,-0.33 -1.39,-0.66 -2.1,-0.97 -0.66,-0.36 -1.32,-0.78 -1.96,-1.17 -0.66,-0.39 -1.32,-0.72 -1.92,-1.15 -0.67,-0.5 -1.35,-0.97 -1.98,-1.43 6.11,-3.09 12.33,-6.1 18.75,-8.43 0,0.02 0.02,0.02 0.02,0.02 0.44,0.4 1,0.77 1.52,1.18 0.56,0.39 1.1,0.85 1.77,1.2 0.66,0.35 1.29,0.72 1.96,1.1 0.66,0.43 1.43,0.63 2.12,0.96 0.73,0.29 1.44,0.57 2.12,0.85 0.75,0.17 1.44,0.36 2.19,0.51 0.66,0.17 1.35,0.33 1.94,0.48 0.66,0.17 1.29,0.13 1.83,0.21 2.25,0.19 3.73,0.33 3.73,0.33 0,0 -1.44,-0.4 -3.58,-0.99 -0.51,-0.17 -1.12,-0.27 -1.7,-0.54 -0.57,-0.26 -1.19,-0.54 -1.81,-0.81 -0.59,-0.27 -1.25,-0.57 -1.9,-0.86 -0.59,-0.38 -1.21,-0.77 -1.79,-1.14 -0.59,-0.41 -1.25,-0.7 -1.77,-1.2 -0.54,-0.45 -1.04,-0.9 -1.56,-1.32 -0.5,-0.36 -0.9,-0.82 -1.3,-1.25 12.21,-3.77 25.38,-4.7 40.69,0.94l-2.29 0.72c-0.59,0.19 -14.23,4.64 -19.42,17.09 -1.14,2.75 -1.76,5.66 -1.89,8.69z"/>
    <path class="fil0" d="M230.93 204.25c7.3,45.3 67.72,38.97 78.47,23.39 0,0 -14.59,10.68 -34.05,3.53 -17.59,-6.46 -22.27,-19.74 -20.54,-34.73 2.89,-25.35 29.22,-26.8 29.22,-26.8 0,0 -8.29,23.89 16.57,35.08 0,0 -4.39,-25.34 18.54,-26.3 22.88,-0.99 46.12,13.17 46.12,13.17 0,0 -31.03,5.34 -16.42,37.02 0,0 3.88,-25.83 36.53,-12.68 32.63,13.15 55.41,62.74 123.25,48.22 0,0 -39.93,-2.07 -76.95,-33.12 -27.48,-23.05 -38.99,-42.87 -38.99,-56.02 0,-13.16 15.6,-15.1 23.39,-8.28 0,0 -12.16,-13.67 -26.3,-12.19 -11.41,1.18 -17.04,7.79 -15.6,16.55 0,0 -19.36,-17.53 -41.57,-20.95 -22.24,-3.4 -50.03,-20.94 -44.16,-41.9 0,0 -30.69,9.75 -14.63,40.94 0.01,0.03 -50.16,9.77 -42.87,55.07zm151.98 -33.7c0.08,-0.59 0.08,-1.29 0.27,-1.98 0.16,-0.68 0.35,-1.42 0.64,-2.17 0.35,-0.7 0.66,-1.47 1.13,-2.17 0.51,-0.66 0.97,-1.44 1.61,-2 0.64,-0.62 1.29,-1.15 2.02,-1.59 0.66,-0.51 1.48,-0.77 2.18,-1.13 1.48,-0.54 2.91,-0.86 4.15,-0.89 2.47,-0.16 4,0.47 4,0.47 0,0 -1.58,0.37 -3.67,1.16 -0.54,0.21 -1.08,0.43 -1.63,0.68 -0.59,0.24 -1.13,0.63 -1.74,0.9 -1.12,0.71 -2.32,1.44 -3.25,2.49 -0.56,0.42 -0.9,1.04 -1.37,1.52 -0.38,0.57 -0.77,1.13 -1.14,1.69 -0.31,0.59 -0.59,1.17 -0.9,1.74 -0.27,0.57 -0.42,1.11 -0.66,1.63 -0.5,1.04 -0.71,1.99 -0.96,2.63 -0.24,0.66 -0.4,1.03 -0.4,1.03 0,0 -0.08,-0.37 -0.19,-1.08 -0.04,-0.7 -0.28,-1.72 -0.08,-2.92zm-15.05 31.05c2.52,0.43 4.02,1.3 4.02,1.3 0,0 -1.72,0.09 -4.08,0.36 -1.19,0.17 -2.54,0.36 -3.95,0.69 -0.73,0.16 -1.41,0.42 -2.12,0.59 -0.69,0.27 -1.43,0.44 -2.07,0.84 -0.67,0.29 -1.35,0.59 -1.94,1.03 -0.64,0.36 -1.21,0.79 -1.77,1.22 -0.57,0.39 -1.04,0.9 -1.52,1.35 -0.48,0.44 -0.89,0.94 -1.27,1.39 -0.35,0.46 -0.79,0.84 -1.02,1.25 -0.31,0.42 -0.56,0.78 -0.75,1.06 -0.44,0.59 -0.71,0.9 -0.71,0.9 0,0 0.06,-0.38 0.16,-1.13 0.07,-0.36 0.17,-0.79 0.29,-1.32 0.09,-0.51 0.37,-1.05 0.62,-1.63 0.23,-0.61 0.52,-1.27 1,-1.87 0.44,-0.57 0.82,-1.35 1.46,-1.88 1.13,-1.22 2.63,-2.28 4.25,-3.03 0.82,-0.4 1.67,-0.59 2.52,-0.89 0.81,-0.19 1.67,-0.35 2.47,-0.4 1.64,-0.18 3.15,-0.04 4.42,0.16zm-77.47 -16.15c-0.04,-0.94 0,-1.92 0.09,-2.89 0.22,-0.97 0.35,-1.92 0.75,-2.83 0.31,-0.92 0.79,-1.73 1.29,-2.49 0.44,-0.78 1.02,-1.44 1.59,-2.02 0.56,-0.59 1.1,-1.12 1.7,-1.53 2.23,-1.72 4.08,-2.1 4.08,-2.1 0,0 -0.35,0.34 -0.86,0.91 -0.54,0.56 -1.27,1.37 -2.05,2.38 -0.81,1 -1.56,2.27 -2.25,3.62 -0.31,0.68 -0.59,1.41 -0.82,2.16 -0.29,0.74 -0.33,1.53 -0.5,2.3 -0.11,0.79 -0.16,1.58 -0.17,2.37 0.08,0.8 0.02,1.6 0.16,2.35 0.16,0.76 0.25,1.52 0.37,2.22 0.17,0.7 0.38,1.38 0.5,2.03 0.27,1.25 0.75,2.25 0.94,3.04 0.23,0.76 0.35,1.21 0.35,1.21 0,0 -0.33,-0.33 -0.84,-0.92 -0.46,-0.64 -1.35,-1.44 -1.94,-2.69 -0.35,-0.59 -0.73,-1.25 -1.12,-1.98 -0.23,-0.73 -0.54,-1.56 -0.79,-2.42 -0.22,-0.85 -0.35,-1.79 -0.45,-2.74zm-12.23 -56.94c0.06,-1.08 0.08,-2.12 0.33,-3.06 0.13,-0.97 0.38,-1.84 0.64,-2.63 1.04,-3.21 2.48,-4.91 2.48,-4.91 0,0 -0.54,2.13 -0.82,5.25 -0.08,0.78 -0.13,1.61 -0.13,2.5 -0.07,0.89 0.07,1.83 0.07,2.75 0.16,0.92 0.22,1.9 0.48,2.85l0.33 1.43 0.54 1.4c0.25,0.97 0.84,1.77 1.25,2.66 0.54,0.82 1.06,1.63 1.56,2.42 0.64,0.71 1.25,1.42 1.81,2.07 0.59,0.66 1.25,1.18 1.81,1.74 1.12,1.15 2.25,1.85 2.96,2.5 0.73,0.62 1.13,0.97 1.13,0.97 0,0 -0.5,-0.14 -1.42,-0.46 -0.89,-0.36 -2.25,-0.71 -3.64,-1.63 -0.73,-0.45 -1.55,-0.84 -2.29,-1.46 -0.73,-0.63 -1.54,-1.29 -2.31,-2.03 -0.64,-0.85 -1.44,-1.64 -2.02,-2.62 -0.52,-1 -1.25,-1.94 -1.59,-3.07l-0.54 -1.64c-0.13,-0.56 -0.25,-1.13 -0.35,-1.67 -0.28,-1.12 -0.19,-2.26 -0.28,-3.32zm-37.91 66.97l0.25 -1.7 0.57 -3.36c0.35,-1.08 0.71,-2.15 1.06,-3.22l0.56 -1.56 0.77 -1.46c0.52,-0.97 1,-1.91 1.52,-2.83 1.21,-1.72 2.29,-3.42 3.64,-4.78 1.21,-1.47 2.54,-2.66 3.8,-3.74 2.47,-2.16 4.77,-3.6 6.44,-4.51 1.65,-0.94 2.67,-1.3 2.67,-1.3 0,0 -0.84,0.7 -2.16,1.99 -1.37,1.27 -3.22,3.21 -5.17,5.6 -1,1.18 -2.05,2.5 -3.02,3.98 -1.1,1.4 -1.85,3.07 -2.87,4.68 -0.44,0.86 -0.77,1.75 -1.17,2.63l-0.59 1.32 -0.42 1.41c-0.27,0.94 -0.57,1.87 -0.86,2.8l-0.46 2.93 -0.25 1.48 0 1.48c0,0.97 0,1.97 -0.04,2.93 0.23,1.94 0.52,3.87 0.77,5.72 0.57,1.81 1.04,3.58 1.52,5.3 0.59,1.63 1.35,3.15 1.92,4.6 0.29,0.73 0.59,1.42 0.84,2.07 0.35,0.66 0.69,1.25 0.99,1.82 0.64,1.13 1.15,2.14 1.59,2.93 0.86,1.67 1.35,2.65 1.35,2.65 0,0 -0.75,-0.75 -2.03,-2.14 -0.66,-0.71 -1.41,-1.55 -2.29,-2.53 -0.44,-0.51 -0.94,-1.03 -1.39,-1.61 -0.38,-0.64 -0.84,-1.27 -1.25,-1.97 -0.89,-1.39 -1.92,-2.87 -2.75,-4.54 -0.73,-1.77 -1.52,-3.64 -2.25,-5.62 -0.42,-2.02 -1,-4.15 -1.23,-6.38 -0.02,-1.12 -0.04,-2.24 -0.06,-3.37l-0 -1.69 0.02 0z"/>
    <path class="fil0" d="M293.86 124.63c27.11,-1.94 56.42,13.86 81.43,33.08 2.38,-2.48 5.67,-4.25 9.67,-5.25 -11.27,-10.15 -21.44,-17.88 -27.83,-22.24 -17.06,-11.69 -28.75,-38.01 -7.3,-50.18 21.44,-12.19 38.02,10.72 38.02,10.72 -0.5,-17.53 -32.38,-40.87 -62.87,-26.36 -30.7,14.61 -17.55,49.25 -17.55,49.25 -5.3,-3.4 -10.38,-6 -15.21,-7.98l-0.94 3.4c-1.47,5.22 -0.61,10.44 2.59,15.58zm25.88 -32.42c0.23,-2.05 0.64,-4.22 1.37,-6.33 0.81,-2.07 1.75,-4.19 3.07,-6.04 1.29,-1.9 2.83,-3.6 4.54,-5.03 1.63,-1.52 3.55,-2.62 5.36,-3.64 1.85,-1.01 3.73,-1.67 5.52,-2.27 1.79,-0.56 3.53,-0.94 5.14,-1.2 3.22,-0.54 5.89,-0.57 7.79,-0.49 1.85,0.07 2.91,0.27 2.91,0.27 0,0 -4.23,0.68 -10.1,2.64 -2.89,1.03 -6.17,2.42 -9.31,4.4 -3.11,1.99 -6.16,4.55 -8.23,7.77 -1.15,1.55 -1.96,3.32 -2.69,5.04 -0.31,0.92 -0.59,1.83 -0.92,2.71 -0.19,0.92 -0.48,1.82 -0.64,2.73 -0.33,1.82 -0.52,3.63 -0.69,5.36 0,1.75 -0.13,3.4 -0.02,4.94 0.02,1.56 0.08,2.98 0.22,4.25 0.11,1.25 0.17,2.37 0.33,3.29 0.17,1.82 0.27,2.89 0.27,2.89 0,0 -0.42,-0.94 -1.13,-2.68 -0.38,-0.85 -0.77,-1.94 -1.11,-3.21 -0.38,-1.23 -0.77,-2.64 -1.1,-4.25 -0.35,-1.57 -0.52,-3.34 -0.71,-5.22 -0.1,-1.84 -0.15,-3.84 0.14,-5.92z"/>
    <path class="fil0" d="M528.37 196.43c0,0 -33.92,-27.13 -29.97,-74.66 3.73,-45.71 -20.54,-68.82 -49.8,-65.86 -29.29,2.92 -28.78,26.58 -28.78,26.58 0,0 -2.45,23.92 25.86,23.92 0,0 -15.13,-3.9 -13.17,-19.04 1.94,-15.13 24.19,-18.52 34.61,-7.32 27.38,29.27 -7.29,82.94 61.25,116.38z"/>
    <path class="fil0" d="M539.38 182.42c0,0 45.04,-50.63 0,-108.33 -45.07,57.71 0,108.33 0,108.33z"/>
    <path class="fil0" d="M502.02 226.42c10.88,2.8 19.22,-1.39 25.27,-7.13 -10.71,27.54 12.09,48.87 12.09,48.87 0,0 22.75,-21.33 12.05,-48.87 6.02,5.74 14.37,9.94 25.23,7.13 25.64,-6.57 20.52,-53.42 20.52,-53.42 -19.02,58.56 -57.8,27.81 -57.8,27.81 0,0 -38.8,30.75 -57.86,-27.81 0,0 -5.13,46.86 20.5,53.42z"/>
    <path class="fil0" d="M550.32 196.43c0,0 33.94,-27.13 30.04,-74.66 -3.77,-45.71 20.46,-68.82 49.76,-65.86 29.29,2.92 28.78,26.58 28.78,26.58 0,0 2.47,23.92 -25.86,23.92 0,0 15.13,-3.9 13.17,-19.04 -1.94,-15.13 -24.19,-18.52 -34.63,-7.32 -27.34,29.27 7.3,82.94 -61.26,116.38z"/>
   </g>
   <path class="fil0" d="M513.49 89.78c2.94,-16.08 20.02,-26.33 25.9,-39.01 5.83,12.69 22.9,22.94 25.84,39.01 0,0 8.29,-19.5 -5.84,-42.93 -13.22,-21.91 -20,-46.85 -20,-46.85 0,0 -6.8,24.94 -20.06,46.85 -14.14,23.44 -5.84,42.93 -5.84,42.93z"/>
  </g>
 </g>
</svg>
