<?xml version="1.0" encoding="UTF-8"?>
<!DOCTYPE svg PUBLIC "-//W3C//DTD SVG 1.1//EN" "http://www.w3.org/Graphics/SVG/1.1/DTD/svg11.dtd">
<!-- Creator: CorelDRAW -->
<svg xmlns="http://www.w3.org/2000/svg" xml:space="preserve" width="22.035mm" height="5.9331mm" version="1.1" style="shape-rendering:geometricPrecision; text-rendering:geometricPrecision; image-rendering:optimizeQuality; fill-rule:evenodd; clip-rule:evenodd"
viewBox="0 0 549.69 148.01"
 xmlns:xlink="http://www.w3.org/1999/xlink"
 xmlns:xodm="http://www.corel.com/coreldraw/odm/2003">
 <defs>
  <style type="text/css">
   <![CDATA[
    .fil0 {fill:#FAF0DE;fill-rule:nonzero}
   ]]>
  </style>
 </defs>
 <g id="Layer_x0020_1">
  <metadata id="CorelCorpID_0Corel-Layer"/>
  <g id="_1558069490544">
   <path class="fil0" d="M508.62 147.97c-1.77,0.01 -3.49,-0.27 -5.2,-0.5 -1.68,-0.38 -3.38,-0.68 -4.96,-1.3 -3.23,-1.04 -6.12,-2.61 -8.82,-4.55 -0.67,-0.51 -1.33,-1.02 -1.97,-1.53 -0.53,-0.51 -1.06,-1.02 -1.57,-1.52l-0.39 -0.39 -0.18 -0.18 -0.2 -0.2 -0.09 -0.1 -0.74 -0.87c-0.48,-0.57 -1,-1.14 -1.39,-1.77 -1.78,-2.36 -3.13,-4.82 -4.4,-7.16 -2.47,-4.7 -4.34,-9.08 -6.03,-12.94 -3.85,-8.79 -9.24,-14.88 -14.79,-19.29 -2.13,-1.69 -4.61,-3.25 -7.36,-4.57 -2.73,-1.27 -5.82,-2.25 -8.99,-2.26 -3.17,-0.07 -6.34,0.95 -8.99,2.92 -1.3,0.99 -2.53,2.15 -3.57,3.49 -1,1.27 -1.83,2.77 -2.34,4.32 -1.05,3.08 -0.93,6.53 0.44,9.38 0.67,1.41 1.68,2.69 2.8,3.66l0.51 0.42 0.44 0.32c0.3,0.19 0.63,0.43 0.96,0.61 0.65,0.38 1.32,0.67 2.01,0.84 1.36,0.38 2.77,0.31 4.03,-0.17 1.25,-0.49 2.35,-1.35 3.06,-2.4 0.18,-0.26 0.32,-0.53 0.44,-0.8 0.07,-0.14 0.1,-0.27 0.14,-0.42 0,0.02 0.03,-0.07 0,0.04l0.01 -0.04 0.01 -0.06 0.03 -0.14 0.03 -0.14c0.06,-0.48 -0.01,-1.12 -0.2,-1.71 -0.35,-1.2 -1.01,-2.34 -1.84,-3.15 -0.84,-0.83 -1.86,-1.36 -2.91,-1.49 -1.04,-0.14 -2.16,0.04 -3.02,0.43 -0.87,0.4 -1.49,1.06 -1.79,1.86 -0.31,0.79 -0.32,1.64 -0.18,2.38 0.3,1.48 1.12,2.49 1.76,3.02 0.32,0.27 0.6,0.44 0.8,0.55 0.19,0.1 0.3,0.14 0.3,0.14 0,0 -0.1,-0.03 -0.32,-0.1 -0.21,-0.07 -0.53,-0.19 -0.9,-0.42 -0.75,-0.45 -1.82,-1.35 -2.38,-3.01 -0.27,-0.82 -0.42,-1.84 -0.14,-2.9 0.26,-1.06 1.04,-2.15 2.16,-2.81 1.12,-0.65 2.4,-1.04 3.89,-0.97 1.46,0.06 2.97,0.69 4.17,1.7 1.23,1.02 2.21,2.36 2.79,3.99 0.29,0.82 0.49,1.69 0.44,2.74 -0.01,0.14 -0.03,0.32 -0.05,0.44l-0.04 0.14 -0.01 0.07 0 0.04 -0.02 0.1c-0.05,0.23 -0.12,0.48 -0.21,0.69 -0.16,0.46 -0.36,0.9 -0.6,1.3 -0.96,1.66 -2.47,2.96 -4.29,3.74 -1.82,0.79 -3.95,0.97 -5.94,0.51 -0.99,-0.23 -1.95,-0.61 -2.83,-1.08 -0.45,-0.23 -0.87,-0.49 -1.29,-0.78l-0.62 -0.46 -0.52 -0.42c-1.58,-1.32 -2.85,-2.94 -3.77,-4.78 -0.9,-1.84 -1.41,-3.87 -1.52,-5.94 -0.08,-2.06 0.24,-4.13 0.92,-6.05 0.67,-1.95 1.67,-3.71 2.95,-5.31 1.23,-1.53 2.66,-2.92 4.28,-4.04 3.23,-2.3 7.25,-3.43 10.97,-3.22 3.77,0.18 7.12,1.5 10.02,3 7.35,3.82 16.53,11.58 23.21,24.94 1.91,3.79 4.4,7.89 7.05,12.23 1.37,2.13 2.82,4.34 4.57,6.32 0.4,0.55 0.9,0.98 1.35,1.48l0.67 0.73 0.05 0.05 0.04 0.03 0.21 0.18 0.4 0.35c0.53,0.48 1.09,0.96 1.64,1.44 0.53,0.35 1.06,0.71 1.6,1.06 2.23,1.41 4.83,2.69 7.61,3.39 0.69,0.22 1.38,0.4 2.1,0.51 0.71,0.13 1.42,0.3 2.14,0.4 1.46,0.13 2.92,0.35 4.42,0.28 1.49,0.07 2.98,-0.18 4.48,-0.3 1.46,-0.32 2.97,-0.53 4.41,-1.05 1.47,-0.38 2.83,-1.08 4.24,-1.66 1.31,-0.77 2.73,-1.39 3.93,-2.34 2.57,-1.68 4.74,-4.04 6.62,-6.4 1.1,-1.48 1.79,-2.61 2.53,-4.01 0.75,-1.39 1.4,-2.84 1.95,-4.34 2.27,-5.95 3.09,-12.57 2.34,-18.8 -0.4,-3.13 -1.13,-6.09 -2.34,-8.92l-0.48 -1.16 -0.49 -0.99c-0.32,-0.65 -0.63,-1.3 -1.05,-1.94 -0.39,-0.65 -0.75,-1.31 -1.21,-1.88 -0.42,-0.61 -0.85,-1.22 -1.35,-1.76 -1.86,-2.25 -4.08,-4.06 -6.49,-5.43 -2.43,-1.31 -5.08,-2.17 -7.74,-2.46 -0.66,-0.06 -1.32,-0.12 -1.97,-0.12l-0.49 -0.01 -0.11 -0c-0.1,0 0.08,-0.01 0.03,-0.01l-0.07 0.01 -0.27 0.01 -1.09 0.06c-1.15,0.14 -2.38,0.38 -3.51,0.79 -2.27,0.8 -4.15,2.23 -5.53,4.05 -1.37,1.84 -2.23,3.97 -2.73,6.1 -0.1,0.5 -0.24,1.15 -0.3,1.52 -0.05,0.57 -0.1,1.14 -0.16,1.69 0.01,0.48 0.05,0.94 0.05,1.41 0.08,0.48 0.16,0.96 0.23,1.43 2.91,8.16 9.22,4.74 11.06,-0.19 0.9,-2.38 4.15,-2.74 4.99,-0.11 2.1,6.65 -8.22,11.4 -14.84,6.34 -1.61,-1.23 -2.84,-3.17 -3.59,-5.36 -0.14,-0.56 -0.31,-1.12 -0.45,-1.71 -0.07,-0.63 -0.16,-1.25 -0.23,-1.91 0,-0.56 -0.01,-1.14 -0.01,-1.7 0.03,-0.78 0.12,-1.29 0.18,-1.96 0.35,-2.51 1.18,-5.16 2.75,-7.64 0.79,-1.24 1.8,-2.38 2.95,-3.41 1.17,-1.02 2.53,-1.87 4,-2.53 1.46,-0.67 3.04,-1.08 4.73,-1.35l1.08 -0.12 0.27 -0.04 0.24 -0.03 0.15 0 0.61 -0.03c0.81,-0.05 1.62,-0.01 2.44,0.01 3.29,0.17 6.63,1.05 9.77,2.54 3.15,1.5 5.97,3.77 8.36,6.42 0.61,0.66 1.16,1.37 1.7,2.08 0.56,0.71 1.04,1.47 1.52,2.23 0.51,0.74 0.94,1.56 1.38,2.38l0.66 1.23 0.51 1.13c1.54,3.27 2.55,6.92 3.01,10.55 0.94,7.28 0.1,14.84 -2.49,21.86 -0.67,1.75 -1.44,3.47 -2.36,5.1 -0.88,1.65 -2.06,3.44 -3.04,4.7l-0.39 0.52 -0.17 0.23 -0.12 0.13 -0.22 0.26 -0.95 1.06c-0.66,0.69 -1.21,1.45 -1.95,2.05l-2.12 1.87c-0.7,0.64 -1.52,1.12 -2.27,1.66 -0.76,0.55 -1.54,1.08 -2.37,1.48 -0.82,0.44 -1.64,0.91 -2.47,1.32 -1.72,0.66 -3.41,1.42 -5.19,1.83 -1.74,0.57 -3.56,0.77 -5.31,1.08 -1.77,0.17 -3.54,0.37 -5.3,0.24z"/>
   <path class="fil0" d="M429.96 74.02c0,0 -0.28,0.03 -0.81,0.11 -0.52,0.06 -1.3,0.15 -2.27,0.35 -1.94,0.4 -4.74,0.98 -7.99,2.13 -1.6,0.56 -3.35,1.25 -5.12,2.1 -1.78,0.87 -3.62,1.87 -5.41,3.09 -1.8,1.21 -3.57,2.63 -5.17,4.32 -1.58,1.68 -3.01,3.68 -3.87,5.99 -0.92,2.29 -1,5.03 -0.12,7.36 0.12,0.31 0.18,0.53 0.38,0.92 0.14,0.25 0.24,0.48 0.4,0.74 0.38,0.6 0.8,1.1 1.27,1.55 0.97,0.87 2.16,1.43 3.35,1.67 2.4,0.47 4.74,-0.05 6.6,-1.35 1.72,-1.21 3.01,-3.23 2.83,-5.27 -0.09,-1 -0.48,-1.88 -0.99,-2.56 -0.05,-0.07 -0.14,-0.22 -0.2,-0.28 -0.08,-0.07 -0.12,-0.12 -0.21,-0.22 -0.18,-0.18 -0.34,-0.3 -0.51,-0.43 -0.36,-0.23 -0.75,-0.4 -1.14,-0.48 -1.57,-0.34 -2.91,0.34 -3.58,1.17 -0.71,0.84 -0.69,1.78 -0.56,2.27 0.12,0.53 0.26,0.79 0.26,0.79 0,0 -0.09,-0.28 -0.13,-0.8 -0.04,-0.5 0.12,-1.31 0.78,-1.95 0.64,-0.62 1.85,-1.01 2.98,-0.61 0.58,0.22 1,0.57 1.34,1.18 0.36,0.6 0.58,1.27 0.58,1.97 -0.02,1.42 -0.98,2.85 -2.48,3.77 -1.38,0.83 -3.37,1.2 -5.1,0.77 -0.87,-0.21 -1.67,-0.65 -2.31,-1.25 -0.33,-0.32 -0.59,-0.66 -0.81,-0.99 -0.12,-0.2 -0.25,-0.49 -0.38,-0.73 -0.06,-0.11 -0.16,-0.42 -0.24,-0.64 -0.67,-1.85 -0.55,-3.9 0.15,-5.83 0.69,-1.93 1.92,-3.71 3.35,-5.27 1.41,-1.59 3.03,-2.99 4.69,-4.19 3.33,-2.44 6.8,-4.27 9.87,-5.62 3.06,-1.38 5.73,-2.3 7.61,-2.88 1.87,-0.6 2.97,-0.89 2.97,-0.89z"/>
   <path class="fil0" d="M438.52 74.02c0,0 0.65,0.2 1.79,0.56 1.12,0.36 2.7,0.9 4.52,1.6 0.92,0.32 1.87,0.75 2.88,1.18 1.02,0.42 2.05,0.96 3.12,1.44 1.03,0.6 2.15,1.07 3.18,1.74 0.52,0.31 1.05,0.64 1.6,0.95l1.52 1.06c1.08,0.65 1.97,1.48 2.96,2.22 1,0.72 1.79,1.64 2.7,2.38 0.9,0.77 1.59,1.68 2.38,2.44 0.82,0.77 1.42,1.6 2.05,2.34 0.32,0.38 0.61,0.73 0.9,1.08 0.32,0.32 0.59,0.65 0.81,0.99 0.45,0.66 0.89,1.22 1.26,1.7 0.73,0.94 1.2,1.47 1.2,1.47 0,0 -0.08,-0.69 -0.32,-1.87 -0.12,-0.58 -0.27,-1.31 -0.49,-2.13 -0.16,-0.85 -0.59,-1.7 -0.98,-2.68 -0.42,-0.94 -0.8,-2.05 -1.48,-3.04 -0.67,-1 -1.26,-2.17 -2.13,-3.17 -0.44,-0.51 -0.88,-1.02 -1.33,-1.54l-0.69 -0.79c-0.25,-0.24 -0.52,-0.47 -0.78,-0.71 -1.04,-0.93 -2.1,-1.91 -3.31,-2.67l-1.78 -1.18c-0.62,-0.34 -1.26,-0.65 -1.88,-0.97 -1.21,-0.69 -2.53,-1.1 -3.77,-1.58 -1.27,-0.38 -2.5,-0.75 -3.69,-0.95 -1.18,-0.22 -2.3,-0.36 -3.35,-0.42 -1.04,-0.13 -2.01,-0.06 -2.84,-0.06 -0.86,0.05 -1.58,0.11 -2.19,0.22 -1.21,0.15 -1.87,0.38 -1.87,0.38z"/>
   <path class="fil0" d="M438.52 74.02c0,0 0.67,0.22 1.87,0.38 0.61,0.1 1.33,0.16 2.18,0.21 0.84,0.01 1.82,0.06 2.85,-0.05 1.05,-0.05 2.17,-0.18 3.35,-0.42 1.19,-0.22 2.41,-0.57 3.69,-0.96 1.23,-0.48 2.55,-0.89 3.77,-1.57 0.61,-0.32 1.25,-0.63 1.87,-0.97l1.78 -1.18c1.21,-0.76 2.27,-1.73 3.31,-2.68 0.25,-0.23 0.52,-0.45 0.77,-0.69l0.69 -0.79c0.44,-0.51 0.88,-1.04 1.33,-1.54 0.87,-1 1.46,-2.16 2.13,-3.17 0.69,-1 1.06,-2.09 1.48,-3.05 0.39,-0.97 0.82,-1.82 0.98,-2.67 0.22,-0.81 0.36,-1.54 0.49,-2.13 0.23,-1.19 0.32,-1.86 0.32,-1.86 0,0 -0.48,0.53 -1.2,1.47 -0.36,0.47 -0.81,1.03 -1.26,1.68 -0.22,0.32 -0.49,0.67 -0.81,1 -0.3,0.34 -0.59,0.7 -0.9,1.08 -0.65,0.73 -1.25,1.58 -2.06,2.33 -0.79,0.77 -1.48,1.68 -2.38,2.44 -0.9,0.75 -1.7,1.66 -2.7,2.39 -0.98,0.73 -1.88,1.57 -2.96,2.22l-1.52 1.06c-0.55,0.3 -1.06,0.62 -1.6,0.93 -1.03,0.67 -2.15,1.14 -3.18,1.74 -1.08,0.49 -2.1,1.03 -3.12,1.43 -1.01,0.44 -1.97,0.87 -2.88,1.21 -1.82,0.69 -3.4,1.24 -4.52,1.6 -1.13,0.33 -1.78,0.55 -1.78,0.55z"/>
   <path class="fil0" d="M473.06 92.33c0.02,-0.4 0.06,-0.79 0.03,-1.18l-0.05 -1.17c0,-0.39 -0.12,-0.78 -0.17,-1.15 -0.07,-0.38 -0.1,-0.77 -0.22,-1.14l-0.32 -1.1c-0.3,-0.71 -0.55,-1.43 -0.93,-2.09 -0.17,-0.34 -0.35,-0.67 -0.57,-0.97 -0.22,-0.32 -0.4,-0.65 -0.64,-0.94 -0.46,-0.61 -0.95,-1.19 -1.48,-1.72 -0.53,-0.53 -1.08,-1.06 -1.68,-1.5 -0.3,-0.23 -0.6,-0.46 -0.91,-0.67 -0.3,-0.19 -0.64,-0.42 -0.9,-0.55l-4.19 -2.92 5.1 0.94c1.14,0.3 2.28,0.65 3.43,0.93l1.74 0.32c0.57,0.12 1.14,0.25 1.73,0.28l1.75 0.18c0.57,0.1 1.16,0.06 1.74,0.1 0.57,0 1.17,0.06 1.75,0.01l1.71 -0.11c0.57,-0.04 1.14,-0.16 1.7,-0.23 0.58,-0.05 1.13,-0.22 1.68,-0.34 0.56,-0.1 1.12,-0.25 1.66,-0.44 0.54,-0.17 1.08,-0.34 1.6,-0.56 1.06,-0.4 2.08,-0.92 3.04,-1.51 0.44,-0.27 0.89,-0.55 1.31,-0.87 -0.42,-0.31 -0.86,-0.61 -1.31,-0.88 -0.96,-0.57 -1.97,-1.1 -3.04,-1.49 -0.51,-0.23 -1.05,-0.4 -1.6,-0.57 -0.53,-0.18 -1.1,-0.32 -1.65,-0.44 -0.56,-0.12 -1.12,-0.29 -1.68,-0.34 -0.57,-0.08 -1.14,-0.2 -1.71,-0.24l-1.71 -0.11c-0.58,-0.05 -1.17,0.01 -1.75,0.01 -0.57,0.03 -1.16,0 -1.74,0.1l-1.74 0.18c-0.58,0.05 -1.15,0.18 -1.73,0.3l-1.74 0.32c-1.14,0.3 -2.28,0.64 -3.43,0.94l-5.01 0.89 4.1 -2.86c0.27,-0.16 0.61,-0.36 0.91,-0.57 0.3,-0.2 0.61,-0.41 0.9,-0.65 0.6,-0.47 1.14,-0.96 1.69,-1.49 0.52,-0.56 1.01,-1.13 1.48,-1.73 0.23,-0.29 0.42,-0.62 0.64,-0.93 0.22,-0.3 0.4,-0.65 0.57,-0.98 0.39,-0.65 0.65,-1.39 0.93,-2.09l0.32 -1.1c0.12,-0.36 0.16,-0.75 0.22,-1.14 0.05,-0.38 0.17,-0.75 0.16,-1.14l0.07 -1.17c0.04,-0.39 -0.01,-0.79 -0.03,-1.18l-0.07 -1.19 0.26 1.16c0.08,0.39 0.2,0.78 0.22,1.17l0.12 1.21c0.06,0.42 0,0.82 0,1.22 -0.03,0.4 -0.01,0.83 -0.09,1.22l-0.18 1.22c-0.23,0.79 -0.42,1.61 -0.75,2.36 -0.16,0.39 -0.31,0.78 -0.51,1.14 -0.19,0.36 -0.36,0.75 -0.59,1.09 -0.42,0.7 -0.9,1.35 -1.4,1.97l0.68 -0.17c0.61,-0.14 1.21,-0.34 1.85,-0.42l1.87 -0.3c0.62,-0.13 1.27,-0.12 1.9,-0.18 0.63,-0.03 1.27,-0.12 1.91,-0.08l1.92 0.04c0.64,0.03 1.27,0.13 1.92,0.18 0.63,0.05 1.27,0.19 1.91,0.32 0.63,0.11 1.26,0.27 1.87,0.48 0.62,0.16 1.25,0.36 1.84,0.61 1.22,0.44 2.39,1.03 3.53,1.68 0.56,0.34 1.12,0.69 1.65,1.09 0.55,0.4 1.03,0.79 1.61,1.35l0.44 0.43 0 0.69 0 0.13 0.01 0.67 -0.44 0.44c-0.59,0.57 -1.07,0.94 -1.61,1.34 -0.55,0.4 -1.1,0.77 -1.66,1.1 -1.14,0.65 -2.31,1.25 -3.53,1.67 -0.6,0.26 -1.22,0.46 -1.84,0.63 -0.61,0.2 -1.25,0.36 -1.87,0.48 -0.64,0.12 -1.27,0.26 -1.91,0.31 -0.65,0.08 -1.27,0.17 -1.92,0.2l-1.92 0.05c-0.64,0.03 -1.27,-0.06 -1.91,-0.09 -0.63,-0.05 -1.27,-0.05 -1.89,-0.16l-1.87 -0.31c-0.64,-0.08 -1.23,-0.27 -1.84,-0.42l-0.66 -0.16c0.49,0.61 0.96,1.27 1.39,1.95 0.22,0.34 0.39,0.74 0.58,1.1 0.21,0.36 0.36,0.75 0.51,1.14 0.34,0.75 0.52,1.56 0.75,2.36l0.18 1.22c0.09,0.4 0.07,0.82 0.09,1.22 0,0.42 0.06,0.81 0,1.21l-0.11 1.21c-0.02,0.4 -0.14,0.79 -0.22,1.19l-0.26 1.16 0.04 -1.16z"/>
   <path class="fil0" d="M379.25 74.02c21.57,-12.75 37.7,0 37.7,0 0,0 -16.13,12.73 -37.7,0z"/>
   <path class="fil0" d="M383.91 88.44c-1.25,-0.01 -2.53,-0.24 -3.85,-0.35 -1.32,-0.13 -2.63,-0.48 -3.97,-0.73 -1.33,-0.31 -2.63,-0.74 -3.92,-1.13 -1.24,-0.53 -2.53,-0.92 -3.68,-1.53 -0.59,-0.3 -1.16,-0.58 -1.73,-0.87 -0.55,-0.32 -1.08,-0.64 -1.6,-0.96 -1.05,-0.61 -1.95,-1.31 -2.82,-1.95 -0.83,-0.66 -1.6,-1.29 -2.24,-1.91 -0.65,-0.58 -1.17,-1.18 -1.62,-1.65 -0.43,-0.51 -0.75,-0.9 -1.01,-1.26 -0.22,-0.3 -0.34,-0.46 -0.34,-0.46l-0.92 -1.64 0.92 -1.65c0,0 0.11,-0.16 0.32,-0.44 0.26,-0.38 0.59,-0.76 1.02,-1.27 0.46,-0.47 0.97,-1.07 1.63,-1.64 0.64,-0.63 1.41,-1.25 2.24,-1.92 0.87,-0.64 1.78,-1.35 2.82,-1.95 0.51,-0.3 1.05,-0.63 1.6,-0.95 0.56,-0.28 1.14,-0.56 1.73,-0.86 1.15,-0.61 2.44,-1.02 3.68,-1.54 1.29,-0.39 2.6,-0.82 3.92,-1.12 1.34,-0.24 2.64,-0.61 3.97,-0.71 1.32,-0.12 2.61,-0.36 3.85,-0.36 1.24,-0.04 2.45,-0.06 3.59,-0.08 1.14,0.06 2.21,0.12 3.2,0.19 0.99,0.05 1.89,0.12 2.68,0.28 0.79,0.1 1.49,0.2 2.05,0.29 1.12,0.16 1.78,0.27 1.78,0.27 0,0 -0.65,0 -1.8,0.01 -0.57,0.01 -1.26,0.01 -2.05,0.01 -0.8,-0.01 -1.68,0.04 -2.65,0.14 -0.97,0.08 -2.01,0.18 -3.11,0.27 -1.09,0.21 -2.24,0.4 -3.43,0.61 -1.17,0.19 -2.36,0.61 -3.56,0.91 -1.21,0.3 -2.36,0.83 -3.55,1.23 -1.16,0.48 -2.27,1.04 -3.37,1.56 -1.04,0.65 -2.12,1.15 -3.03,1.86 -0.47,0.32 -0.92,0.65 -1.37,0.96 -0.42,0.34 -0.83,0.69 -1.23,1.02 -0.81,0.65 -1.47,1.37 -2.1,1.99 -0.59,0.66 -1.14,1.25 -1.56,1.83 -0.31,0.38 -0.55,0.73 -0.76,1.06 0.22,0.32 0.45,0.66 0.77,1.04 0.41,0.57 0.96,1.17 1.54,1.83 0.63,0.61 1.29,1.33 2.1,1.99 0.4,0.34 0.81,0.68 1.23,1.03 0.46,0.31 0.9,0.63 1.37,0.97 0.91,0.69 1.99,1.2 3.03,1.85 1.1,0.52 2.21,1.08 3.37,1.56 1.18,0.4 2.34,0.94 3.55,1.23 1.2,0.31 2.38,0.7 3.56,0.9 1.19,0.21 2.34,0.42 3.43,0.61 1.1,0.1 2.14,0.19 3.11,0.28 0.97,0.12 1.85,0.16 2.65,0.14 0.79,0.01 1.48,0.01 2.05,0.01 1.15,0.01 1.79,0.01 1.79,0.01 0,0 -0.64,0.1 -1.77,0.26 -0.56,0.08 -1.26,0.18 -2.05,0.3 -0.79,0.13 -1.69,0.22 -2.68,0.27 -0.99,0.06 -2.06,0.12 -3.2,0.19 -1.14,0.02 -2.35,-0 -3.59,-0.03z"/>
   <path class="fil0" d="M474.01 101.72c0,0 0.3,0.34 0.85,0.99 0.56,0.66 1.3,1.66 2.25,2.94 0.92,1.29 1.99,2.88 3.14,4.78 1.12,1.91 2.39,4.08 3.79,6.42 1.39,2.35 2.92,4.92 4.77,7.52 1.88,2.57 4.05,5.26 6.96,7.45 2.84,2.23 6.48,3.81 10.3,4.33 1.94,0.23 3.79,0.21 5.81,0.04 0.92,-0.14 1.76,-0.18 2.75,-0.42 0.98,-0.18 1.94,-0.4 2.85,-0.7 3.72,-1.1 7.14,-3.15 9.95,-5.74 2.79,-2.62 4.9,-5.81 6.28,-9.11 1.44,-3.29 2.13,-6.73 2.35,-9.96 0.24,-3.25 -0.05,-6.34 -0.68,-9.08 -0.59,-2.75 -1.48,-5.18 -2.51,-7.2 -1.04,-2.02 -2.07,-3.7 -3.06,-4.98 -0.96,-1.29 -1.83,-2.22 -2.44,-2.81 -0.61,-0.61 -0.94,-0.92 -0.94,-0.92 0,0 0.29,0.36 0.8,1.04 0.53,0.66 1.23,1.71 2.05,3.05 0.84,1.35 1.67,3.08 2.47,5.12 0.77,2.03 1.39,4.42 1.79,7.03 0.36,2.63 0.46,5.53 0.09,8.51 -0.39,2.99 -1.15,6.09 -2.53,9.02 -1.35,2.96 -3.34,5.7 -5.79,7.99 -2.49,2.25 -5.49,3.99 -8.78,4.97 -0.83,0.28 -1.64,0.48 -2.44,0.65 -0.77,0.19 -1.76,0.26 -2.63,0.41 -1.6,0.14 -3.39,0.19 -5,0.01 -3.3,-0.39 -6.42,-1.58 -9.02,-3.5 -2.61,-1.88 -4.81,-4.22 -6.71,-6.63 -1.91,-2.41 -3.6,-4.82 -5.14,-7.07 -3.08,-4.51 -5.86,-8.19 -7.97,-10.61 -1.08,-1.2 -1.99,-2.08 -2.61,-2.65 -0.64,-0.59 -0.98,-0.89 -0.98,-0.89z"/>
   <path class="fil0" d="M508.62 0.04c-1.77,0 -3.49,0.28 -5.2,0.5 -1.68,0.39 -3.38,0.69 -4.96,1.31 -3.23,1.04 -6.12,2.61 -8.82,4.55 -0.67,0.51 -1.33,1.03 -1.99,1.53 -0.53,0.51 -1.05,1.01 -1.56,1.52l-0.39 0.39 -0.19 0.18 -0.18 0.19 -0.09 0.1 -0.75 0.89c-0.48,0.57 -1,1.13 -1.39,1.75 -1.79,2.38 -3.13,4.83 -4.4,7.17 -2.47,4.7 -4.34,9.08 -6.03,12.94 -3.85,8.79 -9.24,14.88 -14.8,19.3 -2.12,1.69 -4.61,3.25 -7.35,4.56 -2.73,1.27 -5.82,2.25 -8.99,2.26 -3.17,0.08 -6.35,-0.94 -8.98,-2.92 -1.31,-1 -2.53,-2.16 -3.58,-3.49 -1,-1.28 -1.82,-2.77 -2.34,-4.31 -1.05,-3.08 -0.93,-6.53 0.44,-9.38 0.67,-1.41 1.68,-2.69 2.8,-3.66l0.51 -0.42 0.44 -0.32c0.3,-0.2 0.63,-0.43 0.96,-0.61 0.65,-0.38 1.32,-0.66 2.01,-0.85 1.36,-0.38 2.77,-0.3 4.03,0.18 1.25,0.48 2.35,1.35 3.05,2.4 0.18,0.26 0.34,0.53 0.44,0.79 0.07,0.14 0.12,0.27 0.16,0.42 -0.01,-0.03 0.03,0.07 -0.01,-0.04l0.01 0.04 0.01 0.06 0.05 0.14 0.01 0.14c0.06,0.48 -0.01,1.13 -0.2,1.71 -0.35,1.2 -1.01,2.34 -1.85,3.15 -0.83,0.83 -1.85,1.36 -2.9,1.5 -1.03,0.14 -2.16,-0.05 -3.02,-0.43 -0.87,-0.4 -1.49,-1.08 -1.78,-1.87 -0.32,-0.79 -0.34,-1.64 -0.18,-2.38 0.29,-1.48 1.1,-2.51 1.74,-3.04 0.32,-0.26 0.61,-0.43 0.81,-0.55 0.19,-0.1 0.3,-0.16 0.3,-0.16 0,0 -0.1,0.05 -0.32,0.11 -0.21,0.08 -0.53,0.19 -0.9,0.43 -0.75,0.44 -1.82,1.35 -2.38,3.02 -0.27,0.8 -0.42,1.82 -0.14,2.88 0.26,1.07 1.04,2.16 2.16,2.81 1.12,0.64 2.4,1.04 3.88,0.96 1.46,-0.05 2.98,-0.68 4.18,-1.7 1.22,-1 2.21,-2.36 2.79,-3.99 0.29,-0.83 0.49,-1.7 0.44,-2.74 -0.01,-0.14 -0.03,-0.33 -0.05,-0.44l-0.03 -0.14 -0.01 -0.06 0 -0.05 -0.02 -0.1c-0.05,-0.23 -0.12,-0.47 -0.21,-0.69 -0.16,-0.46 -0.36,-0.89 -0.6,-1.31 -0.96,-1.65 -2.47,-2.95 -4.28,-3.74 -1.82,-0.78 -3.96,-0.96 -5.95,-0.5 -0.99,0.22 -1.95,0.6 -2.83,1.06 -0.44,0.22 -0.86,0.49 -1.29,0.78l-0.62 0.46 -0.53 0.42c-1.58,1.32 -2.83,2.93 -3.75,4.77 -0.9,1.84 -1.41,3.88 -1.52,5.94 -0.09,2.06 0.24,4.13 0.92,6.06 0.67,1.93 1.67,3.7 2.95,5.3 1.22,1.53 2.66,2.92 4.3,4.05 3.22,2.3 7.23,3.43 10.96,3.22 3.77,-0.18 7.13,-1.52 10.02,-3.02 7.35,-3.8 16.53,-11.57 23.22,-24.93 1.91,-3.79 4.4,-7.9 7.05,-12.23 1.37,-2.13 2.82,-4.34 4.57,-6.32 0.4,-0.53 0.9,-0.97 1.34,-1.46l0.69 -0.73 0.05 -0.06 0.04 -0.03 0.2 -0.18 0.41 -0.34c0.53,-0.48 1.09,-0.96 1.64,-1.44 0.53,-0.36 1.06,-0.71 1.6,-1.08 2.23,-1.41 4.83,-2.68 7.61,-3.39 0.69,-0.22 1.38,-0.4 2.1,-0.51 0.71,-0.12 1.42,-0.3 2.14,-0.4 1.46,-0.13 2.92,-0.34 4.42,-0.27 1.49,-0.08 2.98,0.18 4.48,0.3 1.46,0.34 2.98,0.53 4.41,1.06 1.47,0.38 2.83,1.08 4.24,1.66 1.31,0.78 2.73,1.39 3.93,2.35 2.57,1.66 4.74,4.04 6.62,6.4 1.1,1.48 1.79,2.61 2.53,4.01 0.75,1.39 1.4,2.85 1.95,4.34 2.27,5.96 3.09,12.57 2.34,18.8 -0.4,3.13 -1.14,6.08 -2.34,8.93l-0.48 1.15 -0.49 0.99c-0.32,0.65 -0.64,1.31 -1.05,1.94 -0.38,0.65 -0.75,1.31 -1.21,1.89 -0.42,0.61 -0.85,1.21 -1.35,1.75 -1.86,2.24 -4.08,4.07 -6.49,5.43 -2.43,1.32 -5.08,2.18 -7.74,2.47 -0.67,0.07 -1.32,0.13 -1.97,0.12l-0.51 0.01 -0.11 0c-0.11,-0.01 0.08,0.01 0.03,0l-0.07 0 -0.27 -0.01 -1.09 -0.07c-1.15,-0.13 -2.38,-0.36 -3.51,-0.77 -2.27,-0.81 -4.16,-2.23 -5.53,-4.05 -1.36,-1.83 -2.22,-3.97 -2.73,-6.1 -0.1,-0.49 -0.24,-1.15 -0.3,-1.52 -0.05,-0.57 -0.1,-1.14 -0.16,-1.7 0.01,-0.47 0.03,-0.95 0.05,-1.41 0.08,-0.48 0.16,-0.96 0.23,-1.43 2.9,-8.16 9.22,-4.73 11.06,0.18 0.9,2.39 4.15,2.74 4.99,0.12 2.1,-6.65 -8.22,-11.41 -14.84,-6.32 -1.61,1.23 -2.84,3.15 -3.59,5.35 -0.14,0.57 -0.31,1.12 -0.45,1.73 -0.08,0.61 -0.16,1.25 -0.23,1.89 0,0.56 -0.01,1.14 -0.01,1.73 0.03,0.77 0.12,1.27 0.18,1.94 0.35,2.51 1.18,5.17 2.75,7.65 0.79,1.23 1.8,2.39 2.95,3.42 1.17,1.03 2.53,1.85 4,2.53 1.46,0.65 3.04,1.05 4.73,1.34l1.08 0.13 0.27 0.03 0.24 0.01 0.14 0.01 0.6 0.01c0.82,0.06 1.64,0.02 2.45,-0.01 3.28,-0.17 6.63,-1.05 9.77,-2.53 3.15,-1.51 5.97,-3.77 8.36,-6.44 0.61,-0.65 1.16,-1.37 1.7,-2.09 0.56,-0.7 1.04,-1.45 1.52,-2.21 0.51,-0.75 0.94,-1.56 1.38,-2.39l0.66 -1.22 0.51 -1.15c1.53,-3.25 2.55,-6.92 3.01,-10.53 0.93,-7.29 0.1,-14.84 -2.49,-21.87 -0.66,-1.74 -1.44,-3.45 -2.36,-5.11 -0.89,-1.64 -2.06,-3.43 -3.04,-4.69l-0.39 -0.53 -0.17 -0.23 -0.12 -0.13 -0.22 -0.27 -0.96 -1.05c-0.65,-0.67 -1.21,-1.44 -1.94,-2.03l-2.12 -1.87c-0.7,-0.64 -1.52,-1.12 -2.27,-1.66 -0.76,-0.55 -1.53,-1.08 -2.37,-1.49 -0.83,-0.44 -1.64,-0.9 -2.47,-1.3 -1.72,-0.69 -3.41,-1.43 -5.19,-1.84 -1.74,-0.57 -3.56,-0.77 -5.31,-1.08 -1.79,-0.12 -3.56,-0.34 -5.32,-0.21z"/>
   <path class="fil0" d="M429.96 74.02c0,0 -0.28,-0.04 -0.81,-0.12 -0.52,-0.08 -1.3,-0.17 -2.27,-0.38 -1.94,-0.39 -4.74,-0.96 -7.97,-2.11 -1.62,-0.57 -3.35,-1.25 -5.13,-2.11 -1.78,-0.87 -3.62,-1.85 -5.41,-3.08 -1.8,-1.21 -3.58,-2.63 -5.17,-4.32 -1.58,-1.68 -3.01,-3.66 -3.87,-5.99 -0.92,-2.29 -1,-5.02 -0.12,-7.36 0.12,-0.31 0.18,-0.53 0.38,-0.92 0.14,-0.24 0.24,-0.48 0.4,-0.74 0.38,-0.6 0.8,-1.12 1.27,-1.54 0.97,-0.88 2.16,-1.43 3.35,-1.67 2.4,-0.48 4.74,0.04 6.61,1.35 1.71,1.19 3,3.23 2.82,5.26 -0.09,1 -0.48,1.89 -0.99,2.57 -0.05,0.06 -0.14,0.21 -0.2,0.27 -0.07,0.07 -0.12,0.12 -0.21,0.22 -0.17,0.17 -0.34,0.3 -0.51,0.42 -0.36,0.24 -0.75,0.4 -1.14,0.48 -1.57,0.34 -2.91,-0.34 -3.58,-1.16 -0.71,-0.85 -0.69,-1.78 -0.56,-2.29 0.12,-0.52 0.27,-0.77 0.27,-0.77 0,0 -0.1,0.27 -0.14,0.79 -0.05,0.51 0.12,1.31 0.78,1.94 0.64,0.62 1.85,1.03 2.99,0.61 0.57,-0.22 1,-0.55 1.34,-1.17 0.36,-0.59 0.58,-1.27 0.58,-1.99 -0.03,-1.4 -0.98,-2.83 -2.48,-3.75 -1.38,-0.84 -3.37,-1.2 -5.1,-0.77 -0.87,0.21 -1.68,0.64 -2.32,1.25 -0.32,0.31 -0.59,0.66 -0.81,0.99 -0.12,0.2 -0.25,0.48 -0.38,0.71 -0.06,0.12 -0.16,0.43 -0.24,0.63 -0.67,1.85 -0.56,3.91 0.15,5.83 0.69,1.94 1.92,3.73 3.35,5.29 1.41,1.58 3.03,2.97 4.69,4.19 3.33,2.44 6.8,4.26 9.86,5.62 3.07,1.38 5.73,2.31 7.61,2.88 1.88,0.62 2.98,0.92 2.98,0.92z"/>
   <path class="fil0" d="M474.01 46.3c0,0 0.3,-0.35 0.85,-1 0.56,-0.65 1.3,-1.66 2.25,-2.92 0.92,-1.28 1.99,-2.88 3.14,-4.78 1.12,-1.92 2.39,-4.06 3.79,-6.42 1.39,-2.36 2.92,-4.92 4.77,-7.52 1.88,-2.58 4.05,-5.27 6.96,-7.46 2.84,-2.23 6.48,-3.81 10.3,-4.32 1.94,-0.24 3.79,-0.22 5.81,-0.05 0.92,0.14 1.75,0.18 2.75,0.42 0.98,0.18 1.94,0.4 2.85,0.71 3.72,1.09 7.14,3.18 9.95,5.74 2.79,2.61 4.9,5.81 6.28,9.11 1.44,3.29 2.13,6.73 2.35,9.97 0.24,3.23 -0.05,6.32 -0.68,9.06 -0.59,2.75 -1.48,5.18 -2.51,7.19 -1.04,2.03 -2.07,3.7 -3.07,4.97 -0.96,1.3 -1.83,2.23 -2.44,2.82 -0.61,0.61 -0.94,0.92 -0.94,0.92 0,0 0.29,-0.36 0.8,-1.04 0.53,-0.66 1.22,-1.7 2.05,-3.06 0.84,-1.33 1.67,-3.07 2.47,-5.1 0.77,-2.04 1.39,-4.44 1.79,-7.05 0.36,-2.61 0.46,-5.52 0.09,-8.51 -0.39,-2.97 -1.15,-6.09 -2.53,-9.01 -1.35,-2.96 -3.34,-5.7 -5.79,-7.99 -2.49,-2.26 -5.5,-3.99 -8.78,-4.97 -0.83,-0.28 -1.62,-0.47 -2.43,-0.64 -0.78,-0.2 -1.77,-0.28 -2.64,-0.42 -1.6,-0.14 -3.38,-0.2 -5,-0.01 -3.31,0.39 -6.42,1.58 -9.02,3.5 -2.61,1.87 -4.81,4.22 -6.71,6.63 -1.91,2.41 -3.6,4.82 -5.15,7.07 -3.08,4.52 -5.85,8.19 -7.97,10.6 -1.08,1.21 -1.99,2.09 -2.61,2.67 -0.63,0.58 -0.96,0.88 -0.96,0.88z"/>
   <path class="fil0" d="M537.59 78.53c2.49,-0.01 4.52,-2.03 4.52,-4.52 -0.01,-2.51 -2.03,-4.52 -4.52,-4.52 -2.49,0 -4.52,2.01 -4.51,4.52 0,2.48 2.02,4.51 4.51,4.52z"/>
   <path class="fil0" d="M546.98 76.71c1.5,0 2.71,-1.21 2.71,-2.69 0,-1.5 -1.21,-2.71 -2.71,-2.71 -1.48,0 -2.69,1.21 -2.69,2.71 0,1.48 1.21,2.69 2.69,2.69z"/>
   <polygon class="fil0" points="-0,74.02 353.62,69.67 353.27,70.2 351.13,74 353.67,78.35 "/>
  </g>
 </g>
</svg>
