<?xml version="1.0" encoding="UTF-8"?>
<!DOCTYPE svg PUBLIC "-//W3C//DTD SVG 1.1//EN" "http://www.w3.org/Graphics/SVG/1.1/DTD/svg11.dtd">
<!-- Creator: CorelDRAW -->
<svg xmlns="http://www.w3.org/2000/svg" xml:space="preserve" width="149.011mm" height="230.26mm" version="1.1" style="shape-rendering:geometricPrecision; text-rendering:geometricPrecision; image-rendering:optimizeQuality; fill-rule:evenodd; clip-rule:evenodd"
viewBox="0 0 2084.75 3221.45"
 xmlns:xlink="http://www.w3.org/1999/xlink"
 xmlns:xodm="http://www.corel.com/coreldraw/odm/2003">
 <defs>
  <style type="text/css">
   <![CDATA[
    .fil0 {fill:#121F38;fill-rule:nonzero}
   ]]>
  </style>
 </defs>
 <g id="Layer_x0020_1">
  <metadata id="CorelCorpID_0Corel-Layer"/>
  <path id="path1" class="fil0" d="M1190.22 3187.21c15.66,-2.24 36.47,-2.3 50.45,-0.15 13.08,2.01 36.95,5.73 53.05,8.27 24.23,3.82 32.5,3.52 48.1,-1.7 22.77,-7.63 33.78,-4.96 65.15,15.75 25.95,17.14 30.78,16.67 56.08,-5.46 27.52,-24.07 43.25,-53.46 31.92,-59.66 -3.85,-2.11 -4.06,-6.55 -0.87,-18.07 3.73,-13.46 3.22,-16.33 -4.33,-24.12 -4.71,-4.86 -8.15,-11.95 -7.63,-15.75 3.07,-22.74 -22.54,-34.9 -38.24,-18.15 -8.35,8.9 -10.55,9.27 -37.52,6.25 -15.76,-1.76 -34.53,-2.95 -41.7,-2.65l-13.05 0.56 7.04 -8.02c3.87,-4.41 9.32,-7.72 12.1,-7.34 7.14,0.96 14.33,-10.39 20.19,-31.87 2.77,-10.15 8.04,-23.61 11.73,-29.9 5.45,-9.32 6.12,-13.62 3.61,-23.07 -1.99,-7.48 -1.49,-15.32 1.4,-22.01 3.34,-7.71 3.16,-13.55 -0.68,-22.66 -4.57,-10.84 -4.43,-13.12 1.13,-19.47 7.8,-8.88 6.08,-21.19 -3.9,-28.03 -4.1,-2.81 -12.49,-11.39 -18.65,-19.07 -6.15,-7.68 -18.75,-23.26 -28,-34.63 -14.22,-17.49 -16.54,-22.7 -15.04,-33.82 2.16,-15.98 -2.67,-20.87 -13.37,-13.53 -4.4,3.02 -8.5,4.73 -9.11,3.8 -11.99,-18.17 -12.36,-109.46 -0.93,-231.38 4.09,-43.62 7.8,-96.01 8.25,-116.43l0.82 -37.13 10.42 -5.63c21.02,-11.36 25.25,-21.9 35.05,-87.27l9.03 -60.24 9.9 -3.59c13.16,-4.78 18.3,-18.32 11.97,-31.57 -3.59,-7.51 -3.7,-11.34 -0.41,-13.85 8.6,-6.55 6.39,-17.23 -6.76,-32.69 -12.98,-15.25 -13.1,-15.75 -8.23,-34.16 4.26,-16.12 3.94,-20.87 -2.33,-34.59 -4,-8.75 -8.84,-17.2 -10.77,-18.78 -5.08,-4.17 -2.28,-18.36 5.08,-25.77 10.14,-10.22 10.34,-26.75 0.54,-46.4 -13.35,-26.78 -14.13,-32.63 -6.41,-48.01l6.81 -13.57 73.74 -10.98c212.72,-31.68 257.43,-41.31 269.54,-58.08 13.86,-19.19 11.99,-49.39 -13.41,-215.69l-10 -65.47 13.66 -9.24c7.61,-5.15 14.36,-13.06 15.24,-17.87 1.94,-10.58 12.66,-23.94 18.56,-23.14 8.32,1.12 22.86,-16.7 21.88,-26.84 -0.5,-5.25 0.5,-24.15 2.23,-41.99 2.54,-26.17 1.9,-34.71 -3.3,-44.18 -3.55,-6.46 -5.88,-16.35 -5.18,-21.99 0.7,-5.64 -0.58,-13.52 -2.84,-17.52 -2.26,-4 -2.92,-10.16 -1.46,-13.7 1.68,-4.09 -0.52,-9.69 -6.03,-15.38 -7.42,-7.65 -7.92,-9.99 -3.46,-16.16 7.9,-10.94 1.56,-17.36 -23.49,-23.75 -19.78,-5.05 -22.38,-6.83 -27.4,-18.74 -3.63,-8.62 -9.31,-14.54 -16.44,-17.15 -6.39,-2.34 -11.26,-6.96 -11.78,-11.18 -0.48,-3.96 -3.85,-7.6 -7.49,-8.09 -7.05,-0.95 -6.55,2.45 -14.51,-99.28 -2.04,-26.07 -8.26,-71.42 -13.83,-100.78 -13.98,-73.75 -4.1,-67.66 -139.55,-85.96 -100.45,-13.57 -105.97,-14.68 -110,-22.11 -6.44,-11.86 -4.22,-16.8 9.78,-21.77 7.01,-2.49 18.21,-7.57 24.87,-11.29 24.42,-13.62 121.79,-45.1 139.27,-45.03 29.99,0.13 44.12,8.36 184.6,107.55l44.22 31.22 25.22 1.59c26.98,1.7 36.75,-2.2 48.9,-19.53 3.62,-5.17 8.65,-9.11 11.18,-8.77 2.53,0.34 9.8,-3.91 16.16,-9.45 8.48,-7.38 13.7,-9.26 19.53,-7.05 44.09,16.74 46.89,17.34 61.68,13.19 12.17,-3.41 14.8,-5.88 16.04,-15.04 0.81,-6.03 3.43,-10.69 5.8,-10.37 2.38,0.32 15.37,14.68 28.88,31.92 22.02,28.1 26.02,31.52 38.74,33.19 18.09,2.37 24.9,-0.69 22.74,-10.24 -0.92,-4.07 -9.96,-27.01 -20.08,-50.97 -32.52,-76.96 -64.15,-189.34 -53.83,-191.3 6.58,-1.25 6.81,-9.19 0.84,-28.98 -2.88,-9.52 -5.41,-22.8 -5.64,-29.5 -0.22,-6.71 -1.8,-18.27 -3.5,-25.69 -1.7,-7.42 -4.21,-21.21 -5.58,-30.64 -1.37,-9.43 -4.31,-20.05 -6.55,-23.59 -2.24,-3.55 -3.55,-10.45 -2.91,-15.34 0.62,-4.89 -2.6,-19.48 -7.19,-32.43 -5.66,-15.98 -7.73,-29.45 -6.42,-41.96 1.72,-16.5 2.8,-18.42 10.33,-18.47 5.3,-0.04 8.76,-2.6 9.34,-6.92 1.12,-8.29 -4.19,-13.15 -16.48,-15.07 -15.8,-2.47 -10.52,-31.74 8.9,-49.36 19.23,-17.45 7.82,-29.33 -14.55,-15.15l-12.07 7.66 -0.74 -11.72c-1.49,-23.51 2.66,-39.89 11.05,-43.68 15.07,-6.8 8.67,-18.64 -8.05,-14.87 -4.64,1.05 -12.04,6.05 -16.43,11.12 -8.78,10.12 -25.94,23.96 -29.18,23.52 -1.13,-0.15 -6.4,-5.07 -11.71,-10.92 -5.44,-5.99 -14.3,-11.27 -20.29,-12.08 -8.13,-1.1 -11.63,-4.24 -14.89,-13.38 -4.67,-13.07 -15.56,-20.62 -33.2,-23 -8.33,-1.13 -13.61,-5.04 -19.54,-14.47 -6.25,-9.95 -11.03,-13.31 -20.72,-14.57 -6.92,-0.9 -16.11,-5.22 -20.42,-9.61 -9.37,-9.53 -24.5,-12.24 -35.28,-6.31 -5.37,2.95 -12.71,2.96 -23.35,0.04 -12.38,-3.4 -17.89,-2.96 -27.22,2.16 -7.71,4.24 -17.1,5.7 -27.54,4.29 -8.71,-1.18 -19.78,-0.1 -24.61,2.39 -11.16,5.76 -24.95,0.49 -30.81,-11.77 -2.43,-5.09 -9.26,-11.02 -15.18,-13.19 -13.27,-4.85 -15.91,-10.03 -8.55,-16.8 8.38,-7.71 15.26,-57.94 9.96,-72.69 -2.33,-6.48 -3.19,-16.27 -1.91,-21.75 1.77,-7.56 -0.8,-14.04 -10.62,-26.79 -7.12,-9.25 -12.63,-19.22 -12.23,-22.16 1,-7.43 -25.49,-31.87 -33.11,-30.54 -3.86,0.67 -10.33,-4.45 -16.96,-13.44 -8.44,-11.44 -13.6,-14.93 -24.25,-16.37 -10.39,-1.4 -14.64,-4.15 -18.3,-11.81 -3.83,-8.01 -7.83,-10.41 -20.26,-12.16 -9.71,-1.36 -18.56,-5.32 -23.7,-10.59 -10.11,-10.37 -15.49,-11.14 -32.8,-4.72 -13.25,4.91 -13.78,4.83 -22.25,-3.39 -10.7,-10.4 -26.31,-9.63 -36.2,1.78 -5.4,6.23 -8.14,6.94 -13.07,3.38 -11.24,-8.12 -31.39,-8.62 -38.47,-0.95 -4.63,5.02 -10.95,6.65 -22.07,5.69 -12.2,-1.05 -18.1,0.81 -27.19,8.58 -6.38,5.46 -16.76,10.34 -23.07,10.86 -6.31,0.52 -13.76,3.05 -16.55,5.62 -6.96,6.4 -10.78,5.27 -12.35,-3.67 -1.07,-6.13 -2.64,-6.95 -8.34,-4.38 -5.68,2.56 -8.59,1.11 -15.24,-7.61 -4.52,-5.93 -12.77,-12.37 -18.33,-14.32 -5.56,-1.94 -18.85,-7.31 -29.52,-11.94 -10.68,-4.62 -23.06,-9.3 -27.52,-10.39 -4.46,-1.09 -9.07,-3.25 -10.25,-4.79 -1.18,-1.54 -13.03,-4.28 -26.35,-6.08 -31.66,-4.28 -50.45,2.06 -54.33,18.32 -3.27,13.74 4.04,19.31 18.34,13.97 8.55,-3.19 10.47,-2.62 16.1,4.77 3.51,4.61 5.72,11.53 4.91,15.37 -0.82,3.84 -3.56,20.57 -6.1,37.17 -3.5,22.9 -5.83,30.03 -9.65,29.51 -3.95,-0.53 -5.48,5.12 -7.1,26.12 -1.98,25.63 -9.91,45.87 -16.68,42.56 -4.01,-1.96 -10.69,42.7 -8.3,55.53 2.45,13.16 0,16.29 -6.89,8.81 -4.16,-4.52 -5.12,-4.25 -5.92,1.66 -0.52,3.88 0.8,9.35 2.93,12.15 3.07,4.03 2.73,6.49 -1.58,11.69 -3.01,3.62 -6.26,12.5 -7.24,19.72 -2.11,15.65 -9.23,26.57 -16.66,25.57 -2.95,-0.4 -5.18,-2.14 -4.95,-3.87 0.77,-5.7 -37.12,-36.25 -48.53,-39.12 -16.66,-4.19 -34.17,-14.31 -47.1,-27.21 -11,-10.97 -13.36,-11.71 -52.63,-16.45 -40.13,-4.84 -41.41,-4.74 -53.81,4.29 -14.79,10.78 -16.87,18.43 -7.89,29.06 6.26,7.41 6.89,7.41 21.17,-0.1 11.29,-5.94 16.18,-6.69 20.97,-3.23 3.44,2.48 6.01,6.3 5.71,8.48 -0.3,2.25 3.53,3.74 8.87,3.45 10.2,-0.56 11.54,2.21 3.89,8.04 -3.7,2.82 -3.43,4.48 1.13,6.98 10.18,5.57 28.67,49.65 28.73,68.47 0.03,9.48 2.15,24.25 4.72,32.81 2.57,8.57 4.77,21.47 4.89,28.68 0.41,23.68 2.46,46.86 5.03,56.85 1.39,5.4 1.92,23.12 1.17,39.38 -0.75,16.26 0.21,34.37 2.12,40.26 2.25,6.94 2.07,11.34 -0.52,12.49 -2.2,0.98 -3.56,5.4 -3.02,9.81 1.33,10.92 -15.5,79.8 -20.42,83.59 -2.52,1.93 -12.2,-0.39 -26.61,-6.4 -35.94,-14.97 -60.66,-14.92 -67.79,0.15 -3.79,8.03 2.44,19.36 9.7,17.64 9.12,-2.16 22.43,8.92 21.25,17.68 -0.6,4.47 0.95,10.36 3.45,13.08 2.5,2.72 3.3,7.97 1.78,11.67 -1.52,3.7 -0.67,10.79 1.89,15.74 2.56,4.96 3.28,12.48 1.59,16.7 -1.69,4.23 -2.28,20.22 -1.32,35.56 2.57,40.83 0.7,78.73 -3.99,80.82 -2.18,0.97 -25.84,-2.34 -52.58,-7.37 -26.74,-5.03 -87.58,-14.93 -135.2,-22 -80.74,-11.99 -87.16,-12.46 -95.2,-6.95 -16.14,11.07 -35.4,37.36 -62.73,85.67 -32,56.56 -62.39,104.06 -79.91,124.92l-12.49 14.88 -4.49 -12.56c-3.52,-9.86 -5.57,-11.73 -9.55,-8.7 -2.79,2.12 -5.44,6.61 -5.89,9.97 -2.11,15.65 -38.11,33.51 -58.06,28.81 -3.98,-0.94 -15.94,-2.61 -26.58,-3.73 -19.1,-2 -19.36,-1.88 -20.9,9.52 -0.89,6.62 -5.18,14.4 -10.05,18.25 -29.34,23.19 -33.57,28.15 -35.39,41.5 -1.01,7.5 -4.97,18.02 -8.76,23.39 -3.8,5.37 -7.18,11.85 -7.53,14.4 -0.34,2.55 -3.57,6.47 -7.17,8.72 -9.62,6.01 -15.45,18.72 -13.17,28.68 1.32,5.73 -0.18,11.86 -4.38,17.91 -3.51,5.06 -5.13,10.23 -3.59,11.49 1.54,1.26 2.13,9.29 1.31,17.84 -0.82,8.55 0.62,18.61 3.2,22.37 2.58,3.75 4.09,11.23 3.36,16.62 -1.31,9.7 6.17,23.25 15.29,27.73 6.18,3.03 -17.93,42 -70.21,113.54 -38.34,52.45 -57.83,84.96 -59.83,99.83 -1.6,11.84 6.05,29.34 17.83,40.8 16.16,15.71 97.04,59.21 296.87,159.65 61.78,31.05 62.91,31.83 60.48,41.35 -5.58,21.83 19.33,33.83 62,29.88 14.86,-1.38 21.03,0.67 61.67,20.46 24.83,12.09 44.91,23.79 44.61,26 -0.81,5.97 -27.35,15.16 -49.99,17.31 -30.85,2.92 -47.84,26.64 -35.79,49.97 3.88,7.51 3.58,8.92 -2.69,13.04 -3.87,2.54 -11.88,5.1 -17.78,5.69 -16.91,1.69 -31.92,15 -30.71,27.24 2.05,20.84 1.79,21.19 -17.82,23.33 -25.53,2.79 -37.27,13.17 -37.29,32.97 -0.01,14.64 -0.21,14.86 -15.55,17.29 -37.99,6 -51.25,36.84 -28.61,66.54l12.43 16.31 -22.99 13.51c-12.65,7.43 -31.9,15.99 -42.78,19.02 -25.93,7.22 -38.21,22.64 -42.2,52.98 -4.47,34.08 7.77,63.33 32,76.46 9.87,5.35 9.89,5.44 2.21,14.55 -17.03,20.21 -29.53,31.13 -37.86,33.07 -14.85,3.46 -26.85,18.13 -29.23,35.7 -1.79,13.27 -0.32,18.29 8.96,30.46 6.11,8.02 10.79,16.91 10.4,19.76 -0.39,2.85 -13.74,16.71 -29.67,30.79 -26.61,23.52 -29.22,27.05 -32.06,43.38 -1.89,10.88 -1.35,21.41 1.39,27.15 4.04,8.46 3.76,10.4 -2.86,19.84 -4.04,5.76 -13.09,12.89 -20.13,15.86 -23.91,10.07 -32.19,41.56 -16.12,61.33 4.31,5.31 7.52,12.03 7.12,14.94 -0.39,2.91 -11.12,13.87 -23.83,24.36 -16.91,13.94 -23.5,21.91 -24.55,29.65 -0.79,5.82 0.08,11.82 1.93,13.34 7.11,5.84 0.66,17.92 -17.5,32.74 -19.83,16.18 -23.59,24.67 -16.63,37.51 3.82,7.04 3.18,8.02 -7.06,10.79 -14.93,4.03 -23.32,17.22 -19.34,30.4 3.52,11.66 15.39,18.81 35.81,21.57 11.91,1.61 18.14,-0.2 31,-9.01 8.85,-6.06 21.12,-11.34 27.25,-11.73 8.59,-0.54 11.42,-2.7 12.33,-9.38 0.79,-5.88 5.65,-10.79 15.09,-15.24 18.24,-8.59 29.03,-24.69 25.81,-38.5 -5.98,-25.64 4.81,-46.11 23,-43.65 14.11,1.91 27.19,-16.22 27.01,-37.44 -0.32,-38.36 0.95,-42.14 15.81,-46.91 24.35,-7.82 34.33,-18.92 37.14,-41.31 1.64,-13.13 0.71,-22.29 -2.79,-27.39 -2.89,-4.22 -5.62,-13.31 -6.05,-20.2 -0.73,-11.54 0.78,-13.56 19.3,-25.7l20.09 -13.17 6 -42.61 5.99 -42.61 16.29 -12.72c15.32,-11.96 16.66,-14.4 22.63,-41.07 7.65,-34.19 18.26,-51.41 29.69,-48.17 12.25,3.46 9.7,15.41 -8.78,41.18 -19.33,26.97 -23.29,43.75 -13.54,57.42 3.63,5.08 6.31,11.32 5.97,13.87 -0.34,2.54 -8.64,14.89 -18.43,27.43 -32.29,41.36 -37.81,73.81 -16.91,99.38 9.41,11.52 9.42,11.65 1.76,24.73 -4.24,7.23 -13.87,20.4 -21.41,29.26 -12.77,15.01 -13.75,17.7 -14.45,39.46 -0.41,12.84 -2.56,28.6 -4.77,35.01 -3.96,11.51 -4.22,11.6 -19.72,7.09 -14.18,-4.13 -16.91,-3.65 -28.14,4.91 -14.74,11.23 -17.78,24.88 -9.39,42.21 7.91,16.35 6.63,20.42 -6.77,21.53 -17.97,1.47 -24.85,12.26 -25.57,40.09 -0.56,21.63 0.55,25.02 13.4,40.89 14.27,17.63 27.86,25.09 42.48,23.3 4.49,-0.55 7.9,0.43 7.58,2.16 -1.06,5.79 -31.61,29.31 -48.82,37.59 -9.34,4.5 -17.26,10.23 -17.6,12.74 -0.34,2.51 -3.37,6.28 -6.74,8.39 -15.07,9.41 -7.8,51.28 10.64,61.3 4.91,2.67 25.77,7.12 46.36,9.91 38.86,5.25 78.02,18.99 99.98,35.08 8.51,6.23 18.99,8.76 52.44,12.65 45.62,5.31 47.71,6.23 72.73,32.15 14.98,15.52 17.67,16.92 31.42,16.29 15.34,-0.7 38.43,2.3 412.97,53.69 177.13,24.3 216.97,30.7 228.49,36.72 18.5,9.66 30.72,10.89 62.64,6.33l-0 -0.01zm-229.14 -164.01c-93.84,-14.52 -99.63,-15.82 -96.83,-21.74 2.34,-4.96 1.35,-6.1 -4.66,-5.37 -5.71,0.7 -9.1,-2.43 -13.43,-12.4 -3.18,-7.33 -10.96,-18.23 -17.28,-24.22 -6.32,-5.99 -11.25,-13.04 -10.95,-15.67 1.09,-9.6 14.87,-24.9 26.01,-28.88 14.61,-5.22 18.05,-12.88 18.85,-42.06 0.92,-33.21 6.28,-45.09 27.43,-60.74l18.12 -13.4 2.87 -38.06c4.02,-53.34 14.65,-79.18 39.94,-97.08 16.85,-11.93 18.54,-14.44 20.74,-30.82 1.53,-11.34 0.32,-22.56 -3.31,-30.83 -8.35,-19.03 -4.79,-37.23 9.1,-46.54 41.06,-27.52 42.15,-28.56 43.95,-41.88 0.97,-7.19 -0.24,-19.33 -2.69,-26.96 -3.88,-12.09 -3.68,-14.45 1.54,-18.3 10.02,-7.39 27.76,-4.61 38.02,5.96 5.09,5.25 13.16,10.07 17.93,10.71 6.47,0.87 8.46,3.28 7.83,9.46 -2.7,26.59 2.04,36.69 18.27,38.9 6.6,0.89 19.78,8.24 31.01,17.26 10.75,8.64 22.7,16.13 26.55,16.65 8.14,1.1 8.45,2.94 15.37,89.86 7.55,94.85 6.73,102.71 -15.72,150.47 -10.41,22.15 -19.61,45.31 -20.44,51.48 -0.93,6.86 2.99,20.81 10.09,35.91 13.09,27.84 12.9,25.84 4.44,46.96 -5.58,13.94 -5.59,17.29 -0.03,30.47 5.37,12.74 5.47,17.95 0.72,37.28 -3.38,13.77 -4.39,25.51 -2.59,30.32 2.36,6.34 1.7,7.92 -3.45,8.2 -11.67,0.63 -86.46,-9.33 -187.41,-24.95l0 0zm-443.81 -71.99c-10.34,-10.67 -11.95,-10.97 -28.29,-5.4 -14.32,4.88 -52.44,-1.59 -71.32,-12.11 -9.66,-5.39 -9.86,-5.98 -2.64,-8.11 12.74,-3.77 42.92,-21.4 48.26,-28.19 2.73,-3.47 9.19,-9.64 14.37,-13.71 5.17,-4.07 9.83,-10.36 10.35,-13.98 0.81,-5.61 1.38,-5.7 3.89,-0.58 2.51,5.12 4.18,4.88 11.38,-1.68 9.42,-8.58 12.72,-23.66 8.34,-38.16 -1.6,-5.3 -1.27,-13.74 0.74,-18.75 3.33,-8.33 5.29,-8.9 22.66,-6.55 16.1,2.18 20.96,1.14 31.67,-6.76 11.92,-8.79 13.51,-8.99 27.38,-3.4 11.31,4.56 17.26,5.11 25.68,2.37 11.91,-3.86 16.93,-9.94 34.01,-41.16 10.91,-19.94 11.76,-20.59 30.08,-22.65 14.85,-1.67 22.91,-5.55 37.95,-18.26 11.99,-10.13 24.52,-17.05 33.66,-18.6 13.84,-2.33 28.61,-11.61 58.65,-36.87 7.36,-6.19 18.19,-14.77 24.06,-19.07 5.87,-4.3 11.03,-10.54 11.48,-13.87 0.45,-3.33 3.6,-7.78 6.99,-9.91 3.39,-2.12 6.06,-5.75 5.92,-8.06 -0.55,-9.1 8.14,-23.61 15.88,-26.5 11.36,-4.24 12.83,-0.55 9.25,23.24 -3.88,25.76 -13.92,49.42 -23.93,56.41 -4.19,2.92 -12.37,8.58 -18.19,12.57 -5.82,3.99 -12.44,12.89 -14.73,19.77 -4.07,12.29 -3.06,18.14 6.86,39.84 3.08,6.73 3.37,13.51 0.85,19.82 -3.76,9.4 -8.25,13.46 -30.08,27.2 -10.48,6.6 -10.86,7.67 -12.04,34.68 -1,22.71 -2.58,29.43 -8.56,36.33 -4.03,4.65 -9.26,8.2 -11.6,7.89 -2.35,-0.32 -8.57,2.5 -13.83,6.25 -7.87,5.62 -10.08,10.61 -12.45,28.15 -2.81,20.78 -3.22,21.41 -16.07,24.85 -7.25,1.94 -17.65,8.12 -23.1,13.74 -7.05,7.25 -12.94,9.8 -20.36,8.8 -10.56,-1.43 -25.86,4.14 -39.32,14.3 -4.04,3.05 -9,5.32 -11.02,5.05 -2.02,-0.27 -3.99,1.9 -4.39,4.84 -0.74,5.49 -2.47,5.44 -80.19,-2.04 -25.4,-2.45 -30.88,-4.12 -38.23,-11.7l-0 0zm0.3 -239.98c-2.09,-2.75 -3.38,-8.16 -2.86,-12.03 0.52,-3.87 -3.24,-13.35 -8.36,-21.06 -9.46,-14.25 -11.17,-25.22 -3.77,-24.22 2.54,0.34 3.99,-4.03 3.83,-11.62 -0.5,-23.47 20.91,-72.46 50.81,-116.26 20.23,-29.65 24.96,-34.28 44,-43.12 32.28,-14.99 72.94,-45.52 96.6,-72.51 24.69,-28.18 44.51,-45.32 51.33,-44.4 2.65,0.36 11.26,8.59 19.13,18.3l14.32 17.65 -20.18 14.24c-29.6,20.89 -40.66,53.77 -27.51,81.83 4.2,8.96 3.63,10.03 -11.67,22.11 -8.84,6.99 -23.94,16.72 -33.54,21.64 -28.32,14.5 -40.38,45.11 -29.37,74.56l5.44 14.56 -16.76 7c-9.22,3.85 -26.6,9.85 -38.62,13.33 -27.54,7.97 -39.47,19.09 -42.21,39.33 -2.47,18.31 -8.34,23.67 -21.1,19.28 -6.19,-2.13 -11.45,-1.47 -15.11,1.9 -6.73,6.19 -9.36,6.1 -14.39,-0.5l0 -0zm856.89 -862.43c0.18,-2.89 0.44,-7.95 0.57,-11.24 0.13,-3.29 -3.87,-12.89 -8.89,-21.32 -5.02,-8.43 -8.6,-19.31 -7.94,-24.17 0.66,-4.86 -2.47,-13.64 -6.94,-19.51 -4.47,-5.87 -6.97,-12.81 -5.54,-15.42 1.43,-2.61 -0.81,-10.11 -4.98,-16.68 -4.16,-6.56 -7.33,-13.71 -7.04,-15.88 1.24,-9.2 -11.3,-35.65 -17.28,-36.46 -3.52,-0.47 -8.79,-4.35 -11.71,-8.6 -3.55,-5.18 -11.92,-9.2 -25.27,-12.14 -24.52,-5.41 -32.55,-13.72 -23.73,-24.56 5.24,-6.43 5.21,-8.13 -0.24,-13.44 -4.48,-4.37 -8.3,-5.3 -13.6,-3.32 -5.74,2.14 -9.79,0.33 -18.26,-8.15 -19.06,-19.08 -19.32,-23.26 -4.95,-79.61 16.83,-65.99 20.34,-74.65 36.14,-89.14 51.19,-46.94 63.95,-59.67 67.66,-67.53 2.03,-4.3 12.45,-15.34 23.15,-24.52 34.76,-29.84 62.23,-69.13 82.21,-117.56 11.27,-27.34 20.17,-86.83 17.63,-117.93 -0.99,-12.11 -0.88,-22.71 0.23,-23.57 1.12,-0.85 19.89,-2.76 41.71,-4.23 38.21,-2.59 39.91,-2.4 46.07,4.88 3.51,4.16 6.87,12.13 7.46,17.71 0.59,5.58 5.14,28.6 10.11,51.15 12.63,57.35 38.42,212.44 37.03,222.71 -0.63,4.68 -4.03,10.31 -7.54,12.5 -10.03,6.26 -18.04,19.98 -23.42,40.11l-4.95 18.53 16.57 19.5c9.11,10.73 20.14,20.93 24.51,22.68 6.82,2.73 8.9,10.27 14.69,53.3 6.97,51.84 23.87,211.1 24.73,233.01 0.47,12.02 -0.19,12.63 -19.86,18.27 -62.56,17.94 -226.88,51.09 -235.13,47.44 -1.93,-0.85 -3.36,-3.92 -3.18,-6.81l-0 -0zm-819.03 -126.19c2.3,-4.87 1.1,-7.52 -4.42,-9.8 -6.23,-2.56 -7.07,-5.39 -4.72,-15.94 2.47,-11.05 4.72,-13.17 16.28,-15.36 19.85,-3.75 33.52,-20.68 35.09,-43.47l1.25 -18.15 26.64 -5.16c14.65,-2.84 27.85,-5 29.34,-4.8 1.48,0.2 0.44,5.51 -2.32,11.8 -7.66,17.45 -8.32,30.45 -2.4,47.33 2.97,8.45 5.29,16.11 5.17,17 -0.12,0.9 -6.3,0 -13.74,-1.99 -27.7,-7.43 -62.92,14.61 -72.48,45.34 -4.36,14.01 -4.71,14.25 -10.68,7.18 -3.89,-4.61 -5,-9.78 -3.01,-13.99l-0 0zm-187.5 -38.15c-27.48,-17.06 -79.6,-48.12 -115.81,-69.01 -82.63,-47.67 -124.82,-75.42 -126.69,-83.34 -1.35,-5.7 11.28,-30.72 56.18,-111.29 9.59,-17.21 33.45,-54.17 53.03,-82.13 33.84,-48.33 36.35,-50.99 50.84,-53.89 16.98,-3.39 35.63,-15.45 45.51,-29.41 8.6,-12.16 12.62,-43.68 7.42,-58.25 -4.06,-11.37 -3.56,-12.42 22.75,-48.1 14.79,-20.06 39.58,-54.09 55.07,-75.62 15.49,-21.53 47.19,-62.63 70.43,-91.34l42.25 -52.19 26.81 4.74c57.74,10.2 169.6,45.84 190.16,60.59 7.39,5.3 6.65,17.04 -0.82,12.95 -5.53,-3.03 -7.94,6.46 -11.81,46.45 -3.68,38.1 -2.1,51.92 6.21,54.28 7.33,2.08 7.37,2.69 0.76,12.42 -12.11,17.81 -1.68,51.69 16.68,54.16 9.15,1.24 9.23,1.51 2.11,7.51 -7.03,5.93 -7.14,6.79 -2.43,17.95l4.95 11.73 -16.13 15.02c-14.03,13.07 -17.94,14.78 -30.09,13.14 -10.72,-1.45 -16.04,0.12 -22.87,6.75 -4.9,4.75 -9.31,11.64 -9.81,15.31 -1.74,12.87 -12.42,24.81 -26.69,29.81 -11.62,4.08 -15.59,8.03 -20.57,20.44 -5.03,12.55 -8.79,16.23 -20.4,19.96 -13.94,4.48 -14.23,4.91 -13.99,21.05 0.22,15.36 -0.85,17.41 -15.76,30.01 -8.8,7.44 -23.32,15.56 -32.27,18.04 -25.5,7.07 -34.31,21.13 -34.07,54.29 0.06,7.58 -2.81,9.41 -21.12,13.51 -11.65,2.61 -23.59,6.18 -26.53,7.93 -10.15,6.04 -20.15,24.21 -25.25,45.86 -4.39,18.65 -6.25,21.73 -13.14,21.78 -8.69,0.06 -19.85,8.12 -28.12,20.29 -2.87,4.22 -7.64,7.37 -10.62,7.02 -17.3,-2.07 -28.48,6.69 -35.46,27.78 -3.55,10.73 -2.89,13.73 4.79,21.65 6.08,6.27 14.12,9.9 25.28,11.41 9,1.22 20.83,5.73 26.28,10.04 8.99,7.09 10.92,7.43 20.63,3.61 5.89,-2.32 16.2,-11.72 22.9,-20.88 8.29,-11.33 17,-18.34 27.24,-21.91 18.85,-6.58 22.39,-10.93 30.64,-37.64 5.83,-18.87 7.76,-21.52 15.77,-21.57 20.47,-0.12 57.13,-34.14 60.05,-55.73 1.01,-7.51 13.47,-28.31 16.69,-27.87 0.83,0.11 5.75,2.51 10.94,5.33l9.43 5.12 -9 7.31c-11.32,9.19 -12.23,15.82 -4.1,29.62l6.44 10.93 -9.95 8.18c-5.47,4.5 -18.76,10.75 -29.53,13.91 -10.77,3.15 -24.98,10.63 -31.59,16.63 -10.81,9.81 -12.14,13.05 -13.35,32.41l-1.34 21.51 -20.86 8.32c-22.93,9.15 -34.09,21.63 -36.72,41.07 -1.46,10.8 -3.17,12.66 -12.16,13.22 -12.07,0.76 -29.89,21.52 -32.02,37.32 -1.68,12.41 -1.89,12.32 -67.16,-28.2l-0 -0zm521.14 -68.94c-12.37,-16.24 -6.89,-38.7 12.39,-50.74 9.63,-6.02 22.78,-26.27 27.86,-42.9 3.39,-11.11 2.99,-18.33 -1.77,-31.99 -12.36,-35.46 -55.53,-53.6 -109.56,-46.03 -12.24,1.72 -23.14,1.94 -24.24,0.5 -2.64,-3.47 18.31,-71.32 29.24,-94.66 9.69,-20.71 15.66,-22.26 29.75,-7.73 6.84,7.05 11.7,8.89 22.07,8.36 7.32,-0.37 15.06,1.23 17.2,3.56 9.49,10.32 36.2,20.23 52.52,19.49 18.25,-0.83 67.13,8.59 71.01,13.68 3.09,4.06 -13.83,153.74 -18.78,166.12 -2.98,7.45 -5.79,8.77 -15.82,7.42 -13.72,-1.85 -18.22,1.36 -39.59,28.27 -17.17,21.62 -34.37,36.44 -41.21,35.52 -2.65,-0.36 -7.64,-4.35 -11.08,-8.87l0 0zm473.65 -1140.85c-3.52,-3.49 -12.72,-7.2 -20.44,-8.25 -11.41,-1.54 -14.6,-3.72 -16.97,-11.58 -1.61,-5.32 -9.48,-14.02 -17.49,-19.33 -9.57,-6.34 -14.93,-12.89 -15.62,-19.08 -0.58,-5.19 -6.83,-14.78 -13.88,-21.33 -10.11,-9.39 -12.83,-14.94 -12.86,-26.28 -0.02,-7.91 -2.91,-18.41 -6.43,-23.34 -4.52,-6.34 -5.17,-10.42 -2.21,-13.94 5.84,-6.96 7.17,-21.66 2.94,-32.49 -2.97,-7.62 -2.19,-11.93 4.68,-25.77 4.54,-9.14 12.54,-20.78 17.77,-25.86 5.24,-5.08 9.82,-11.47 10.19,-14.21 0.37,-2.74 6.9,-7.93 14.52,-11.54 8.18,-3.88 15.32,-10.57 17.45,-16.35 2.04,-5.54 6.08,-9.45 9.3,-9.02 3.13,0.42 11.82,-4.19 19.31,-10.25 12.67,-10.25 14.45,-10.64 25.48,-5.59 8.64,3.96 15,4.59 23.48,2.34 15.39,-4.09 46.32,-0.29 50.36,6.19 1.75,2.81 7.86,5.73 13.58,6.5 6.19,0.84 13.59,5.61 18.32,11.81 4.36,5.72 11.93,10.95 16.82,11.61 12.84,1.73 16,9.37 11.17,26.98 -3.59,13.09 -6.08,15.88 -16.74,18.73 -13.85,3.7 -26.31,15.18 -27.7,25.52 -0.5,3.69 1.04,12.16 3.42,18.83 3.5,9.82 3.27,13.81 -1.27,21.01 -3.08,4.89 -8.57,23.66 -12.21,41.71l-6.62 32.82 -23.24 17.55c-12.78,9.65 -30.39,26.98 -39.14,38.5 -8.75,11.52 -16.73,20.84 -17.74,20.7 -1.01,-0.14 -4.71,-3.11 -8.23,-6.6l0 0zm118.2 -98.77c-3.37,-26.3 10.8,-46.17 30.97,-43.44 15.52,2.1 28.41,-4.98 34.01,-18.66 5.56,-13.62 12.61,-15.66 14.6,-4.24 0.82,4.67 5.45,13.37 10.29,19.34 5.67,6.98 8.89,16.36 9.04,26.32 0.27,17.69 -3.44,19.43 -33.09,15.52 -11.47,-1.51 -19.03,-0.19 -25.58,4.49 -7.62,5.44 -20.93,8.76 -36.77,9.17 -1.31,0.03 -2.87,-3.79 -3.47,-8.49l0 0z"/>
 </g>
</svg>
