<?xml version="1.0" encoding="UTF-8"?>
<!DOCTYPE svg PUBLIC "-//W3C//DTD SVG 1.1//EN" "http://www.w3.org/Graphics/SVG/1.1/DTD/svg11.dtd">
<!-- Creator: CorelDRAW -->
<svg xmlns="http://www.w3.org/2000/svg" xml:space="preserve" width="149.011mm" height="230.26mm" version="1.1" style="shape-rendering:geometricPrecision; text-rendering:geometricPrecision; image-rendering:optimizeQuality; fill-rule:evenodd; clip-rule:evenodd"
viewBox="0 0 4228.49 6534.07"
 xmlns:xlink="http://www.w3.org/1999/xlink"
 xmlns:xodm="http://www.corel.com/coreldraw/odm/2003">
 <defs>
  <style type="text/css">
   <![CDATA[
    .fil0 {fill:#121F38;fill-rule:nonzero}
   ]]>
  </style>
 </defs>
 <g id="Layer_x0020_1">
  <metadata id="CorelCorpID_0Corel-Layer"/>
  <path id="path1" class="fil0" d="M1814.36 6464.6c-31.77,-4.54 -73.98,-4.66 -102.32,-0.3 -26.54,4.09 -74.95,11.63 -107.59,16.77 -49.15,7.74 -65.91,7.15 -97.55,-3.45 -46.18,-15.47 -68.52,-10.07 -132.15,31.95 -52.63,34.76 -62.43,33.81 -113.75,-11.08 -55.82,-48.81 -87.73,-108.43 -64.75,-121 7.81,-4.28 8.24,-13.28 1.76,-36.65 -7.57,-27.31 -6.53,-33.12 8.79,-48.91 9.56,-9.86 16.53,-24.23 15.49,-31.94 -6.23,-46.13 45.72,-70.79 77.57,-36.81 16.93,18.06 21.39,18.8 76.1,12.68 31.96,-3.58 70.03,-5.99 84.59,-5.37l26.47 1.14 -14.29 -16.27c-7.86,-8.95 -18.9,-15.66 -24.54,-14.89 -14.48,1.96 -29.07,-21.08 -40.95,-64.64 -5.61,-20.58 -16.32,-47.88 -23.79,-60.65 -11.06,-18.9 -12.42,-27.62 -7.32,-46.8 4.04,-15.18 3.02,-31.08 -2.85,-44.63 -6.77,-15.64 -6.41,-27.48 1.38,-45.96 9.27,-21.99 9,-26.61 -2.3,-39.48 -15.81,-18.02 -12.34,-42.99 7.92,-56.85 8.33,-5.7 25.34,-23.1 37.82,-38.67 12.48,-15.57 38.04,-47.19 56.8,-70.25 28.85,-35.47 33.56,-46.04 30.51,-68.6 -4.38,-32.42 5.42,-42.34 27.12,-27.45 8.92,6.12 17.24,9.59 18.48,7.71 24.32,-36.84 25.06,-222.01 1.88,-469.31 -8.29,-88.47 -15.83,-194.74 -16.73,-236.16l-1.65 -75.31 -21.14 -11.42c-42.64,-23.03 -51.22,-44.41 -71.1,-177.01l-18.32 -122.19 -20.07 -7.29c-26.69,-9.7 -37.11,-37.16 -24.27,-64.03 7.28,-15.23 7.51,-23 0.83,-28.09 -17.44,-13.29 -12.96,-34.96 13.71,-66.31 26.32,-30.93 26.56,-31.95 16.68,-69.29 -8.65,-32.69 -8,-42.33 4.72,-70.15 8.11,-17.74 17.94,-34.88 21.84,-38.09 10.3,-8.46 4.63,-37.24 -10.31,-52.28 -20.58,-20.72 -20.96,-54.25 -1.09,-94.11 27.08,-54.31 28.67,-66.19 13.01,-97.38l-13.81 -27.52 -149.56 -22.27c-431.47,-64.26 -522.15,-83.79 -546.72,-117.8 -28.12,-38.92 -24.31,-100.18 27.2,-437.49l20.28 -132.79 -27.7 -18.75c-15.43,-10.44 -29.13,-26.5 -30.91,-36.24 -3.94,-21.46 -25.67,-48.55 -37.65,-46.93 -16.88,2.28 -46.36,-33.88 -44.38,-54.45 1.02,-10.65 -1.01,-48.98 -4.52,-85.17 -5.15,-53.09 -3.86,-70.41 6.69,-89.62 7.19,-13.09 11.92,-33.16 10.51,-44.6 -1.42,-11.44 1.18,-27.43 5.76,-35.53 4.58,-8.1 5.92,-20.61 2.97,-27.78 -3.41,-8.29 1.05,-19.66 12.23,-31.19 15.05,-15.52 16.06,-20.26 7.02,-32.77 -16.03,-22.19 -3.16,-35.2 47.65,-48.17 40.12,-10.24 45.4,-13.85 55.58,-38.02 7.36,-17.48 18.89,-29.5 33.35,-34.78 12.97,-4.74 22.84,-14.12 23.88,-22.67 0.98,-8.03 7.82,-15.41 15.2,-16.4 14.3,-1.93 13.29,4.97 29.44,-201.36 4.14,-52.87 16.76,-144.85 28.04,-204.42 28.35,-149.58 8.32,-137.24 283.05,-174.36 203.75,-27.53 214.94,-29.78 223.12,-44.85 13.06,-24.05 8.56,-34.07 -19.83,-44.15 -14.22,-5.05 -36.93,-15.35 -50.44,-22.89 -49.54,-27.62 -247.03,-91.48 -282.47,-91.33 -60.82,0.26 -89.49,16.96 -374.43,218.14l-89.69 63.32 -51.15 3.22c-54.72,3.44 -74.54,-4.47 -99.19,-39.62 -7.35,-10.48 -17.55,-18.48 -22.67,-17.79 -5.12,0.69 -19.88,-7.93 -32.78,-19.17 -17.2,-14.97 -27.78,-18.79 -39.61,-14.3 -89.42,33.96 -95.11,35.18 -125.11,26.76 -24.69,-6.92 -30.02,-11.93 -32.53,-30.51 -1.65,-12.22 -6.95,-21.69 -11.77,-21.04 -4.82,0.65 -31.18,29.78 -58.57,64.74 -44.67,56.99 -52.77,63.94 -78.58,67.32 -36.69,4.82 -50.5,-1.4 -46.12,-20.77 1.87,-8.25 20.2,-54.78 40.74,-103.39 65.95,-156.09 130.11,-384.05 109.19,-388.01 -13.35,-2.53 -13.81,-18.64 -1.7,-58.78 5.83,-19.31 10.97,-46.24 11.43,-59.84 0.45,-13.6 3.65,-37.05 7.11,-52.1 3.45,-15.05 8.54,-43.01 11.32,-62.14 2.77,-19.12 8.75,-40.66 13.29,-47.85 4.54,-7.19 7.2,-21.19 5.91,-31.1 -1.27,-9.91 5.27,-39.51 14.58,-65.77 11.49,-32.42 15.67,-59.73 13.03,-85.1 -3.48,-33.46 -5.67,-37.37 -20.95,-37.47 -10.75,-0.07 -17.76,-5.26 -18.94,-14.04 -2.27,-16.82 8.5,-26.66 33.42,-30.56 32.04,-5.01 21.33,-64.38 -18.05,-100.12 -39.01,-35.4 -15.87,-59.5 29.5,-30.72l24.48 15.53 1.5 -23.77c3.01,-47.68 -5.39,-80.91 -22.41,-88.6 -30.57,-13.8 -17.59,-37.8 16.32,-30.16 9.42,2.12 24.42,12.27 33.33,22.55 17.8,20.53 52.62,48.59 59.19,47.7 2.29,-0.31 12.99,-10.28 23.76,-22.15 11.04,-12.16 29.01,-22.86 41.15,-24.5 16.5,-2.23 23.59,-8.6 30.21,-27.14 9.47,-26.52 31.56,-41.82 67.34,-46.65 16.9,-2.28 27.61,-10.22 39.64,-29.35 12.68,-20.17 22.38,-26.99 42.02,-29.55 14.04,-1.82 32.68,-10.6 41.42,-19.49 19,-19.33 49.7,-24.82 71.56,-12.8 10.89,5.98 25.79,6.01 47.37,0.09 25.11,-6.9 36.28,-6.01 55.21,4.39 15.64,8.6 34.69,11.56 55.86,8.7 17.67,-2.39 40.13,-0.21 49.91,4.84 22.64,11.69 50.61,1 62.5,-23.88 4.93,-10.32 18.79,-22.36 30.79,-26.75 26.92,-9.84 32.26,-20.35 17.34,-34.08 -16.99,-15.64 -30.95,-117.53 -20.2,-147.44 4.72,-13.14 6.46,-32.99 3.86,-44.11 -3.58,-15.33 1.63,-28.48 21.54,-54.34 14.45,-18.77 25.61,-38.99 24.81,-44.94 -2.04,-15.07 51.71,-64.64 67.16,-61.94 7.83,1.37 20.95,-9.04 34.4,-27.27 17.12,-23.21 27.59,-30.28 49.19,-33.2 21.07,-2.85 29.69,-8.42 37.12,-23.96 7.76,-16.25 15.89,-21.12 41.1,-24.66 19.69,-2.77 37.64,-10.79 48.06,-21.48 20.5,-21.02 31.42,-22.6 66.54,-9.58 26.87,9.96 27.96,9.8 45.13,-6.88 21.71,-21.09 53.36,-19.54 73.43,3.6 10.95,12.63 16.52,14.07 26.51,6.85 22.81,-16.48 63.67,-17.49 78.03,-1.93 9.4,10.18 22.22,13.49 44.77,11.55 24.75,-2.13 36.71,1.65 55.14,17.4 12.94,11.07 34,20.98 46.8,22.03 12.8,1.05 27.91,6.18 33.57,11.39 14.12,12.99 21.87,10.69 25.04,-7.45 2.17,-12.43 5.35,-14.09 16.92,-8.88 11.52,5.2 17.43,2.25 30.91,-15.44 9.17,-12.03 25.9,-25.1 37.19,-29.04 11.29,-3.94 38.23,-14.84 59.88,-24.21 21.65,-9.38 46.77,-18.86 55.81,-21.08 9.05,-2.22 18.4,-6.59 20.78,-9.72 2.39,-3.13 26.43,-8.68 53.44,-12.33 64.23,-8.68 102.34,4.17 110.19,37.15 6.64,27.87 -8.19,39.17 -37.2,28.34 -17.35,-6.47 -21.23,-5.32 -32.65,9.67 -7.13,9.36 -11.61,23.39 -9.95,31.17 1.66,7.79 7.22,41.72 12.38,75.4 7.1,46.45 11.83,60.91 19.58,59.86 8.01,-1.08 11.12,10.38 14.41,52.98 4.01,51.98 20.1,93.03 33.83,86.32 8.14,-3.98 21.69,86.6 16.84,112.62 -4.97,26.69 0,33.05 13.97,17.87 8.43,-9.16 10.39,-8.61 12,3.36 1.06,7.87 -1.61,18.96 -5.95,24.65 -6.22,8.16 -5.54,13.16 3.2,23.71 6.1,7.35 12.7,25.35 14.69,39.99 4.29,31.74 18.73,53.9 33.79,51.86 5.99,-0.81 10.51,-4.34 10.04,-7.86 -1.56,-11.57 75.28,-73.53 98.43,-79.36 33.78,-8.51 69.31,-29.03 95.54,-55.19 22.31,-22.25 27.11,-23.75 106.74,-33.36 81.39,-9.83 84,-9.62 109.14,8.7 29.99,21.86 34.21,37.38 16.01,58.94 -12.69,15.04 -13.97,15.03 -42.94,-0.2 -22.9,-12.04 -32.81,-13.57 -42.53,-6.54 -6.97,5.03 -12.18,12.78 -11.58,17.2 0.62,4.57 -7.15,7.59 -18,7 -20.69,-1.13 -23.41,4.49 -7.89,16.31 7.51,5.73 6.97,9.09 -2.29,14.16 -20.64,11.29 -58.16,100.7 -58.27,138.87 -0.06,19.24 -4.37,49.19 -9.57,66.56 -5.21,17.37 -9.67,43.54 -9.93,58.16 -0.83,48.03 -4.99,95.05 -10.21,115.32 -2.82,10.96 -3.89,46.9 -2.38,79.87 1.51,32.97 -0.42,69.72 -4.3,81.67 -4.57,14.08 -4.2,22.99 1.06,25.33 4.46,1.99 7.22,10.94 6.12,19.9 -2.7,22.15 31.43,161.86 41.43,169.54 5.1,3.92 24.74,-0.79 53.98,-12.97 72.89,-30.36 123.04,-30.25 137.49,0.31 7.7,16.28 -4.94,39.27 -19.68,35.79 -18.5,-4.37 -45.5,18.09 -43.1,35.87 1.23,9.07 -1.92,21.01 -7,26.53 -5.08,5.52 -6.7,16.17 -3.62,23.67 3.08,7.5 1.36,21.88 -3.84,31.94 -5.19,10.06 -6.65,25.31 -3.22,33.87 3.43,8.57 4.63,41.02 2.67,72.12 -5.2,82.82 -1.41,159.69 8.09,163.93 4.42,1.98 52.42,-4.75 106.65,-14.96 54.24,-10.2 177.64,-30.28 274.22,-44.63 163.77,-24.33 176.79,-25.28 193.1,-14.09 32.74,22.45 71.8,75.79 127.25,173.77 64.92,114.71 126.55,211.06 162.07,253.38l25.33 30.17 9.1 -25.48c7.14,-20 11.3,-23.79 19.36,-17.65 5.65,4.3 11.02,13.4 11.94,20.22 4.29,31.73 77.29,67.96 117.75,58.43 8.08,-1.9 32.34,-5.3 53.91,-7.56 38.75,-4.05 39.26,-3.82 42.38,19.3 1.81,13.42 10.51,29.21 20.39,37.02 59.5,47.03 68.09,57.1 71.79,84.17 2.05,15.21 10.08,36.56 17.78,47.45 7.7,10.89 14.57,24.04 15.26,29.21 0.7,5.17 7.24,13.13 14.54,17.69 19.51,12.19 31.35,37.97 26.71,58.17 -2.67,11.61 0.37,24.06 8.88,36.33 7.12,10.26 10.4,20.75 7.28,23.31 -3.12,2.56 -4.31,18.84 -2.66,36.17 1.65,17.34 -1.26,37.75 -6.49,45.37 -5.23,7.61 -8.29,22.79 -6.81,33.72 2.66,19.67 -12.51,47.16 -31.02,56.24 -12.53,6.15 36.36,85.2 142.41,230.29 77.76,106.39 117.29,172.33 121.36,202.48 3.25,24.02 -12.27,59.51 -36.16,82.75 -32.79,31.87 -196.83,120.1 -602.13,323.82 -125.3,62.99 -127.6,64.56 -122.67,83.87 11.32,44.27 -39.2,68.62 -125.75,60.61 -30.14,-2.79 -42.65,1.36 -125.09,41.49 -50.37,24.53 -91.1,48.26 -90.49,52.74 1.63,12.11 55.48,30.75 101.39,35.1 62.57,5.93 97.03,54.04 72.6,101.35 -7.86,15.22 -7.27,18.09 5.47,26.45 7.86,5.16 24.09,10.35 36.07,11.55 34.3,3.42 64.74,30.41 62.3,55.25 -4.16,42.28 -3.62,42.98 36.14,47.32 51.77,5.66 75.59,26.72 75.63,66.87 0.03,29.7 0.43,30.15 31.55,35.07 77.06,12.18 103.95,74.72 58.04,134.97l-25.21 33.09 46.64 27.41c25.65,15.07 64.7,32.44 86.78,38.59 52.59,14.64 77.5,45.92 85.58,107.47 9.07,69.13 -15.75,128.46 -64.91,155.09 -20.03,10.85 -20.06,11.04 -4.48,29.52 34.54,40.98 59.9,63.13 76.79,67.07 30.11,7.02 54.46,36.77 59.28,72.41 3.64,26.92 0.64,37.11 -18.17,61.79 -12.39,16.26 -21.88,34.29 -21.1,40.08 0.78,5.79 27.87,33.89 60.18,62.46 53.98,47.71 59.27,54.87 65.03,87.99 3.84,22.07 2.74,43.43 -2.82,55.07 -8.2,17.15 -7.63,21.1 5.8,40.25 8.19,11.68 26.56,26.15 40.82,32.16 48.5,20.43 65.28,84.29 32.69,124.4 -8.74,10.77 -15.25,24.4 -14.45,30.3 0.79,5.9 22.55,28.13 48.34,49.4 34.29,28.28 47.67,44.44 49.79,60.13 1.59,11.8 -0.17,23.98 -3.92,27.06 -14.42,11.85 -1.33,36.35 35.49,66.4 40.21,32.82 47.85,50.04 33.73,76.08 -7.75,14.28 -6.45,16.27 14.31,21.88 30.29,8.18 47.3,34.92 39.23,61.66 -7.14,23.65 -31.22,38.16 -72.63,43.75 -24.15,3.26 -36.8,-0.41 -62.88,-18.27 -17.96,-12.29 -42.83,-23 -55.27,-23.78 -17.42,-1.1 -23.17,-5.48 -25,-19.03 -1.61,-11.93 -11.47,-21.88 -30.61,-30.9 -36.99,-17.43 -58.89,-50.09 -52.36,-78.08 12.12,-52 -9.76,-93.53 -46.65,-88.54 -28.62,3.87 -55.15,-32.9 -54.79,-75.94 0.65,-77.81 -1.94,-85.47 -32.08,-95.15 -49.4,-15.87 -69.64,-38.39 -75.33,-83.79 -3.33,-26.63 -1.44,-45.21 5.66,-55.56 5.87,-8.56 11.39,-26.99 12.28,-40.96 1.48,-23.41 -1.59,-27.51 -39.15,-52.13l-40.76 -26.72 -12.16 -86.42 -12.16 -86.42 -33.04 -25.8c-31.07,-24.26 -33.8,-29.21 -45.9,-83.29 -15.51,-69.35 -37.03,-104.27 -60.23,-97.71 -24.84,7.03 -19.67,31.26 17.81,83.53 39.22,54.69 47.24,88.74 27.46,116.47 -7.36,10.31 -12.81,22.97 -12.11,28.12 0.7,5.16 17.52,30.19 37.38,55.63 65.49,83.88 76.69,149.71 34.3,201.58 -19.09,23.36 -19.11,23.63 -3.56,50.16 8.6,14.67 28.14,41.38 43.42,59.35 25.9,30.45 27.89,35.9 29.32,80.04 0.84,26.05 5.19,58.01 9.67,71.02 8.04,23.35 8.56,23.53 40,14.38 28.77,-8.37 34.3,-7.41 57.08,9.95 29.9,22.78 36.06,50.46 19.04,85.62 -16.05,33.17 -13.45,41.43 13.73,43.66 36.45,2.99 50.4,24.87 51.86,81.31 1.13,43.86 -1.12,50.74 -27.17,82.93 -28.94,35.76 -56.5,50.89 -86.15,47.27 -9.1,-1.11 -16.02,0.86 -15.38,4.39 2.15,11.74 64.11,59.45 99.01,76.25 18.94,9.12 35,20.74 35.69,25.84 0.69,5.09 6.84,12.75 13.66,17.01 30.56,19.09 15.82,104.01 -21.58,124.33 -9.95,5.41 -52.27,14.45 -94.03,20.09 -78.83,10.65 -158.24,38.51 -202.8,71.16 -17.26,12.64 -38.51,17.77 -106.36,25.66 -92.53,10.76 -96.78,12.64 -147.51,65.21 -30.38,31.48 -35.84,34.32 -63.72,33.04 -31.11,-1.42 -77.95,4.67 -837.62,108.89 -359.27,49.29 -440.08,62.28 -463.46,74.48 -37.52,19.59 -62.3,22.1 -127.06,12.84l0.01 -0.02zm464.77 -332.65c190.33,-29.45 202.07,-32.09 196.39,-44.1 -4.75,-10.05 -2.74,-12.37 9.45,-10.88 11.57,1.41 18.45,-4.94 27.23,-25.14 6.46,-14.87 22.23,-36.97 35.05,-49.12 12.82,-12.15 22.82,-26.45 22.21,-31.79 -2.21,-19.48 -30.16,-50.51 -52.76,-58.58 -29.64,-10.58 -36.61,-26.13 -38.24,-85.32 -1.86,-67.37 -12.74,-91.46 -55.64,-123.19l-36.76 -27.19 -5.83 -77.21c-8.16,-108.19 -29.72,-160.59 -81.01,-196.91 -34.18,-24.2 -37.61,-29.3 -42.07,-62.5 -3.1,-22.99 -0.64,-45.75 6.71,-62.52 16.93,-38.61 9.71,-75.51 -18.46,-94.4 -83.28,-55.83 -85.48,-57.93 -89.13,-84.95 -1.97,-14.59 0.48,-39.2 5.45,-54.68 7.87,-24.52 7.47,-29.3 -3.12,-37.11 -20.32,-15 -56.31,-9.36 -77.11,12.09 -10.32,10.64 -26.68,20.42 -36.36,21.73 -13.12,1.77 -17.16,6.65 -15.89,19.19 5.48,53.93 -4.15,74.42 -37.06,78.9 -13.38,1.81 -40.12,16.71 -62.91,35.01 -21.8,17.52 -46.04,32.72 -53.86,33.78 -16.5,2.23 -17.14,5.97 -31.17,182.26 -15.31,192.38 -13.65,208.32 31.89,305.19 21.11,44.92 39.77,91.91 41.46,104.42 1.88,13.92 -6.07,42.21 -20.46,72.83 -26.55,56.47 -26.17,52.41 -9,95.26 11.32,28.27 11.33,35.07 0.07,61.8 -10.89,25.84 -11.09,36.4 -1.45,75.62 6.86,27.92 8.9,51.75 5.26,61.5 -4.8,12.85 -3.44,16.06 6.99,16.62 23.68,1.27 175.36,-18.92 380.13,-50.6l-0 0zm900.19 -146.02c20.98,-21.63 24.24,-22.26 57.39,-10.96 29.05,9.9 106.37,-3.23 144.65,-24.56 19.6,-10.93 19.99,-12.12 5.35,-16.45 -25.83,-7.64 -87.05,-43.41 -97.88,-57.18 -5.54,-7.04 -18.65,-19.56 -29.14,-27.81 -10.49,-8.25 -19.94,-21.01 -20.99,-28.35 -1.64,-11.39 -2.8,-11.56 -7.89,-1.17 -5.09,10.39 -8.48,9.89 -23.07,-3.41 -19.11,-17.41 -25.8,-47.99 -16.92,-77.4 3.24,-10.74 2.57,-27.86 -1.49,-38.04 -6.75,-16.9 -10.74,-18.05 -45.96,-13.29 -32.65,4.41 -42.51,2.3 -64.24,-13.72 -24.17,-17.83 -27.41,-18.23 -55.53,-6.9 -22.95,9.24 -35,10.36 -52.09,4.81 -24.16,-7.84 -34.35,-20.17 -68.97,-83.49 -22.12,-40.45 -23.86,-41.76 -61.01,-45.94 -30.12,-3.39 -46.47,-11.25 -76.98,-37.04 -24.31,-20.55 -49.73,-34.59 -68.28,-37.72 -28.08,-4.73 -58.03,-23.56 -118.95,-74.78 -14.94,-12.56 -36.89,-29.97 -48.79,-38.69 -11.9,-8.72 -22.38,-21.38 -23.29,-28.12 -0.91,-6.75 -7.29,-15.79 -14.18,-20.09 -6.88,-4.3 -12.29,-11.66 -12,-16.35 1.12,-18.46 -16.51,-47.89 -32.2,-53.75 -23.04,-8.6 -26.02,-1.11 -18.76,47.14 7.87,52.25 28.23,100.24 48.54,114.41 8.49,5.93 25.1,17.4 36.9,25.49 11.8,8.09 25.24,26.14 29.87,40.11 8.26,24.94 6.21,36.8 -13.92,80.81 -6.24,13.65 -6.83,27.41 -1.72,40.2 7.62,19.06 16.73,27.3 61,55.17 21.27,13.38 22.02,15.56 24.43,70.34 2.02,46.07 5.24,59.7 17.37,73.69 8.18,9.44 18.77,16.64 23.53,15.99 4.76,-0.64 17.38,5.07 28.06,12.68 15.97,11.4 20.44,21.51 25.25,57.09 5.7,42.15 6.52,43.43 32.59,50.4 14.71,3.94 35.79,16.47 46.86,27.86 14.29,14.71 26.25,19.88 41.3,17.85 21.41,-2.89 52.45,8.39 79.76,29 8.2,6.19 18.25,10.79 22.34,10.24 4.09,-0.55 8.1,3.86 8.9,9.82 1.5,11.13 5.02,11.04 162.64,-4.15 51.52,-4.96 62.63,-8.37 77.54,-23.73l0 0zm-0.6 -486.76c4.25,-5.57 6.85,-16.56 5.79,-24.41 -1.06,-7.85 6.57,-27.07 16.96,-42.71 19.2,-28.91 22.66,-51.15 7.65,-49.12 -5.16,0.7 -8.09,-8.18 -7.76,-23.57 1,-47.6 -42.42,-146.96 -103.05,-235.82 -41.04,-60.13 -50.63,-69.54 -89.24,-87.47 -65.47,-30.41 -147.94,-92.32 -195.93,-147.08 -50.08,-57.16 -90.27,-91.92 -104.11,-90.05 -5.38,0.73 -22.84,17.43 -38.81,37.12l-29.04 35.8 40.94 28.88c60.05,42.37 82.47,109.06 55.79,165.98 -8.51,18.17 -7.36,20.34 23.67,44.85 17.94,14.17 48.55,33.92 68.02,43.89 57.43,29.41 81.9,91.5 59.57,151.23l-11.04 29.54 34 14.19c18.7,7.81 53.95,19.97 78.34,27.03 55.87,16.17 80.06,38.72 85.61,79.78 5.02,37.14 16.92,48.02 42.8,39.11 12.55,-4.32 23.23,-2.98 30.65,3.85 13.65,12.55 18.99,12.37 29.19,-1.02l-0.01 -0zm-1738.03 -1749.25c-0.37,-5.86 -0.89,-16.12 -1.15,-22.8 -0.27,-6.68 7.85,-26.15 18.04,-43.25 10.19,-17.11 17.44,-39.17 16.11,-49.02 -1.33,-9.85 5.01,-27.66 14.08,-39.58 9.07,-11.91 14.13,-25.98 11.24,-31.27 -2.89,-5.29 1.65,-20.51 10.09,-33.82 8.44,-13.31 14.87,-27.81 14.27,-32.21 -2.52,-18.66 22.91,-72.31 35.06,-73.96 7.14,-0.96 17.82,-8.81 23.75,-17.45 7.2,-10.5 24.18,-18.66 51.26,-24.63 49.73,-10.96 66.02,-27.83 48.12,-49.82 -10.62,-13.05 -10.56,-16.49 0.49,-27.25 9.09,-8.86 16.84,-10.75 27.59,-6.74 11.63,4.34 19.86,0.67 37.04,-16.53 38.65,-38.69 39.18,-47.17 10.03,-161.48 -34.13,-133.85 -41.25,-151.41 -73.31,-180.8 -103.84,-95.2 -129.72,-121.03 -137.24,-136.96 -4.12,-8.72 -25.25,-31.11 -46.95,-49.74 -70.51,-60.53 -126.23,-140.21 -166.74,-238.44 -22.87,-55.45 -40.91,-176.12 -35.75,-239.19 2.01,-24.56 1.79,-46.07 -0.47,-47.8 -2.27,-1.73 -40.34,-5.59 -84.61,-8.59 -77.51,-5.24 -80.96,-4.88 -93.44,9.91 -7.13,8.44 -13.93,24.61 -15.13,35.92 -1.2,11.31 -10.42,58 -20.5,103.75 -25.62,116.33 -77.92,430.9 -75.11,451.72 1.28,9.49 8.16,20.9 15.29,25.35 20.33,12.7 36.58,40.53 47.49,81.35l10.05 37.58 -33.6 39.55c-18.48,21.75 -40.85,42.45 -49.72,46 -13.84,5.53 -18.06,20.83 -29.79,108.11 -14.13,105.14 -48.41,428.17 -50.16,472.62 -0.96,24.38 0.38,25.61 40.29,37.05 126.88,36.39 460.17,103.62 476.92,96.21 3.92,-1.73 6.82,-7.95 6.45,-13.81l0 -0.01zm1661.23 -255.95c-4.67,-9.88 -2.24,-15.26 8.97,-19.87 12.64,-5.2 14.34,-10.94 9.57,-32.33 -5.01,-22.42 -9.57,-26.72 -33.02,-31.16 -40.26,-7.61 -67.99,-41.95 -71.17,-88.16l-2.54 -36.81 -54.03 -10.47c-29.72,-5.76 -56.49,-10.14 -59.5,-9.73 -3.01,0.41 -0.89,11.18 4.71,23.94 15.54,35.4 16.88,61.76 4.86,95.99 -6.02,17.15 -10.74,32.67 -10.49,34.49 0.25,1.82 12.79,0 27.87,-4.04 56.18,-15.06 127.62,29.63 147.02,91.96 8.84,28.41 9.56,28.9 21.65,14.57 7.88,-9.34 10.14,-19.83 6.1,-28.37l0.01 0zm380.3 -77.37c55.75,-34.61 161.45,-97.59 234.89,-139.96 167.6,-96.68 253.16,-152.97 256.96,-169.04 2.73,-11.56 -22.89,-62.32 -113.94,-225.74 -19.45,-34.91 -67.85,-109.88 -107.57,-166.59 -68.63,-98.03 -73.73,-103.43 -103.12,-109.3 -34.43,-6.88 -72.27,-31.33 -92.3,-59.65 -17.45,-24.67 -25.59,-88.59 -15.04,-118.14 8.23,-23.07 7.23,-25.2 -46.14,-97.57 -30.01,-40.69 -80.27,-109.71 -111.7,-153.39 -31.43,-43.67 -95.71,-127.04 -142.84,-185.26l-85.7 -105.85 -54.39 9.61c-117.11,20.69 -344,92.99 -385.7,122.9 -14.99,10.76 -13.49,34.56 1.66,26.27 11.22,-6.14 16.11,13.1 23.95,94.21 7.46,77.28 4.26,105.32 -12.6,110.09 -14.88,4.21 -14.95,5.46 -1.55,25.18 24.55,36.12 3.4,104.83 -33.83,109.86 -18.56,2.51 -18.71,3.05 -4.28,15.24 14.25,12.03 14.49,13.77 4.92,36.42l-10.04 23.79 32.71 30.47c28.46,26.51 36.39,29.97 61.04,26.65 21.74,-2.94 32.53,0.25 46.4,13.69 9.94,9.63 18.89,23.61 19.9,31.05 3.53,26.11 25.2,50.32 54.13,60.47 23.56,8.27 31.63,16.28 41.71,41.46 10.2,25.46 17.83,32.93 41.37,40.49 28.28,9.08 28.86,9.95 28.38,42.7 -0.45,31.15 1.73,35.3 31.97,60.87 17.85,15.09 47.31,31.56 65.46,36.59 51.72,14.35 69.6,42.85 69.1,110.12 -0.11,15.37 5.7,19.08 42.84,27.41 23.64,5.3 47.85,12.54 53.81,16.09 20.58,12.25 40.87,49.11 51.21,93.02 8.91,37.83 12.67,44.07 26.65,44.17 17.62,0.13 40.26,16.46 57.03,41.15 5.81,8.55 15.5,14.96 21.54,14.24 35.09,-4.19 57.76,13.57 71.92,56.34 7.21,21.77 5.87,27.84 -9.72,43.92 -12.34,12.73 -28.63,20.08 -51.28,23.14 -18.25,2.47 -42.24,11.63 -53.31,20.36 -18.24,14.38 -22.15,15.07 -41.85,7.31 -11.95,-4.71 -32.85,-23.77 -46.45,-42.35 -16.81,-22.99 -34.48,-37.2 -55.25,-44.45 -38.24,-13.35 -45.41,-22.16 -62.14,-76.34 -11.82,-38.27 -15.75,-43.65 -31.98,-43.75 -41.53,-0.25 -115.87,-69.24 -121.79,-113.03 -2.06,-15.23 -27.32,-57.41 -33.85,-56.53 -1.68,0.23 -11.65,5.09 -22.18,10.81l-19.13 10.39 18.26 14.84c22.95,18.65 24.81,32.08 8.32,60.09l-13.06 22.17 20.19 16.58c11.1,9.12 38.06,21.81 59.9,28.2 21.84,6.39 50.67,21.57 64.07,33.73 21.92,19.9 24.63,26.46 27.07,65.74l2.71 43.63 42.32 16.88c46.51,18.55 69.15,43.87 74.48,83.31 2.96,21.9 6.42,25.67 24.66,26.82 24.49,1.55 60.63,43.66 64.95,75.69 3.4,25.17 3.84,24.98 136.22,-57.21l0.01 -0zm-1057.04 -139.82c25.09,-32.93 13.97,-78.48 -25.13,-102.91 -19.54,-12.2 -46.21,-53.29 -56.51,-87.02 -6.88,-22.53 -6.07,-37.19 3.58,-64.88 25.07,-71.93 112.63,-108.72 222.21,-93.37 24.82,3.48 46.94,3.94 49.16,1.02 5.36,-7.04 -37.15,-144.65 -59.31,-192.01 -19.66,-42 -31.76,-45.15 -60.33,-15.68 -13.87,14.3 -23.73,18.04 -44.76,16.96 -14.84,-0.76 -30.54,2.49 -34.9,7.23 -19.26,20.93 -73.43,41.03 -106.54,39.53 -37.02,-1.68 -136.15,17.43 -144.02,27.76 -6.27,8.23 28.05,311.84 38.09,336.95 6.04,15.11 11.75,17.79 32.09,15.05 27.82,-3.76 36.95,2.76 80.29,57.34 34.82,43.85 69.71,73.92 83.59,72.04 5.37,-0.73 15.49,-8.83 22.47,-17.99l-0 0zm-960.69 -2313.98c7.13,-7.08 25.79,-14.61 41.47,-16.73 23.13,-3.13 29.61,-7.55 34.42,-23.48 3.26,-10.8 19.22,-28.44 35.47,-39.2 19.4,-12.86 30.28,-26.14 31.68,-38.7 1.18,-10.52 13.85,-29.99 28.14,-43.26 20.51,-19.04 26.02,-30.3 26.08,-53.3 0.04,-16.04 5.91,-37.34 13.04,-47.34 9.17,-12.85 10.49,-21.13 4.49,-28.27 -11.84,-14.11 -14.54,-43.92 -5.96,-65.9 6.03,-15.45 4.45,-24.19 -9.49,-52.27 -9.21,-18.55 -25.43,-42.15 -36.05,-52.44 -10.62,-10.3 -19.92,-23.26 -20.67,-28.81 -0.75,-5.55 -14,-16.08 -29.44,-23.41 -16.58,-7.87 -31.07,-21.45 -35.39,-33.17 -4.14,-11.23 -12.32,-19.17 -18.86,-18.29 -6.35,0.86 -23.98,-8.5 -39.17,-20.79 -25.69,-20.79 -29.31,-21.59 -51.67,-11.35 -17.53,8.03 -30.43,9.31 -47.62,4.75 -31.21,-8.29 -93.95,-0.58 -102.15,12.55 -3.56,5.69 -15.95,11.63 -27.53,13.19 -12.56,1.69 -27.57,11.38 -37.16,23.96 -8.85,11.61 -24.2,22.21 -34.11,23.55 -26.04,3.52 -32.44,19 -22.65,54.72 7.28,26.55 12.34,32.21 33.96,37.99 28.08,7.51 53.36,30.8 56.19,51.76 1.01,7.48 -2.11,24.66 -6.94,38.18 -7.11,19.91 -6.62,28.02 2.57,42.62 6.24,9.92 17.39,47.99 24.77,84.6l13.43 66.58 47.13 35.59c25.92,19.57 61.65,54.71 79.39,78.09 17.74,23.37 33.93,42.27 35.98,41.98 2.05,-0.28 9.55,-6.31 16.69,-13.39l-0 0zm-239.75 -200.34c6.84,-53.33 -21.9,-93.64 -62.82,-88.11 -31.48,4.25 -57.63,-10.1 -68.97,-37.85 -11.28,-27.62 -25.57,-31.77 -29.62,-8.59 -1.66,9.48 -11.05,27.13 -20.87,39.22 -11.49,14.16 -18.03,33.18 -18.34,53.38 -0.56,35.88 6.97,39.41 67.12,31.47 23.26,-3.07 38.59,-0.38 51.88,9.1 15.46,11.03 42.46,17.76 74.59,18.6 2.65,0.07 5.82,-7.68 7.04,-17.22l-0 0z"/>
 </g>
</svg>
