<?xml version="1.0" encoding="UTF-8"?>
<!DOCTYPE svg PUBLIC "-//W3C//DTD SVG 1.1//EN" "http://www.w3.org/Graphics/SVG/1.1/DTD/svg11.dtd">
<!-- Creator: CorelDRAW -->
<svg xmlns="http://www.w3.org/2000/svg" xml:space="preserve" width="22.0343mm" height="5.9331mm" version="1.1" style="shape-rendering:geometricPrecision; text-rendering:geometricPrecision; image-rendering:optimizeQuality; fill-rule:evenodd; clip-rule:evenodd"
viewBox="0 0 344.14 92.67"
 xmlns:xlink="http://www.w3.org/1999/xlink"
 xmlns:xodm="http://www.corel.com/coreldraw/odm/2003">
 <defs>
  <style type="text/css">
   <![CDATA[
    .fil0 {fill:#FAF0DE;fill-rule:nonzero}
   ]]>
  </style>
 </defs>
 <g id="Layer_x0020_1">
  <metadata id="CorelCorpID_0Corel-Layer"/>
  <g id="_1558071626304">
   <path class="fil0" d="M25.7 92.64c1.11,0.01 2.19,-0.17 3.26,-0.31 1.05,-0.24 2.11,-0.43 3.1,-0.81 2.02,-0.65 3.84,-1.64 5.52,-2.85 0.41,-0.32 0.83,-0.64 1.24,-0.96 0.33,-0.32 0.66,-0.64 0.98,-0.95l0.25 -0.24 0.12 -0.11 0.12 -0.13 0.06 -0.07 0.46 -0.55c0.3,-0.36 0.62,-0.72 0.87,-1.11 1.12,-1.48 1.96,-3.02 2.76,-4.48 1.55,-2.94 2.72,-5.69 3.78,-8.1 2.41,-5.5 5.79,-9.32 9.26,-12.07 1.34,-1.06 2.89,-2.03 4.6,-2.86 1.72,-0.8 3.65,-1.41 5.63,-1.41 1.98,-0.05 3.97,0.6 5.63,1.83 0.81,0.62 1.58,1.34 2.24,2.19 0.62,0.79 1.14,1.74 1.46,2.7 0.65,1.93 0.57,4.09 -0.28,5.87 -0.41,0.88 -1.05,1.69 -1.75,2.29l-0.33 0.26 -0.28 0.2c-0.19,0.12 -0.4,0.27 -0.59,0.38 -0.41,0.24 -0.84,0.42 -1.27,0.52 -0.85,0.24 -1.73,0.19 -2.52,-0.11 -0.77,-0.31 -1.48,-0.85 -1.91,-1.5 -0.12,-0.16 -0.2,-0.33 -0.28,-0.5 -0.04,-0.09 -0.07,-0.17 -0.09,-0.26 0,0.01 -0.02,-0.05 0,0.02l-0.01 -0.02 -0 -0.04 -0.02 -0.09 -0.02 -0.09c-0.04,-0.3 0.01,-0.7 0.12,-1.07 0.22,-0.75 0.63,-1.46 1.15,-1.97 0.52,-0.52 1.17,-0.85 1.83,-0.93 0.65,-0.09 1.34,0.02 1.89,0.27 0.55,0.25 0.93,0.67 1.13,1.17 0.19,0.49 0.2,1.03 0.11,1.49 -0.19,0.93 -0.7,1.56 -1.1,1.89 -0.19,0.17 -0.38,0.28 -0.5,0.35 -0.13,0.06 -0.19,0.09 -0.19,0.09 0,0 0.07,-0.02 0.2,-0.06 0.13,-0.05 0.33,-0.12 0.57,-0.26 0.46,-0.28 1.14,-0.85 1.48,-1.89 0.17,-0.51 0.26,-1.15 0.09,-1.82 -0.16,-0.66 -0.65,-1.34 -1.35,-1.76 -0.7,-0.4 -1.5,-0.65 -2.43,-0.61 -0.92,0.04 -1.86,0.43 -2.62,1.07 -0.76,0.64 -1.38,1.48 -1.74,2.5 -0.17,0.51 -0.31,1.06 -0.27,1.71 0,0.09 0.02,0.2 0.02,0.27l0.02 0.09 0 0.05 0 0.02 0.02 0.06c0.03,0.15 0.07,0.3 0.13,0.43 0.1,0.29 0.23,0.57 0.38,0.81 0.6,1.04 1.54,1.86 2.68,2.34 1.14,0.49 2.48,0.61 3.72,0.32 0.62,-0.15 1.22,-0.38 1.77,-0.67 0.28,-0.15 0.54,-0.31 0.81,-0.49l0.4 -0.29 0.33 -0.26c0.99,-0.83 1.79,-1.84 2.35,-2.99 0.57,-1.15 0.89,-2.43 0.96,-3.72 0.05,-1.29 -0.15,-2.59 -0.57,-3.79 -0.42,-1.22 -1.05,-2.32 -1.85,-3.33 -0.77,-0.96 -1.67,-1.83 -2.69,-2.53 -2.02,-1.44 -4.52,-2.14 -6.86,-2.01 -2.35,0.12 -4.46,0.94 -6.27,1.88 -4.6,2.39 -10.35,7.25 -14.53,15.61 -1.2,2.37 -2.75,4.94 -4.42,7.66 -0.86,1.33 -1.76,2.71 -2.86,3.95 -0.26,0.34 -0.57,0.61 -0.85,0.93l-0.43 0.46 -0.03 0.03 -0.02 0.02 -0.13 0.12 -0.25 0.22c-0.34,0.3 -0.69,0.6 -1.03,0.9 -0.33,0.22 -0.67,0.44 -1,0.67 -1.39,0.88 -3.03,1.68 -4.76,2.12 -0.43,0.14 -0.86,0.25 -1.31,0.32 -0.45,0.08 -0.9,0.19 -1.34,0.25 -0.91,0.08 -1.83,0.22 -2.76,0.17 -0.94,0.05 -1.86,-0.11 -2.81,-0.19 -0.92,-0.2 -1.86,-0.33 -2.76,-0.66 -0.92,-0.24 -1.77,-0.67 -2.66,-1.04 -0.82,-0.48 -1.71,-0.87 -2.46,-1.47 -1.61,-1.05 -2.98,-2.53 -4.15,-4.01 -0.69,-0.93 -1.12,-1.63 -1.59,-2.51 -0.47,-0.87 -0.88,-1.78 -1.22,-2.71 -1.43,-3.73 -1.94,-7.87 -1.47,-11.77 0.25,-1.96 0.71,-3.81 1.46,-5.59l0.3 -0.73 0.31 -0.62c0.21,-0.41 0.4,-0.81 0.66,-1.22 0.24,-0.41 0.47,-0.82 0.76,-1.18 0.26,-0.38 0.52,-0.76 0.84,-1.1 1.16,-1.41 2.55,-2.54 4.07,-3.4 1.52,-0.82 3.18,-1.36 4.84,-1.54 0.42,-0.04 0.83,-0.08 1.24,-0.07l0.31 -0.01 0.07 -0c0.06,0 -0.05,-0.01 -0.02,-0l0.04 0 0.17 0.01 0.69 0.04c0.72,0.09 1.48,0.24 2.2,0.49 1.41,0.5 2.6,1.4 3.45,2.53 0.86,1.15 1.4,2.48 1.71,3.82 0.06,0.31 0.15,0.72 0.18,0.95 0.03,0.36 0.07,0.71 0.1,1.06 -0.01,0.3 -0.02,0.59 -0.03,0.88 -0.05,0.3 -0.1,0.6 -0.15,0.89 -1.82,5.11 -5.77,2.97 -6.93,-0.12 -0.56,-1.49 -2.6,-1.71 -3.12,-0.07 -1.31,4.17 5.14,7.14 9.29,3.97 1.01,-0.77 1.78,-1.98 2.24,-3.35 0.09,-0.35 0.2,-0.7 0.28,-1.07 0.05,-0.39 0.1,-0.79 0.15,-1.19 0,-0.35 0,-0.71 0,-1.07 -0.02,-0.49 -0.07,-0.81 -0.11,-1.23 -0.22,-1.57 -0.74,-3.23 -1.72,-4.79 -0.5,-0.78 -1.12,-1.49 -1.85,-2.13 -0.74,-0.64 -1.59,-1.17 -2.5,-1.58 -0.91,-0.42 -1.9,-0.67 -2.96,-0.85l-0.68 -0.07 -0.17 -0.02 -0.15 -0.02 -0.08 0 -0.38 -0.02c-0.51,-0.03 -1.02,-0.01 -1.53,0.01 -2.06,0.11 -4.15,0.66 -6.12,1.59 -1.97,0.94 -3.74,2.36 -5.23,4.02 -0.39,0.41 -0.73,0.86 -1.07,1.3 -0.36,0.44 -0.66,0.92 -0.95,1.39 -0.32,0.46 -0.6,0.97 -0.87,1.49l-0.41 0.77 -0.33 0.71c-0.96,2.05 -1.59,4.33 -1.88,6.61 -0.59,4.56 -0.07,9.29 1.55,13.69 0.42,1.09 0.91,2.17 1.48,3.19 0.55,1.03 1.3,2.15 1.91,2.95l0.24 0.33 0.11 0.15 0.08 0.08 0.15 0.16 0.59 0.66c0.41,0.43 0.76,0.91 1.22,1.28l1.33 1.17c0.44,0.4 0.95,0.7 1.42,1.04 0.48,0.34 0.96,0.67 1.49,0.93 0.51,0.27 1.02,0.57 1.55,0.83 1.08,0.41 2.14,0.89 3.26,1.14 1.09,0.36 2.23,0.48 3.33,0.67 1.12,0.11 2.23,0.23 3.34,0.15z"/>
   <path class="fil0" d="M74.96 46.34c0,0 0.17,0.02 0.51,0.07 0.33,0.04 0.81,0.1 1.42,0.22 1.22,0.25 2.97,0.62 4.99,1.33 1.01,0.35 2.1,0.78 3.21,1.31 1.11,0.55 2.26,1.17 3.39,1.93 1.12,0.76 2.24,1.64 3.24,2.7 0.99,1.05 1.89,2.3 2.43,3.75 0.57,1.43 0.62,3.15 0.08,4.61 -0.08,0.19 -0.11,0.33 -0.24,0.57 -0.09,0.16 -0.15,0.3 -0.25,0.46 -0.24,0.38 -0.5,0.69 -0.79,0.97 -0.61,0.55 -1.36,0.9 -2.1,1.04 -1.5,0.29 -2.97,-0.03 -4.13,-0.84 -1.07,-0.76 -1.89,-2.02 -1.77,-3.3 0.06,-0.63 0.31,-1.18 0.62,-1.6 0.02,-0.05 0.09,-0.14 0.13,-0.17 0.05,-0.05 0.07,-0.07 0.13,-0.14 0.11,-0.11 0.22,-0.19 0.33,-0.27 0.24,-0.15 0.47,-0.25 0.72,-0.3 0.98,-0.21 1.82,0.22 2.24,0.73 0.44,0.52 0.43,1.11 0.36,1.42 -0.07,0.33 -0.17,0.49 -0.17,0.49 0,0 0.06,-0.17 0.08,-0.5 0.03,-0.31 -0.07,-0.82 -0.49,-1.22 -0.4,-0.39 -1.16,-0.63 -1.87,-0.38 -0.37,0.14 -0.63,0.36 -0.84,0.74 -0.23,0.38 -0.36,0.8 -0.36,1.23 0.01,0.89 0.62,1.79 1.55,2.36 0.86,0.52 2.11,0.75 3.19,0.48 0.55,-0.13 1.05,-0.4 1.45,-0.79 0.21,-0.2 0.37,-0.41 0.5,-0.62 0.08,-0.13 0.16,-0.31 0.24,-0.45 0.03,-0.07 0.1,-0.26 0.15,-0.4 0.42,-1.16 0.35,-2.44 -0.1,-3.65 -0.43,-1.21 -1.2,-2.32 -2.1,-3.3 -0.88,-1 -1.89,-1.87 -2.94,-2.62 -2.09,-1.53 -4.26,-2.67 -6.18,-3.52 -1.91,-0.86 -3.58,-1.44 -4.77,-1.8 -1.17,-0.37 -1.85,-0.56 -1.85,-0.56z"/>
   <path class="fil0" d="M69.59 46.34c0,0 -0.41,0.12 -1.12,0.35 -0.71,0.22 -1.69,0.56 -2.83,1 -0.57,0.2 -1.17,0.47 -1.81,0.74 -0.65,0.26 -1.28,0.6 -1.95,0.9 -0.64,0.38 -1.34,0.67 -1.98,1.09 -0.33,0.19 -0.66,0.4 -1,0.6l-0.95 0.66c-0.67,0.41 -1.24,0.93 -1.85,1.39 -0.62,0.45 -1.12,1.02 -1.69,1.49 -0.57,0.48 -0.99,1.05 -1.49,1.53 -0.5,0.48 -0.88,1 -1.29,1.46 -0.19,0.24 -0.39,0.46 -0.57,0.68 -0.19,0.2 -0.37,0.41 -0.5,0.62 -0.28,0.41 -0.57,0.76 -0.79,1.06 -0.45,0.59 -0.75,0.92 -0.75,0.92 0,0 0.05,-0.43 0.2,-1.17 0.07,-0.36 0.17,-0.82 0.31,-1.34 0.1,-0.53 0.36,-1.06 0.61,-1.68 0.26,-0.59 0.5,-1.29 0.93,-1.91 0.41,-0.63 0.79,-1.36 1.34,-1.98 0.27,-0.32 0.55,-0.64 0.82,-0.96l0.43 -0.49c0.16,-0.15 0.32,-0.29 0.48,-0.44 0.65,-0.58 1.31,-1.19 2.07,-1.67l1.11 -0.74c0.4,-0.21 0.79,-0.4 1.18,-0.61 0.76,-0.43 1.59,-0.69 2.36,-0.99 0.79,-0.24 1.56,-0.47 2.31,-0.6 0.74,-0.14 1.45,-0.23 2.1,-0.26 0.65,-0.08 1.25,-0.04 1.78,-0.04 0.52,0.03 0.99,0.07 1.37,0.14 0.76,0.09 1.17,0.24 1.17,0.24z"/>
   <path class="fil0" d="M69.59 46.34c0,0 -0.42,0.14 -1.17,0.24 -0.38,0.06 -0.84,0.1 -1.36,0.13 -0.54,0 -1.14,0.04 -1.79,-0.03 -0.65,-0.03 -1.36,-0.12 -2.1,-0.26 -0.75,-0.14 -1.51,-0.36 -2.31,-0.6 -0.77,-0.3 -1.6,-0.55 -2.36,-0.98 -0.39,-0.2 -0.79,-0.4 -1.18,-0.61l-1.11 -0.74c-0.76,-0.47 -1.42,-1.08 -2.07,-1.68 -0.16,-0.15 -0.33,-0.28 -0.48,-0.43l-0.43 -0.5c-0.27,-0.32 -0.55,-0.65 -0.82,-0.96 -0.55,-0.62 -0.93,-1.35 -1.34,-1.98 -0.43,-0.62 -0.67,-1.31 -0.93,-1.91 -0.24,-0.61 -0.51,-1.14 -0.61,-1.67 -0.14,-0.51 -0.24,-0.96 -0.31,-1.34 -0.16,-0.74 -0.2,-1.17 -0.2,-1.17 0,0 0.3,0.33 0.75,0.92 0.23,0.29 0.51,0.65 0.79,1.05 0.14,0.2 0.3,0.42 0.5,0.63 0.18,0.21 0.38,0.44 0.57,0.68 0.4,0.46 0.79,0.99 1.29,1.46 0.5,0.48 0.93,1.05 1.49,1.53 0.57,0.47 1.07,1.04 1.69,1.5 0.61,0.45 1.18,0.98 1.85,1.39l0.95 0.67c0.34,0.19 0.66,0.39 1,0.58 0.64,0.42 1.34,0.72 1.98,1.09 0.68,0.31 1.31,0.65 1.95,0.89 0.63,0.28 1.23,0.55 1.81,0.76 1.14,0.43 2.12,0.78 2.83,1 0.7,0.21 1.11,0.34 1.11,0.34z"/>
   <path class="fil0" d="M47.96 57.81c-0.01,-0.25 -0.04,-0.49 -0.02,-0.74l0.04 -0.73c0,-0.24 0.07,-0.49 0.11,-0.72 0.04,-0.24 0.06,-0.48 0.14,-0.72l0.2 -0.69c0.18,-0.44 0.34,-0.9 0.58,-1.31 0.11,-0.21 0.22,-0.42 0.36,-0.61 0.14,-0.2 0.25,-0.41 0.4,-0.59 0.29,-0.38 0.6,-0.74 0.92,-1.07 0.33,-0.33 0.68,-0.66 1.06,-0.94 0.18,-0.15 0.36,-0.29 0.57,-0.42 0.19,-0.12 0.39,-0.26 0.57,-0.35l2.62 -1.83 -3.19 0.59c-0.72,0.19 -1.43,0.4 -2.15,0.58l-1.09 0.2c-0.36,0.07 -0.72,0.16 -1.09,0.18l-1.09 0.12c-0.36,0.06 -0.73,0.04 -1.09,0.06 -0.36,0 -0.73,0.04 -1.09,0l-1.08 -0.07c-0.36,-0.02 -0.72,-0.1 -1.07,-0.15 -0.36,-0.03 -0.71,-0.14 -1.05,-0.22 -0.35,-0.07 -0.7,-0.16 -1.03,-0.27 -0.35,-0.11 -0.68,-0.22 -1,-0.35 -0.67,-0.25 -1.3,-0.58 -1.9,-0.95 -0.28,-0.17 -0.55,-0.35 -0.82,-0.55 0.25,-0.19 0.54,-0.38 0.82,-0.55 0.6,-0.36 1.23,-0.69 1.9,-0.93 0.33,-0.15 0.66,-0.25 1,-0.36 0.33,-0.12 0.69,-0.2 1.03,-0.27 0.35,-0.08 0.69,-0.18 1.05,-0.22 0.36,-0.05 0.71,-0.12 1.07,-0.15l1.08 -0.07c0.36,-0.03 0.73,0 1.09,0 0.36,0.02 0.73,0 1.09,0.06l1.09 0.11c0.36,0.03 0.73,0.12 1.09,0.19l1.09 0.2c0.72,0.19 1.43,0.4 2.15,0.59l3.14 0.55 -2.56 -1.79c-0.17,-0.1 -0.38,-0.22 -0.57,-0.36 -0.19,-0.13 -0.38,-0.26 -0.56,-0.41 -0.38,-0.29 -0.73,-0.6 -1.06,-0.93 -0.32,-0.35 -0.63,-0.71 -0.92,-1.08 -0.16,-0.18 -0.27,-0.39 -0.41,-0.58 -0.14,-0.19 -0.24,-0.4 -0.36,-0.62 -0.25,-0.41 -0.4,-0.87 -0.58,-1.31l-0.2 -0.69c-0.09,-0.23 -0.1,-0.47 -0.15,-0.71 -0.02,-0.24 -0.1,-0.47 -0.1,-0.72l-0.04 -0.74c-0.03,-0.24 0,-0.5 0.02,-0.74l0.05 -0.74 -0.17 0.73c-0.05,0.24 -0.12,0.49 -0.13,0.74l-0.07 0.76c-0.04,0.26 0,0.51 0,0.76 0.02,0.25 0.01,0.52 0.06,0.76l0.12 0.76c0.14,0.5 0.26,1.01 0.47,1.48 0.09,0.24 0.19,0.49 0.31,0.72 0.13,0.22 0.24,0.47 0.38,0.68 0.25,0.44 0.55,0.84 0.87,1.24l-0.42 -0.11c-0.38,-0.09 -0.76,-0.21 -1.16,-0.26l-1.17 -0.19c-0.39,-0.08 -0.79,-0.08 -1.19,-0.11 -0.4,-0.02 -0.79,-0.08 -1.19,-0.05l-1.2 0.02c-0.4,0.02 -0.8,0.08 -1.2,0.12 -0.4,0.03 -0.8,0.12 -1.19,0.2 -0.4,0.07 -0.79,0.17 -1.18,0.3 -0.39,0.1 -0.77,0.22 -1.15,0.38 -0.76,0.28 -1.5,0.65 -2.21,1.05 -0.35,0.22 -0.7,0.43 -1.03,0.68 -0.35,0.25 -0.64,0.49 -1.01,0.84l-0.28 0.27 0 0.43 0 0.08 0 0.42 0.28 0.27c0.36,0.36 0.66,0.59 1.01,0.84 0.33,0.25 0.69,0.48 1.03,0.69 0.71,0.41 1.45,0.78 2.21,1.04 0.38,0.17 0.76,0.29 1.15,0.4 0.38,0.13 0.78,0.22 1.18,0.3 0.4,0.08 0.79,0.17 1.19,0.19 0.4,0.05 0.79,0.11 1.2,0.12l1.2 0.03c0.4,0.02 0.8,-0.04 1.19,-0.06 0.39,-0.03 0.8,-0.03 1.19,-0.1l1.17 -0.19c0.39,-0.05 0.77,-0.17 1.15,-0.26l0.41 -0.1c-0.31,0.38 -0.6,0.8 -0.86,1.22 -0.15,0.22 -0.24,0.46 -0.38,0.69 -0.13,0.23 -0.22,0.47 -0.31,0.72 -0.22,0.47 -0.33,0.98 -0.47,1.48l-0.12 0.76c-0.05,0.25 -0.05,0.51 -0.06,0.76 0,0.26 -0.04,0.51 0,0.76l0.07 0.76c0.01,0.25 0.09,0.5 0.14,0.74l0.17 0.73 -0.04 -0.73z"/>
   <path class="fil0" d="M106.7 46.34c-13.51,-7.98 -23.61,0 -23.61,0 0,0 10.1,7.97 23.61,0z"/>
   <path class="fil0" d="M103.78 55.37c0.79,-0.01 1.58,-0.15 2.41,-0.22 0.82,-0.08 1.64,-0.3 2.48,-0.45 0.83,-0.19 1.64,-0.46 2.46,-0.71 0.78,-0.33 1.59,-0.58 2.31,-0.96 0.36,-0.19 0.73,-0.36 1.08,-0.54 0.34,-0.2 0.67,-0.4 1,-0.6 0.66,-0.38 1.22,-0.82 1.77,-1.22 0.52,-0.41 1,-0.81 1.4,-1.2 0.41,-0.36 0.74,-0.74 1.01,-1.03 0.27,-0.32 0.48,-0.56 0.64,-0.79 0.14,-0.19 0.22,-0.29 0.22,-0.29l0.57 -1.02 -0.57 -1.03c0,0 -0.07,-0.1 -0.2,-0.28 -0.17,-0.24 -0.36,-0.47 -0.64,-0.8 -0.28,-0.29 -0.6,-0.67 -1.02,-1.03 -0.4,-0.4 -0.88,-0.79 -1.4,-1.2 -0.55,-0.4 -1.11,-0.84 -1.77,-1.22 -0.33,-0.19 -0.66,-0.4 -1,-0.6 -0.36,-0.17 -0.72,-0.35 -1.08,-0.54 -0.72,-0.38 -1.53,-0.64 -2.31,-0.96 -0.81,-0.24 -1.62,-0.51 -2.46,-0.7 -0.84,-0.15 -1.66,-0.38 -2.48,-0.45 -0.83,-0.08 -1.63,-0.22 -2.41,-0.22 -0.78,-0.02 -1.53,-0.04 -2.25,-0.05 -0.71,0.04 -1.38,0.08 -2,0.12 -0.61,0.03 -1.17,0.08 -1.67,0.17 -0.5,0.06 -0.93,0.13 -1.29,0.18 -0.71,0.1 -1.11,0.17 -1.11,0.17 0,0 0.41,0 1.13,0 0.36,0 0.79,0.01 1.28,0.01 0.5,-0.01 1.05,0.02 1.66,0.09 0.61,0.05 1.26,0.12 1.95,0.17 0.69,0.13 1.4,0.25 2.14,0.38 0.74,0.12 1.48,0.38 2.23,0.57 0.76,0.19 1.48,0.52 2.21,0.77 0.73,0.3 1.42,0.65 2.12,0.98 0.65,0.4 1.33,0.72 1.9,1.17 0.29,0.2 0.57,0.4 0.86,0.6 0.26,0.22 0.52,0.43 0.76,0.64 0.51,0.4 0.93,0.86 1.32,1.24 0.36,0.41 0.71,0.79 0.97,1.14 0.19,0.24 0.33,0.46 0.47,0.66 -0.14,0.2 -0.28,0.41 -0.48,0.65 -0.26,0.36 -0.6,0.73 -0.97,1.14 -0.4,0.38 -0.81,0.83 -1.32,1.24 -0.25,0.21 -0.5,0.43 -0.76,0.65 -0.28,0.19 -0.57,0.4 -0.86,0.61 -0.57,0.43 -1.25,0.75 -1.9,1.16 -0.69,0.33 -1.38,0.68 -2.11,0.97 -0.74,0.25 -1.46,0.59 -2.22,0.77 -0.75,0.19 -1.49,0.44 -2.23,0.57 -0.74,0.13 -1.45,0.26 -2.14,0.38 -0.69,0.07 -1.34,0.12 -1.95,0.17 -0.6,0.07 -1.16,0.1 -1.65,0.09 -0.51,0 -0.93,0 -1.29,0.01 -0.72,0 -1.12,0.01 -1.12,0.01 0,0 0.4,0.07 1.11,0.17 0.36,0.05 0.79,0.11 1.29,0.19 0.49,0.08 1.05,0.14 1.67,0.17 0.62,0.04 1.3,0.08 2,0.12 0.72,0.01 1.47,-0 2.25,-0.02z"/>
   <path class="fil0" d="M47.38 63.69c0,0 -0.19,0.22 -0.53,0.62 -0.36,0.41 -0.82,1.04 -1.41,1.84 -0.58,0.81 -1.25,1.81 -1.98,2.99 -0.7,1.2 -1.5,2.55 -2.37,4.02 -0.88,1.47 -1.83,3.08 -3,4.71 -1.17,1.61 -2.53,3.29 -4.35,4.67 -1.78,1.39 -4.05,2.39 -6.45,2.71 -1.21,0.15 -2.37,0.13 -3.63,0.02 -0.58,-0.09 -1.1,-0.11 -1.72,-0.26 -0.61,-0.11 -1.22,-0.25 -1.79,-0.44 -2.33,-0.69 -4.47,-1.97 -6.23,-3.6 -1.75,-1.64 -3.07,-3.64 -3.93,-5.7 -0.91,-2.06 -1.34,-4.21 -1.47,-6.24 -0.16,-2.04 0.03,-3.97 0.42,-5.68 0.37,-1.72 0.93,-3.24 1.58,-4.51 0.65,-1.27 1.29,-2.31 1.91,-3.12 0.6,-0.81 1.14,-1.39 1.53,-1.76 0.38,-0.38 0.59,-0.58 0.59,-0.58 0,0 -0.17,0.22 -0.5,0.65 -0.33,0.41 -0.76,1.07 -1.28,1.91 -0.52,0.84 -1.04,1.93 -1.55,3.2 -0.49,1.27 -0.88,2.76 -1.12,4.4 -0.23,1.64 -0.29,3.46 -0.06,5.33 0.24,1.87 0.72,3.81 1.58,5.65 0.85,1.85 2.09,3.57 3.63,5 1.56,1.41 3.44,2.5 5.49,3.11 0.51,0.17 1.02,0.3 1.53,0.4 0.48,0.12 1.11,0.17 1.64,0.26 1,0.09 2.12,0.12 3.14,0 2.06,-0.24 4.01,-0.99 5.64,-2.19 1.63,-1.18 3.01,-2.64 4.21,-4.15 1.19,-1.51 2.25,-3.02 3.22,-4.43 1.93,-2.82 3.67,-5.13 4.99,-6.64 0.67,-0.75 1.24,-1.3 1.63,-1.66 0.41,-0.37 0.62,-0.56 0.62,-0.56z"/>
   <path class="fil0" d="M25.7 0.02c1.11,0 2.19,0.17 3.26,0.31 1.05,0.24 2.11,0.43 3.1,0.82 2.02,0.65 3.84,1.64 5.52,2.85 0.42,0.32 0.84,0.65 1.24,0.96 0.33,0.32 0.66,0.63 0.98,0.95l0.25 0.24 0.12 0.12 0.11 0.12 0.06 0.06 0.46 0.55c0.3,0.36 0.62,0.71 0.87,1.09 1.12,1.49 1.96,3.03 2.76,4.49 1.55,2.94 2.72,5.69 3.78,8.1 2.41,5.5 5.79,9.32 9.26,12.08 1.33,1.06 2.89,2.03 4.6,2.86 1.72,0.8 3.65,1.41 5.63,1.41 1.98,0.05 3.97,-0.59 5.63,-1.83 0.81,-0.62 1.58,-1.35 2.24,-2.19 0.62,-0.8 1.14,-1.74 1.46,-2.7 0.65,-1.93 0.57,-4.09 -0.28,-5.87 -0.41,-0.88 -1.05,-1.69 -1.75,-2.29l-0.33 -0.26 -0.27 -0.2c-0.2,-0.13 -0.41,-0.27 -0.6,-0.38 -0.41,-0.24 -0.84,-0.41 -1.27,-0.53 -0.85,-0.24 -1.73,-0.19 -2.52,0.12 -0.77,0.3 -1.48,0.84 -1.91,1.5 -0.12,0.16 -0.2,0.33 -0.28,0.5 -0.04,0.09 -0.07,0.17 -0.1,0.26 0,-0.02 -0.01,0.05 0,-0.02l-0 0.02 -0.01 0.04 -0.03 0.09 -0 0.09c-0.05,0.3 0,0.71 0.12,1.07 0.22,0.75 0.63,1.46 1.16,1.97 0.52,0.52 1.17,0.85 1.82,0.94 0.64,0.09 1.34,-0.03 1.89,-0.27 0.55,-0.25 0.93,-0.68 1.12,-1.17 0.2,-0.49 0.21,-1.03 0.11,-1.49 -0.18,-0.93 -0.69,-1.57 -1.09,-1.9 -0.2,-0.17 -0.38,-0.27 -0.51,-0.34 -0.13,-0.06 -0.19,-0.1 -0.19,-0.1 0,0 0.07,0.03 0.2,0.07 0.13,0.05 0.33,0.12 0.57,0.27 0.46,0.28 1.14,0.85 1.48,1.89 0.17,0.5 0.26,1.14 0.09,1.81 -0.16,0.67 -0.65,1.35 -1.35,1.76 -0.7,0.4 -1.5,0.65 -2.43,0.6 -0.92,-0.03 -1.86,-0.43 -2.62,-1.06 -0.76,-0.63 -1.38,-1.48 -1.74,-2.5 -0.17,-0.52 -0.31,-1.06 -0.27,-1.71 0,-0.09 0.02,-0.21 0.02,-0.27l0.02 -0.09 0 -0.04 0 -0.03 0.02 -0.06c0.03,-0.15 0.07,-0.29 0.13,-0.43 0.1,-0.29 0.23,-0.55 0.38,-0.82 0.6,-1.03 1.54,-1.85 2.67,-2.34 1.14,-0.49 2.48,-0.6 3.73,-0.31 0.62,0.14 1.22,0.38 1.77,0.67 0.28,0.14 0.54,0.31 0.81,0.49l0.4 0.29 0.33 0.26c1,0.83 1.78,1.84 2.35,2.99 0.57,1.15 0.89,2.43 0.96,3.72 0.06,1.29 -0.15,2.59 -0.57,3.79 -0.42,1.21 -1.05,2.32 -1.85,3.32 -0.77,0.96 -1.67,1.83 -2.69,2.53 -2.02,1.44 -4.52,2.15 -6.86,2.02 -2.35,-0.12 -4.46,-0.95 -6.27,-1.89 -4.6,-2.38 -10.35,-7.24 -14.54,-15.61 -1.19,-2.38 -2.75,-4.95 -4.41,-7.66 -0.86,-1.33 -1.76,-2.71 -2.86,-3.96 -0.26,-0.33 -0.57,-0.61 -0.84,-0.92l-0.43 -0.46 -0.03 -0.04 -0.02 -0.02 -0.13 -0.12 -0.25 -0.22c-0.34,-0.3 -0.68,-0.6 -1.03,-0.9 -0.33,-0.22 -0.67,-0.45 -1,-0.68 -1.39,-0.88 -3.03,-1.68 -4.76,-2.12 -0.43,-0.14 -0.86,-0.25 -1.31,-0.32 -0.45,-0.08 -0.89,-0.19 -1.34,-0.25 -0.91,-0.08 -1.83,-0.22 -2.76,-0.17 -0.94,-0.05 -1.86,0.11 -2.81,0.19 -0.92,0.21 -1.87,0.33 -2.76,0.66 -0.92,0.24 -1.77,0.67 -2.66,1.04 -0.82,0.49 -1.7,0.87 -2.46,1.47 -1.61,1.04 -2.98,2.53 -4.15,4 -0.69,0.93 -1.12,1.64 -1.59,2.51 -0.47,0.87 -0.88,1.79 -1.22,2.71 -1.42,3.73 -1.93,7.87 -1.47,11.77 0.25,1.96 0.71,3.81 1.46,5.59l0.3 0.72 0.31 0.62c0.21,0.4 0.4,0.82 0.66,1.22 0.24,0.41 0.47,0.82 0.76,1.18 0.26,0.38 0.52,0.76 0.84,1.09 1.16,1.4 2.55,2.55 4.07,3.4 1.52,0.83 3.18,1.36 4.84,1.55 0.42,0.05 0.83,0.08 1.24,0.08l0.32 0 0.07 0c0.07,-0 -0.04,0 -0.02,0l0.04 0 0.17 -0.01 0.69 -0.05c0.72,-0.08 1.48,-0.23 2.2,-0.48 1.41,-0.5 2.6,-1.4 3.46,-2.54 0.86,-1.14 1.39,-2.48 1.71,-3.82 0.06,-0.31 0.15,-0.72 0.18,-0.95 0.03,-0.36 0.07,-0.71 0.1,-1.06 -0.01,-0.29 -0.02,-0.6 -0.03,-0.88 -0.05,-0.3 -0.1,-0.6 -0.15,-0.89 -1.82,-5.11 -5.78,-2.96 -6.93,0.12 -0.56,1.5 -2.6,1.71 -3.12,0.07 -1.31,-4.16 5.14,-7.14 9.29,-3.96 1.01,0.77 1.78,1.97 2.24,3.35 0.09,0.36 0.2,0.7 0.28,1.08 0.05,0.38 0.1,0.79 0.15,1.18 0,0.35 0,0.72 0,1.08 -0.02,0.48 -0.07,0.79 -0.11,1.22 -0.22,1.57 -0.74,3.24 -1.72,4.79 -0.5,0.77 -1.12,1.5 -1.85,2.14 -0.74,0.65 -1.59,1.16 -2.5,1.59 -0.91,0.41 -1.9,0.66 -2.96,0.84l-0.67 0.08 -0.17 0.02 -0.15 0.01 -0.09 0 -0.38 0.01c-0.51,0.04 -1.02,0.01 -1.53,-0 -2.06,-0.11 -4.15,-0.66 -6.12,-1.59 -1.97,-0.95 -3.74,-2.36 -5.23,-4.03 -0.39,-0.41 -0.73,-0.86 -1.07,-1.31 -0.36,-0.44 -0.66,-0.91 -0.95,-1.38 -0.32,-0.47 -0.6,-0.98 -0.87,-1.5l-0.41 -0.76 -0.33 -0.72c-0.96,-2.04 -1.59,-4.33 -1.88,-6.6 -0.59,-4.57 -0.07,-9.29 1.56,-13.69 0.41,-1.09 0.9,-2.16 1.48,-3.2 0.55,-1.03 1.3,-2.15 1.91,-2.94l0.24 -0.33 0.11 -0.15 0.08 -0.08 0.15 -0.17 0.6 -0.66c0.41,-0.42 0.76,-0.9 1.22,-1.27l1.33 -1.17c0.44,-0.4 0.95,-0.7 1.42,-1.04 0.48,-0.35 0.96,-0.67 1.49,-0.93 0.52,-0.27 1.02,-0.57 1.55,-0.81 1.08,-0.43 2.14,-0.9 3.26,-1.15 1.09,-0.36 2.23,-0.48 3.33,-0.67 1.11,-0.08 2.22,-0.21 3.33,-0.13z"/>
   <path class="fil0" d="M74.96 46.34c0,0 0.17,-0.02 0.51,-0.07 0.33,-0.05 0.81,-0.11 1.42,-0.24 1.22,-0.24 2.97,-0.6 4.99,-1.32 1.02,-0.36 2.1,-0.78 3.21,-1.32 1.11,-0.54 2.26,-1.16 3.39,-1.93 1.12,-0.76 2.24,-1.64 3.24,-2.7 0.99,-1.05 1.89,-2.29 2.43,-3.75 0.57,-1.43 0.62,-3.14 0.08,-4.61 -0.08,-0.19 -0.12,-0.33 -0.24,-0.57 -0.09,-0.15 -0.15,-0.3 -0.25,-0.46 -0.24,-0.38 -0.5,-0.7 -0.79,-0.97 -0.61,-0.55 -1.36,-0.9 -2.1,-1.04 -1.5,-0.3 -2.97,0.02 -4.13,0.84 -1.07,0.74 -1.89,2.02 -1.77,3.29 0.06,0.62 0.31,1.19 0.62,1.61 0.02,0.04 0.09,0.13 0.13,0.17 0.04,0.05 0.07,0.08 0.13,0.14 0.11,0.11 0.22,0.19 0.32,0.26 0.24,0.15 0.47,0.25 0.72,0.3 0.98,0.21 1.82,-0.22 2.24,-0.73 0.44,-0.53 0.43,-1.11 0.36,-1.43 -0.08,-0.33 -0.17,-0.48 -0.17,-0.48 0,0 0.06,0.17 0.08,0.5 0.03,0.32 -0.07,0.82 -0.49,1.22 -0.4,0.39 -1.16,0.65 -1.87,0.38 -0.37,-0.14 -0.63,-0.35 -0.84,-0.74 -0.23,-0.37 -0.36,-0.8 -0.36,-1.24 0.02,-0.88 0.62,-1.77 1.55,-2.35 0.86,-0.52 2.11,-0.75 3.19,-0.48 0.55,0.13 1.05,0.4 1.45,0.79 0.21,0.19 0.37,0.41 0.5,0.62 0.08,0.13 0.16,0.3 0.24,0.45 0.04,0.07 0.1,0.27 0.15,0.4 0.42,1.16 0.35,2.45 -0.1,3.65 -0.43,1.22 -1.2,2.33 -2.1,3.31 -0.88,0.99 -1.89,1.86 -2.94,2.62 -2.09,1.53 -4.26,2.67 -6.18,3.52 -1.91,0.86 -3.58,1.45 -4.76,1.81 -1.17,0.39 -1.86,0.57 -1.86,0.57z"/>
   <path class="fil0" d="M47.38 28.98c0,0 -0.19,-0.22 -0.53,-0.63 -0.36,-0.4 -0.82,-1.04 -1.41,-1.83 -0.58,-0.8 -1.25,-1.81 -1.98,-2.99 -0.7,-1.2 -1.5,-2.54 -2.37,-4.02 -0.88,-1.48 -1.83,-3.08 -3,-4.71 -1.17,-1.62 -2.53,-3.3 -4.35,-4.67 -1.78,-1.4 -4.05,-2.39 -6.45,-2.7 -1.2,-0.15 -2.37,-0.14 -3.63,-0.03 -0.58,0.09 -1.1,0.12 -1.72,0.26 -0.61,0.12 -1.22,0.25 -1.79,0.44 -2.33,0.68 -4.47,1.99 -6.23,3.6 -1.75,1.64 -3.07,3.64 -3.93,5.7 -0.91,2.06 -1.34,4.21 -1.47,6.24 -0.16,2.02 0.03,3.96 0.42,5.67 0.37,1.72 0.93,3.24 1.57,4.5 0.65,1.27 1.3,2.31 1.91,3.11 0.6,0.81 1.14,1.39 1.53,1.76 0.38,0.38 0.59,0.58 0.59,0.58 0,0 -0.17,-0.22 -0.5,-0.65 -0.33,-0.41 -0.76,-1.07 -1.28,-1.91 -0.52,-0.83 -1.04,-1.92 -1.55,-3.19 -0.49,-1.28 -0.88,-2.78 -1.12,-4.42 -0.23,-1.64 -0.29,-3.45 -0.06,-5.33 0.24,-1.86 0.72,-3.81 1.58,-5.64 0.85,-1.86 2.09,-3.57 3.63,-5 1.56,-1.41 3.44,-2.5 5.49,-3.11 0.51,-0.17 1.02,-0.29 1.53,-0.4 0.48,-0.13 1.1,-0.17 1.64,-0.26 1,-0.09 2.12,-0.12 3.14,-0 2.07,0.24 4.01,0.99 5.64,2.19 1.63,1.17 3.01,2.64 4.21,4.15 1.19,1.51 2.25,3.02 3.23,4.43 1.92,2.83 3.66,5.13 4.99,6.64 0.67,0.76 1.24,1.31 1.63,1.67 0.4,0.36 0.61,0.55 0.61,0.55z"/>
   <path class="fil0" d="M7.56 49.17c-1.56,-0 -2.83,-1.27 -2.83,-2.83 0,-1.57 1.27,-2.83 2.83,-2.83 1.57,0 2.83,1.26 2.82,2.83 0,1.55 -1.26,2.82 -2.82,2.83z"/>
   <path class="fil0" d="M1.69 48.03c-0.93,0 -1.69,-0.76 -1.69,-1.69 0,-0.94 0.76,-1.69 1.69,-1.69 0.93,0 1.69,0.76 1.69,1.69 -0,0.93 -0.76,1.69 -1.69,1.69z"/>
   <polygon class="fil0" points="344.14,46.34 122.74,43.62 122.97,43.95 124.31,46.33 122.72,49.05 "/>
  </g>
 </g>
</svg>
