<?xml version="1.0" encoding="UTF-8"?>
<!DOCTYPE svg PUBLIC "-//W3C//DTD SVG 1.1//EN" "http://www.w3.org/Graphics/SVG/1.1/DTD/svg11.dtd">
<!-- Creator: CorelDRAW -->
<svg xmlns="http://www.w3.org/2000/svg" xml:space="preserve" width="48.8982mm" height="5.1525mm" version="1.1" style="shape-rendering:geometricPrecision; text-rendering:geometricPrecision; image-rendering:optimizeQuality; fill-rule:evenodd; clip-rule:evenodd"
viewBox="0 0 2049.3 215.94"
 xmlns:xlink="http://www.w3.org/1999/xlink"
 xmlns:xodm="http://www.corel.com/coreldraw/odm/2003">
 <defs>
  <style type="text/css">
   <![CDATA[
    .fil0 {fill:#121F38;fill-rule:nonzero}
   ]]>
  </style>
 </defs>
 <g id="Layer_x0020_1">
  <metadata id="CorelCorpID_0Corel-Layer"/>
  <g id="_1717363602608">
   <path class="fil0" d="M1032.38 73.43c0,0 23.8,19.07 21.06,52.46 -2.62,32.08 14.4,48.33 34.99,46.25 20.55,-2.05 20.2,-18.65 20.2,-18.65 0,0 1.72,-16.81 -18.13,-16.81 0,0 10.61,2.73 9.22,13.36 -1.37,10.61 -16.98,13.01 -24.31,5.12 -19.23,-20.55 5.12,-58.25 -43.02,-81.73z"/>
   <path class="fil0" d="M1346.32 96.39c0,0 0.94,1.72 2.03,4.97 1.04,3.27 2.31,8.08 2.49,14.08 0.22,5.96 -0.81,13.12 -4.08,20.02 -1.63,3.43 -3.73,6.8 -6.39,9.79 -2.62,3.05 -5.65,5.78 -9.07,8.04 -3.45,2.2 -7.22,3.88 -11.14,4.95 -3.9,1.04 -7.93,1.33 -11.81,0.94 -3.83,-0.36 -7.54,-1.55 -10.57,-3.46 -3.07,-1.87 -5.43,-4.56 -6.8,-7.38 -1.4,-2.8 -1.83,-5.69 -1.81,-8.13 0.02,-2.46 0.43,-4.56 0.92,-6.21 0.43,-1.68 0.98,-2.92 1.33,-3.77 0.39,-0.81 0.57,-1.29 0.57,-1.29 0,0 -0.11,0.48 -0.36,1.37 -0.2,0.88 -0.5,2.18 -0.72,3.86 -0.24,1.65 -0.36,3.7 -0.16,5.96 0.24,2.28 0.92,4.77 2.31,7.13 1.4,2.31 3.52,4.38 6.28,5.84 2.68,1.49 5.96,2.28 9.35,2.53 3.4,0.24 6.97,-0.24 10.46,-1.22 3.47,-0.96 6.82,-2.51 9.94,-4.56 3.07,-1.99 5.89,-4.45 8.28,-7.2 2.44,-2.75 4.56,-5.69 6.14,-8.81 1.58,-3.09 2.8,-6.25 3.59,-9.39 0.77,-3.14 1.17,-6.19 1.35,-9.03 0.32,-5.71 -0.3,-10.52 -0.92,-13.86 -0.6,-3.33 -1.2,-5.18 -1.2,-5.18z"/>
   <path class="fil0" d="M1344.42 120.57c0,0 -0.02,0.27 -0.09,0.74 -0.09,0.48 -0.11,1.2 -0.32,2.1 -0.22,0.9 -0.48,1.99 -0.9,3.23 -0.39,1.22 -0.94,2.59 -1.68,3.99 -0.36,0.7 -0.77,1.44 -1.2,2.18 -0.43,0.72 -0.92,1.49 -1.46,2.22 -1.02,1.51 -2.25,3 -3.62,4.47 -1.37,1.44 -2.88,2.87 -4.56,4.16 -1.62,1.31 -3.4,2.49 -5.26,3.59 -1.85,1.02 -3.81,1.92 -5.78,2.68 -2.01,0.7 -4.06,1.2 -6.06,1.49 -2.03,0.24 -4.01,0.2 -5.87,-0.16 -1.87,-0.34 -3.52,-1.09 -4.9,-2.01 -1.37,-0.92 -2.33,-2.14 -3.03,-3.25 -0.67,-1.13 -1.09,-2.18 -1.33,-3.09 -0.36,-0.85 -0.36,-1.58 -0.45,-2.07 -0.07,-0.48 -0.11,-0.77 -0.11,-0.77 0,0 0.07,0.27 0.22,0.74 0.2,0.45 0.36,1.15 0.74,1.99 0.33,0.83 0.83,1.79 1.58,2.8 0.79,0.96 1.74,1.94 3.03,2.68 1.29,0.74 2.82,1.31 4.51,1.51 1.7,0.2 3.52,0.11 5.37,-0.16 3.7,-0.65 7.56,-2.16 11.08,-4.18 7.11,-4.04 12.96,-10.09 16.1,-15.39 0.41,-0.63 0.74,-1.31 1.06,-1.92 0.34,-0.61 0.65,-1.22 0.9,-1.81 0.57,-1.13 0.92,-2.14 1.22,-3 0.31,-0.85 0.45,-1.58 0.61,-2.03 0.1,-0.49 0.17,-0.73 0.17,-0.73z"/>
   <path class="fil0" d="M1072.31 108.55c0,0 1.22,0.54 3.55,1.42 2.33,0.9 5.82,2.03 10.27,3.36 8.91,2.62 21.99,5.62 37.79,5.82 1.99,-0.02 3.99,-0.09 6.04,-0.13 2.05,-0.11 4.09,-0.33 6.23,-0.48 2.1,-0.3 4.22,-0.61 6.43,-0.94 2.05,-0.5 4.16,-0.88 6.28,-1.53 2.14,-0.65 4.29,-1.22 6.39,-2.15 2.12,-0.79 4.12,-1.85 6.16,-2.9 3.99,-2.3 7.83,-5.01 11.09,-8.37 6.63,-6.68 10.94,-16 10.11,-25.69 -0.5,-9.57 -5.96,-18.83 -14.71,-23.05 -4.27,-2.28 -9.14,-3.43 -14.08,-3.64 -0.54,0 -1.31,-0.09 -1.7,-0.02l-2.01 0.09c-1.4,0 -2.49,0.22 -3.64,0.39 -2.28,0.33 -4.65,1.06 -6.8,1.96 -4.36,1.87 -8.04,4.92 -10.66,8.67 -1.27,1.94 -2.26,3.99 -2.94,6.12 -0.57,2.18 -1,4.4 -0.9,6.61 -0.02,0.54 0.11,1.06 0.16,1.61l0.09 0.81 0 0.09c0,-0.02 0.05,0.2 0,-0.02l0.07 0.24 0.09 0.45 0.41 1.81c0.18,0.54 0.34,0.98 0.5,1.51 0.7,1.96 1.72,3.99 3.05,5.67 2.51,3.43 6.21,5.8 10.13,7.17 4.04,1.27 8.15,1.58 12.19,0.74 3.43,-0.79 6.95,-2.92 8.31,-6.03 0.45,-0.74 0.63,-1.55 0.85,-2.37 0.02,-0.05 0.07,-0.27 0.05,-0.22l0.07 -0.34 0.07 -0.74c0.07,-0.45 0,-0.77 0.02,-1.15 -0.05,-1.61 -0.59,-3.18 -1.44,-4.49 -1.7,-2.66 -4.72,-4.25 -7.63,-4.38l-0.54 -0.02c-0.05,0 -0.36,0.02 -0.52,0.05 -0.4,0.05 -0.83,0.07 -1.11,0.11 -0.65,0.13 -1.31,0.32 -1.94,0.59 -1.2,0.54 -2.23,1.4 -2.92,2.46 -1.4,2.07 -1.72,4.77 -0.67,6.63 1.02,1.7 3.03,2.71 4.71,2.96 1.7,0.34 3.25,0.05 4.29,-0.54 1.11,-0.57 1.66,-1.4 2.03,-1.92 0.28,-0.59 0.41,-0.88 0.41,-0.88 0,0 -0.11,0.3 -0.36,0.92 -0.29,0.54 -0.79,1.46 -1.89,2.15 -1.04,0.72 -2.68,1.2 -4.56,1 -1.87,-0.18 -4.15,-0.94 -5.71,-3.16 -1.35,-2.21 -1.27,-5.42 0.32,-8.06 0.79,-1.35 1.99,-2.55 3.48,-3.34 0.77,-0.41 1.55,-0.72 2.46,-0.92 0.45,-0.16 0.83,-0.16 1.22,-0.22 0.24,-0.05 0.33,-0.07 0.67,-0.09l0.65 -0.02c3.62,-0.07 7.54,1.58 10.05,4.95 1.24,1.68 2.07,3.77 2.26,5.98 0.02,0.57 0.07,1.2 0.05,1.72l-0.05 0.72 -0.05 0.36c-0.02,0.29 -0.05,0.31 -0.09,0.48 -0.22,1.11 -0.43,2.24 -0.96,3.27 -0.39,1.11 -1.11,2.03 -1.76,3 -0.81,0.85 -1.55,1.81 -2.53,2.46 -1.83,1.55 -4.07,2.42 -6.54,3.14 -4.4,1.11 -9.46,0.94 -14.23,-0.39 -4.77,-1.44 -9.46,-4.22 -12.79,-8.44 -1.74,-2.12 -3.03,-4.45 -4.04,-7.09 -0.22,-0.63 -0.5,-1.37 -0.67,-1.99l-0.43 -1.79 -0.13 -0.45 -0.05 -0.24c-0.09,-0.28 -0.05,-0.16 -0.07,-0.24l-0.02 -0.16 -0.13 -1.04c-0.09,-0.67 -0.23,-1.37 -0.23,-2.07 -0.18,-2.83 0.26,-5.65 0.96,-8.39 0.79,-2.73 1.99,-5.32 3.5,-7.74 3.14,-4.79 7.74,-8.67 13.06,-10.99 2.68,-1.11 5.36,-1.99 8.31,-2.44 1.49,-0.2 2.98,-0.45 4.25,-0.48l1.99 -0.09c0.96,-0.09 1.51,0 2.26,0 5.69,0.22 11.49,1.49 16.65,4.22 2.62,1.29 4.99,3.07 7.22,5.01 2.1,2.05 4.12,4.22 5.58,6.8 3.14,4.97 4.67,10.77 5.01,16.48l0.09 1.94 0 0.48 0.05 0.26 0 0.27 -0.02 0.13 -0.07 1.09 -0.13 2.16 -0.34 2.12c-0.48,2.82 -1.42,5.47 -2.49,8.04 -2.23,5.1 -5.49,9.57 -9.26,13.27 -3.81,3.68 -8.11,6.68 -12.57,9.03 -2.26,1.06 -4.51,2.18 -6.84,2.92 -2.26,0.91 -4.6,1.49 -6.89,2.14 -2.28,0.59 -4.69,0.94 -6.93,1.37 -2.26,0.23 -4.31,0.52 -6.63,0.7 -2.23,0.09 -4.38,0.2 -6.5,0.2 -2.12,-0.02 -4.18,-0.09 -6.23,-0.16 -8.13,-0.39 -15.45,-1.72 -21.82,-3.27 -6.39,-1.55 -11.83,-3.32 -16.24,-4.9 -4.4,-1.58 -7.76,-3.14 -10.02,-4.2 -2.28,-1.06 -3.44,-1.72 -3.44,-1.72z"/>
   <path class="fil0" d="M1072.31 110.67c0,0 1.53,1.58 4.71,4.12 3.21,2.53 8.11,6.03 14.74,9.68 6.62,3.66 15.1,7.36 25.24,9.98 10.13,2.62 21.94,3.75 34.72,2.68 12.69,-1.06 26.13,-4.92 38.91,-11.79 6.41,-3.45 12.69,-7.61 18.83,-12.28 6.12,-4.69 12.21,-9.84 18.46,-15.1 6.25,-5.28 12.67,-10.75 19.64,-15.91 6.95,-5.1 14.45,-9.98 22.8,-13.6 8.35,-3.64 17.41,-6 26.68,-6.7 2.51,-0.13 4.31,-0.28 6.84,-0.26 2.44,-0.02 4.71,0.13 7.04,0.33 4.67,0.36 9.35,1.24 13.91,2.64 9.09,2.73 17.61,7.85 24.28,14.78 6.68,6.89 11.42,15.57 13.63,24.81 1.09,4.62 1.55,9.39 1.29,14.19 -0.11,1.2 -0.2,2.4 -0.36,3.59 -0.18,0.98 -0.36,2.16 -0.59,3.36 -0.48,2.23 -1.04,4.45 -1.72,6.63 -2.73,8.65 -7.31,16.8 -13.77,23.14 -6.45,6.37 -14.67,10.7 -23.04,12.46 -4.2,0.92 -8.39,1.31 -12.48,1.31 -4.06,0.05 -8.35,-0.36 -12.32,-1.46 -8,-2.05 -15.44,-6.95 -19.53,-13.93 -4.2,-6.89 -4.99,-15.04 -3.45,-21.99 0.34,-1.76 0.83,-3.34 1.51,-5.12 0.52,-1.35 1.46,-3.32 2.37,-4.69 1.89,-2.9 4.22,-5.32 6.7,-7.32 4.99,-4.01 10.79,-6.5 16.57,-6.97 5.56,-0.3 11.38,0.7 15.33,4.15 1.99,1.68 3.43,3.77 4.18,5.99 0.72,2.25 1.02,4.45 0.72,6.54 -0.79,4.4 -3.81,7.22 -6.62,8.53 -2.9,1.35 -5.82,1.13 -7.81,0.28 -1.94,-0.83 -3.05,-2.05 -3.7,-2.9 -0.34,-0.41 -0.57,-0.77 -0.72,-0.96 -0.16,-0.24 -0.22,-0.34 -0.22,-0.34 0,0 0.09,0.11 0.26,0.3 0.16,0.22 0.43,0.52 0.81,0.9 0.72,0.74 1.94,1.79 3.83,2.35 1.87,0.59 4.45,0.45 6.84,-0.98 2.33,-1.33 4.62,-4.07 4.86,-7.41 0.2,-3.4 -1.13,-7.43 -4.4,-9.88 -1.58,-1.29 -3.64,-2.1 -5.84,-2.57 -1.15,-0.2 -2.23,-0.3 -3.43,-0.36 -0.63,0 -1.27,0 -1.87,-0.02 -0.61,0.05 -1.22,0.11 -1.81,0.18 -4.86,0.65 -9.76,3.11 -13.86,6.82 -4.12,3.7 -7.32,8.74 -8.06,14.58 -1,5.87 0.07,12.25 3.5,17.33 3.4,5.1 9.09,8.72 15.67,10.16 3.32,0.74 6.64,1 10.31,0.83 3.59,-0.13 7.2,-0.63 10.68,-1.53 6.95,-1.79 13.49,-5.34 18.6,-10.63 5.12,-5.26 8.85,-12.12 10.99,-19.55 0.54,-1.85 1,-3.77 1.37,-5.69 0.11,-0.9 0.29,-1.81 0.41,-2.92 0.13,-0.91 0.2,-1.83 0.27,-2.75 0.18,-3.73 -0.18,-7.56 -1.13,-11.29 -1.81,-7.45 -5.73,-14.54 -11.22,-20.09 -5.42,-5.6 -12.4,-9.68 -20.02,-12.01 -3.79,-1.22 -7.74,-1.99 -11.76,-2.35 -2.01,-0.18 -4.09,-0.32 -6.03,-0.3 -1.81,-0.05 -4.36,0.11 -6.16,0.2 -8.13,0.57 -16.07,2.55 -23.52,5.75 -14.97,6.34 -27.95,17 -40.65,27.29 -12.64,10.4 -25.62,20.29 -39.59,27.13 -13.91,6.97 -28.53,10.27 -42,10.77 -13.41,0.59 -25.74,-1.46 -36.07,-4.74 -10.36,-3.25 -18.72,-7.72 -25.22,-11.9 -6.5,-4.16 -11.08,-8.15 -14.06,-10.97 -3.01,-2.86 -4.41,-4.53 -4.41,-4.53z"/>
   <path class="fil0" d="M1486.07 88.33c0,0 1.06,0.18 3.07,0.5 2.01,0.34 4.95,0.91 8.6,1.99 3.66,1.02 8.04,2.66 12.86,4.99 4.81,2.35 9.98,5.53 15.3,9.37 5.32,3.83 10.77,8.26 16.68,12.51 5.93,4.29 12.44,8.17 19.71,10.81 3.64,1.31 7.43,2.4 11.31,2.98 3.83,0.57 7.78,0.61 11.58,-0.09 3.79,-0.7 7.47,-2.1 10.68,-4.22 3.18,-2.16 5.93,-5.06 7.87,-8.42 1.99,-3.29 3.21,-7.13 3.32,-10.83 0.2,-3.99 -0.36,-7.94 -1.58,-11.62 -1.27,-3.64 -3.29,-6.93 -5.96,-9.53 -2.66,-2.62 -5.98,-4.49 -9.53,-5.67 -1.76,-0.59 -3.57,-1.02 -5.47,-1.29 -1.7,-0.24 -3.55,-0.31 -5.23,-0.09 -3.47,0.36 -6.63,1.83 -8.87,4.12 -2.28,2.28 -3.57,5.38 -3.83,8.53 -0.16,1.56 -0.09,3.16 0.22,4.69 0.27,1.33 0.9,2.77 1.63,4.06 1.49,2.57 3.62,4.69 5.96,6.06 1.17,0.7 2.42,1.22 3.66,1.51 1.31,0.27 2.53,0.39 3.75,0.31 2.37,-0.16 4.43,-1.29 5.56,-2.98 1.13,-1.68 1.53,-3.68 0.96,-5.26 -0.5,-1.66 -1.68,-2.86 -2.92,-3.49 -1.22,-0.65 -2.46,-0.7 -3.43,-0.45 -1.92,0.54 -2.62,1.58 -2.64,1.51 0.05,0.07 0.59,-1.02 2.53,-1.83 0.98,-0.36 2.4,-0.5 3.86,0.07 1.46,0.57 2.94,1.83 3.77,3.75 0.42,0.92 0.63,2.12 0.48,3.25 -0.18,1.17 -0.54,2.28 -1.2,3.38 -1.29,2.21 -3.93,3.81 -6.8,4.08 -1.4,0.16 -2.9,0.05 -4.34,-0.18 -1.51,-0.24 -2.98,-0.79 -4.4,-1.5 -2.8,-1.46 -5.38,-3.7 -7.34,-6.63 -0.96,-1.46 -1.74,-3.05 -2.24,-4.99 -0.45,-1.76 -0.59,-3.64 -0.54,-5.56 0.18,-3.81 1.55,-7.87 4.38,-11.03 2.8,-3.16 6.93,-5.15 11.2,-5.8 2.14,-0.29 4.27,-0.36 6.5,-0.11 2.05,0.22 4.2,0.63 6.28,1.24 4.18,1.2 8.33,3.34 11.68,6.5 3.38,3.11 5.96,7.17 7.56,11.51 1.58,4.34 2.28,9.03 2.21,13.63 -0.13,4.9 -1.65,9.57 -4.04,13.68 -2.4,4.14 -5.71,7.67 -9.61,10.36 -3.93,2.68 -8.42,4.45 -12.96,5.28 -4.6,0.81 -9.17,0.7 -13.58,0.02 -4.36,-0.7 -8.5,-1.92 -12.44,-3.4 -7.95,-2.96 -14.8,-7.54 -20.77,-12.14 -5.96,-4.65 -11.1,-9.39 -16.09,-13.41 -4.92,-4.1 -9.7,-7.5 -14.13,-10.13 -4.43,-2.71 -8.56,-4.65 -12.03,-6.1 -3.45,-1.42 -6.25,-2.37 -8.17,-2.98 -1.95,-0.62 -3,-0.94 -3,-0.94z"/>
   <path class="fil0" d="M1486.07 88.33c0,0 1.06,0.18 3.07,0.5 2.01,0.34 4.95,0.91 8.6,1.99 3.66,1.02 8.04,2.66 12.86,4.99 4.81,2.35 9.98,5.53 15.3,9.37 5.32,3.83 10.77,8.26 16.68,12.51 5.93,4.29 12.44,8.17 19.71,10.81 3.64,1.31 7.43,2.4 11.31,2.98 3.83,0.57 7.78,0.61 11.58,-0.09 3.79,-0.7 7.47,-2.1 10.68,-4.22 3.18,-2.16 5.93,-5.06 7.87,-8.42 1.99,-3.29 3.21,-7.13 3.32,-10.83 0.2,-3.99 -0.36,-7.94 -1.58,-11.62 -1.27,-3.64 -3.29,-6.93 -5.96,-9.53 -2.66,-2.62 -5.98,-4.49 -9.53,-5.67 -1.76,-0.59 -3.57,-1.02 -5.47,-1.29 -1.7,-0.24 -3.55,-0.31 -5.23,-0.09 -3.47,0.36 -6.63,1.83 -8.87,4.12 -2.28,2.28 -3.57,5.38 -3.83,8.53 -0.16,1.56 -0.09,3.16 0.22,4.69 0.27,1.33 0.9,2.77 1.63,4.06 1.49,2.57 3.62,4.69 5.96,6.06 1.17,0.7 2.42,1.22 3.66,1.51 1.31,0.27 2.53,0.39 3.75,0.31 2.37,-0.16 4.43,-1.29 5.56,-2.98 1.13,-1.68 1.53,-3.68 0.96,-5.26 -0.5,-1.66 -1.68,-2.86 -2.92,-3.49 -1.22,-0.65 -2.46,-0.7 -3.43,-0.45 -1.92,0.54 -2.62,1.58 -2.64,1.51 0.05,0.07 0.59,-1.02 2.53,-1.83 0.98,-0.36 2.4,-0.5 3.86,0.07 1.46,0.57 2.94,1.83 3.77,3.75 0.42,0.92 0.63,2.12 0.48,3.25 -0.18,1.17 -0.54,2.28 -1.2,3.38 -1.29,2.21 -3.93,3.81 -6.8,4.08 -1.4,0.16 -2.9,0.05 -4.34,-0.18 -1.51,-0.24 -2.98,-0.79 -4.4,-1.5 -2.8,-1.46 -5.38,-3.7 -7.34,-6.63 -0.96,-1.46 -1.74,-3.05 -2.24,-4.99 -0.45,-1.76 -0.59,-3.64 -0.54,-5.56 0.18,-3.81 1.55,-7.87 4.38,-11.03 2.8,-3.16 6.93,-5.15 11.2,-5.8 2.14,-0.29 4.27,-0.36 6.5,-0.11 2.05,0.22 4.2,0.63 6.28,1.24 4.18,1.2 8.33,3.34 11.68,6.5 3.38,3.11 5.96,7.17 7.56,11.51 1.58,4.34 2.28,9.03 2.21,13.63 -0.13,4.9 -1.65,9.57 -4.04,13.68 -2.4,4.14 -5.71,7.67 -9.61,10.36 -3.93,2.68 -8.42,4.45 -12.96,5.28 -4.6,0.81 -9.17,0.7 -13.58,0.02 -4.36,-0.7 -8.5,-1.92 -12.44,-3.4 -7.95,-2.96 -14.8,-7.54 -20.77,-12.14 -5.96,-4.65 -11.1,-9.39 -16.09,-13.41 -4.92,-4.1 -9.7,-7.5 -14.13,-10.13 -4.43,-2.71 -8.56,-4.65 -12.03,-6.1 -3.45,-1.42 -6.25,-2.37 -8.17,-2.98 -1.95,-0.62 -3,-0.94 -3,-0.94z"/>
   <path class="fil0" d="M1085.47 0c0,0 -7.26,19.37 10.72,23.12 8.71,-16.15 -10.72,-23.12 -10.72,-23.12z"/>
   <path class="fil0" d="M1101.81 19.3c1.58,3.36 0.09,7.36 -3.27,8.91 -3.38,1.58 -7.34,0.11 -8.94,-3.27 -1.55,-3.36 -0.09,-7.36 3.27,-8.91 3.38,-1.58 7.38,-0.12 8.94,3.27z"/>
   <path class="fil0" d="M1098.54 28.22c0,0 6.82,-0.18 7.04,-7.06 0.16,-4.56 -2.1,-8.98 4.29,-13.02 0,0 -11.01,1.22 -12.6,11.24 -0.36,2.2 -0.21,5.52 1.27,8.83z"/>
   <path class="fil0" d="M1098.54 28.22c0,0 -4.56,5.12 -9.94,0.83 -3.59,-2.86 -5.51,-7.43 -12.73,-5.15 0,0 8.06,-7.61 16.77,-2.35 1.89,1.16 4.31,3.38 5.9,6.67z"/>
   <path class="fil0" d="M1392.71 103.28c-10.18,10.52 -20.27,23.16 -26.7,36.79 0,0 12.14,-15.39 29.82,-31.38 -0.06,-3.09 -1.68,-4.62 -3.12,-5.41z"/>
   <path class="fil0" d="M1662.5 91.4c0,0 2.73,-11.29 -8.91,-11.29 -16.8,0 -17.15,18.51 -32.76,25.35 -1.61,0.72 -3.62,1.58 -5.93,2.44 0,0.07 0,0.13 0,0.22 -0.07,3.32 -0.74,6.63 -1.99,9.85 28.49,-7.65 38.33,-27.09 61.24,-18.31 0.01,0 -3.76,-7.21 -11.65,-8.26z"/>
   <path class="fil0" d="M1608.91 109.84c-0.41,3.27 -1.5,6.68 -3.27,9.72 0.74,-0.13 1.49,-0.24 2.2,-0.39 1.62,-3.21 2.57,-6.5 2.84,-9.85 -0.54,0.17 -1.15,0.36 -1.76,0.52z"/>
   <path class="fil0" d="M1486.85 78.11c39.01,13.56 63.7,43.72 105.05,42.8 2.88,-0.09 5.62,-0.27 8.22,-0.54 0.67,-0.85 1.31,-1.72 1.85,-2.64 1.27,-2.18 2.16,-4.53 2.64,-6.86 -5.26,1.06 -11.42,1.65 -18.55,1.09 -1.22,0.57 -2.55,0.94 -3.93,1.09 -1.44,0.16 -3.14,0.09 -4.88,-0.2 -1.58,-0.24 -3.27,-0.81 -4.97,-1.7 -1.44,-0.72 -2.75,-1.65 -3.97,-2.68 -11.55,-3.57 -24.81,-10.09 -39.84,-21.15 0,0 18.51,0.67 27.42,-17.5 0,0 -8.76,5.71 -21.69,3.62 -0.2,0.22 -0.39,0.41 -0.65,0.67 -1.33,1.35 -3.34,2.9 -5.58,3.97 -0.54,0.28 -1.13,0.48 -1.7,0.7 -0.57,0.24 -1.15,0.36 -1.68,0.54 -0.57,0.16 -1.11,0.22 -1.61,0.33 -0.5,0.13 -1,0.16 -1.44,0.2 -0.92,0.13 -1.63,0.09 -2.18,0.09 -0.52,0 -0.83,0 -0.83,0 0,0 0.28,-0.05 0.83,-0.13 0.5,-0.07 1.22,-0.18 2.07,-0.41 0.45,-0.13 0.9,-0.22 1.37,-0.43 0.45,-0.18 0.98,-0.31 1.49,-0.57 0.45,-0.24 0.96,-0.43 1.46,-0.74 0.5,-0.31 0.98,-0.57 1.46,-0.92 1.7,-1.15 3.09,-2.62 4.08,-3.88 -2.64,-0.67 -5.41,-1.62 -8.28,-3.03 -1.87,-0.92 -3.75,-1.87 -5.65,-2.86 -0.13,0.09 -0.24,0.18 -0.36,0.22 -0.77,0.45 -1.7,0.83 -2.66,1.31 -0.45,0.23 -1.02,0.41 -1.55,0.61 -0.54,0.2 -1.04,0.41 -1.58,0.59 -0.57,0.16 -1.11,0.3 -1.65,0.43 -0.54,0.16 -1.04,0.32 -1.6,0.36 -0.52,0.09 -1.04,0.18 -1.51,0.27 -0.5,0.05 -0.94,0.18 -1.4,0.13 -1.65,-0.05 -2.8,-0.05 -2.8,-0.05 0,0 1.11,-0.18 2.75,-0.43 0.41,-0.05 0.81,-0.24 1.29,-0.36 0.41,-0.13 0.92,-0.33 1.37,-0.45 0.5,-0.13 0.98,-0.41 1.46,-0.63 0.5,-0.22 0.98,-0.45 1.46,-0.7 0.5,-0.24 0.94,-0.54 1.42,-0.79 0.43,-0.33 0.92,-0.54 1.31,-0.83 0.52,-0.36 0.98,-0.67 1.44,-1 -4.34,-2.18 -8.67,-4.31 -13.21,-5.93l0 0c-0.32,0.29 -0.7,0.54 -1.06,0.83 -0.41,0.29 -0.79,0.61 -1.24,0.85 -0.43,0.27 -0.92,0.52 -1.4,0.81 -0.45,0.29 -1,0.41 -1.51,0.63 -0.48,0.2 -1,0.41 -1.49,0.61 -0.52,0.11 -1,0.24 -1.53,0.36 -0.45,0.11 -0.94,0.22 -1.37,0.32 -0.45,0.11 -0.9,0.11 -1.29,0.16 -1.58,0.13 -2.62,0.24 -2.62,0.24 0,0 1.02,-0.3 2.51,-0.7 0.36,-0.13 0.79,-0.18 1.2,-0.36 0.41,-0.18 0.81,-0.36 1.27,-0.57 0.43,-0.2 0.88,-0.41 1.35,-0.61 0.39,-0.29 0.83,-0.54 1.29,-0.83 0.39,-0.29 0.85,-0.48 1.2,-0.83 0.36,-0.31 0.74,-0.63 1.09,-0.94 0.36,-0.27 0.63,-0.59 0.92,-0.85 -8.56,-2.68 -17.83,-3.32 -28.62,0.63l1.64 0.52c0.41,0.13 10,3.25 13.62,12.01 0.78,1.96 1.22,3.99 1.31,6.12z"/>
   <path class="fil0" d="M1024.64 83.25c0,0 -31.65,35.57 0,76.11 31.65,-40.54 0,-76.11 0,-76.11z"/>
   <path class="fil0" d="M1050.86 52.35c-7.63,-1.96 -13.49,0.98 -17.72,5.03 7.52,-19.35 -8.5,-34.35 -8.5,-34.35 0,0 -16,14.99 -8.48,34.35 -4.22,-4.06 -10.11,-7 -17.72,-5.03 -18.01,4.65 -14.43,37.53 -14.43,37.53 13.39,-41.13 40.63,-19.55 40.63,-19.55 0,0 27.27,-21.58 40.63,19.55 0,0 3.59,-32.89 -14.4,-37.53z"/>
   <path class="fil0" d="M1117.86 93.82c-10.94,-13.03 -12.67,-25.24 -4.43,-42.11 0,0 -22.64,4.06 -19.21,39.68 0,0 -20.23,-19.5 -14.74,-54.81 0,0 -16.5,44.9 11.64,66.14 22.25,16.78 61.35,1.7 61.35,1.7 0,0 -23.64,2.42 -34.63,-10.6zm12.99 12.32c-0.72,-0.05 -1.6,-0.11 -2.64,-0.2 -1,-0.07 -2.18,-0.16 -3.38,-0.48 -1.24,-0.27 -2.57,-0.57 -3.99,-0.92 -1.42,-0.39 -2.8,-1.02 -4.29,-1.62 -1.52,-0.52 -2.92,-1.49 -4.38,-2.35l-1.11 -0.67 -0.96 -0.83 -2.01 -1.68c-0.67,-0.54 -1.15,-1.31 -1.74,-1.96 -0.54,-0.7 -1.15,-1.29 -1.58,-2.05 -0.45,-0.74 -0.88,-1.49 -1.29,-2.23 -0.45,-0.72 -0.67,-1.55 -1,-2.28 -0.67,-1.49 -0.88,-3.07 -1.24,-4.49 -0.16,-1.49 -0.36,-2.87 -0.28,-4.16 -0.07,-1.27 0.13,-2.42 0.22,-3.47 0.16,-1.01 0.33,-1.89 0.52,-2.59 0.18,-0.72 0.36,-1.27 0.52,-1.63 0.13,-0.36 0.2,-0.54 0.2,-0.54 0,0 -0.09,0.85 -0.11,2.26 -0.02,1.44 0,3.49 0.39,5.87 0.11,1.17 0.5,2.44 0.79,3.75 0.48,1.29 0.81,2.68 1.51,3.97 0.34,0.63 0.57,1.37 1,1.99 0.41,0.61 0.83,1.22 1.24,1.89 0.34,0.67 0.94,1.17 1.44,1.79 0.52,0.54 0.96,1.2 1.56,1.68l1.74 1.54 0.88 0.77 0.96 0.63c1.35,0.79 2.51,1.81 3.9,2.37 1.37,0.61 2.62,1.37 3.9,1.89 1.31,0.43 2.53,0.94 3.66,1.35 1.13,0.5 2.23,0.79 3.18,1.06 0.96,0.28 1.79,0.54 2.46,0.74 1.42,0.45 2.18,0.72 2.18,0.72 0,0 -0.81,-0.03 -2.25,-0.11z"/>
   <path class="fil0" d="M1191.22 7.1c-19.88,8.24 -10.61,32.57 -10.61,32.57 0,0 -15.08,-14.74 -43.2,-5.82 -24.81,7.87 -40.11,-7.87 -40.11,-7.87 0,0 14.08,22.25 43.18,13.36 29.16,-8.91 47.9,9.64 52.3,23.8 4.86,15.67 -4.31,30.36 -8.44,37.88 0,0 15.8,-15.76 14.43,-32.56 -1.4,-16.79 -12.01,-29.82 -3.09,-45.42 8.89,-15.58 25.37,-7.69 25.37,-7.69 0,0 -9.95,-16.48 -29.83,-8.24zm5.1 3.74c-0.4,0.3 -0.9,0.65 -1.51,1.04 -0.54,0.39 -1.09,1 -1.72,1.51 -0.31,0.3 -0.65,0.57 -0.96,0.88 -0.29,0.36 -0.59,0.72 -0.9,1.09 -0.29,0.34 -0.61,0.72 -0.94,1.09 -0.26,0.41 -0.52,0.83 -0.79,1.27 -0.24,0.43 -0.57,0.83 -0.77,1.33 -0.2,0.48 -0.41,0.96 -0.65,1.42 -0.52,0.91 -0.65,2.05 -1,3.05 -0.24,1.06 -0.54,2.14 -0.63,3.21 -0.09,1.09 -0.28,2.14 -0.28,3.18 -0.13,2.1 0,4.07 0.07,5.82 0.29,3.43 0.61,5.78 0.61,5.78 0,0 -1.31,-2.03 -2.33,-5.47 -0.22,-0.88 -0.52,-1.83 -0.65,-2.84 -0.18,-1.02 -0.39,-2.12 -0.41,-3.25 -0.07,-1.15 -0.05,-2.33 0.07,-3.55 0.07,-1.2 0.34,-2.42 0.57,-3.64l0.59 -1.79c0.18,-0.61 0.41,-1.17 0.72,-1.72 0.5,-1.11 1.15,-2.18 1.89,-3.09 0.36,-0.43 0.7,-0.92 1.06,-1.33 0.41,-0.38 0.83,-0.72 1.24,-1.09 0.41,-0.34 0.81,-0.7 1.17,-1 0.43,-0.29 0.85,-0.5 1.27,-0.74 0.81,-0.43 1.51,-0.88 2.23,-1.13 0.67,-0.24 1.29,-0.41 1.81,-0.54 1,-0.29 1.56,-0.42 1.56,-0.42 0,0 -0.48,0.34 -1.32,0.94z"/>
   <path class="fil0" d="M1369.3 77.41c-0.3,-0.11 -0.61,-0.2 -0.92,-0.31 -0.72,-0.31 -1.44,-0.59 -2.16,-0.9 -0.67,-0.31 -1.37,-0.59 -2.03,-0.98 -0.61,-0.36 -1.24,-0.74 -1.83,-1.09 -0.61,-0.36 -1.2,-0.65 -1.7,-1.02 -0.52,-0.39 -0.98,-0.77 -1.42,-1.06 -1.7,-1.33 -2.82,-2.22 -2.82,-2.22 0,0 1.35,0.43 3.38,1.04 0.5,0.16 1.04,0.33 1.61,0.5 0.59,0.16 1.22,0.22 1.85,0.34 0.65,0.11 1.31,0.2 1.96,0.32 0.65,0.13 1.33,0.13 2.03,0.18 0.24,0.02 0.5,0.05 0.77,0.05 -3.32,-11.18 -10.59,-22.91 -25.33,-32.26 -0.59,-0.39 -1.17,-0.7 -1.79,-1.06 -1.74,2.26 -4.08,4.74 -6.78,6.73 -0.79,0.63 -1.63,1.17 -2.46,1.7 -0.81,0.54 -1.68,0.96 -2.49,1.42 -0.79,0.43 -1.63,0.74 -2.4,1.06 -0.77,0.32 -1.51,0.57 -2.21,0.77 -1.37,0.45 -2.53,0.65 -3.34,0.81 -0.81,0.16 -1.27,0.22 -1.27,0.22 0,0 0.41,-0.22 1.11,-0.63 0.7,-0.39 1.7,-0.98 2.76,-1.83 0.54,-0.39 1.13,-0.85 1.68,-1.37 0.57,-0.52 1.17,-1.02 1.72,-1.65 0.54,-0.63 1.13,-1.22 1.63,-1.94 0.54,-0.65 1.06,-1.33 1.51,-2.07 1.54,-2.35 2.62,-4.81 3.32,-6.95 -17.96,-8.13 -38.28,-8.76 -56.7,-4.77 0.09,1.11 0.2,2.31 0.16,3.57 0.02,1.7 -0.13,3.5 -0.41,5.3 -0.2,0.88 -0.29,1.79 -0.57,2.62 -0.22,0.85 -0.43,1.68 -0.79,2.44 -0.3,0.79 -0.59,1.53 -0.96,2.18 -0.36,0.65 -0.67,1.31 -1.04,1.83 -0.36,0.52 -0.74,1 -1.02,1.46 -0.34,0.36 -0.63,0.72 -0.9,0.98 -0.48,0.57 -0.79,0.85 -0.79,0.85 0,0 0.18,-0.36 0.5,-1.02 0.16,-0.34 0.32,-0.74 0.54,-1.2 0.13,-0.45 0.29,-1 0.45,-1.58 0.22,-0.57 0.28,-1.24 0.43,-1.92 0.13,-0.65 0.2,-1.37 0.22,-2.14 0.09,-0.72 0.02,-1.49 0.02,-2.25 0,-0.79 -0.16,-1.56 -0.22,-2.33 -0.24,-1.55 -0.59,-3.03 -1.04,-4.43 -0.3,-1 -0.65,-1.92 -1,-2.73 -14.78,4.12 -27.9,11.16 -37.07,19.44 0.24,0.63 0.36,1.33 0.57,2.05 0.18,0.74 0.43,1.51 0.52,2.35 0.11,0.81 0.22,1.65 0.36,2.51 0.13,0.85 0.13,1.74 0.16,2.62 0.02,0.85 0.02,1.72 0.05,2.55 0,0.85 -0.18,1.68 -0.24,2.49 -0.09,0.79 -0.18,1.55 -0.29,2.26 -0.02,0.72 -0.27,1.37 -0.41,1.96 -0.65,2.4 -1.06,4.01 -1.06,4.01 0,0 -0.09,-1.63 -0.2,-4.08 -0.07,-0.61 -0.02,-1.24 -0.2,-1.94 -0.16,-0.67 -0.31,-1.37 -0.43,-2.1 -0.18,-0.72 -0.26,-1.49 -0.48,-2.23 -0.29,-0.72 -0.52,-1.44 -0.79,-2.18 -0.24,-0.72 -0.48,-1.46 -0.85,-2.14 -0.32,-0.65 -0.65,-1.33 -0.93,-1.99 -0.2,-0.41 -0.43,-0.79 -0.67,-1.15 -21.22,23.47 -27.5,52.07 -50.45,64.06 0,0 25.89,-10.07 49.68,-33.59 30.51,-30.16 61.51,-37.12 93.2,-27.99 33.98,9.8 46.03,36.18 46.03,51.58 0.04,0.03 5.75,-15.26 2.23,-33.15zm-117.9 -23.16c-0.11,0.79 -0.36,1.58 -0.63,2.4 -0.31,0.79 -0.67,1.53 -1.13,2.2 -0.39,0.67 -0.83,1.27 -1.31,1.7 -0.88,0.91 -1.58,1.4 -1.58,1.4 0,0 0.13,-0.85 0.57,-1.99 0.24,-0.57 0.43,-1.24 0.67,-1.94 0.29,-0.67 0.59,-1.37 0.83,-2.12 0.32,-0.72 0.54,-1.44 0.83,-2.14 0.28,-0.67 0.45,-1.31 0.72,-1.85 0.41,-1.13 0.77,-1.96 0.77,-1.96 0,0 0.07,0.2 0.18,0.57 0.11,0.39 0.18,0.9 0.24,1.55 -0,0.65 0.01,1.41 -0.16,2.2zm6.69 -3.61c-0.05,0.59 -0.27,1.15 -0.39,1.76 -0.18,0.59 -0.31,1.17 -0.54,1.72 -0.23,0.54 -0.54,1.06 -0.81,1.58 -0.29,0.5 -0.54,0.98 -0.83,1.4 -0.27,0.45 -0.63,0.79 -0.96,1.11 -1.22,1.33 -2.16,2.05 -2.16,2.05 0,0 0.41,-1.17 1.17,-2.68 0.18,-0.36 0.41,-0.79 0.61,-1.22 0.16,-0.45 0.33,-0.94 0.52,-1.42 0.18,-0.48 0.34,-0.98 0.59,-1.49 0.18,-0.5 0.29,-1.04 0.43,-1.58 0.11,-0.52 0.32,-1.04 0.41,-1.58 0.05,-0.52 0.16,-1.02 0.22,-1.54 0.13,-0.5 0.16,-1.01 0.18,-1.46 0,-0.48 0.09,-0.94 0.07,-1.37 0,-0.83 0.02,-1.55 -0.05,-2.07 0,-0.5 -0.05,-0.81 -0.05,-0.81 0,0 0.2,0.24 0.43,0.67 0.13,0.27 0.32,0.52 0.43,0.88 0.11,0.36 0.27,0.74 0.41,1.17 0.13,0.45 0.2,0.93 0.27,1.44 0.09,0.52 0.18,1.09 0.13,1.65 0,0.58 0,1.19 -0.08,1.8zm35.28 -2.21c-0.57,0.36 -1.17,0.57 -1.74,0.79 -0.54,0.24 -1.11,0.36 -1.61,0.48 -1,0.26 -1.89,0.29 -2.46,0.29 -0.63,0 -0.94,-0.02 -0.94,-0.02 0,0 0.28,-0.13 0.83,-0.39 0.29,-0.09 0.59,-0.22 0.96,-0.39 0.36,-0.16 0.77,-0.36 1.2,-0.59 0.45,-0.22 0.92,-0.45 1.37,-0.74 0.45,-0.33 0.96,-0.59 1.44,-0.96 0.48,-0.31 0.98,-0.67 1.44,-1.09 0.5,-0.39 0.96,-0.83 1.4,-1.27 0.91,-0.88 1.7,-1.87 2.44,-2.82 0.72,-0.98 1.35,-1.92 1.85,-2.73 1.06,-1.68 1.7,-2.9 1.7,-2.9 0,0 0.05,1.4 -0.63,3.36 -0.29,1.01 -0.77,2.12 -1.44,3.27 -0.32,0.54 -0.67,1.11 -1.11,1.65 -0.43,0.54 -0.85,1.11 -1.37,1.58 -1.01,0.97 -2.14,1.86 -3.32,2.45zm17.17 -11.44c0,0.29 -0.02,0.65 -0.13,1.02 -0.09,0.39 -0.13,0.85 -0.32,1.33 -0.18,0.45 -0.39,0.96 -0.63,1.49 -0.22,0.52 -0.57,0.98 -0.93,1.53 -0.36,0.48 -0.65,1.11 -1.13,1.51 -0.45,0.48 -0.93,0.94 -1.4,1.42 -0.45,0.43 -0.96,0.88 -1.51,1.2 -0.52,0.39 -1.09,0.72 -1.58,1.04 -0.5,0.33 -1,0.67 -1.51,0.9 -0.52,0.2 -1,0.39 -1.46,0.57 -1.83,0.72 -3.05,0.98 -3.05,0.98 0,0 0.96,-0.91 2.46,-2.01 0.36,-0.27 0.79,-0.59 1.24,-0.85 0.43,-0.31 0.81,-0.72 1.29,-1.06 0.43,-0.36 0.9,-0.74 1.37,-1.09 0.5,-0.36 0.94,-0.77 1.37,-1.2 0.41,-0.43 0.88,-0.83 1.31,-1.22 0.45,-0.39 0.79,-0.88 1.17,-1.27 0.31,-0.45 0.79,-0.81 1.04,-1.24 0.28,-0.43 0.59,-0.83 0.88,-1.2 0.26,-0.38 0.43,-0.74 0.63,-1.04 0.24,-0.34 0.36,-0.63 0.5,-0.88 0.22,-0.48 0.36,-0.81 0.36,-0.81 0,0 0.04,0.29 0.04,0.88zm38.06 21.53c-1.4,0.54 -3.34,1.04 -5.32,1.27 -1,0.02 -2.01,0.18 -2.94,0.02 -0.94,-0.09 -1.79,-0.11 -2.53,-0.33 -1.46,-0.41 -2.37,-0.77 -2.37,-0.77 0,0 1,-0.11 2.46,-0.13 0.72,0.02 1.55,-0.09 2.44,-0.11 0.88,-0.02 1.83,-0.18 2.8,-0.27 0.48,0 0.94,-0.07 1.42,-0.13 0.48,-0.05 0.94,-0.11 1.4,-0.11 0.88,-0.18 1.72,-0.2 2.46,-0.33 0.7,-0.05 1.33,-0.11 1.76,-0.18 0.41,-0.05 0.67,-0.05 0.67,-0.05 0,0 -0.85,0.57 -2.25,1.12z"/>
   <path class="fil0" d="M1310.5 78.4c-56.21,-9.24 -67.2,36.68 -104.2,58.28 -37.01,21.58 -95.26,5.47 -95.26,5.47 28.1,17.15 48.15,17.22 73.32,13.01 11.35,-1.85 21.28,3.23 22.3,11.69 0.77,6.28 -6.86,13.01 -6.86,13.01 39.08,-3.07 19.55,-29.82 19.55,-29.82 27.09,1.02 43.18,-22.58 43.18,-22.58 -9.26,5.21 -20.56,0 -20.56,0 27.02,-3.43 37.7,-28.49 37.7,-28.49 -7.54,4.79 -17.48,2.05 -17.48,2.05 13.68,-1.35 20.9,-10.29 27.74,-15.76 6.84,-5.49 20.57,-6.86 20.57,-6.86zm-66.93 59.01c0.48,-0.09 0.79,-0.13 0.79,-0.13 0,0 -0.18,0.22 -0.61,0.5 -0.39,0.33 -1,0.63 -1.79,1.04 -0.81,0.29 -1.76,0.7 -2.82,0.83 -0.54,0.07 -1.09,0.22 -1.65,0.24 -0.57,0.02 -1.13,0.02 -1.7,0.02 -0.57,-0.02 -1.15,-0.02 -1.72,-0.09 -0.54,-0.11 -1.09,-0.24 -1.6,-0.34 -0.54,-0.11 -1.02,-0.24 -1.49,-0.34 -0.5,-0.18 -0.91,-0.34 -1.29,-0.52 -1.58,-0.72 -2.51,-1.33 -2.51,-1.33 0,0 1.2,-0.02 2.8,0.18 0.41,0.05 0.83,0.11 1.31,0.18 0.45,0.02 0.96,0.02 1.44,0.05 0.5,0.07 1.02,0.09 1.53,0.18 0.52,0.05 1.04,0.02 1.56,0.02 0.52,0 1.04,0.05 1.58,0.07 0.52,-0.07 1.02,-0.07 1.51,-0.07 0.5,0 1,0 1.44,-0.07 0.43,-0.07 0.9,-0.09 1.29,-0.11 0.75,-0.14 1.49,-0.21 1.92,-0.29zm18.99 -26.69c1.6,-0.59 2.71,-1.02 2.71,-1.02 0,0 -0.18,0.26 -0.52,0.63 -0.33,0.39 -0.9,0.9 -1.61,1.44 -0.72,0.5 -1.6,1.13 -2.62,1.55 -0.48,0.24 -1,0.5 -1.58,0.7 -0.54,0.18 -1.11,0.36 -1.65,0.54 -1.13,0.36 -2.28,0.57 -3.4,0.72 -1.09,0.16 -2.12,0.2 -3,0.13 -1.76,-0.07 -2.92,-0.29 -2.92,-0.29 0,0 1.11,-0.45 2.77,-0.88 0.43,-0.11 0.85,-0.22 1.35,-0.33 0.45,-0.16 0.96,-0.31 1.46,-0.45 0.52,-0.13 1.02,-0.28 1.58,-0.39 0.52,-0.13 1.06,-0.33 1.61,-0.5 1.09,-0.24 2.12,-0.59 3.14,-0.94 0.98,-0.27 1.84,-0.69 2.68,-0.93z"/>
   <path class="fil0" d="M1481.53 90.73c11.31,-21.92 -10.27,-28.79 -10.27,-28.79 4.1,14.78 -15.44,27.07 -31.06,29.47 -15.64,2.42 -29.27,14.76 -29.27,14.76 1,-6.14 -2.94,-10.81 -10.97,-11.66 -9.96,-1.02 -18.53,8.56 -18.53,8.56 5.49,-4.77 16.45,-3.4 16.45,5.84 0,9.26 -8.11,23.21 -27.44,39.43 -26.05,21.82 -54.13,23.3 -54.13,23.3 47.73,10.2 63.75,-24.69 86.72,-33.96 22.97,-9.22 25.69,8.91 25.69,8.91 10.29,-22.27 -11.55,-26.03 -11.55,-26.03 0,0 16.34,-9.94 32.48,-9.26 16.09,0.67 13.01,18.49 13.01,18.49 17.46,-7.87 11.66,-24.65 11.66,-24.65 0,0 18.55,1 20.57,18.85 1.2,10.52 -2.07,19.88 -14.47,24.4 -13.66,5.03 -23.93,-2.49 -23.93,-2.49 7.54,10.97 50.02,15.44 55.19,-16.45 5.14,-31.86 -30.15,-38.75 -30.15,-38.75zm-76.83 17.09c-0.07,0.48 -0.13,0.77 -0.13,0.77 0,0 -0.11,-0.29 -0.29,-0.72 -0.18,-0.48 -0.31,-1.13 -0.65,-1.85 -0.16,-0.36 -0.28,-0.79 -0.48,-1.15 -0.22,-0.41 -0.41,-0.79 -0.63,-1.24 -0.27,-0.36 -0.52,-0.77 -0.81,-1.17 -0.32,-0.34 -0.57,-0.74 -0.96,-1.06 -0.63,-0.72 -1.49,-1.22 -2.26,-1.74 -0.43,-0.2 -0.81,-0.48 -1.22,-0.63 -0.39,-0.18 -0.79,-0.32 -1.13,-0.45 -1.49,-0.57 -2.59,-0.85 -2.59,-0.85 0,0 1.09,-0.41 2.8,-0.32 0.9,0.05 1.89,0.26 2.94,0.63 0.5,0.24 1.06,0.41 1.53,0.79 0.5,0.34 0.98,0.72 1.4,1.13 0.48,0.41 0.77,0.93 1.15,1.42 0.36,0.45 0.54,1.02 0.81,1.51 0.22,0.52 0.32,1.06 0.45,1.52 0.13,0.5 0.13,0.98 0.18,1.4 0.13,0.83 -0.03,1.57 -0.09,2.05zm13.78 19.68c0.59,0.05 1.15,0.13 1.74,0.26 0.59,0.22 1.2,0.36 1.79,0.63 1.13,0.52 2.18,1.27 2.96,2.14 0.43,0.36 0.74,0.92 1.04,1.31 0.32,0.43 0.52,0.9 0.7,1.33 0.16,0.41 0.34,0.79 0.43,1.15 0.07,0.34 0.13,0.67 0.2,0.94 0.07,0.5 0.11,0.79 0.11,0.79 0,0 -0.2,-0.22 -0.5,-0.63 -0.16,-0.2 -0.32,-0.48 -0.52,-0.74 -0.18,-0.28 -0.48,-0.54 -0.72,-0.88 -0.28,-0.32 -0.54,-0.67 -0.9,-0.98 -0.34,-0.33 -0.65,-0.67 -1.09,-0.96 -0.36,-0.31 -0.79,-0.61 -1.22,-0.88 -0.43,-0.29 -0.9,-0.5 -1.37,-0.72 -0.43,-0.26 -0.98,-0.36 -1.44,-0.59 -0.52,-0.09 -1,-0.31 -1.51,-0.41 -0.98,-0.22 -1.94,-0.36 -2.77,-0.45 -1.65,-0.24 -2.87,-0.29 -2.87,-0.29 0,0 1.04,-0.61 2.83,-0.94 0.9,-0.14 1.98,-0.23 3.11,-0.09zm51.08 -9.33c-0.16,0.59 -0.38,1.15 -0.59,1.7 -0.24,0.5 -0.48,0.96 -0.74,1.4 -0.43,0.88 -1.02,1.44 -1.4,1.89 -0.34,0.39 -0.54,0.63 -0.54,0.63 0,0 0.05,-0.3 0.2,-0.83 0.16,-0.54 0.5,-1.27 0.67,-2.18 0.09,-0.43 0.23,-0.92 0.36,-1.4 0.07,-0.5 0.13,-1.04 0.23,-1.55 0.09,-0.54 0.05,-1.11 0.13,-1.65 -0.02,-0.57 -0.07,-1.13 -0.16,-1.68 -0.11,-0.54 -0.16,-1.11 -0.34,-1.61 -0.16,-0.57 -0.36,-1.06 -0.59,-1.53 -0.48,-0.96 -1.02,-1.85 -1.58,-2.55 -0.54,-0.72 -1.04,-1.31 -1.42,-1.7 -0.36,-0.39 -0.63,-0.61 -0.63,-0.61 0,0 1.31,0.26 2.9,1.46 0.39,0.3 0.79,0.65 1.17,1.06 0.39,0.41 0.81,0.9 1.13,1.44 0.32,0.54 0.67,1.11 0.88,1.74 0.31,0.63 0.36,1.31 0.54,1.99 0.07,0.7 0.09,1.4 0.07,2.05 -0.07,0.66 -0.16,1.32 -0.31,1.92zm8.72 -39.64c-0.07,0.36 -0.13,0.79 -0.24,1.15l-0.39 1.17c-0.22,0.79 -0.74,1.44 -1.09,2.16 -0.41,0.67 -0.98,1.24 -1.44,1.83 -0.52,0.52 -1.11,1.02 -1.61,1.44 -0.52,0.45 -1.11,0.72 -1.61,1.04 -0.98,0.63 -1.92,0.9 -2.57,1.13 -0.63,0.22 -1,0.34 -1,0.34 0,0 0.3,-0.27 0.81,-0.72 0.5,-0.43 1.31,-0.92 2.07,-1.72 0.41,-0.41 0.88,-0.79 1.29,-1.22 0.39,-0.48 0.83,-0.96 1.27,-1.46 0.36,-0.57 0.74,-1.13 1.11,-1.7 0.28,-0.63 0.7,-1.2 0.88,-1.87l0.36 -0.98 0.24 -1.01c0.2,-0.67 0.22,-1.37 0.33,-2.01 0,-0.67 0.11,-1.31 0.07,-1.94 0,-0.61 -0.05,-1.2 -0.09,-1.74 -0.22,-2.2 -0.61,-3.7 -0.61,-3.7 0,0 1.04,1.17 1.76,3.45 0.18,0.54 0.34,1.2 0.43,1.85 0.18,0.67 0.18,1.4 0.22,2.14 -0.07,0.75 0.03,1.53 -0.2,2.35zm26.88 45.96c-0.02,0.81 -0.02,1.62 -0.05,2.37 -0.18,1.56 -0.59,3.07 -0.85,4.49 -0.52,1.4 -1.09,2.71 -1.58,3.95 -0.59,1.2 -1.31,2.21 -1.94,3.21 -0.31,0.45 -0.61,0.96 -0.88,1.4 -0.32,0.39 -0.67,0.74 -0.96,1.11 -0.65,0.7 -1.17,1.29 -1.63,1.81 -0.9,0.94 -1.42,1.49 -1.42,1.49 0,0 0.3,-0.7 0.94,-1.85 0.3,-0.57 0.67,-1.27 1.11,-2.07 0.2,-0.41 0.45,-0.83 0.67,-1.27 0.22,-0.45 0.41,-0.94 0.61,-1.46 0.39,-1.04 0.94,-2.1 1.35,-3.27 0.32,-1.17 0.67,-2.42 1.06,-3.68 0.2,-1.31 0.39,-2.68 0.52,-4.04 0,-0.72 0,-1.4 0,-2.07l-0.02 -1.04 -0.18 -1.02 -0.31 -2.07c-0.22,-0.65 -0.41,-1.33 -0.61,-1.99l-0.31 -0.98 -0.41 -0.94c-0.29,-0.61 -0.52,-1.24 -0.83,-1.83 -0.7,-1.11 -1.22,-2.33 -2.01,-3.32 -0.67,-1.02 -1.42,-1.94 -2.14,-2.8 -1.4,-1.68 -2.68,-3.03 -3.64,-3.95 -0.94,-0.91 -1.51,-1.4 -1.51,-1.4 0,0 0.72,0.27 1.87,0.92 1.17,0.63 2.8,1.68 4.56,3.18 0.88,0.74 1.81,1.62 2.66,2.64 0.93,0.93 1.72,2.14 2.55,3.36 0.4,0.63 0.72,1.33 1.06,1.99l0.54 1.02 0.36 1.11c0.26,0.74 0.5,1.49 0.77,2.24l0.41 2.35 0.18 1.2 0 1.23 0.02 0z"/>
   <path class="fil0" d="M1469.27 62.5l-0.67 -2.37c-3.4,1.35 -6.95,3.21 -10.7,5.58 0,0 9.28,-24.35 -12.34,-34.61 -21.47,-10.22 -43.9,6.16 -44.22,18.51 0,0 11.66,-16.11 26.77,-7.52 15.06,8.54 6.82,27.07 -5.17,35.28 -4.49,3.09 -11.66,8.52 -19.59,15.67 2.83,0.7 5.12,1.94 6.8,3.68 17.61,-13.52 38.23,-24.63 57.29,-23.28 2.23,-3.6 2.86,-7.28 1.84,-10.94zm-19.95 -7.65c-0.11,1.31 -0.23,2.55 -0.5,3.66 -0.2,1.11 -0.48,2.12 -0.77,2.98 -0.24,0.88 -0.52,1.63 -0.79,2.25 -0.48,1.22 -0.81,1.89 -0.81,1.89 0,0 0.07,-0.74 0.22,-2.05 0.09,-0.63 0.16,-1.42 0.22,-2.31 0.09,-0.9 0.13,-1.87 0.16,-2.96 0.09,-1.09 -0.02,-2.26 -0.05,-3.49 -0.07,-1.22 -0.22,-2.49 -0.45,-3.79 -0.11,-0.63 -0.3,-1.27 -0.45,-1.92 -0.22,-0.61 -0.41,-1.27 -0.63,-1.87 -0.52,-1.22 -1.09,-2.49 -1.92,-3.57 -1.46,-2.26 -3.59,-4.08 -5.75,-5.47 -2.23,-1.4 -4.56,-2.37 -6.58,-3.09 -4.12,-1.37 -7.11,-1.85 -7.11,-1.85 0,0 0.74,-0.11 2.07,-0.2 1.33,-0.07 3.21,-0.05 5.47,0.33 1.13,0.2 2.33,0.48 3.62,0.9 1.24,0.39 2.57,0.88 3.86,1.58 1.29,0.7 2.62,1.5 3.79,2.55 1.17,1.02 2.26,2.23 3.18,3.55 0.93,1.31 1.58,2.8 2.15,4.27 0.52,1.46 0.81,2.96 0.96,4.43 0.19,1.43 0.19,2.85 0.1,4.18z"/>
   <path class="fil0" d="M1016.94 73.43c0,0 -23.82,19.07 -21.08,52.46 2.64,32.08 -14.4,48.33 -34.96,46.25 -20.58,-2.05 -20.23,-18.65 -20.23,-18.65 0,0 -1.72,-16.81 18.15,-16.81 0,0 -10.63,2.73 -9.24,13.36 1.35,10.61 16.98,13.01 24.33,5.12 19.2,-20.55 -5.15,-58.25 43.02,-81.73z"/>
   <path class="fil0" d="M702.98 96.39c0,0 -0.93,1.72 -2.03,4.97 -1.06,3.27 -2.33,8.08 -2.46,14.08 -0.22,5.96 0.77,13.12 4.08,20.02 1.61,3.43 3.73,6.8 6.37,9.79 2.62,3.05 5.62,5.78 9.05,8.04 3.47,2.2 7.26,3.88 11.16,4.95 3.9,1.04 7.95,1.33 11.81,0.94 3.83,-0.36 7.52,-1.55 10.59,-3.46 3.07,-1.87 5.4,-4.56 6.78,-7.38 1.4,-2.8 1.83,-5.69 1.79,-8.13 0,-2.46 -0.43,-4.56 -0.89,-6.21 -0.43,-1.68 -1,-2.92 -1.33,-3.77 -0.39,-0.81 -0.59,-1.29 -0.59,-1.29 0,0 0.13,0.48 0.36,1.37 0.22,0.88 0.5,2.18 0.77,3.86 0.22,1.65 0.36,3.7 0.13,5.96 -0.24,2.28 -0.92,4.77 -2.31,7.13 -1.37,2.31 -3.55,4.38 -6.28,5.84 -2.71,1.49 -5.96,2.28 -9.35,2.53 -3.4,0.24 -6.95,-0.24 -10.44,-1.22 -3.48,-0.96 -6.86,-2.51 -9.94,-4.56 -3.09,-1.99 -5.93,-4.45 -8.33,-7.2 -2.42,-2.75 -4.53,-5.69 -6.12,-8.81 -1.58,-3.09 -2.82,-6.25 -3.59,-9.39 -0.74,-3.14 -1.17,-6.19 -1.35,-9.03 -0.33,-5.71 0.3,-10.52 0.9,-13.86 0.6,-3.33 1.22,-5.18 1.22,-5.18z"/>
   <path class="fil0" d="M704.86 120.57c0,0 0.05,0.27 0.11,0.74 0.09,0.48 0.11,1.2 0.36,2.1 0.18,0.9 0.43,1.99 0.9,3.23 0.38,1.22 0.92,2.59 1.68,3.99 0.36,0.7 0.72,1.44 1.17,2.18 0.43,0.72 0.92,1.49 1.44,2.22 1.04,1.51 2.26,3 3.62,4.47 1.42,1.44 2.9,2.87 4.56,4.16 1.63,1.31 3.44,2.49 5.26,3.59 1.87,1.02 3.83,1.92 5.82,2.68 1.99,0.7 4.04,1.2 6.03,1.49 2.03,0.24 4.04,0.2 5.89,-0.16 1.85,-0.34 3.5,-1.09 4.88,-2.01 1.37,-0.92 2.31,-2.14 3.03,-3.25 0.65,-1.13 1.09,-2.18 1.31,-3.09 0.34,-0.85 0.34,-1.58 0.48,-2.07 0.05,-0.48 0.09,-0.77 0.09,-0.77 0,0 -0.05,0.27 -0.22,0.74 -0.16,0.45 -0.32,1.15 -0.7,1.99 -0.33,0.83 -0.88,1.79 -1.6,2.8 -0.77,0.96 -1.76,1.94 -3.05,2.68 -1.27,0.74 -2.8,1.31 -4.49,1.51 -1.7,0.2 -3.5,0.11 -5.38,-0.16 -3.7,-0.65 -7.54,-2.16 -11.06,-4.18 -7.13,-4.04 -12.96,-10.09 -16.1,-15.39 -0.43,-0.63 -0.77,-1.31 -1.06,-1.92 -0.34,-0.61 -0.67,-1.22 -0.91,-1.81 -0.54,-1.13 -0.9,-2.14 -1.2,-3 -0.31,-0.85 -0.48,-1.58 -0.61,-2.03 -0.14,-0.49 -0.22,-0.73 -0.22,-0.73z"/>
   <path class="fil0" d="M976.99 108.55c0,0 -1.22,0.54 -3.55,1.42 -2.33,0.9 -5.82,2.03 -10.29,3.36 -8.89,2.62 -21.99,5.62 -37.79,5.82 -1.96,-0.02 -3.97,-0.09 -6.01,-0.13 -2.05,-0.11 -4.12,-0.33 -6.21,-0.48 -2.12,-0.3 -4.27,-0.61 -6.43,-0.94 -2.1,-0.5 -4.18,-0.88 -6.32,-1.53 -2.12,-0.65 -4.27,-1.22 -6.34,-2.15 -2.12,-0.79 -4.15,-1.85 -6.19,-2.9 -3.99,-2.3 -7.83,-5.01 -11.12,-8.37 -6.59,-6.68 -10.92,-16 -10.09,-25.69 0.48,-9.57 5.96,-18.83 14.71,-23.05 4.25,-2.28 9.14,-3.43 14.06,-3.64 0.57,0 1.35,-0.09 1.72,-0.02l1.99 0.09c1.42,0 2.51,0.22 3.66,0.39 2.28,0.33 4.65,1.06 6.82,1.96 4.31,1.87 8.04,4.92 10.63,8.67 1.27,1.94 2.26,3.99 2.93,6.12 0.59,2.18 1,4.4 0.91,6.61 0.02,0.54 -0.11,1.06 -0.16,1.61l-0.09 0.81 -0.02 0.09c0.02,-0.02 -0.02,0.2 0.02,-0.02l-0.05 0.24 -0.11 0.45 -0.43 1.81c-0.13,0.54 -0.32,0.98 -0.48,1.51 -0.72,1.96 -1.74,3.99 -3.05,5.67 -2.53,3.43 -6.21,5.8 -10.16,7.17 -4.04,1.27 -8.13,1.58 -12.19,0.74 -3.4,-0.79 -6.93,-2.92 -8.31,-6.03 -0.43,-0.74 -0.61,-1.55 -0.81,-2.37 -0.02,-0.05 -0.09,-0.27 -0.09,-0.22l-0.02 -0.34 -0.09 -0.74c-0.05,-0.45 0,-0.77 -0.02,-1.15 0.05,-1.61 0.59,-3.18 1.44,-4.49 1.7,-2.66 4.72,-4.25 7.63,-4.38l0.52 -0.02c0.07,0 0.38,0.02 0.54,0.05 0.36,0.05 0.83,0.07 1.11,0.11 0.63,0.13 1.31,0.32 1.94,0.59 1.2,0.54 2.23,1.4 2.92,2.46 1.42,2.07 1.7,4.77 0.67,6.63 -1.02,1.7 -3.03,2.71 -4.71,2.96 -1.7,0.34 -3.23,0.05 -4.31,-0.54 -1.09,-0.57 -1.63,-1.4 -1.99,-1.92 -0.29,-0.59 -0.43,-0.88 -0.43,-0.88 0,0 0.11,0.3 0.36,0.92 0.29,0.54 0.79,1.46 1.89,2.15 1.04,0.72 2.68,1.2 4.58,1 1.85,-0.18 4.12,-0.94 5.67,-3.16 1.37,-2.21 1.27,-5.42 -0.31,-8.06 -0.79,-1.35 -1.99,-2.55 -3.48,-3.34 -0.77,-0.41 -1.54,-0.72 -2.46,-0.92 -0.45,-0.16 -0.83,-0.16 -1.24,-0.22 -0.22,-0.05 -0.3,-0.07 -0.65,-0.09l-0.67 -0.02c-3.59,-0.07 -7.52,1.58 -10,4.95 -1.27,1.68 -2.1,3.77 -2.28,5.98 -0.02,0.57 -0.07,1.2 -0.05,1.72l0.05 0.72 0.02 0.36c0.02,0.29 0.07,0.31 0.09,0.48 0.24,1.11 0.45,2.24 0.98,3.27 0.36,1.11 1.11,2.03 1.76,3 0.81,0.85 1.54,1.81 2.53,2.46 1.83,1.55 4.08,2.42 6.54,3.14 4.4,1.11 9.46,0.94 14.23,-0.39 4.74,-1.44 9.46,-4.22 12.79,-8.44 1.74,-2.12 3.03,-4.45 4.01,-7.09 0.22,-0.63 0.5,-1.37 0.7,-1.99l0.43 -1.79 0.13 -0.45 0.05 -0.24c0.07,-0.28 0.05,-0.16 0.07,-0.24l0.02 -0.16 0.16 -1.04c0.07,-0.67 0.22,-1.37 0.22,-2.07 0.2,-2.83 -0.29,-5.65 -0.96,-8.39 -0.79,-2.73 -1.99,-5.32 -3.5,-7.74 -3.14,-4.79 -7.76,-8.67 -13.05,-10.99 -2.68,-1.11 -5.37,-1.99 -8.31,-2.44 -1.46,-0.2 -2.98,-0.45 -4.25,-0.48l-1.99 -0.09c-0.93,-0.09 -1.49,0 -2.26,0 -5.69,0.22 -11.47,1.49 -16.65,4.22 -2.64,1.29 -4.99,3.07 -7.22,5.01 -2.12,2.05 -4.12,4.22 -5.58,6.8 -3.14,4.97 -4.69,10.77 -5.01,16.48l-0.09 1.94 -0.02 0.48 -0.02 0.26 0 0.27 0 0.13 0.09 1.09 0.13 2.16 0.34 2.12c0.48,2.82 1.42,5.47 2.49,8.04 2.22,5.1 5.49,9.57 9.26,13.27 3.79,3.68 8.11,6.68 12.57,9.03 2.24,1.06 4.51,2.18 6.82,2.92 2.28,0.91 4.62,1.49 6.91,2.14 2.28,0.59 4.67,0.94 6.93,1.37 2.26,0.23 4.31,0.52 6.63,0.7 2.21,0.09 4.36,0.2 6.5,0.2 2.1,-0.02 4.18,-0.09 6.23,-0.16 8.13,-0.39 15.46,-1.72 21.84,-3.27 6.37,-1.55 11.79,-3.32 16.21,-4.9 4.4,-1.58 7.74,-3.14 10.02,-4.2 2.26,-1.06 3.42,-1.72 3.42,-1.72z"/>
   <path class="fil0" d="M976.99 110.67c0,0 -1.51,1.58 -4.74,4.12 -3.18,2.53 -8.08,6.03 -14.71,9.68 -6.63,3.66 -15.1,7.36 -25.24,9.98 -10.16,2.62 -21.94,3.75 -34.74,2.68 -12.67,-1.06 -26.11,-4.92 -38.89,-11.79 -6.43,-3.45 -12.69,-7.61 -18.83,-12.28 -6.14,-4.69 -12.23,-9.84 -18.49,-15.1 -6.25,-5.28 -12.64,-10.75 -19.61,-15.91 -6.93,-5.1 -14.45,-9.98 -22.82,-13.6 -8.33,-3.64 -17.41,-6 -26.66,-6.7 -2.53,-0.13 -4.31,-0.28 -6.86,-0.26 -2.42,-0.02 -4.69,0.13 -7.04,0.33 -4.65,0.36 -9.32,1.24 -13.86,2.64 -9.12,2.73 -17.63,7.85 -24.31,14.78 -6.66,6.89 -11.42,15.57 -13.63,24.81 -1.11,4.62 -1.56,9.39 -1.29,14.19 0.09,1.2 0.2,2.4 0.36,3.59 0.18,0.98 0.36,2.16 0.59,3.36 0.48,2.23 1.04,4.45 1.72,6.63 2.73,8.65 7.32,16.8 13.77,23.14 6.45,6.37 14.67,10.7 23.06,12.46 4.18,0.92 8.37,1.31 12.46,1.31 4.04,0.05 8.35,-0.36 12.3,-1.46 8,-2.05 15.46,-6.95 19.55,-13.93 4.2,-6.89 4.99,-15.04 3.45,-21.99 -0.36,-1.76 -0.83,-3.34 -1.51,-5.12 -0.54,-1.35 -1.46,-3.32 -2.4,-4.69 -1.85,-2.9 -4.2,-5.32 -6.68,-7.32 -4.99,-4.01 -10.79,-6.5 -16.57,-6.97 -5.53,-0.3 -11.35,0.7 -15.3,4.15 -1.99,1.68 -3.43,3.77 -4.18,5.99 -0.74,2.25 -1,4.45 -0.7,6.54 0.74,4.4 3.77,7.22 6.63,8.53 2.9,1.35 5.8,1.13 7.76,0.28 1.96,-0.83 3.07,-2.05 3.75,-2.9 0.32,-0.41 0.54,-0.77 0.7,-0.96 0.13,-0.24 0.22,-0.34 0.22,-0.34 0,0 -0.09,0.11 -0.27,0.3 -0.18,0.22 -0.41,0.52 -0.81,0.9 -0.72,0.74 -1.94,1.79 -3.83,2.35 -1.89,0.59 -4.45,0.45 -6.84,-0.98 -2.33,-1.33 -4.62,-4.07 -4.84,-7.41 -0.22,-3.4 1.11,-7.43 4.38,-9.88 1.6,-1.29 3.62,-2.1 5.84,-2.57 1.15,-0.2 2.24,-0.3 3.43,-0.36 0.63,0 1.27,0 1.87,-0.02 0.61,0.05 1.2,0.11 1.81,0.18 4.84,0.65 9.77,3.11 13.86,6.82 4.09,3.7 7.32,8.74 8.06,14.58 0.98,5.87 -0.05,12.25 -3.5,17.33 -3.4,5.1 -9.09,8.72 -15.67,10.16 -3.32,0.74 -6.66,1 -10.31,0.83 -3.59,-0.13 -7.2,-0.63 -10.68,-1.53 -6.97,-1.79 -13.47,-5.34 -18.6,-10.63 -5.12,-5.26 -8.85,-12.12 -11.01,-19.55 -0.52,-1.85 -1,-3.77 -1.33,-5.69 -0.16,-0.9 -0.3,-1.81 -0.45,-2.92 -0.09,-0.91 -0.2,-1.83 -0.24,-2.75 -0.2,-3.73 0.18,-7.56 1.11,-11.29 1.83,-7.45 5.75,-14.54 11.24,-20.09 5.42,-5.6 12.42,-9.68 20.02,-12.01 3.79,-1.22 7.74,-1.99 11.76,-2.35 2.01,-0.18 4.08,-0.32 6.04,-0.3 1.81,-0.05 4.34,0.11 6.19,0.2 8.13,0.57 16.05,2.55 23.5,5.75 14.95,6.34 27.97,17 40.65,27.29 12.62,10.4 25.63,20.29 39.55,27.13 13.91,6.97 28.57,10.27 42.03,10.77 13.41,0.59 25.76,-1.46 36.05,-4.74 10.4,-3.25 18.74,-7.72 25.24,-11.9 6.48,-4.16 11.06,-8.15 14.04,-10.97 3.05,-2.86 4.43,-4.53 4.43,-4.53z"/>
   <path class="fil0" d="M563.23 88.33c0,0 -1.06,0.18 -3.07,0.5 -1.99,0.34 -4.95,0.91 -8.6,1.99 -3.66,1.02 -8.06,2.66 -12.86,4.99 -4.81,2.35 -9.98,5.53 -15.3,9.37 -5.31,3.83 -10.79,8.26 -16.7,12.51 -5.89,4.29 -12.42,8.17 -19.68,10.81 -3.64,1.31 -7.43,2.4 -11.31,2.98 -3.83,0.57 -7.78,0.61 -11.58,-0.09 -3.79,-0.7 -7.5,-2.1 -10.66,-4.22 -3.23,-2.16 -5.96,-5.06 -7.9,-8.42 -2.01,-3.29 -3.21,-7.13 -3.32,-10.83 -0.2,-3.99 0.36,-7.94 1.6,-11.62 1.24,-3.64 3.25,-6.93 5.96,-9.53 2.66,-2.62 5.96,-4.49 9.5,-5.67 1.79,-0.59 3.57,-1.02 5.47,-1.29 1.7,-0.24 3.57,-0.31 5.26,-0.09 3.47,0.36 6.63,1.83 8.87,4.12 2.28,2.28 3.57,5.38 3.86,8.53 0.11,1.56 0.07,3.16 -0.24,4.69 -0.26,1.33 -0.89,2.77 -1.63,4.06 -1.49,2.57 -3.62,4.69 -5.96,6.06 -1.17,0.7 -2.42,1.22 -3.66,1.51 -1.31,0.27 -2.55,0.39 -3.75,0.31 -2.4,-0.16 -4.45,-1.29 -5.58,-2.98 -1.11,-1.68 -1.51,-3.68 -0.96,-5.26 0.54,-1.66 1.72,-2.86 2.93,-3.49 1.22,-0.65 2.49,-0.7 3.45,-0.45 1.92,0.54 2.62,1.58 2.62,1.51 -0.05,0.07 -0.57,-1.02 -2.53,-1.83 -0.96,-0.36 -2.37,-0.5 -3.83,0.07 -1.46,0.57 -2.94,1.83 -3.79,3.75 -0.39,0.92 -0.61,2.12 -0.45,3.25 0.16,1.17 0.54,2.28 1.2,3.38 1.29,2.21 3.93,3.81 6.78,4.08 1.42,0.16 2.92,0.05 4.36,-0.18 1.51,-0.24 2.98,-0.79 4.38,-1.5 2.84,-1.46 5.4,-3.7 7.36,-6.63 0.93,-1.46 1.76,-3.05 2.23,-4.99 0.45,-1.76 0.63,-3.64 0.54,-5.56 -0.16,-3.81 -1.52,-7.87 -4.36,-11.03 -2.8,-3.16 -6.93,-5.15 -11.18,-5.8 -2.16,-0.29 -4.27,-0.36 -6.52,-0.11 -2.05,0.22 -4.2,0.63 -6.28,1.24 -4.18,1.2 -8.33,3.34 -11.71,6.5 -3.38,3.11 -5.93,7.17 -7.52,11.51 -1.58,4.34 -2.33,9.03 -2.22,13.63 0.13,4.9 1.65,9.57 4.04,13.68 2.37,4.14 5.71,7.67 9.61,10.36 3.93,2.68 8.42,4.45 12.98,5.28 4.58,0.81 9.18,0.7 13.6,0.02 4.34,-0.7 8.48,-1.92 12.42,-3.4 7.95,-2.96 14.79,-7.54 20.77,-12.14 5.93,-4.65 11.09,-9.39 16.09,-13.41 4.92,-4.1 9.68,-7.5 14.13,-10.13 4.43,-2.71 8.55,-4.65 12.01,-6.1 3.47,-1.42 6.28,-2.37 8.19,-2.98 1.94,-0.62 2.95,-0.94 2.95,-0.94z"/>
   <path class="fil0" d="M563.23 88.33c0,0 -1.06,0.18 -3.07,0.5 -1.99,0.34 -4.95,0.91 -8.6,1.99 -3.66,1.02 -8.06,2.66 -12.86,4.99 -4.81,2.35 -9.98,5.53 -15.3,9.37 -5.31,3.83 -10.79,8.26 -16.7,12.51 -5.89,4.29 -12.42,8.17 -19.68,10.81 -3.64,1.31 -7.43,2.4 -11.31,2.98 -3.83,0.57 -7.78,0.61 -11.58,-0.09 -3.79,-0.7 -7.5,-2.1 -10.66,-4.22 -3.23,-2.16 -5.96,-5.06 -7.9,-8.42 -2.01,-3.29 -3.21,-7.13 -3.32,-10.83 -0.2,-3.99 0.36,-7.94 1.6,-11.62 1.24,-3.64 3.25,-6.93 5.96,-9.53 2.66,-2.62 5.96,-4.49 9.5,-5.67 1.79,-0.59 3.57,-1.02 5.47,-1.29 1.7,-0.24 3.57,-0.31 5.26,-0.09 3.47,0.36 6.63,1.83 8.87,4.12 2.28,2.28 3.57,5.38 3.86,8.53 0.11,1.56 0.07,3.16 -0.24,4.69 -0.26,1.33 -0.89,2.77 -1.63,4.06 -1.49,2.57 -3.62,4.69 -5.96,6.06 -1.17,0.7 -2.42,1.22 -3.66,1.51 -1.31,0.27 -2.55,0.39 -3.75,0.31 -2.4,-0.16 -4.45,-1.29 -5.58,-2.98 -1.11,-1.68 -1.51,-3.68 -0.96,-5.26 0.54,-1.66 1.72,-2.86 2.93,-3.49 1.22,-0.65 2.49,-0.7 3.45,-0.45 1.92,0.54 2.62,1.58 2.62,1.51 -0.05,0.07 -0.57,-1.02 -2.53,-1.83 -0.96,-0.36 -2.37,-0.5 -3.83,0.07 -1.46,0.57 -2.94,1.83 -3.79,3.75 -0.39,0.92 -0.61,2.12 -0.45,3.25 0.16,1.17 0.54,2.28 1.2,3.38 1.29,2.21 3.93,3.81 6.78,4.08 1.42,0.16 2.92,0.05 4.36,-0.18 1.51,-0.24 2.98,-0.79 4.38,-1.5 2.84,-1.46 5.4,-3.7 7.36,-6.63 0.93,-1.46 1.76,-3.05 2.23,-4.99 0.45,-1.76 0.63,-3.64 0.54,-5.56 -0.16,-3.81 -1.52,-7.87 -4.36,-11.03 -2.8,-3.16 -6.93,-5.15 -11.18,-5.8 -2.16,-0.29 -4.27,-0.36 -6.52,-0.11 -2.05,0.22 -4.2,0.63 -6.28,1.24 -4.18,1.2 -8.33,3.34 -11.71,6.5 -3.38,3.11 -5.93,7.17 -7.52,11.51 -1.58,4.34 -2.33,9.03 -2.22,13.63 0.13,4.9 1.65,9.57 4.04,13.68 2.37,4.14 5.71,7.67 9.61,10.36 3.93,2.68 8.42,4.45 12.98,5.28 4.58,0.81 9.18,0.7 13.6,0.02 4.34,-0.7 8.48,-1.92 12.42,-3.4 7.95,-2.96 14.79,-7.54 20.77,-12.14 5.93,-4.65 11.09,-9.39 16.09,-13.41 4.92,-4.1 9.68,-7.5 14.13,-10.13 4.43,-2.71 8.55,-4.65 12.01,-6.1 3.47,-1.42 6.28,-2.37 8.19,-2.98 1.94,-0.62 2.95,-0.94 2.95,-0.94z"/>
   <path class="fil0" d="M963.83 0c0,0 7.26,19.37 -10.72,23.12 -8.71,-16.15 10.72,-23.12 10.72,-23.12z"/>
   <path class="fil0" d="M947.48 19.3c-1.54,3.36 -0.09,7.36 3.25,8.91 3.38,1.58 7.38,0.11 8.94,-3.27 1.55,-3.36 0.09,-7.36 -3.27,-8.91 -3.36,-1.58 -7.34,-0.12 -8.91,3.27z"/>
   <path class="fil0" d="M950.73 28.22c0,0 -6.82,-0.18 -7.02,-7.06 -0.18,-4.56 2.1,-8.98 -4.31,-13.02 0,0 11.01,1.22 12.62,11.24 0.34,2.2 0.22,5.52 -1.29,8.83z"/>
   <path class="fil0" d="M950.73 28.22c0,0 4.56,5.12 9.96,0.83 3.59,-2.86 5.49,-7.43 12.73,-5.15 0,0 -8.08,-7.61 -16.77,-2.35 -1.91,1.16 -4.33,3.38 -5.92,6.67z"/>
   <path class="fil0" d="M656.58 103.28c10.18,10.52 20.27,23.16 26.7,36.79 0,0 -12.14,-15.39 -29.82,-31.38 0.06,-3.09 1.66,-4.62 3.12,-5.41z"/>
   <path class="fil0" d="M386.8 91.4c0,0 -2.75,-11.29 8.91,-11.29 16.8,0 17.13,18.51 32.76,25.35 1.63,0.72 3.59,1.58 5.91,2.44 0,0.07 0,0.13 0,0.22 0.09,3.32 0.77,6.63 2.01,9.85 -28.49,-7.65 -38.36,-27.09 -61.24,-18.31 -0.01,0 3.77,-7.21 11.66,-8.26z"/>
   <path class="fil0" d="M440.39 109.84c0.39,3.27 1.51,6.68 3.29,9.72 -0.77,-0.13 -1.53,-0.24 -2.24,-0.39 -1.61,-3.21 -2.57,-6.5 -2.84,-9.85 0.58,0.17 1.17,0.36 1.78,0.52z"/>
   <path class="fil0" d="M562.44 78.11c-39.01,13.56 -63.7,43.72 -105.05,42.8 -2.87,-0.09 -5.62,-0.27 -8.24,-0.54 -0.63,-0.85 -1.29,-1.72 -1.83,-2.64 -1.29,-2.18 -2.16,-4.53 -2.66,-6.86 5.28,1.06 11.45,1.65 18.57,1.09 1.22,0.57 2.55,0.94 3.93,1.09 1.42,0.16 3.14,0.09 4.88,-0.2 1.6,-0.24 3.29,-0.81 4.99,-1.7 1.42,-0.72 2.73,-1.65 3.97,-2.68 11.51,-3.57 24.81,-10.09 39.8,-21.15 0,0 -18.49,0.67 -27.42,-17.5 0,0 8.78,5.71 21.71,3.62 0.2,0.22 0.39,0.41 0.65,0.67 1.31,1.35 3.34,2.9 5.58,3.97 0.54,0.28 1.13,0.48 1.7,0.7 0.54,0.24 1.13,0.36 1.68,0.54 0.54,0.16 1.11,0.22 1.61,0.33 0.5,0.13 1.02,0.16 1.46,0.2 0.88,0.13 1.63,0.09 2.14,0.09 0.54,0 0.83,0 0.83,0 0,0 -0.28,-0.05 -0.81,-0.13 -0.5,-0.07 -1.24,-0.18 -2.07,-0.41 -0.43,-0.13 -0.89,-0.22 -1.4,-0.43 -0.43,-0.18 -0.96,-0.31 -1.44,-0.57 -0.48,-0.24 -1,-0.43 -1.49,-0.74 -0.48,-0.31 -1,-0.57 -1.46,-0.92 -1.7,-1.15 -3.09,-2.62 -4.06,-3.88 2.62,-0.67 5.38,-1.62 8.26,-3.03 1.89,-0.92 3.77,-1.87 5.62,-2.86 0.13,0.09 0.27,0.18 0.39,0.22 0.77,0.45 1.68,0.83 2.66,1.31 0.48,0.23 1.02,0.41 1.55,0.61 0.52,0.2 1.04,0.41 1.58,0.59 0.57,0.16 1.11,0.3 1.65,0.43 0.54,0.16 1.06,0.32 1.58,0.36 0.54,0.09 1.06,0.18 1.55,0.27 0.45,0.05 0.92,0.18 1.35,0.13 1.68,-0.05 2.8,-0.05 2.8,-0.05 0,0 -1.09,-0.18 -2.73,-0.43 -0.41,-0.05 -0.81,-0.24 -1.29,-0.36 -0.43,-0.13 -0.92,-0.33 -1.37,-0.45 -0.52,-0.13 -0.98,-0.41 -1.46,-0.63 -0.5,-0.22 -0.98,-0.45 -1.46,-0.7 -0.5,-0.24 -0.96,-0.54 -1.42,-0.79 -0.45,-0.33 -0.91,-0.54 -1.33,-0.83 -0.5,-0.36 -0.96,-0.67 -1.4,-1 4.29,-2.18 8.62,-4.31 13.16,-5.93l0.02 0.01c0.32,0.29 0.7,0.54 1.06,0.83 0.39,0.29 0.79,0.61 1.27,0.85 0.43,0.27 0.92,0.52 1.37,0.81 0.45,0.29 1,0.41 1.49,0.63 0.5,0.2 1,0.41 1.51,0.61 0.5,0.11 1.02,0.24 1.51,0.36 0.5,0.11 0.96,0.22 1.4,0.32 0.45,0.11 0.9,0.11 1.29,0.16 1.58,0.13 2.62,0.24 2.62,0.24 0,0 -1,-0.3 -2.51,-0.7 -0.36,-0.13 -0.79,-0.18 -1.2,-0.36 -0.39,-0.18 -0.83,-0.36 -1.27,-0.57 -0.45,-0.2 -0.88,-0.41 -1.35,-0.61 -0.41,-0.29 -0.83,-0.54 -1.27,-0.83 -0.41,-0.29 -0.85,-0.48 -1.22,-0.83 -0.36,-0.31 -0.74,-0.63 -1.09,-0.94 -0.36,-0.27 -0.63,-0.59 -0.92,-0.85 8.56,-2.68 17.83,-3.32 28.62,0.63l-1.63 0.52c-0.39,0.13 -10,3.25 -13.64,12.01 -0.79,1.95 -1.23,3.98 -1.32,6.11z"/>
   <path class="fil0" d="M1031.72 156.52c-0.83,4.38 -5.47,7.17 -7.09,10.63 -1.56,-3.47 -6.25,-6.25 -7.04,-10.63 0,0 -2.24,5.32 1.62,11.69 3.59,5.98 5.42,12.77 5.42,12.77 0,0 1.85,-6.8 5.47,-12.77 3.84,-6.37 1.62,-11.69 1.62,-11.69z"/>
   <path class="fil0" d="M896.81 104.44c0,0 39.08,15.08 61.35,-1.7 28.15,-21.24 11.66,-66.14 11.66,-66.14 5.49,35.3 -14.74,54.81 -14.74,54.81 3.4,-35.64 -19.23,-39.68 -19.23,-39.68 8.24,16.86 6.52,29.07 -4.45,42.11 -10.95,12.99 -34.6,10.6 -34.6,10.6zm19.37 1.83c0,0 0.79,-0.26 2.16,-0.72 0.7,-0.2 1.52,-0.45 2.49,-0.74 0.98,-0.29 2.05,-0.57 3.18,-1.06 1.15,-0.41 2.37,-0.92 3.68,-1.35 1.27,-0.52 2.51,-1.29 3.88,-1.89 1.4,-0.57 2.55,-1.58 3.88,-2.37l0.98 -0.63 0.88 -0.77 1.76 -1.54c0.61,-0.48 1.02,-1.13 1.55,-1.68 0.5,-0.61 1.09,-1.11 1.46,-1.79 0.36,-0.67 0.81,-1.29 1.22,-1.89 0.41,-0.61 0.63,-1.35 0.98,-1.99 0.72,-1.29 1.06,-2.68 1.53,-3.97 0.28,-1.31 0.67,-2.57 0.79,-3.75 0.39,-2.37 0.39,-4.43 0.39,-5.87 -0.02,-1.42 -0.13,-2.26 -0.13,-2.26 0,0 0.09,0.18 0.2,0.54 0.16,0.36 0.34,0.92 0.54,1.63 0.18,0.7 0.36,1.58 0.52,2.59 0.11,1.04 0.26,2.21 0.24,3.47 0.05,1.29 -0.13,2.68 -0.31,4.16 -0.34,1.42 -0.54,3 -1.24,4.49 -0.33,0.74 -0.57,1.56 -0.98,2.28 -0.43,0.74 -0.85,1.49 -1.33,2.23 -0.39,0.77 -1.02,1.35 -1.55,2.05 -0.59,0.65 -1.09,1.42 -1.74,1.96l-1.99 1.68 -1 0.83 -1.11 0.67c-1.46,0.88 -2.84,1.83 -4.36,2.35 -1.49,0.59 -2.9,1.22 -4.29,1.62 -1.42,0.34 -2.75,0.65 -3.99,0.92 -1.22,0.32 -2.37,0.41 -3.38,0.48 -1.02,0.09 -1.92,0.16 -2.64,0.2 -1.46,0.07 -2.27,0.11 -2.27,0.11z"/>
   <path class="fil0" d="M828.27 15.33c0,0 16.43,-7.9 25.35,7.69 8.94,15.6 -1.72,28.64 -3.07,45.42 -1.37,16.81 14.38,32.56 14.38,32.56 -4.12,-7.52 -13.27,-22.21 -8.42,-37.88 4.38,-14.16 23.14,-32.71 52.3,-23.8 29.12,8.89 43.18,-13.36 43.18,-13.36 0,0 -15.3,15.73 -40.13,7.87 -28.1,-8.91 -43.18,5.82 -43.18,5.82 0,0 9.26,-24.33 -10.61,-32.57 -19.89,-8.24 -29.81,8.24 -29.81,8.24zm23.39 -5.47c0,0 0.57,0.13 1.56,0.42 0.5,0.13 1.11,0.3 1.83,0.54 0.7,0.26 1.42,0.7 2.21,1.13 0.39,0.24 0.83,0.45 1.24,0.74 0.36,0.3 0.79,0.65 1.2,1 0.39,0.36 0.81,0.72 1.22,1.09 0.39,0.41 0.72,0.9 1.09,1.33 0.77,0.91 1.4,1.99 1.89,3.09 0.31,0.54 0.54,1.11 0.72,1.72l0.59 1.79c0.24,1.22 0.5,2.44 0.57,3.64 0.11,1.22 0.13,2.4 0.05,3.55 0,1.13 -0.24,2.23 -0.36,3.25 -0.18,1.01 -0.45,1.96 -0.7,2.84 -0.98,3.44 -2.28,5.47 -2.28,5.47 0,0 0.3,-2.35 0.59,-5.78 0.05,-1.74 0.18,-3.73 0.05,-5.82 0.02,-1.04 -0.18,-2.1 -0.26,-3.18 -0.11,-1.06 -0.36,-2.14 -0.61,-3.21 -0.36,-1 -0.5,-2.14 -1.02,-3.05 -0.24,-0.45 -0.45,-0.94 -0.65,-1.42 -0.2,-0.5 -0.52,-0.9 -0.77,-1.33 -0.29,-0.43 -0.54,-0.85 -0.81,-1.27 -0.3,-0.36 -0.61,-0.74 -0.92,-1.09 -0.31,-0.36 -0.61,-0.72 -0.88,-1.09 -0.32,-0.3 -0.67,-0.57 -0.98,-0.88 -0.63,-0.5 -1.2,-1.11 -1.74,-1.51 -0.57,-0.39 -1.09,-0.74 -1.49,-1.04 -0.88,-0.57 -1.33,-0.94 -1.33,-0.94z"/>
   <path class="fil0" d="M682.19 110.59c0,-15.41 12.05,-41.78 46.01,-51.58 31.73,-9.14 62.71,-2.18 93.2,27.99 23.82,23.52 49.69,33.59 49.69,33.59 -22.95,-11.99 -29.23,-40.59 -50.43,-64.06 -0.26,0.36 -0.52,0.74 -0.7,1.15 -0.3,0.65 -0.61,1.33 -0.94,1.99 -0.36,0.67 -0.59,1.42 -0.88,2.14 -0.24,0.74 -0.5,1.46 -0.74,2.18 -0.24,0.74 -0.32,1.51 -0.5,2.23 -0.16,0.72 -0.29,1.42 -0.43,2.1 -0.18,0.7 -0.13,1.33 -0.18,1.94 -0.13,2.44 -0.2,4.08 -0.2,4.08 0,0 -0.43,-1.61 -1.09,-4.01 -0.13,-0.59 -0.39,-1.24 -0.43,-1.96 -0.09,-0.72 -0.18,-1.49 -0.27,-2.26 -0.09,-0.81 -0.24,-1.63 -0.24,-2.49 0,-0.83 0.02,-1.7 0.05,-2.55 0.02,-0.88 0,-1.76 0.18,-2.62 0.13,-0.85 0.24,-1.7 0.34,-2.51 0.11,-0.85 0.34,-1.61 0.52,-2.35 0.18,-0.72 0.33,-1.42 0.54,-2.05 -9.16,-8.28 -22.27,-15.33 -37.04,-19.44 -0.34,0.81 -0.72,1.72 -1.02,2.73 -0.45,1.4 -0.81,2.87 -1.04,4.43 -0.07,0.77 -0.22,1.54 -0.22,2.33 -0.02,0.77 -0.07,1.53 0,2.25 0.05,0.77 0.11,1.49 0.27,2.14 0.11,0.67 0.2,1.35 0.41,1.92 0.18,0.59 0.33,1.13 0.45,1.58 0.22,0.45 0.41,0.85 0.54,1.2 0.3,0.65 0.5,1.02 0.5,1.02 0,0 -0.3,-0.29 -0.79,-0.85 -0.27,-0.27 -0.54,-0.61 -0.9,-0.98 -0.3,-0.45 -0.65,-0.94 -1,-1.46 -0.41,-0.52 -0.7,-1.17 -1.04,-1.83 -0.39,-0.65 -0.67,-1.4 -0.96,-2.18 -0.34,-0.77 -0.57,-1.58 -0.81,-2.44 -0.29,-0.83 -0.39,-1.74 -0.59,-2.62 -0.29,-1.79 -0.41,-3.59 -0.41,-5.3 0,-1.27 0.07,-2.46 0.18,-3.57 -18.44,-3.99 -38.71,-3.36 -56.69,4.77 0.7,2.14 1.79,4.6 3.29,6.95 0.45,0.74 0.98,1.42 1.51,2.07 0.5,0.72 1.09,1.31 1.65,1.94 0.54,0.63 1.15,1.13 1.7,1.65 0.57,0.52 1.15,0.98 1.7,1.37 1.09,0.85 2.07,1.44 2.77,1.83 0.7,0.42 1.11,0.63 1.11,0.63 0,0 -0.45,-0.07 -1.27,-0.22 -0.81,-0.16 -1.96,-0.34 -3.34,-0.81 -0.67,-0.2 -1.44,-0.43 -2.21,-0.77 -0.77,-0.33 -1.58,-0.63 -2.4,-1.06 -0.83,-0.45 -1.7,-0.88 -2.49,-1.42 -0.84,-0.52 -1.68,-1.06 -2.46,-1.7 -2.68,-2.01 -5.06,-4.47 -6.78,-6.73 -0.59,0.36 -1.22,0.67 -1.79,1.06 -14.76,9.35 -22.03,21.08 -25.33,32.26 0.24,0 0.52,-0.02 0.79,-0.05 0.67,-0.05 1.37,-0.05 1.99,-0.18 0.7,-0.13 1.33,-0.22 1.99,-0.32 0.61,-0.13 1.27,-0.2 1.85,-0.34 0.57,-0.18 1.11,-0.34 1.62,-0.5 2.05,-0.61 3.4,-1.04 3.4,-1.04 0,0 -1.15,0.9 -2.84,2.22 -0.43,0.31 -0.92,0.67 -1.4,1.06 -0.54,0.36 -1.11,0.65 -1.7,1.02 -0.61,0.34 -1.24,0.72 -1.85,1.09 -0.65,0.39 -1.33,0.67 -2.03,0.98 -0.72,0.3 -1.44,0.59 -2.16,0.9 -0.29,0.11 -0.61,0.2 -0.94,0.31 -3.47,17.87 2.25,33.15 2.25,33.15zm115.57 -58.53c0.05,-0.65 0.13,-1.15 0.24,-1.55 0.09,-0.36 0.18,-0.57 0.18,-0.57 0,0 0.34,0.83 0.77,1.96 0.24,0.54 0.43,1.17 0.72,1.85 0.27,0.7 0.5,1.42 0.83,2.14 0.22,0.74 0.54,1.44 0.81,2.12 0.24,0.7 0.45,1.37 0.67,1.94 0.43,1.13 0.59,1.99 0.59,1.99 0,0 -0.72,-0.48 -1.58,-1.4 -0.45,-0.43 -0.9,-1.02 -1.29,-1.7 -0.45,-0.67 -0.83,-1.42 -1.11,-2.2 -0.3,-0.81 -0.54,-1.62 -0.67,-2.4 -0.18,-0.8 -0.15,-1.56 -0.15,-2.2zm-6.66 -3.23c-0.07,-0.57 0.07,-1.13 0.13,-1.65 0.07,-0.5 0.13,-0.98 0.27,-1.44 0.16,-0.43 0.31,-0.81 0.43,-1.17 0.09,-0.34 0.29,-0.61 0.41,-0.88 0.22,-0.43 0.43,-0.67 0.43,-0.67 0,0 -0.05,0.31 -0.07,0.81 -0.05,0.52 -0.02,1.24 -0.05,2.07 0,0.43 0.07,0.9 0.07,1.37 0.05,0.45 0.05,0.96 0.18,1.46 0.07,0.52 0.2,1.02 0.24,1.54 0.07,0.54 0.3,1.06 0.43,1.58 0.13,0.52 0.24,1.06 0.41,1.58 0.22,0.5 0.4,1.01 0.59,1.49 0.2,0.48 0.36,0.96 0.54,1.42 0.18,0.43 0.39,0.85 0.57,1.22 0.79,1.51 1.2,2.68 1.2,2.68 0,0 -0.94,-0.72 -2.16,-2.05 -0.3,-0.33 -0.67,-0.65 -0.96,-1.11 -0.29,-0.41 -0.57,-0.9 -0.85,-1.4 -0.23,-0.5 -0.54,-1.02 -0.81,-1.58 -0.2,-0.54 -0.34,-1.13 -0.54,-1.72 -0.13,-0.61 -0.32,-1.17 -0.36,-1.76 -0.08,-0.62 -0.08,-1.22 -0.1,-1.8zm-38.51 -2.87c-0.5,-0.48 -0.93,-1.04 -1.35,-1.58 -0.45,-0.54 -0.79,-1.11 -1.13,-1.65 -0.67,-1.15 -1.13,-2.26 -1.44,-3.27 -0.65,-1.96 -0.61,-3.36 -0.61,-3.36 0,0 0.61,1.22 1.68,2.9 0.52,0.81 1.15,1.74 1.87,2.73 0.74,0.93 1.53,1.94 2.44,2.82 0.45,0.43 0.9,0.88 1.4,1.27 0.45,0.41 0.94,0.79 1.42,1.09 0.48,0.36 0.98,0.63 1.44,0.96 0.48,0.29 0.94,0.52 1.4,0.74 0.41,0.22 0.81,0.43 1.17,0.59 0.39,0.18 0.7,0.3 0.98,0.39 0.54,0.26 0.85,0.39 0.85,0.39 0,0 -0.33,0.02 -0.94,0.02 -0.61,0 -1.49,-0.02 -2.49,-0.29 -0.52,-0.11 -1.06,-0.24 -1.61,-0.48 -0.54,-0.22 -1.2,-0.41 -1.74,-0.79 -1.18,-0.58 -2.32,-1.48 -3.34,-2.45zm-13.79 -9.87c0,0 0.11,0.33 0.34,0.81 0.13,0.24 0.29,0.52 0.48,0.88 0.22,0.3 0.36,0.67 0.63,1.04 0.3,0.36 0.59,0.77 0.88,1.2 0.26,0.43 0.74,0.79 1.09,1.24 0.36,0.39 0.67,0.88 1.15,1.27 0.43,0.39 0.88,0.79 1.31,1.22 0.41,0.43 0.88,0.83 1.37,1.2 0.48,0.34 0.93,0.72 1.37,1.09 0.45,0.34 0.85,0.77 1.27,1.06 0.48,0.26 0.88,0.59 1.27,0.85 1.49,1.09 2.49,2.01 2.49,2.01 0,0 -1.27,-0.26 -3.07,-0.98 -0.45,-0.18 -0.93,-0.38 -1.46,-0.57 -0.52,-0.22 -1,-0.57 -1.51,-0.9 -0.52,-0.32 -1.06,-0.65 -1.6,-1.04 -0.54,-0.33 -1.04,-0.77 -1.51,-1.2 -0.48,-0.48 -0.92,-0.94 -1.4,-1.42 -0.48,-0.39 -0.77,-1.02 -1.15,-1.51 -0.34,-0.54 -0.72,-1 -0.92,-1.53 -0.24,-0.52 -0.45,-1.02 -0.63,-1.49 -0.2,-0.48 -0.24,-0.94 -0.31,-1.33 -0.11,-0.36 -0.16,-0.74 -0.16,-1.02 0.01,-0.59 0.08,-0.88 0.08,-0.88zm-40.35 21.34c0,0 0.27,0 0.67,0.05 0.43,0.07 1.04,0.13 1.79,0.18 0.72,0.13 1.58,0.16 2.44,0.33 0.45,0 0.94,0.07 1.4,0.11 0.45,0.07 0.94,0.13 1.42,0.13 0.94,0.09 1.89,0.24 2.8,0.27 0.9,0.02 1.72,0.13 2.44,0.11 1.44,0.02 2.46,0.13 2.46,0.13 0,0 -0.92,0.34 -2.4,0.77 -0.7,0.22 -1.58,0.24 -2.51,0.33 -0.93,0.16 -1.96,0 -2.94,-0.02 -1.99,-0.22 -3.95,-0.72 -5.32,-1.27 -1.39,-0.58 -2.25,-1.12 -2.25,-1.12z"/>
   <path class="fil0" d="M759.37 85.26c6.86,5.47 14.04,14.4 27.74,15.76 0,0 -9.94,2.75 -17.48,-2.05 0,0 10.68,25.06 37.68,28.49 0,0 -11.27,5.21 -20.54,0 0,0 16.1,23.61 43.2,22.58 0,0 -19.57,26.75 19.53,29.82 0,0 -7.63,-6.73 -6.86,-13.01 1.02,-8.46 10.94,-13.54 22.27,-11.69 25.17,4.2 45.24,4.15 73.34,-13.01 0,0 -58.26,16.1 -95.26,-5.47 -37.02,-21.6 -47.99,-67.52 -104.2,-58.28 0,0 13.73,1.37 20.57,6.86zm48.28 52.44c0.41,0.02 0.88,0.05 1.31,0.11 0.45,0.07 0.91,0.07 1.42,0.07 0.5,0 1,0 1.53,0.07 0.5,-0.02 1.04,-0.07 1.58,-0.07 0.52,0 1.04,0.02 1.55,-0.02 0.54,-0.09 1.04,-0.11 1.55,-0.18 0.5,-0.02 0.98,-0.02 1.46,-0.05 0.43,-0.07 0.9,-0.13 1.29,-0.18 1.58,-0.2 2.8,-0.18 2.8,-0.18 0,0 -0.94,0.61 -2.53,1.33 -0.36,0.18 -0.79,0.34 -1.27,0.52 -0.45,0.11 -0.94,0.24 -1.49,0.34 -0.52,0.11 -1.04,0.24 -1.61,0.34 -0.54,0.07 -1.13,0.07 -1.7,0.09 -0.57,0 -1.11,0 -1.7,-0.02 -0.59,-0.02 -1.13,-0.18 -1.63,-0.24 -1.09,-0.13 -2.03,-0.54 -2.82,-0.83 -0.81,-0.41 -1.4,-0.72 -1.81,-1.04 -0.41,-0.28 -0.61,-0.5 -0.61,-0.5 0,0 0.3,0.05 0.79,0.13 0.39,0.09 1.11,0.16 1.88,0.29zm-18.2 -26.07c1,0.34 2.07,0.7 3.14,0.94 0.52,0.18 1.09,0.36 1.64,0.5 0.52,0.11 1.04,0.27 1.54,0.39 0.5,0.16 1,0.31 1.46,0.45 0.48,0.11 0.92,0.22 1.35,0.33 1.65,0.41 2.77,0.88 2.77,0.88 0,0 -1.15,0.22 -2.92,0.29 -0.9,0.07 -1.94,0.02 -3.03,-0.13 -1.06,-0.16 -2.24,-0.34 -3.38,-0.72 -0.57,-0.18 -1.11,-0.36 -1.68,-0.54 -0.52,-0.2 -1.04,-0.45 -1.56,-0.7 -1,-0.41 -1.87,-1.04 -2.59,-1.55 -0.72,-0.54 -1.27,-1.04 -1.62,-1.44 -0.36,-0.36 -0.52,-0.63 -0.52,-0.63 0,0 1.11,0.43 2.68,1.02 0.8,0.25 1.69,0.67 2.7,0.93z"/>
   <path class="fil0" d="M537.63 129.46c5.15,31.89 47.61,27.42 55.17,16.45 0,0 -10.27,7.52 -23.95,2.49 -12.35,-4.53 -15.64,-13.88 -14.47,-24.4 2.05,-17.85 20.59,-18.85 20.59,-18.85 0,0 -5.82,16.78 11.69,24.65 0,0 -3.09,-17.81 13.01,-18.49 16.09,-0.67 32.45,9.26 32.45,9.26 0,0 -21.83,3.75 -11.55,26.03 0,0 2.75,-18.13 25.69,-8.91 22.97,9.26 41.37,42.17 86.72,33.96 0,0 -30.65,-1.96 -54.13,-23.3 -18.67,-16.98 -27.44,-30.16 -27.44,-39.43 0,-9.24 10.97,-10.61 16.45,-5.84 0,0 -8.56,-9.59 -18.53,-8.56 -8,0.85 -11.99,5.51 -10.94,11.66 0,0 -13.64,-12.34 -29.27,-14.76 -15.64,-2.4 -35.17,-14.69 -31.06,-29.47 0,0 -21.58,6.86 -10.29,28.79 0.01,0.01 -35.28,6.9 -30.13,38.75zm106.88 -23.71c0.02,-0.41 0.02,-0.9 0.18,-1.4 0.13,-0.45 0.27,-1 0.45,-1.52 0.26,-0.48 0.48,-1.04 0.81,-1.51 0.36,-0.48 0.67,-1 1.13,-1.42 0.43,-0.41 0.92,-0.79 1.42,-1.13 0.48,-0.36 1.04,-0.54 1.53,-0.79 1.04,-0.36 2.05,-0.59 2.92,-0.63 1.74,-0.09 2.84,0.32 2.84,0.32 0,0 -1.13,0.29 -2.62,0.85 -0.36,0.13 -0.74,0.29 -1.13,0.45 -0.41,0.16 -0.79,0.43 -1.24,0.63 -0.77,0.52 -1.62,1.02 -2.24,1.74 -0.41,0.33 -0.65,0.72 -0.98,1.06 -0.27,0.41 -0.54,0.81 -0.81,1.17 -0.2,0.45 -0.39,0.83 -0.61,1.24 -0.2,0.36 -0.32,0.79 -0.5,1.15 -0.33,0.72 -0.45,1.37 -0.65,1.85 -0.16,0.43 -0.28,0.72 -0.28,0.72 0,0 -0.05,-0.29 -0.11,-0.77 -0.09,-0.46 -0.22,-1.2 -0.11,-2.05zm-10.6 21.83c1.79,0.33 2.84,0.94 2.84,0.94 0,0 -1.2,0.05 -2.87,0.29 -0.83,0.09 -1.79,0.24 -2.77,0.45 -0.5,0.11 -0.98,0.32 -1.49,0.41 -0.5,0.22 -1.02,0.32 -1.46,0.59 -0.5,0.22 -0.94,0.43 -1.4,0.72 -0.43,0.27 -0.83,0.57 -1.22,0.88 -0.41,0.29 -0.72,0.63 -1.06,0.96 -0.34,0.31 -0.61,0.65 -0.9,0.98 -0.24,0.32 -0.57,0.59 -0.74,0.88 -0.2,0.27 -0.36,0.54 -0.52,0.74 -0.29,0.41 -0.48,0.63 -0.48,0.63 0,0 0.02,-0.28 0.11,-0.79 0.07,-0.27 0.11,-0.59 0.2,-0.94 0.07,-0.36 0.27,-0.74 0.43,-1.15 0.18,-0.43 0.36,-0.9 0.7,-1.33 0.31,-0.39 0.59,-0.94 1.02,-1.31 0.79,-0.88 1.85,-1.61 3,-2.14 0.54,-0.27 1.17,-0.41 1.76,-0.63 0.57,-0.13 1.15,-0.22 1.72,-0.26 1.17,-0.13 2.23,-0.04 3.12,0.09zm-54.5 -11.33c0,-0.65 0,-1.35 0.09,-2.05 0.16,-0.67 0.24,-1.35 0.52,-1.99 0.2,-0.63 0.57,-1.2 0.9,-1.74 0.32,-0.54 0.74,-1.02 1.11,-1.44 0.41,-0.41 0.79,-0.77 1.2,-1.06 1.58,-1.2 2.9,-1.46 2.9,-1.46 0,0 -0.24,0.22 -0.61,0.61 -0.41,0.39 -0.91,0.98 -1.44,1.7 -0.57,0.7 -1.11,1.58 -1.62,2.55 -0.2,0.45 -0.39,0.96 -0.57,1.53 -0.2,0.5 -0.24,1.06 -0.36,1.61 -0.07,0.54 -0.11,1.11 -0.13,1.68 0.09,0.54 0.02,1.11 0.13,1.65 0.11,0.5 0.18,1.04 0.22,1.55 0.16,0.48 0.3,0.96 0.41,1.4 0.16,0.91 0.5,1.63 0.63,2.18 0.18,0.52 0.22,0.83 0.22,0.83 0,0 -0.2,-0.24 -0.57,-0.63 -0.36,-0.45 -0.96,-1.02 -1.37,-1.89 -0.26,-0.43 -0.5,-0.9 -0.77,-1.4 -0.2,-0.54 -0.39,-1.11 -0.57,-1.7 -0.16,-0.62 -0.23,-1.27 -0.32,-1.92zm-8.59 -40.09c0.05,-0.74 0.05,-1.46 0.22,-2.14 0.11,-0.65 0.27,-1.31 0.45,-1.85 0.72,-2.26 1.76,-3.45 1.76,-3.45 0,0 -0.39,1.51 -0.59,3.7 -0.09,0.54 -0.11,1.13 -0.13,1.74 -0.02,0.63 0.07,1.27 0.07,1.94 0.11,0.63 0.16,1.33 0.33,2.01l0.24 1.01 0.39 0.98c0.16,0.67 0.61,1.24 0.88,1.87 0.36,0.57 0.74,1.13 1.11,1.7 0.45,0.5 0.85,0.98 1.29,1.46 0.41,0.43 0.88,0.81 1.27,1.22 0.77,0.81 1.56,1.29 2.07,1.72 0.5,0.45 0.81,0.72 0.81,0.72 0,0 -0.36,-0.13 -1,-0.34 -0.63,-0.24 -1.6,-0.5 -2.57,-1.13 -0.5,-0.32 -1.09,-0.59 -1.62,-1.04 -0.52,-0.41 -1.06,-0.91 -1.62,-1.44 -0.45,-0.59 -1.02,-1.15 -1.46,-1.83 -0.34,-0.72 -0.85,-1.37 -1.09,-2.16l-0.39 -1.17c-0.09,-0.36 -0.16,-0.79 -0.22,-1.15 -0.21,-0.8 -0.16,-1.58 -0.21,-2.35zm-26.7 47.13l0.18 -1.2 0.45 -2.35c0.22,-0.77 0.48,-1.5 0.74,-2.24l0.39 -1.11 0.52 -1.02c0.36,-0.65 0.7,-1.35 1.06,-1.99 0.83,-1.22 1.62,-2.42 2.55,-3.36 0.88,-1.02 1.79,-1.89 2.66,-2.64 1.76,-1.51 3.38,-2.55 4.58,-3.18 1.13,-0.65 1.85,-0.92 1.85,-0.92 0,0 -0.59,0.48 -1.51,1.4 -0.98,0.92 -2.24,2.26 -3.66,3.95 -0.7,0.85 -1.46,1.76 -2.12,2.8 -0.77,0.98 -1.31,2.2 -2.03,3.32 -0.26,0.59 -0.52,1.22 -0.81,1.83l-0.41 0.94 -0.31 0.98c-0.2,0.65 -0.39,1.33 -0.61,1.99l-0.32 2.07 -0.18 1.02 0 1.04c0,0.67 0,1.35 -0.02,2.07 0.16,1.35 0.36,2.73 0.54,4.04 0.39,1.27 0.72,2.51 1.04,3.68 0.43,1.17 0.98,2.23 1.37,3.27 0.2,0.52 0.41,1 0.61,1.46 0.22,0.43 0.45,0.85 0.67,1.27 0.43,0.81 0.81,1.51 1.09,2.07 0.63,1.15 0.96,1.85 0.96,1.85 0,0 -0.52,-0.54 -1.42,-1.49 -0.45,-0.52 -1,-1.11 -1.61,-1.81 -0.31,-0.36 -0.65,-0.72 -0.98,-1.11 -0.29,-0.43 -0.57,-0.94 -0.88,-1.4 -0.61,-1 -1.35,-2.01 -1.94,-3.21 -0.52,-1.24 -1.06,-2.55 -1.58,-3.95 -0.29,-1.42 -0.72,-2.93 -0.88,-4.49 0,-0.77 -0.02,-1.58 -0.05,-2.37l0.01 -1.23z"/>
   <path class="fil0" d="M581.87 73.45c19.09,-1.35 39.66,9.77 57.29,23.28 1.68,-1.74 3.97,-2.98 6.8,-3.68 -7.93,-7.15 -15.08,-12.57 -19.61,-15.67 -11.97,-8.22 -20.2,-26.75 -5.12,-35.28 15.08,-8.6 26.75,7.52 26.75,7.52 -0.34,-12.34 -22.75,-28.73 -44.22,-18.51 -21.6,10.27 -12.34,34.61 -12.34,34.61 -3.75,-2.37 -7.32,-4.22 -10.72,-5.58l-0.65 2.37c-1.02,3.65 -0.39,7.34 1.84,10.94zm18.2 -22.8c0.18,-1.46 0.45,-2.96 0.98,-4.43 0.57,-1.49 1.22,-2.96 2.14,-4.27 0.92,-1.33 2.03,-2.53 3.21,-3.55 1.17,-1.04 2.51,-1.85 3.79,-2.55 1.29,-0.7 2.62,-1.17 3.86,-1.58 1.27,-0.41 2.49,-0.7 3.62,-0.9 2.24,-0.38 4.17,-0.39 5.47,-0.33 1.31,0.09 2.05,0.2 2.05,0.2 0,0 -2.98,0.48 -7.09,1.85 -2.05,0.72 -4.36,1.7 -6.59,3.09 -2.16,1.4 -4.29,3.21 -5.75,5.47 -0.81,1.09 -1.4,2.35 -1.89,3.57 -0.24,0.61 -0.43,1.27 -0.67,1.87 -0.13,0.65 -0.32,1.29 -0.43,1.92 -0.24,1.31 -0.36,2.57 -0.48,3.79 0,1.22 -0.09,2.4 -0.02,3.49 0.02,1.09 0.07,2.07 0.18,2.96 0.05,0.9 0.09,1.68 0.2,2.31 0.13,1.31 0.2,2.05 0.2,2.05 0,0 -0.3,-0.67 -0.81,-1.89 -0.24,-0.61 -0.52,-1.37 -0.77,-2.25 -0.27,-0.88 -0.57,-1.87 -0.77,-2.98 -0.26,-1.11 -0.39,-2.35 -0.52,-3.66 -0.05,-1.31 -0.08,-2.73 0.1,-4.18z"/>
   <rect class="fil0" x="-0" y="196.72" width="2049.3" height="9.35"/>
   <rect class="fil0" x="-0" y="212.91" width="2049.3" height="3.03"/>
  </g>
 </g>
</svg>
