<?xml version="1.0" encoding="UTF-8"?>
<!DOCTYPE svg PUBLIC "-//W3C//DTD SVG 1.1//EN" "http://www.w3.org/Graphics/SVG/1.1/DTD/svg11.dtd">
<!-- Creator: CorelDRAW -->
<svg xmlns="http://www.w3.org/2000/svg" xml:space="preserve" width="55.0402mm" height="90.9383mm" version="1.1" style="shape-rendering:geometricPrecision; text-rendering:geometricPrecision; image-rendering:optimizeQuality; fill-rule:evenodd; clip-rule:evenodd"
viewBox="0 0 285.35 471.46"
 xmlns:xlink="http://www.w3.org/1999/xlink"
 xmlns:xodm="http://www.corel.com/coreldraw/odm/2003">
 <defs>
  <style type="text/css">
   <![CDATA[
    .fil0 {fill:#FEFEFE;fill-rule:nonzero}
   ]]>
  </style>
 </defs>
 <g id="Layer_x0020_1">
  <metadata id="CorelCorpID_0Corel-Layer"/>
  <g id="_2323557770960">
   <path class="fil0" d="M88.43 471.46c-2.21,-1.25 -4.58,-2.56 -7.13,-3.97 -34.24,-18.86 -38.88,-22.93 -50.53,-44.34 -15.43,-28.35 -14.14,-14.49 -25.01,-270.12 -3.58,-83.93 -6.15,-152.79 -5.72,-153.03 0.42,-0.23 57.26,38.74 126.3,86.6 81.33,56.39 129.53,89.68 159,110.96l0 10.94c-26.8,-19.19 -69.09,-48.98 -114.9,-80.85l-134.4 -93.5 1.15 6.81c0.64,3.75 0.85,7.86 0.47,9.14 -0.87,2.97 20.48,41.88 22.39,40.83 0.78,-0.43 2.58,-3.75 4,-7.38 1.79,-4.59 1.82,-7.95 0.1,-11.08 -2.25,-4.08 -2.65,-4.16 -4.47,-0.9 -2.85,5.06 -8.1,3.68 -7.76,-2.04 0.18,-3.12 -0.46,-4.03 -3.16,-4.54 -2.15,-0.4 -4.31,-2.73 -5.95,-6.39 -2.1,-4.72 -1.94,-6.23 0.92,-8.37 4.52,-3.39 10.32,-0.98 10.36,4.31 0.05,4.08 -3.55,5.03 -4.72,1.25 -0.4,-1.28 -1.54,-2.16 -2.54,-1.95 -1,0.2 -1.19,2 -0.44,4 1.02,2.71 3.04,3.57 7.91,3.38 8.91,-0.33 14.28,1 15.91,3.96 0.74,1.35 3.3,2.29 5.67,2.06 5.09,-0.48 8.22,4.12 5.79,8.5 -2.24,4.01 -5.22,3.14 -4.36,-1.26 0.55,-2.83 0.23,-3.18 -1.84,-2.04 -1.38,0.76 -2.16,2.02 -1.73,2.8 0.43,0.78 0.16,4.46 -0.59,8.18 -0.82,4.06 -0.52,6.8 0.76,6.86 3.8,0.17 8.32,11.2 9.03,22.02 1.55,23.66 4.71,32.11 27.38,72.95 11.47,20.66 20.64,36.33 20.39,34.82 -0.26,-1.51 -0.94,-9.41 -1.51,-17.55 -0.58,-8.15 -2.06,-15.67 -3.28,-16.69 -2.46,-2.07 -7.5,-0.21 -6.14,2.26 0.46,0.84 1.95,0.93 3.3,0.19 1.35,-0.74 2.63,-0.33 2.86,0.92 0.6,3.3 -4.66,5.63 -8.26,3.67 -4.47,-2.45 -2.21,-11.05 3.29,-12.51 3.6,-0.96 3.73,-1.61 1.22,-6.17 -3.39,-6.15 -7.91,-8.01 -9.54,-3.91 -0.61,1.53 -2.38,2.96 -3.93,3.18 -4.6,0.64 -5.74,-4.06 -2.31,-9.61 1.79,-2.92 2.48,-6.45 1.57,-8.12 -2.27,-4.15 -0.24,-11.03 3.93,-13.32 3.8,-2.09 10.39,-0.95 12.07,2.1 1.36,2.47 -0.11,7.32 -2.65,8.72 -2.56,1.41 -4.88,-2.65 -2.9,-5.08 1.14,-1.39 0.71,-1.93 -1.69,-2.17 -2.39,-0.24 -3.54,0.83 -4.55,4.25 -1.33,4.5 -1.21,4.66 8.42,11.32l9.78 6.75 -0.03 -9.78c-0.02,-12.08 -4.83,-21.8 -11.76,-23.78 -5.77,-1.64 -10.34,0.56 -11.86,5.73 -1.24,4.24 -6,5.75 -7.8,2.48 -1.32,-2.39 0.64,-8.51 3.88,-12.15 1.88,-2.1 1.59,-2.88 -2.03,-5.69 -2.31,-1.79 -4.41,-3.38 -4.67,-3.54 -0.26,-0.16 -1.39,0.76 -2.48,2.09 -2.56,3.02 -1.26,5.52 1.95,3.75 3.26,-1.79 3.95,2.64 0.82,5.23 -6.25,5.19 -12.38,-5.79 -6.36,-11.37 2.82,-2.61 2.82,-3.96 0.02,-9.04 -2.34,-4.24 -2.78,-7.44 -1.54,-11.03 0.96,-2.78 2.34,-6.85 3.07,-9.04 1.64,-4.94 -0.43,-9.01 -5.02,-9.87 -2.62,-0.49 -3.67,0.03 -4.27,2.11 -0.61,2.08 0.17,2.87 3.19,3.26 2.88,0.36 3.66,1.1 2.78,2.65 -1.91,3.36 -7.82,1.33 -9.72,-3.34 -1.33,-3.27 -0.8,-4.88 2.35,-7.12 6.12,-4.34 10.43,-2.78 13.73,4.98 2.28,5.38 3.83,6.84 8.54,8.05 4.7,1.21 6.18,2.6 8.14,7.68 1.32,3.42 3.69,7.01 5.25,7.98 3.55,2.19 9.33,-0.74 7.61,-3.86 -0.72,-1.31 -2.66,-1.54 -4.49,-0.53 -3.92,2.16 -5.15,-1.86 -1.49,-4.9 2.6,-2.16 8.82,-0.39 10.71,3.06 1.56,2.84 -0.76,9.18 -4.02,10.98 -1.58,0.87 -6.8,0.58 -11.6,-0.64 -7.9,-2.01 -8.76,-2.68 -9.09,-7.07 -0.29,-3.95 -0.87,-4.78 -3.14,-4.45 -9.55,1.34 -5.92,10.71 7.23,18.65 10.69,6.45 12.88,6.77 14.27,2.05 2.71,-9.24 14.46,-12.11 18.63,-4.54 2.6,4.71 -0.92,10.94 -5.68,10.04 -4.34,-0.81 -5.62,-3.52 -1.92,-4.05 3.97,-0.55 5.24,-3.12 2.63,-5.31 -2.65,-2.22 -8.93,1.09 -9.72,5.13 -0.36,1.87 1.25,5.51 4.24,9.51 7.21,9.67 8.92,17.06 7.53,32.48 -0.81,8.94 -0.52,13.01 0.81,11.38 1.14,-1.4 3.77,-4.42 5.83,-6.7 5,-5.54 6.26,-8.77 4.56,-11.76 -1.07,-1.88 -1.61,-1.21 -2.23,2.77 -0.61,3.9 -1.33,4.81 -2.78,3.54 -2.92,-2.59 -2.51,-8.43 0.72,-10.21 4.12,-2.27 8.88,0.11 9.83,4.92 0.78,3.94 0.88,3.92 3.16,-0.37 3.47,-6.57 3.32,-16.67 -0.31,-20.56 -3.79,-4.07 -9.21,-1.63 -7.9,3.56 1.21,4.81 -4.49,6.77 -7.63,2.63 -2.97,-3.94 -0.55,-12.3 4.34,-15 5.68,-3.13 15.48,-0.45 18.84,5.16 1.96,3.26 4.11,4.61 7.02,4.38 5.77,-0.45 10.28,4.16 8.85,9.04 -0.81,2.77 -2.05,3.82 -4.38,3.69 -3.73,-0.21 -4.94,-3.39 -1.78,-4.68 2.88,-1.19 -0.34,-3.96 -3.44,-2.96 -1.36,0.44 -2.55,3.56 -2.66,6.95l-0.2 6.15 7.84 1.69c4.31,0.93 9.88,3.33 12.38,5.31 5.87,4.67 11.45,1.32 8.77,-5.27 -1.54,-3.76 -2.18,-3.99 -4.65,-1.65 -2.28,2.15 -3.06,2.06 -3.9,-0.51 -1.64,-5.06 4.57,-8.53 9.17,-5.14 7.13,5.28 6.69,13.99 -0.95,18.72 -0.8,0.52 -0.34,4.14 1.03,8.09 4.79,13.85 -1.16,28.94 -14.3,36.28 -5.69,3.21 -7.91,7.26 -3.55,6.59 1.77,-0.28 2.15,0.32 1.58,2.53 -1.22,4.67 -5.51,3.21 -7.57,-2.6 -2.57,-7.23 -10.8,-10.19 -18.08,-6.48 -8.82,4.48 -19.09,-3.51 -14.19,-11.03 2.52,-3.85 7.79,-3.91 9.88,-0.12 1.42,2.58 -1.05,4.24 -3.27,2.21 -0.89,-0.81 -2.15,-0.5 -2.83,0.68 -1.94,3.42 4.68,6.66 8.89,4.34 2.82,-1.56 3.24,-3.18 1.91,-7.43 -2.38,-7.55 -0.61,-13.16 5.73,-18.08 3.96,-3.08 4.99,-4.95 3.87,-6.98 -0.85,-1.54 -2.46,-2.83 -3.6,-2.88 -1.14,-0.05 -1.25,1.39 -0.26,3.19 1.08,1.95 0.89,3.46 -0.47,3.71 -3.64,0.67 -6.73,-6.63 -3.83,-9.04 4.05,-3.36 11.37,-0.76 12.95,4.58 0.88,3.01 2.52,4.79 4.81,5.22 8.4,1.58 5.87,8.19 -3.09,8.04 -9.59,-0.15 -11.63,9.87 -3.13,15.35 4.67,3.01 6.86,1.39 4.33,-3.21 -1.75,-3.18 -0.16,-8.98 2.91,-10.67 1.34,-0.74 8.25,1.66 9.07,3.15 1.18,2.13 -3.33,4.07 -5.36,2.31 -1.25,-1.08 -2.01,-0.77 -2.62,1.05 -0.63,1.91 0.16,3.04 3.03,4.34 3.59,1.63 4.1,1.41 6.89,-2.96 3.92,-6.12 4.96,-17.82 2.06,-23.08 -3.27,-5.93 -13.81,-10.79 -22.46,-10.35 -14.61,0.74 -24.87,12.92 -27.92,33.14 -3.67,24.28 2.29,43.55 27.74,89.74l19.35 35.12 2.09 -6.28c1.14,-3.46 4.54,-10.27 7.56,-15.15 3.2,-5.16 5.08,-10.48 4.52,-12.76 -1.88,-7.67 -6.25,-13.5 -12.56,-16.72 -7.12,-3.63 -12.9,-2.49 -13.93,2.75 -1.08,5.54 3.06,7.44 9.06,4.14 6.75,-3.72 10.12,-2.01 7.69,3.91 -1.03,2.51 -0.89,6.28 0.31,8.46 1.38,2.51 1.27,5.63 -0.31,8.58 -2.3,4.3 -2.87,4.61 -7.73,4.26 -5.74,-0.42 -7.87,-2.74 -6.57,-7.17 1.17,-3.98 4.61,-5.54 6.13,-2.78 0.7,1.27 0.57,2.69 -0.28,3.16 -0.85,0.47 -1.16,1.54 -0.69,2.38 1.48,2.69 5.37,-0.81 5.34,-4.81 -0.03,-2.9 -0.95,-4.1 -3.79,-4.91 -2.06,-0.59 -4.42,-0.71 -5.22,-0.27 -0.8,0.44 -3.85,-0.91 -6.78,-2.99 -4.61,-3.29 -5.36,-4.54 -5.62,-9.39 -0.36,-6.6 4.5,-14.09 10.08,-15.58 4.3,-1.13 14.71,0.89 17.43,3.39 1.3,1.19 2.42,0.47 4.85,-3.16 3.79,-5.66 10.11,-7.16 13.18,-3.15 2.48,3.24 0.67,9.23 -2.74,9.07 -1.69,-0.08 -2.12,-0.83 -1.58,-2.7 1.05,-3.56 -0.15,-5.29 -2.71,-3.88 -3.69,2.03 -3.63,7.91 0.14,15.04 1.99,3.79 4.07,6.64 4.62,6.35 2.46,-1.36 12.81,-23.65 13.19,-28.41 0.54,-6.78 -3.98,-13.4 -8.22,-12.01 -2.56,0.84 -2.59,1.57 -0.2,3.83 2.16,2.05 2.29,2.93 0.48,3.27 -1.36,0.25 -3.67,-1.2 -5.14,-3.24 -3.2,-4.45 0.21,-9.09 6.74,-9.18 5.82,-0.1 5.77,-1.48 -0.31,-7.77 -6.06,-6.28 -13.67,-6.96 -15.87,-1.42 -1.63,4.13 0.35,7.86 3.31,6.23 1.38,-0.76 1.43,-1.96 0.11,-3.06 -1.38,-1.15 -1.24,-2.32 0.37,-3.21 3.41,-1.88 7.04,1.45 6.22,5.7 -0.88,4.49 -6.29,6.4 -11.06,3.91 -3.17,-1.65 -3.8,-2.84 -3.9,-7.36 -0.11,-4.79 -0.39,-5.23 -2.61,-4.01 -4.35,2.4 -5.51,9.28 -2.48,14.77 2.31,4.19 4.06,5.21 8.97,5.25 6.92,0.05 9.34,3.96 4.62,7.49 -4.08,3.07 -14.19,0.24 -18.87,-5.29 -3.14,-3.72 -3.96,-3.83 -7.21,-1 -2.01,1.76 -6.06,3.54 -8.98,3.96 -4.3,0.62 -5.53,1.5 -6.4,4.57 -0.98,3.46 -0.74,3.85 2.72,4.3 4.97,0.66 5.61,2.07 1.85,4.14 -5.75,3.17 -10.77,-3.12 -8.99,-11.28 0.61,-2.8 -0.12,-4.44 -3.17,-7.01 -3.13,-2.64 -4.03,-4.83 -4.28,-10.41 -0.38,-8.3 4.08,-14.23 11.65,-15.52 4.38,-0.73 5.52,-0.02 8.43,5.25 2.8,5.08 2.84,6.39 0.27,7.81 -2.27,1.25 -3.66,0.68 -5.2,-2.13 -1.44,-2.61 -2.77,-3.27 -4.15,-2.06 -5.45,4.78 -4.08,11.81 2.66,13.73 5.62,1.61 9.68,-1.48 15.18,-11.55 5.61,-10.26 14.9,-16.69 23.26,-16.07 4.87,0.36 4.93,0.2 4.23,-11.19 -0.61,-9.86 0.06,-12.55 4.54,-18.41 4.55,-5.94 4.89,-7.37 2.51,-10.69 -1.51,-2.12 -3.25,-3.12 -3.87,-2.23 -0.62,0.9 -0.29,2.74 0.73,4.11 2.59,3.48 -1.96,5.47 -5.29,2.31 -3.46,-3.27 -2.5,-8.52 2.02,-11.01 4.88,-2.69 9.48,-0.4 11.83,5.9 1.57,4.21 3.11,5.54 7.21,6.19 3.2,0.51 6.11,2.45 7.52,5.02 2.47,4.49 6.79,6.51 10.06,4.72 1.11,-0.61 1.45,-2.12 0.77,-3.36 -0.75,-1.37 -1.95,-1.4 -3.07,-0.09 -1.27,1.5 -2.38,1.17 -3.61,-1.08 -2.1,-3.8 2.35,-7.08 7.11,-5.22 4.14,1.61 5.35,6.07 2.91,10.71 -1.66,3.15 -2.84,3.81 -7.07,3.9 -2.79,0.08 -6.96,1.52 -9.27,3.21 -2.31,1.68 -5.52,2.97 -7.13,2.84 -4.04,-0.33 -4.46,-5.81 -0.61,-7.93 1.76,-0.97 2.59,-2.74 1.87,-4.04 -2.04,-3.71 -8.98,1.37 -10.59,7.77 -2.08,8.21 0.57,17.76 7.99,28.9 8.12,12.16 9.53,19.52 6.39,33.43l-2.44 10.85 8.43 -6.03c4.64,-3.31 9.5,-7.63 10.79,-9.6 4.89,-7.44 3.66,-15.03 -2.65,-16.22 -4.61,-0.87 -5.23,2.17 -0.93,4.56 4.25,2.35 2.89,5.89 -1.91,4.98 -6.77,-1.27 -7.45,-9.83 -1.06,-13.35 4.48,-2.47 9.37,-0.35 12.27,5.31 1.31,2.54 3.01,4.27 3.8,3.84 0.78,-0.43 2.94,-5.59 4.8,-11.48 3.32,-10.48 2.2,-16.02 -3.04,-15.05 -1.49,0.28 -1.67,1.37 -0.43,2.86 1.08,1.33 1.27,3.2 0.41,4.16 -2.16,2.4 -6.04,-5.02 -4.57,-8.74 0.64,-1.6 2.53,-3.11 4.21,-3.35 4.58,-0.64 1.9,-3.73 -4.93,-5.69 -4.45,-1.27 -6.76,-0.94 -8.88,1.26 -4.88,5.06 -3.93,10.66 1.98,11.76 4.8,0.9 7.19,6.04 3.69,7.97 -3.61,1.99 -9.7,-0.06 -14.07,-4.75 -1.87,-2 -4.34,-3.11 -5.5,-2.47 -3.22,1.77 -11.12,-3.07 -11.96,-7.32 -0.82,-4.19 4.72,-10.25 8.41,-9.19 3.1,0.88 4.86,6.19 2.79,8.43 -0.93,1.01 -2.31,0.36 -3.39,-1.59 -1,-1.81 -2.27,-2.48 -2.83,-1.49 -1.52,2.67 1.68,7.49 4.7,7.07 1.44,-0.2 3.98,-3.31 5.65,-6.91 4.7,-10.12 14.7,-14.08 25.03,-9.91 2.47,0.99 5.16,3 5.99,4.47 1.03,1.8 2.74,1.99 5.29,0.58 4.87,-2.68 11.74,0.52 12.53,5.83 0.67,4.43 -7.02,11.53 -7.8,7.21 -0.24,-1.33 0.54,-2.95 1.73,-3.61 1.19,-0.66 1.74,-2.53 1.21,-4.17 -0.66,-2.03 -1.94,-2.43 -4.07,-1.26 -3.51,1.93 -3.68,2.8 -1.87,9.41 1.08,3.92 2.15,4.63 6.6,4.37 2.84,-0.17 5.44,0.36 7.61,1.45l0 5.42c-2.47,-2.43 -6.77,-3.72 -10.56,-1.64 -1.73,0.96 -4.32,4.78 -5.76,8.49 -3.74,9.65 -15.22,24.86 -23.17,30.71 -3.74,2.76 -6.67,5.25 -6.51,5.55 0.16,0.29 4.89,1.66 10.53,3.02 5.63,1.36 11.6,3.94 13.28,5.73 3.15,3.37 5.81,3.21 6,-0.38 0.06,-1.12 -0.63,-1.65 -1.53,-1.15 -0.9,0.5 -2.21,-0.14 -2.9,-1.4 -1.64,-2.98 0.61,-4.17 5.35,-2.81 4.76,1.36 5.25,7.97 0.79,10.43 -1.7,0.94 -2.47,2.71 -1.73,4.04 0.72,1.3 0.54,5.01 -0.41,8.23 -2.51,8.55 -12.04,13.5 -19.52,10.16 -9.54,-4.27 -10.95,-4.58 -11.98,-2.77 -0.64,1.13 0.1,2.21 2.04,2.97 3.7,1.44 3.31,3.9 -0.71,4.46 -7.8,1.09 -9.26,-8.86 -1.75,-11.94 2.68,-1.09 4.57,-3.37 5.11,-6.15 0.74,-3.73 1.42,-4.31 4.45,-3.74 2.78,0.52 3.58,1.56 3.61,4.68 0.03,3.08 0.88,4.24 3.68,5.04 4.26,1.21 7.34,-1.78 7.29,-7.1 -0.08,-8.17 -19.8,-15.14 -32.66,-11.53 -4.57,1.28 -4.57,1.42 -0.36,7.1 4.97,6.7 4.74,11.58 -0.65,14.56 -3.78,2.08 -9.1,-0.18 -9.73,-4.14 -0.47,-3 3.97,-5.45 4.77,-2.63 0.96,3.4 4.17,2.56 4.4,-1.15 0.25,-3.99 -3.46,-7.51 -7.35,-6.96 -1.53,0.22 -5.29,3.34 -8.36,6.94 -5.32,6.26 -5.38,6.62 -1.39,7.97 3.41,1.16 4.24,2.31 4.52,6.23 0.57,7.67 -8.86,10.64 -9.88,3.11 -0.31,-2.35 0.24,-2.79 2.95,-2.28 2.71,0.51 3.1,0.18 2.07,-1.7 -3.29,-5.98 -10.41,1.16 -13.33,13.4 -1.07,4.48 -0.91,4.46 9.81,-0.48 6.46,-2.97 15.56,-5.52 22.32,-6.25 6.28,-0.67 18.96,-2.05 28.16,-3.06 12.95,-1.42 22.45,-3.79 29.15,-7.35l0 15.09c-4.94,-1.99 -8.64,-1.79 -30.95,0.52 -13.74,1.42 -17.21,2.29 -15.25,3.83 1.39,1.09 3.76,3.39 5.26,5.11 4.71,5.39 16.85,4.1 13.78,-1.47 -0.48,-0.87 -2.02,-0.32 -3.53,1.25 -2.13,2.23 -2.88,2.17 -3.68,-0.32 -1.33,-4.12 3.45,-7.92 7.58,-6.02 7.72,3.56 3.71,14.01 -5.68,14.82 -3.42,0.3 -4.54,1.6 -6.18,7.2 -1.41,4.82 -1.23,7.43 0.62,8.84 2.48,1.9 2.58,1.84 1.78,-1.05 -0.9,-3.28 0.85,-5.08 3.49,-3.6 3.52,1.97 2.47,7.04 -1.84,8.8 -3.07,1.26 -5.02,0.83 -6.76,-1.49 -1.35,-1.79 -4.32,-2.99 -6.59,-2.66 -6.36,0.92 -10.76,-1.46 -12.09,-6.56 -1.46,-5.56 3.57,-7.89 7.06,-3.26 4.62,6.12 9.57,-1.58 5.62,-8.75 -2.12,-3.85 -11.83,-9.35 -14.21,-8.04 -0.6,0.33 -0.73,3.17 -0.29,6.31 0.67,4.76 0.05,6.02 -3.81,7.6 -3.64,1.5 -5.04,1.11 -6.66,-1.82 -2.66,-4.84 0.16,-7.84 3.49,-3.7 2.37,2.96 2.55,2.92 2.27,-0.41 -0.61,-7.28 -9.73,-8.01 -18.39,-1.46l-3.93 2.98 7.42 2.64c7.93,2.83 14.69,9.63 16.51,16.61 1.01,3.85 3.29,4.53 22.03,6.56 32.96,3.58 32.17,3.59 35.45,-0.79 4.03,-5.38 3.26,-12.7 -1.71,-16.38 -4.83,-3.57 -11.58,-0.44 -11.53,5.35 0.07,8.03 -7.4,7.81 -7.99,-0.23 -0.73,-9.96 8.33,-16.69 18.57,-13.76 4.56,1.3 7.99,3.82 10.13,7.23l0 21.24c-0.73,1.71 -1.48,2.93 -2.08,3.26 -1.2,0.66 -0.83,2.69 2.08,8.54l0 21.09c-0.44,-0.47 -0.79,-0.75 -1.05,-0.82l-0 -0c-0.94,-0.27 -0.62,1.32 1.05,4.96l0 8.21c-4.69,-8.09 -7.91,-12.66 -8.66,-12.24 -0.91,0.5 2.41,7.9 8.66,19.37l0 22 -2.82 -5.08 0 0c-6.63,-11.91 -13.25,-19.36 -19.89,-22.39 -5.63,-2.56 -18.18,-3.08 -25.72,-1.06l-4.83 1.29 26.4 47.92 26.87 -14.8 0 7.99 -9.72 5.36 4.21 5.18c2.32,2.85 4.8,5.54 5.51,5.97l-19.36 0c3.28,-2.12 4.03,-3.36 3.31,-4.67 -0.99,-1.79 -3.33,-1.17 -10.54,2.8 -1.24,0.69 -2.33,1.3 -3.26,1.86l-14.64 0 11.43 -6.3 -13.2 -23.95 -0 0 -13.2 -23.96 -3.68 3.39c-5.74,5.29 -12.01,16.18 -12.85,22.31 -0.98,7.18 1.73,16.67 8.16,28.51l-12.19 0c-0.83,-1.56 -1.72,-3.21 -2.68,-4.95 -6.76,-12.28 -11.58,-19.62 -12.53,-19.1 -0.95,0.52 2.68,8.53 9.44,20.8 0.62,1.13 1.22,2.21 1.81,3.25l-4.06 0c-0.31,-0.57 -0.62,-1.15 -0.94,-1.73 -6.55,-11.88 -10.51,-17.78 -11.16,-16.62 -0.56,0.97 2.82,8.6 8.09,18.34l-10.64 0 0.25 -0.55 -9.62 -17.46c-7.67,-13.93 -10.06,-17.23 -11.78,-16.29 -1.19,0.66 -5.66,-0.06 -9.95,-1.59 -5.95,-2.13 -8.58,-4.23 -11.2,-8.98 -8.03,-14.58 7.38,-31.01 20.19,-21.53 6.49,4.8 2.67,11.23 -4.08,6.88 -4.94,-3.19 -11.11,0.9 -10.66,7.07 0.46,6.27 7.17,10.96 14.05,9.79 4.03,-0.69 6.1,-3.82 16.17,-24.5 10.44,-21.44 11.25,-24.03 8.52,-26.96 -4.91,-5.26 -7.05,-14.61 -5.2,-22.83l1.72 -7.68 -4.62 1.74c-10.16,3.81 -14.43,11.9 -8.59,16.32 2.66,2.01 2.78,1.88 1.56,-1.7 -1.72,-5.03 2.33,-5.82 5,-0.97 1.61,2.92 1.18,4.32 -2.03,6.59 -3.4,2.41 -4.78,2.28 -8.46,-0.84 -2.41,-2.05 -4.88,-3.45 -5.48,-3.12 -2.37,1.31 -2.92,12.45 -0.79,16.32 3.95,7.16 13.11,7.1 10.4,-0.08 -2.04,-5.42 2.6,-8.43 6.53,-4.23 3.58,3.84 3.25,8.83 -0.93,13.72 -1.49,1.75 -2.06,4.9 -1.26,6.99 1.02,2.71 0.34,4.6 -2.35,6.51 -3.79,2.7 -8.65,0.89 -8.43,-3.15 0.16,-3.02 2.61,-3.54 4.91,-1.02 2,2.2 2.11,2.15 1.85,-0.93 -0.22,-2.32 -2.33,-3.87 -7.15,-5.25 -5.61,-1.6 -7.31,-1.36 -9.38,1.38 -5.72,7.51 -16.69,5.32 -15.57,-3.11 0.59,-4.51 6.36,-6.52 9.14,-3.2 1.67,2 1.32,2.67 -1.7,3.28 -2.13,0.43 -3.42,1.44 -2.94,2.31 3.07,5.57 10.65,-4 8.61,-10.87 -0.65,-2.18 -1.33,-5.41 -1.51,-7.17 -0.25,-2.48 -2.85,-0.01 -11.4,10.85 -15.29,19.42 -16.34,21.1 -17.23,27.58 -0.88,6.27 2.65,11.1 7.59,10.41 3.88,-0.55 6.24,-6.19 2.97,-7.12 -1.6,-0.45 -2.79,0.29 -3.57,2.26 -0.64,1.61 -1.84,2.75 -2.65,2.52 -2.57,-0.74 -1.69,-7.79 1.17,-9.37 6.14,-3.38 12.63,2.73 10.84,10.21 -0.77,3.2 -0.24,4.49 2.58,6.31 7.34,4.74 4.88,15.78 -3.54,15.9 -3.4,0.05 -2.59,0.74 3.99,3.43 4.55,1.85 9.9,5.07 11.91,7.16 2.98,3.09 4.49,3.33 8.18,1.3 3.76,-2.07 4.17,-3.13 2.48,-6.2 -1.12,-2.04 -3.07,-3.52 -4.32,-3.28 -1.26,0.23 -1.68,1.51 -0.95,2.85 1.46,2.64 -0.57,4.6 -3.21,3.12 -3.41,-1.91 -2.35,-6.89 1.98,-9.27 5.14,-2.83 10.86,-0.05 12.46,6.07 1.1,4.22 -4.49,12.84 -8.21,12.66 -1.2,-0.05 -1.72,0.76 -1.14,1.82 0.38,0.7 0.81,3.05 1.12,5.94l-8.24 0c-0.33,-0.99 -0.82,-2.04 -1.46,-3.21 -3.08,-5.59 -5.77,-7.37 -26.61,-17.5 -11.05,-5.37 -18.67,-16.69 -18.32,-27.2 0.14,-4.11 -0.03,-7.48 -0.35,-7.49 -0.33,-0.01 -4.26,0.33 -8.75,0.76 -4.47,0.43 -9.43,0.28 -11.01,-0.33 -8.65,-3.37 -14.39,9.98 -8.72,20.28 3.43,6.22 10.64,8.69 13.96,4.79 2.69,-3.17 -1.02,-8.08 -4.61,-6.11 -2.1,1.16 -3.65,0.68 -4.85,-1.48 -1.48,-2.69 -0.9,-3.58 3.73,-5.63 3.02,-1.34 6.07,-3.91 6.79,-5.73 0.98,-2.48 2.32,-3.31 5.43,-3.36 4.87,-0.07 6.89,2.8 5.12,7.25 -1.06,2.66 -1.56,2.65 -3.06,-0.07 -0.99,-1.8 -2.49,-2.88 -3.34,-2.41 -0.85,0.47 -0.06,3.57 1.77,6.89 1.85,3.36 2.85,7.64 2.26,9.67 -0.96,3.25 -0.67,3.63 2.7,3.58 5.8,-0.09 12.86,6.23 13.27,11.9 0.41,5.55 -4.52,10.67 -10.35,10.76 -5.64,0.09 -10.11,-7.76 -6.54,-11.5 3.07,-3.22 6.27,-3.28 7.99,-0.15 0.91,1.66 0.19,2.53 -2.56,3.08 -2.78,0.56 -3.34,1.24 -2,2.47 1.01,0.93 3.53,0.76 5.58,-0.36 5.93,-3.27 2.05,-10.48 -6.14,-11.4 -3.5,-0.4 -7.87,0.11 -9.7,1.12 -8.36,4.61 -19.35,-0.48 -23.93,-11.08 -1.71,-3.95 -3.35,-5.9 -4.46,-5.28 -3.77,2.08 -13.45,-0.96 -15.61,-4.89 -2.57,-4.66 -1.31,-11.8 2.44,-13.86 4.04,-2.23 11.14,0.89 12.01,5.27 0.88,4.45 -2.39,4.87 -4.74,0.6 -2.01,-3.64 -7.68,-1.1 -7.1,3.17 0.68,5.02 6.43,7.31 11.43,4.56 2.51,-1.39 4.23,-3.16 3.8,-3.93 -0.43,-0.78 0.81,-4.21 2.76,-7.63 3.14,-5.53 3.14,-6.56 -0.06,-9.27 -1.97,-1.67 -5.27,-6.06 -7.3,-9.75 -2.81,-5.1 -4.79,-6.84 -8.23,-7.19 -8.27,-0.86 -9.96,7.64 -1.71,8.68 4.2,0.52 5.61,5.92 2.06,7.88 -6.34,3.49 -17.91,-5.8 -15.87,-12.75 0.6,-2.06 -0.3,-3.61 -3.6,-6.24 -6.14,-4.88 -6.18,-11.37 -0.09,-13.86 4.71,-1.93 9.19,1.38 7.88,5.83 -0.52,1.79 -1.77,1.67 -4.23,-0.39 -3.04,-2.55 -3.43,-2.5 -3.09,0.37 0.67,5.74 4.32,7.12 10.22,3.87 3.67,-2.02 7.29,-2.51 10.84,-1.47l5.33 1.57 3.95 -6.09c3.22,-4.97 3.46,-6.89 1.3,-10.45 -3.7,-6.08 -0.88,-10.97 5.48,-9.49 2.62,0.6 5.56,2.56 6.54,4.34 1.04,1.88 3.59,3.06 6.1,2.83 2.37,-0.22 4.89,0.63 5.58,1.9 1.01,1.84 -0.58,3.19 -7.9,6.67 -8.39,4.02 -9.33,4.98 -11.26,11.56 -2.2,7.48 0.59,15.78 6.33,18.84 2.31,1.23 2.5,0.98 1.15,-1.51 -2.2,-4.06 0.47,-13.39 4.45,-15.58 6.17,-3.4 12.46,-1.33 16.12,5.31 3.55,6.44 8.5,7.71 10.01,2.57 0.6,-2.02 -0.1,-2.21 -2.73,-0.76 -2.14,1.18 -3.7,1.04 -3.94,-0.33 -0.22,-1.26 1.27,-3.2 3.33,-4.34 4.78,-2.64 9.76,3.1 7.28,8.39 -2.28,4.83 -4.82,5.93 -9.96,4.29 -2.41,-0.77 -6.2,-0.71 -8.41,0.13 -5.72,2.17 -8.47,-1.03 -3.32,-3.86 3.37,-1.85 3.68,-2.82 1.71,-5.44 -3.39,-4.5 -11.23,-1.19 -11.18,4.72 0.06,6.36 6.96,11.09 15.43,10.55 9.78,-0.62 20.01,-8.18 32.84,-24.27 5.78,-7.25 13.72,-17.23 17.64,-22.18 4.23,-5.32 11.24,-11.65 17.2,-15.52 9.91,-6.43 10,-6.55 5.65,-8.04 -11.91,-4.06 -21.76,-1.86 -18.46,4.12 1,1.82 1.54,1.68 2.48,-0.68 1.42,-3.57 4.93,-2.35 5.51,1.91 0.6,4.4 -5.59,6.49 -9.85,3.34 -3.16,-2.33 -3.68,-3.65 -2.83,-7.15 0.98,-4.09 0.64,-4.23 -7.49,-3.07 -4.69,0.66 -9.33,2.18 -10.34,3.36 -2.53,2.99 -1.54,8.01 1.96,9.93 3.26,1.79 5.69,-0.48 3.33,-3.1 -0.83,-0.92 -0.49,-2.24 0.75,-2.92 1.25,-0.69 3.05,-0.55 4.01,0.3 3.01,2.64 2.08,8.35 -1.69,10.43 -5.4,2.98 -9.64,0.55 -12.65,-7.23 -2.56,-6.59 -2.68,-6.65 -6.19,-3.49 -9.92,8.95 -14.57,29.34 -7.71,33.77 4.48,2.88 8.65,1.88 9.91,-2.37 0.81,-2.79 0.28,-4.13 -2.31,-5.8 -2.62,-1.69 -3.07,-2.92 -2.02,-5.55 1.14,-2.87 1.99,-3.14 5.54,-1.76 2.64,1.02 5.58,0.64 7.94,-1.04 6.61,-4.7 14.24,1.85 9.15,7.85 -2.63,3.1 -4.91,2.12 -4.16,-1.78 0.4,-2.04 -0.12,-3.25 -1.41,-3.32 -2.1,-0.09 -2.57,1.26 -4.07,11.62 -1.17,8.11 -10.45,13.51 -19.01,11.06 -3.23,-0.92 -6.46,-2.74 -7.18,-4.05 -0.73,-1.33 -2.63,-1.64 -4.34,-0.69 -4.47,2.46 -9.79,-1.49 -8.4,-6.24 1.39,-4.73 3.6,-6.01 5.24,-3.03 0.7,1.27 0.53,2.71 -0.37,3.21 -0.89,0.49 -0.83,1.35 0.17,1.91 3.12,1.75 4.69,-0.41 3.52,-4.87 -0.63,-2.37 0.39,-8.8 2.24,-14.29 1.85,-5.48 3.24,-10.22 3.08,-10.51 -0.16,-0.29 -3.84,0.85 -8.17,2.55 -9.21,3.6 -28.19,5.16 -38.34,3.17 -3.91,-0.76 -8.52,-0.61 -10.25,0.34 -7.5,4.13 -4.88,17.01 2.86,14.06 2.85,-1.08 3.33,-2.19 2,-4.6 -1.99,-3.61 0.39,-5.81 3.48,-3.21 3.25,2.72 2.46,9.81 -1.32,11.85 -4.68,2.51 -7.7,2.14 -12.07,-1.55 -4.76,-4.03 -5.16,-11.01 -0.94,-16.86 2.61,-3.62 2.58,-4.91 -0.16,-7.91 -4.63,-5.06 -5.46,-5.39 -8.96,-3.46 -2.14,1.18 -2.49,2.47 -1.11,4.11 1.1,1.33 2.97,1.87 4.17,1.21 1.2,-0.66 2.98,-0.45 3.97,0.46 3.23,2.97 -6.88,5.66 -10.27,2.73 -4.06,-3.51 -3.09,-11.03 1.77,-13.7 2.55,-1.4 3.31,-2.96 2.33,-4.79 -0.8,-1.48 -1.06,-4.84 -0.57,-7.44 2,-10.96 10.69,-17.3 21.76,-15.86 3.93,0.51 7.91,0.01 8.85,-1.1 1.96,-2.32 -0.39,-7.6 -3.46,-7.75 -1.14,-0.05 -1.26,1.38 -0.26,3.19 1.08,1.95 0.88,3.46 -0.47,3.71 -3,0.57 -6.54,-3.76 -5.63,-6.86 1.08,-3.68 9.16,-5.12 12.26,-2.19 3.15,2.99 3.02,12.24 -0.19,14.01 -1.16,0.64 -1.54,3.33 -0.85,5.97 1.63,6.19 0.12,12.45 -3.5,14.44 -3.49,1.92 -6.56,-2.84 -4.77,-7.39 2.22,-5.59 -2.01,-9.37 -8.89,-7.96 -2.99,0.62 -4.5,2.4 -5.8,6.84 -2,6.82 -0.82,10.73 2.17,7.19 1.09,-1.29 3.37,-2.08 5.07,-1.76 3.93,0.74 8.13,7.98 4.95,8.53 -1.27,0.21 -2.75,-0.94 -3.29,-2.57 -0.62,-1.84 -1.62,-2.28 -2.66,-1.16 -3.63,3.9 0.46,7.81 11.1,10.6 5.97,1.57 11.49,2.5 12.27,2.07 0.77,-0.43 0.22,-2.79 -1.22,-5.26 -3.24,-5.49 -2.41,-10.74 2.07,-13.21 6.4,-3.52 13.26,1.62 10.71,8.02 -1.8,4.55 -5.51,3.8 -5.23,-1.04 0.29,-4.91 -2.61,-6.01 -4.35,-1.64 -2.36,5.95 3.39,11.05 12.29,10.9 2.36,-0.04 8.6,-1.84 13.88,-3.99l9.6 -3.92 -10.48 -3.72c-13.44,-4.78 -18.9,-9.91 -24.85,-23.27 -5.44,-12.22 -12.1,-19.56 -20.14,-22.19 -6.28,-2.05 -14.27,1.09 -12.22,4.8 0.71,1.29 2.64,1.54 4.4,0.57 3.85,-2.12 8.26,1.17 6.37,4.75 -0.75,1.43 -3.55,3.47 -6.21,4.51 -2.65,1.05 -6.11,3.8 -7.66,6.11 -2.35,3.5 -3.55,4.15 -7.11,3.84 -5.22,-0.41 -8.35,-3.82 -7.5,-8.18 0.98,-5.02 6.13,-7.03 8.22,-3.23 1.24,2.25 0.92,3.36 -1.03,3.64 -1.71,0.23 -2.32,1.28 -1.56,2.65 0.68,1.23 2.15,1.75 3.25,1.14 3.26,-1.8 3.86,-6.53 1.38,-11.02 -1.41,-2.56 -1.5,-6.06 -0.22,-9.04 1.63,-3.82 1.34,-5.82 -1.38,-9.4 -4.08,-5.35 -3.56,-10.46 1.33,-13.15 4.52,-2.49 9.47,-0.5 10.39,4.17 0.89,4.51 -3.22,7.27 -4.77,3.24 -0.61,-1.59 -1.92,-2.7 -2.89,-2.47 -0.99,0.23 -1.06,2.24 -0.19,4.46 1.34,3.39 2.98,3.91 10.2,3.26 7.35,-0.66 9.97,0.22 17.99,6 9.24,6.68 9.41,6.71 11.72,2.4 3.95,-7.4 14.34,-11.82 26.01,-11.08 5.66,0.36 11.76,-0.14 13.54,-1.12 6.4,-3.53 6.11,-14.13 -0.44,-15.36 -5.63,-1.06 -7.87,0.79 -5.79,4.79 1.46,2.82 1.16,4.35 -1.08,5.59 -2.57,1.42 -3.65,0.68 -6.45,-4.4 -2.9,-5.27 -2.89,-6.62 0.08,-9.93 5.13,-5.71 12.52,-6.3 19.34,-1.55 4.58,3.2 5.96,5.13 6.52,9.18 0.54,3.94 1.53,5.44 4.23,6.42 7.84,2.86 10.48,10.46 4.73,13.62 -3.76,2.07 -4.62,0.78 -2.51,-3.78 1.46,-3.16 1.27,-3.58 -2.18,-4.6 -3.07,-0.9 -4.47,-0.32 -7.28,2.97 -1.92,2.25 -5.59,4.72 -8.15,5.47 -4.13,1.23 -4.48,1.98 -3.01,6.63 2.17,6.91 -0.83,16.97 -5.61,18.77 -5.5,2.1 -7.52,-2.03 -3.86,-7.91 2.54,-4.09 2.65,-6.23 0.5,-10.12 -3.06,-5.56 -9.55,-8.5 -13.7,-6.21 -2.51,1.38 -2.35,1.79 1.74,4.5 3.76,2.49 4.43,3.66 4.13,7.22 -0.44,5.36 -4.95,8.91 -9.22,7.26 -4.03,-1.57 -4.91,-6.43 -1.5,-8.3 1.61,-0.89 2.67,-0.38 2.91,1.4 0.23,1.7 1.27,2.3 2.65,1.54 2.97,-1.64 0.88,-5.31 -3.49,-6.13 -5.86,-1.1 -9.35,5.69 -7.28,14.18 2.07,8.5 3.21,9.29 6.4,4.42 3.58,-5.48 9.31,-5.87 11.36,-0.8 0.94,2.33 0.94,5.06 -0.01,6.07 -1.26,1.34 -1.93,0.76 -2.5,-2.16 -0.63,-3.24 -1.27,-3.59 -3.35,-1.88 -3.43,2.83 -0.26,10.2 5.75,13.36 4.24,2.23 28.61,5.39 31.07,4.03 0.54,-0.3 -0.77,-3.58 -2.89,-7.29 -4.02,-6.99 -8.96,-10.18 -12.64,-8.15 -2.54,1.4 -1.47,4.02 1.71,4.17 1.56,0.07 2.03,0.87 1.52,2.6 -1.04,3.55 -7.56,2.02 -9.09,-2.14 -1.74,-4.74 2.9,-9.27 9.71,-9.46 4.36,-0.12 5.57,-0.67 5.26,-2.41 -0.66,-3.64 3.19,-13.52 6.45,-16.55 4.24,-3.92 13.18,-4.03 18.56,-0.2 3.95,2.81 4.61,4.11 4.92,9.77 0.21,3.59 -0.29,6.89 -1.09,7.33 -0.81,0.44 -1.95,2.49 -2.56,4.55 -0.83,2.83 -0.3,4.25 2.13,5.82 3.35,2.17 8.4,0.75 6.91,-1.94 -0.47,-0.85 -1.54,-1.16 -2.39,-0.68 -0.85,0.47 -2.12,-0.18 -2.82,-1.45 -1.52,-2.76 1.63,-4.84 5.62,-3.7 4.43,1.27 5.26,4.3 2.55,9.38 -2.3,4.3 -2.87,4.61 -7.73,4.26 -3.34,-0.24 -6.04,-1.81 -7.42,-4.32 -1.2,-2.19 -4.32,-4.32 -6.99,-4.78 -6.3,-1.11 -5.94,-4.87 0.82,-8.59 5.99,-3.3 6.6,-7.82 1.33,-9.86 -11.64,-4.53 -13.45,18.35 -2.35,29.86 1.63,1.69 7.14,2.94 13.21,2.99 5.73,0.06 13.31,0.82 16.84,1.7l6.42 1.6 -19.35 -35.12c-25.45,-46.19 -38.55,-61.52 -61.03,-71.39 -18.72,-8.23 -34.51,-6.06 -42.94,5.89 -5,7.08 -6.52,18.58 -3.25,24.51 2.9,5.26 13.34,10.64 20.6,10.6 5.18,-0.03 5.64,-0.33 6.18,-4.24 0.44,-3.12 -0.1,-4.39 -2.05,-4.88 -1.85,-0.47 -2.53,0.03 -2.28,1.65 0.4,2.66 -3.64,5.43 -4.82,3.29 -0.82,-1.49 0.84,-8.61 2.18,-9.35 3.08,-1.7 8.83,0.07 10.57,3.24 2.54,4.6 5.08,3.61 5.04,-1.95 -0.1,-10.11 -9.66,-13.73 -14.66,-5.55 -4.66,7.64 -11.6,6.26 -8.45,-1.69 0.86,-2.16 0.23,-4.5 -1.84,-6.86 -3.68,-4.18 -1.96,-11.76 3.04,-13.38 3.59,-1.17 8.12,5.35 5.6,8.06 -0.94,1 -2.31,0.36 -3.39,-1.59 -1,-1.81 -2.27,-2.47 -2.84,-1.48 -0.56,0.99 -0.33,3.05 0.52,4.58 1.12,2.03 3.25,2.16 7.97,0.45 7.54,-2.72 13.22,-1.22 18.33,4.82 2.88,3.39 4.47,3.91 7.29,2.35 4.21,-2.32 5.01,-9.65 1.08,-9.83 -1.35,-0.06 -2.29,0.85 -2.08,2.03 0.54,2.96 -2.19,4.16 -3.61,1.58 -2.09,-3.79 0.79,-8.21 5.38,-8.28 8.98,-0.14 10.24,12.83 1.75,17.88 -7.02,4.18 -8.93,12.72 -4.19,18.75 3.81,4.84 2.75,9.26 -1.85,7.79 -2.17,-0.7 -2.47,-1.34 -1.29,-2.69 2.9,-3.33 -1.72,-3.63 -7.47,-0.51 -13.23,7.2 -29.17,4.16 -38.31,-7.3 -2.61,-3.27 -5.44,-5.61 -6.29,-5.2 -8.08,3.94 -15.68,-0.34 -16.33,-9.19 -0.42,-5.71 5.84,-9.12 9.25,-5.02 1.72,2.07 1.37,2.8 -1.66,3.57 -3.29,0.84 -3.44,1.5 -1.08,4.81 4.12,5.79 9.94,2.87 9.13,-4.59 -0.34,-3.17 0.61,-9.16 2.13,-13.3l2.75 -7.53 -5.3 -3.11c-2.93,-1.72 -6.2,-2.37 -7.29,-1.47 -2.51,2.09 -1.89,6.29 0.66,4.5 3.03,-2.14 5.1,0.27 3.19,3.7 -1.35,2.42 -2.65,2.89 -5.64,2.04 -4.88,-1.4 -6.37,-7.68 -2.91,-12.31 1.74,-2.33 1.75,-4.86 0.04,-8.27 -2.94,-5.84 0.03,-15.55 5.71,-18.68 4.9,-2.7 13.25,-0.28 15,4.34 1.83,4.86 -2.87,8.62 -6.29,5.04 -3.69,-3.87 -8.65,-0.61 -7.24,4.78 1.35,5.14 9.81,10.67 17.22,11.25 4.84,0.37 4.91,0.29 2,-2.47 -3.55,-3.37 -3.02,-8.67 1.1,-10.94 3.24,-1.78 8.39,0.99 9.01,4.85 0.31,1.91 -0.84,2.02 -4.47,0.46 -3.7,-1.6 -4.56,-1.5 -3.54,0.41 1.61,3.03 5.02,3.7 12.38,2.43 3.04,-0.52 6.99,-1.13 8.78,-1.35 2.1,-0.26 -1.19,-2.68 -9.18,-6.77 -13.78,-7.06 -19.11,-12.45 -23.43,-23.71 -1.79,-4.66 -3.99,-7.98 -5.78,-8.67 -3.84,-1.49 -9.99,2.05 -9.53,5.47 0.45,3.38 3.31,3.67 5.89,0.61 2.42,-2.85 4.03,-0.32 2.4,3.79 -1.79,4.5 -8.93,4.15 -11.53,-0.56 -4.17,-7.57 4.53,-15.97 13.79,-13.32 4.74,1.35 5.65,-0.68 5.9,-13.16 0.31,-15.36 -5.66,-23.44 -11.89,-16.09 -1.49,1.75 -1.1,2.68 2.08,5.04 3.54,2.62 3.65,3.7 1.12,11.46 -1.53,4.71 -4.08,9.27 -5.66,10.14 -3.26,1.8 -9.87,0.38 -11.43,-2.46 -1.9,-3.45 -0.07,-9.65 3.15,-10.69 4.52,-1.46 7.26,1.72 3.35,3.88 -1.84,1.01 -2.68,2.77 -1.96,4.08 1.72,3.12 7.3,-0.2 7.34,-4.37 0.01,-1.84 -1.75,-5.76 -3.93,-8.71 -3.25,-4.38 -3.64,-6.38 -2.14,-10.99 1.49,-4.61 1.08,-6.71 -2.25,-11.51 -4.79,-6.93 -3.8,-11.41 3.14,-14.26 3.57,-1.47 5.21,-1.06 7.26,1.82 2.93,4.11 1.49,10.18 -2.36,10 -1.78,-0.08 -1.99,-1.13 -0.76,-3.76 1.29,-2.76 1.04,-3.84 -1.05,-4.44 -2.08,-0.6 -3.08,0.02 -4.06,2.48 -1.73,4.34 0.61,8.27 5.66,9.52 2.24,0.55 6.42,1.56 9.29,2.23 3.7,0.88 6.16,2.96 8.5,7.2 2.8,5.08 3.94,5.8 7.65,4.81 7.94,-2.1 13.94,8.95 6.22,11.45 -3.87,1.26 -7.23,-1.7 -3.99,-3.49 3.21,-1.77 1.79,-4.21 -2.13,-3.65 -1.69,0.23 -3.07,0.67 -3.08,0.98 -0.01,0.31 0.23,2.93 0.49,5.84 0.44,4.56 0.95,5.21 3.73,4.75 4.8,-0.8 11.01,0.82 12.33,3.22 1.8,3.27 -2.01,6.48 -6.26,5.26 -5.18,-1.47 -9.5,1.21 -11.18,6.97 -2.03,6.91 3.62,16.17 13.82,22.65l8.26 5.24 -0.48 -11.86c-0.48,-11.7 -0.54,-11.89 -5.07,-13.17 -3.42,-0.98 -4.95,-0.58 -6.02,1.57 -1.08,2.17 -0.85,2.8 0.92,2.59 3.12,-0.37 5.32,3.76 2.75,5.17 -2.54,1.4 -7.42,0.06 -8.79,-2.41 -1.63,-2.96 0.83,-9.21 4.41,-11.18 4.29,-2.36 11.26,-0.62 13.48,3.39 1.09,1.96 4.15,3.23 7.85,3.27 3.33,0.04 6.66,1.16 7.39,2.49 1.71,3.1 -1.68,7.17 -5.15,6.18 -4.23,-1.2 -5.29,4.13 -2.01,10.08 2.57,4.67 3.19,4.92 5.93,2.38 4.18,-3.87 12.65,-1.19 12.34,3.89 -0.26,4.09 -5.05,7.3 -7.51,5.03 -0.94,-0.86 -0.6,-2.18 0.74,-2.92 1.35,-0.74 2.07,-2.04 1.6,-2.87 -1.36,-2.48 -5.62,0.79 -5.19,3.97 0.22,1.6 5.78,6.87 12.36,11.7 6.58,4.84 12.89,9.64 14.04,10.66 1.13,1.02 -7.21,-15.1 -18.54,-35.84 -22.41,-40.97 -27.86,-48.19 -47.03,-62.13 -8.76,-6.37 -15.68,-16.08 -13.79,-19.39 0.64,-1.11 -1.52,-2.83 -5.39,-4.31 -3.55,-1.35 -6.8,-3.1 -7.22,-3.87 -0.43,-0.78 -1.92,-0.8 -3.29,-0.04 -2.07,1.14 -1.94,1.6 0.73,2.65 4.2,1.63 3.33,4.61 -1.26,4.36 -5.01,-0.28 -7.22,-5.38 -4.09,-9.44 1.45,-1.89 2.03,-4.54 1.28,-5.9 -1.62,-2.94 0.13,-8.21 5.16,-15.55 2.76,-4.02 3.1,-6.18 1.36,-8.49 -1.28,-1.71 -2.91,-2.5 -3.62,-1.77 -0.7,0.73 -0.57,2.17 0.3,3.19 2.56,3.02 -0.15,5.54 -3.59,3.33 -4.44,-2.87 -3.39,-9.05 1.89,-11.07 3.34,-1.27 4.71,-0.6 7.57,3.7 2.22,3.33 3.03,6.41 2.22,8.45 -1.02,2.55 -0.58,3.58 2.15,5.09 5.01,2.78 3.37,7.95 -2.43,7.65 -3.73,-0.18 -3.88,0.2 -1.63,4.28 1.72,3.12 4.58,4.89 9.42,5.83 3.82,0.74 7.58,1 8.37,0.57 1.92,-1.06 -19.57,-39.89 -22.55,-40.74 -1.28,-0.37 -4.65,-2.75 -7.48,-5.28l-5.14 -4.62 7.22 163.56c3.97,89.96 8.25,169.3 9.5,176.31 1.89,10.57 4.02,15.89 12.43,31.16 11.81,21.44 13.74,23.11 48.01,41.56 7.37,3.96 13.13,7.16 17.9,10.16l-16.31 0zm196.92 -233.02l0 6.23c-3.79,1.14 -9.21,-1.78 -9.74,-5.63 -0.54,-3.99 2.6,-4.84 4.59,-1.23 1.33,2.41 2.52,2.6 4.96,0.77 0.06,-0.05 0.12,-0.1 0.19,-0.15zm0 17.25l0 8.01c-3.9,-0.7 -6.02,0.29 -12.27,4.22 -6.87,4.32 -8.85,4.95 -9.86,3.1 -0.69,-1.26 -0.08,-3.84 1.38,-5.73 1.53,-2 1.89,-4.78 0.85,-6.67 -0.98,-1.78 -1.05,-5.31 -0.17,-7.85 2.15,-6.16 7.8,-5.94 10.96,0.44 1.8,3.64 3.51,4.52 9.11,4.48zm0 19.43l0 5.9c-1.58,1.2 -2.65,2.97 -2.63,5.01 0.03,2.91 0.79,4.23 2.63,4.1l0 12.62c-1.43,3.55 -3.76,4.6 -8.27,4.03 -5.8,-0.72 -7.99,-7.99 -3.2,-10.63 2.06,-1.13 4.51,-1.35 5.44,-0.5 1.03,0.95 0.31,2.33 -1.83,3.51 -2.63,1.45 -2.84,2.13 -0.82,2.71 5.16,1.47 6.73,-3.39 3.18,-9.84 -3.61,-6.54 -2.05,-13.05 3.92,-16.34 0.47,-0.26 1,-0.45 1.59,-0.59zm0 50.69l0 5.5c-0.63,0.3 -1.06,0.85 -1.29,1.64 -0.36,1.22 0.26,2.12 1.29,2.62l0 5.14c-6.96,-2.64 -8.51,-11.16 -2.47,-14.48 0.67,-0.37 1.55,-0.49 2.47,-0.41zm-144.1 145.65l-16.6 0c-0.93,-1.87 -2.19,-2.94 -3.69,-3.01 -2.8,-0.13 -3.28,1.64 -1.48,3.01l-5.29 0c0.59,-5.21 6.79,-7.74 11.49,-4.52 2.22,1.53 5.43,2.11 7.13,1.28 7.76,-3.72 12.18,-1.27 8.44,3.24zm88.97 -20.99c-3.99,-1.55 -3.91,-5.01 0.16,-7.25 2.31,-1.27 3.45,-0.78 4.45,1.89 1.68,4.51 -0.45,6.98 -4.62,5.36zm23.21 -11.28c-3.5,-1 -4.62,-6.12 -1.69,-7.74 3.94,-2.17 6.92,-0.37 6.12,3.72 -0.7,3.57 -1.97,4.72 -4.43,4.02zm-52.63 9.32c-0.64,-1.16 -2.1,-2.16 -3.24,-2.21 -1.18,-0.06 -1.11,1.63 0.15,3.91 1.26,2.29 2.65,3.25 3.23,2.22 0.57,-0.99 0.5,-2.75 -0.14,-3.92zm74.04 -41.18c-1.7,-3.09 -2.49,-3.45 -3.08,-1.44 -0.44,1.49 0.23,3.56 1.46,4.6 3.43,2.88 4.16,1.45 1.62,-3.16zm-90.32 29.92c-3.39,-6.15 -4.03,-6.54 -7.57,-4.59 -3.59,1.98 -3.58,2.65 0.24,9.59 3.93,7.13 4.27,7.33 7.57,4.59 3.06,-2.54 3.04,-3.63 -0.24,-9.59zm94.82 -51c-3.95,-7.16 -4.48,-7.53 -8.09,-5.55 -3.54,1.95 -3.56,2.69 -0.12,8.93 3.21,5.83 4.29,6.62 7.59,5.54 2.11,-0.69 4.07,-1.25 4.34,-1.25 0.28,0 -1.4,-3.45 -3.72,-7.67l-0 -0zm-69.77 36.13c4.14,-5.54 8.67,-9.34 15.85,-13.3 7.17,-3.95 12.81,-5.75 19.71,-6.29 5.32,-0.41 13.18,-2.17 17.49,-3.92l7.82 -3.16 -3.02 -5.47c-2.95,-5.35 -3.25,-5.43 -13.31,-3.13 -12.33,2.82 -21.59,2.74 -33.4,-0.28l-8.8 -2.25 -2.8 8.64c-3.76,11.6 -8.63,19.47 -17.61,28.39 -7.31,7.27 -7.42,7.58 -4.47,12.93l3.02 5.47 6.86 -4.93c3.77,-2.7 9.47,-8.41 12.66,-12.68l0 -0zm-13.17 5.46c-2.77,-1.55 -1.6,-4.18 1.48,-3.31 1.71,0.49 2.22,1.33 1.52,2.57 -0.57,1.01 -1.92,1.34 -2.99,0.74zm57.57 -31.3c-1.01,-0.57 -1.33,-1.9 -0.72,-2.97 1.57,-2.76 4.21,-1.61 3.31,1.45 -0.51,1.71 -1.35,2.21 -2.58,1.53l-0 -0.01 -0 -0zm-50.14 22.03c-2.23,-0.63 -1.69,-3.79 0.89,-5.21 1.22,-0.67 2.8,-0.19 3.5,1.08 1.27,2.31 -1.52,4.95 -4.38,4.13l-0 -0zm35.3 -21.17c-0.87,-1.58 -0.27,-2.89 1.6,-3.5 3.6,-1.18 4.89,1.67 1.92,4.21 -1.24,1.06 -2.71,0.77 -3.52,-0.7l0 -0zm-27.63 10.22c-2.44,-1.37 -2.08,-4.85 0.65,-6.35 1.22,-0.68 2.99,0.15 3.92,1.84 1.75,3.17 -1.39,6.29 -4.57,4.51zm13.85 -9.62c-1.28,-2.32 -0.92,-3.59 1.17,-4.27 1.65,-0.53 3.55,0.04 4.24,1.29 0.68,1.24 0.15,3.16 -1.18,4.27 -1.69,1.41 -2.96,1.03 -4.24,-1.29zm-31.87 8.61c2.85,-4.23 6.26,-10.38 7.58,-13.68 2.34,-5.8 2.28,-6.01 -1.9,-6.98 -4.1,-0.95 -4.76,-0.1 -13.38,17.14 -4.99,9.99 -9.22,18.71 -9.41,19.38 -0.9,3.36 12.61,-9.17 17.11,-15.87l-0 0zm69.22 -31.96c-0.54,-0.12 -10.06,-1.14 -21.17,-2.26 -19.2,-1.92 -20.27,-1.82 -21.65,2.16 -1.41,4.05 -1.26,4.21 4.89,5.33 7.23,1.31 20.11,1.23 26.77,-0.18 4.76,-1.01 12.8,-4.65 11.16,-5.05l0 -0zm-131.44 61.18c3.59,-1.98 4.86,-0.66 3.69,3.82 -0.66,2.5 -0.44,2.72 1.12,1.12 3.66,-3.75 0.1,-7.99 -8.97,-10.7 -7.62,-2.28 -9.31,-3.54 -11.31,-8.45 -3.16,-7.76 -5.2,-3.07 -2.85,6.56 1.41,5.81 2.8,7.71 8.98,12.33 6.76,5.03 7.27,5.13 6.76,1.25 -0.33,-2.44 0.76,-4.92 2.59,-5.92l-0 -0zm74.67 -69.42c4.48,1.69 4.89,1.58 3.46,-0.92 -2.04,-3.55 -8.05,-6.28 -10.67,-4.84 -2.61,1.44 -3.52,7.98 -1.61,11.6 1.35,2.54 1.66,2.26 2.62,-2.44l1.09 -5.33 5.09 1.92zm-12.2 -8.75c1.68,-4.23 5.63,-3.98 14.24,0.9l5.37 3.05 -3.1 -5.64c-2.34,-4.26 -4.91,-6.16 -10.46,-7.75 -4.05,-1.15 -7.95,-1.77 -8.67,-1.38 -0.72,0.39 -2.28,4.03 -3.46,8.06 -1.63,5.54 -1.39,8.73 0.95,12.98l3.11 5.63 0.3 -6.17c0.17,-3.39 0.93,-7.75 1.71,-9.68l-0.01 0zm-121.84 6.85c-0.94,-1.7 -2.72,-2.5 -4.01,-1.79 -2.61,1.44 -2.55,1.77 0.66,4.47 3.22,2.7 5.36,0.98 3.35,-2.68l-0 -0zm201.93 -110.41c-0.56,-4.16 -0.83,-4.38 -3.42,-2.95 -1.29,0.71 -1.56,2.64 -0.62,4.35 2.01,3.66 4.62,2.77 4.05,-1.4l0 0z"/>
  </g>
 </g>
</svg>
